G04 #@! TF.GenerationSoftware,KiCad,Pcbnew,7.0.5*
G04 #@! TF.CreationDate,2025-03-16T21:08:26-05:00*
G04 #@! TF.ProjectId,DSKY_led_display,44534b59-5f6c-4656-945f-646973706c61,V7*
G04 #@! TF.SameCoordinates,Original*
G04 #@! TF.FileFunction,Copper,L4,Bot*
G04 #@! TF.FilePolarity,Positive*
%FSLAX46Y46*%
G04 Gerber Fmt 4.6, Leading zero omitted, Abs format (unit mm)*
G04 Created by KiCad (PCBNEW 7.0.5) date 2025-03-16 21:08:26*
%MOMM*%
%LPD*%
G01*
G04 APERTURE LIST*
G04 Aperture macros list*
%AMRoundRect*
0 Rectangle with rounded corners*
0 $1 Rounding radius*
0 $2 $3 $4 $5 $6 $7 $8 $9 X,Y pos of 4 corners*
0 Add a 4 corners polygon primitive as box body*
4,1,4,$2,$3,$4,$5,$6,$7,$8,$9,$2,$3,0*
0 Add four circle primitives for the rounded corners*
1,1,$1+$1,$2,$3*
1,1,$1+$1,$4,$5*
1,1,$1+$1,$6,$7*
1,1,$1+$1,$8,$9*
0 Add four rect primitives between the rounded corners*
20,1,$1+$1,$2,$3,$4,$5,0*
20,1,$1+$1,$4,$5,$6,$7,0*
20,1,$1+$1,$6,$7,$8,$9,0*
20,1,$1+$1,$8,$9,$2,$3,0*%
G04 Aperture macros list end*
G04 #@! TA.AperFunction,ComponentPad*
%ADD10O,1.100000X1.700000*%
G04 #@! TD*
G04 #@! TA.AperFunction,ComponentPad*
%ADD11O,1.100000X2.100000*%
G04 #@! TD*
G04 #@! TA.AperFunction,SMDPad,CuDef*
%ADD12RoundRect,0.243750X-0.243750X-0.456250X0.243750X-0.456250X0.243750X0.456250X-0.243750X0.456250X0*%
G04 #@! TD*
G04 #@! TA.AperFunction,SMDPad,CuDef*
%ADD13RoundRect,0.243750X-0.503791X0.117358X-0.377617X-0.353531X0.503791X-0.117358X0.377617X0.353531X0*%
G04 #@! TD*
G04 #@! TA.AperFunction,SMDPad,CuDef*
%ADD14RoundRect,0.243750X0.503791X-0.117358X0.377617X0.353531X-0.503791X0.117358X-0.377617X-0.353531X0*%
G04 #@! TD*
G04 #@! TA.AperFunction,SMDPad,CuDef*
%ADD15RoundRect,0.243750X0.456250X-0.243750X0.456250X0.243750X-0.456250X0.243750X-0.456250X-0.243750X0*%
G04 #@! TD*
G04 #@! TA.AperFunction,ViaPad*
%ADD16C,0.600000*%
G04 #@! TD*
G04 #@! TA.AperFunction,Conductor*
%ADD17C,0.200000*%
G04 #@! TD*
G04 #@! TA.AperFunction,Conductor*
%ADD18C,0.400000*%
G04 #@! TD*
G04 APERTURE END LIST*
D10*
G04 #@! TO.P,J1,S1*
G04 #@! TO.N,N/C*
X78250000Y-70200000D03*
G04 #@! TO.P,J1,S2,SHIELD*
G04 #@! TO.N,unconnected-(J1-SHIELD-PadS2)*
X78250000Y-64600000D03*
D11*
G04 #@! TO.P,J1,S3*
G04 #@! TO.N,N/C*
X80400000Y-67400000D03*
G04 #@! TD*
D12*
G04 #@! TO.P,D3,1,K*
G04 #@! TO.N,g0bus0*
X90604100Y-38862000D03*
G04 #@! TO.P,D3,2,A*
G04 #@! TO.N,VCC*
X92479100Y-38862000D03*
G04 #@! TD*
G04 #@! TO.P,D4,1,K*
G04 #@! TO.N,g0bus2*
X76278500Y-38862000D03*
G04 #@! TO.P,D4,2,A*
G04 #@! TO.N,VCC*
X78153500Y-38862000D03*
G04 #@! TD*
G04 #@! TO.P,D5,1,K*
G04 #@! TO.N,g1bus0*
X48236900Y-36830000D03*
G04 #@! TO.P,D5,2,A*
G04 #@! TO.N,VCC*
X50111900Y-36830000D03*
G04 #@! TD*
G04 #@! TO.P,D6,1,K*
G04 #@! TO.N,g1bus3*
X40058100Y-36830000D03*
G04 #@! TO.P,D6,2,A*
G04 #@! TO.N,VCC*
X41933100Y-36830000D03*
G04 #@! TD*
G04 #@! TO.P,D7,1,K*
G04 #@! TO.N,g0bus3*
X83644500Y-43332400D03*
G04 #@! TO.P,D7,2,A*
G04 #@! TO.N,VCC*
X85519500Y-43332400D03*
G04 #@! TD*
G04 #@! TO.P,D8,1,K*
G04 #@! TO.N,g1bus1*
X53113700Y-39979600D03*
G04 #@! TO.P,D8,2,A*
G04 #@! TO.N,VCC*
X54988700Y-39979600D03*
G04 #@! TD*
G04 #@! TO.P,D9,1,K*
G04 #@! TO.N,g1bus2*
X43715700Y-39979600D03*
G04 #@! TO.P,D9,2,A*
G04 #@! TO.N,VCC*
X45590700Y-39979600D03*
G04 #@! TD*
G04 #@! TO.P,D10,1,K*
G04 #@! TO.N,g0bus1*
X90604100Y-47040800D03*
G04 #@! TO.P,D10,2,A*
G04 #@! TO.N,VCC*
X92479100Y-47040800D03*
G04 #@! TD*
G04 #@! TO.P,D11,1,K*
G04 #@! TO.N,g0bus6*
X76278500Y-47040800D03*
G04 #@! TO.P,D11,2,A*
G04 #@! TO.N,VCC*
X78153500Y-47040800D03*
G04 #@! TD*
G04 #@! TO.P,D12,1,K*
G04 #@! TO.N,g0bus5*
X83644500Y-49631600D03*
G04 #@! TO.P,D12,2,A*
G04 #@! TO.N,VCC*
X85519500Y-49631600D03*
G04 #@! TD*
G04 #@! TO.P,D13,1,K*
G04 #@! TO.N,g0bus4*
X90604100Y-54051200D03*
G04 #@! TO.P,D13,2,A*
G04 #@! TO.N,VCC*
X92479100Y-54051200D03*
G04 #@! TD*
G04 #@! TO.P,D14,1,K*
G04 #@! TO.N,g0bus7*
X76278500Y-54051200D03*
G04 #@! TO.P,D14,2,A*
G04 #@! TO.N,VCC*
X78153500Y-54051200D03*
G04 #@! TD*
G04 #@! TO.P,D15,1,K*
G04 #@! TO.N,dbus0*
X50472100Y-43789600D03*
G04 #@! TO.P,D15,2,A*
G04 #@! TO.N,VCC*
X52347100Y-43789600D03*
G04 #@! TD*
G04 #@! TO.P,D16,1,K*
G04 #@! TO.N,dbus7*
X39956500Y-43789600D03*
G04 #@! TO.P,D16,2,A*
G04 #@! TO.N,VCC*
X41831500Y-43789600D03*
G04 #@! TD*
D13*
G04 #@! TO.P,D17,1,K*
G04 #@! TO.N,dbus5*
X54824557Y-45373245D03*
G04 #@! TO.P,D17,2,A*
G04 #@! TO.N,VCC*
X55309843Y-47184355D03*
G04 #@! TD*
G04 #@! TO.P,D18,1,K*
G04 #@! TO.N,dbus12*
X44359757Y-45678045D03*
G04 #@! TO.P,D18,2,A*
G04 #@! TO.N,VCC*
X44845043Y-47489155D03*
G04 #@! TD*
G04 #@! TO.P,D19,1,K*
G04 #@! TO.N,dbus1*
X48271357Y-45932045D03*
G04 #@! TO.P,D19,2,A*
G04 #@! TO.N,VCC*
X48756643Y-47743155D03*
G04 #@! TD*
G04 #@! TO.P,D20,1,K*
G04 #@! TO.N,dbus8*
X37450957Y-45728845D03*
G04 #@! TO.P,D20,2,A*
G04 #@! TO.N,VCC*
X37936243Y-47539955D03*
G04 #@! TD*
D12*
G04 #@! TO.P,D21,1,K*
G04 #@! TO.N,dbus6*
X51488100Y-49123600D03*
G04 #@! TO.P,D21,2,A*
G04 #@! TO.N,VCC*
X53363100Y-49123600D03*
G04 #@! TD*
G04 #@! TO.P,D22,1,K*
G04 #@! TO.N,dbus13*
X41124900Y-49377600D03*
G04 #@! TO.P,D22,2,A*
G04 #@! TO.N,VCC*
X42999900Y-49377600D03*
G04 #@! TD*
D13*
G04 #@! TO.P,D23,1,K*
G04 #@! TO.N,dbus2*
X49795357Y-51367645D03*
G04 #@! TO.P,D23,2,A*
G04 #@! TO.N,VCC*
X50280643Y-53178755D03*
G04 #@! TD*
G04 #@! TO.P,D24,1,K*
G04 #@! TO.N,dbus9*
X39025757Y-51418445D03*
G04 #@! TO.P,D24,2,A*
G04 #@! TO.N,VCC*
X39511043Y-53229555D03*
G04 #@! TD*
G04 #@! TO.P,D25,1,K*
G04 #@! TO.N,dbus4*
X56399357Y-50961245D03*
G04 #@! TO.P,D25,2,A*
G04 #@! TO.N,VCC*
X56884643Y-52772355D03*
G04 #@! TD*
G04 #@! TO.P,D26,1,K*
G04 #@! TO.N,dbus11*
X45782157Y-51215245D03*
G04 #@! TO.P,D26,2,A*
G04 #@! TO.N,VCC*
X46267443Y-53026355D03*
G04 #@! TD*
D12*
G04 #@! TO.P,D27,1,K*
G04 #@! TO.N,dbus3*
X52910500Y-54914800D03*
G04 #@! TO.P,D27,2,A*
G04 #@! TO.N,VCC*
X54785500Y-54914800D03*
G04 #@! TD*
G04 #@! TO.P,D28,1,K*
G04 #@! TO.N,dbus10*
X42191700Y-54914800D03*
G04 #@! TO.P,D28,2,A*
G04 #@! TO.N,VCC*
X44066700Y-54914800D03*
G04 #@! TD*
G04 #@! TO.P,D29,1,K*
G04 #@! TO.N,g2bus0*
X85219300Y-60960000D03*
G04 #@! TO.P,D29,2,A*
G04 #@! TO.N,VCC*
X87094300Y-60960000D03*
G04 #@! TD*
G04 #@! TO.P,D30,1,K*
G04 #@! TO.N,g2bus3*
X75465700Y-60960000D03*
G04 #@! TO.P,D30,2,A*
G04 #@! TO.N,VCC*
X77340700Y-60960000D03*
G04 #@! TD*
G04 #@! TO.P,D31,1,K*
G04 #@! TO.N,g3bus0*
X49659300Y-61366400D03*
G04 #@! TO.P,D31,2,A*
G04 #@! TO.N,VCC*
X51534300Y-61366400D03*
G04 #@! TD*
G04 #@! TO.P,D32,1,K*
G04 #@! TO.N,g3bus3*
X39702500Y-61468000D03*
G04 #@! TO.P,D32,2,A*
G04 #@! TO.N,VCC*
X41577500Y-61468000D03*
G04 #@! TD*
G04 #@! TO.P,D33,1,K*
G04 #@! TO.N,g2bus1*
X90299300Y-64109600D03*
G04 #@! TO.P,D33,2,A*
G04 #@! TO.N,VCC*
X92174300Y-64109600D03*
G04 #@! TD*
G04 #@! TO.P,D34,1,K*
G04 #@! TO.N,g2bus2*
X79783700Y-64109600D03*
G04 #@! TO.P,D34,2,A*
G04 #@! TO.N,VCC*
X81658700Y-64109600D03*
G04 #@! TD*
G04 #@! TO.P,D35,1,K*
G04 #@! TO.N,g3bus1*
X54586900Y-63754000D03*
G04 #@! TO.P,D35,2,A*
G04 #@! TO.N,VCC*
X56461900Y-63754000D03*
G04 #@! TD*
G04 #@! TO.P,D36,1,K*
G04 #@! TO.N,g3bus2*
X44325300Y-63855600D03*
G04 #@! TO.P,D36,2,A*
G04 #@! TO.N,VCC*
X46200300Y-63855600D03*
G04 #@! TD*
G04 #@! TO.P,D37,1,K*
G04 #@! TO.N,ebus0*
X87454500Y-68224400D03*
G04 #@! TO.P,D37,2,A*
G04 #@! TO.N,VCC*
X89329500Y-68224400D03*
G04 #@! TD*
G04 #@! TO.P,D38,1,K*
G04 #@! TO.N,ebus7*
X77091300Y-68224400D03*
G04 #@! TO.P,D38,2,A*
G04 #@! TO.N,VCC*
X78966300Y-68224400D03*
G04 #@! TD*
G04 #@! TO.P,D39,1,K*
G04 #@! TO.N,fbus0*
X50370500Y-68224400D03*
G04 #@! TO.P,D39,2,A*
G04 #@! TO.N,VCC*
X52245500Y-68224400D03*
G04 #@! TD*
G04 #@! TO.P,D40,1,K*
G04 #@! TO.N,fbus7*
X40108900Y-68224400D03*
G04 #@! TO.P,D40,2,A*
G04 #@! TO.N,VCC*
X41983900Y-68224400D03*
G04 #@! TD*
D13*
G04 #@! TO.P,D41,1,K*
G04 #@! TO.N,ebus5*
X92010157Y-70011245D03*
G04 #@! TO.P,D41,2,A*
G04 #@! TO.N,VCC*
X92495443Y-71822355D03*
G04 #@! TD*
G04 #@! TO.P,D42,1,K*
G04 #@! TO.N,ebus12*
X81494557Y-70417645D03*
G04 #@! TO.P,D42,2,A*
G04 #@! TO.N,VCC*
X81979843Y-72228755D03*
G04 #@! TD*
G04 #@! TO.P,D43,1,K*
G04 #@! TO.N,ebus1*
X85101357Y-69604845D03*
G04 #@! TO.P,D43,2,A*
G04 #@! TO.N,VCC*
X85586643Y-71415955D03*
G04 #@! TD*
G04 #@! TO.P,D44,1,K*
G04 #@! TO.N,ebus8*
X74585757Y-69909645D03*
G04 #@! TO.P,D44,2,A*
G04 #@! TO.N,VCC*
X75071043Y-71720755D03*
G04 #@! TD*
G04 #@! TO.P,D45,1,K*
G04 #@! TO.N,fbus5*
X54926157Y-69909645D03*
G04 #@! TO.P,D45,2,A*
G04 #@! TO.N,VCC*
X55411443Y-71720755D03*
G04 #@! TD*
G04 #@! TO.P,D46,1,K*
G04 #@! TO.N,fbus12*
X44207357Y-70163645D03*
G04 #@! TO.P,D46,2,A*
G04 #@! TO.N,VCC*
X44692643Y-71974755D03*
G04 #@! TD*
G04 #@! TO.P,D47,1,K*
G04 #@! TO.N,fbus1*
X48169757Y-70062045D03*
G04 #@! TO.P,D47,2,A*
G04 #@! TO.N,VCC*
X48655043Y-71873155D03*
G04 #@! TD*
G04 #@! TO.P,D48,1,K*
G04 #@! TO.N,fbus8*
X37501757Y-69808045D03*
G04 #@! TO.P,D48,2,A*
G04 #@! TO.N,VCC*
X37987043Y-71619155D03*
G04 #@! TD*
D12*
G04 #@! TO.P,D49,1,K*
G04 #@! TO.N,ebus6*
X88724500Y-73761600D03*
G04 #@! TO.P,D49,2,A*
G04 #@! TO.N,VCC*
X90599500Y-73761600D03*
G04 #@! TD*
G04 #@! TO.P,D50,1,K*
G04 #@! TO.N,ebus13*
X78107300Y-73761600D03*
G04 #@! TO.P,D50,2,A*
G04 #@! TO.N,VCC*
X79982300Y-73761600D03*
G04 #@! TD*
G04 #@! TO.P,D51,1,K*
G04 #@! TO.N,fbus6*
X51640500Y-73761600D03*
G04 #@! TO.P,D51,2,A*
G04 #@! TO.N,VCC*
X53515500Y-73761600D03*
G04 #@! TD*
G04 #@! TO.P,D52,1,K*
G04 #@! TO.N,fbus13*
X41023300Y-73710800D03*
G04 #@! TO.P,D52,2,A*
G04 #@! TO.N,VCC*
X42898300Y-73710800D03*
G04 #@! TD*
D13*
G04 #@! TO.P,D53,1,K*
G04 #@! TO.N,ebus2*
X86726957Y-75548445D03*
G04 #@! TO.P,D53,2,A*
G04 #@! TO.N,VCC*
X87212243Y-77359555D03*
G04 #@! TD*
G04 #@! TO.P,D54,1,K*
G04 #@! TO.N,ebus9*
X76058957Y-75396045D03*
G04 #@! TO.P,D54,2,A*
G04 #@! TO.N,VCC*
X76544243Y-77207155D03*
G04 #@! TD*
G04 #@! TO.P,D55,1,K*
G04 #@! TO.N,ebus4*
X93534157Y-75396045D03*
G04 #@! TO.P,D55,2,A*
G04 #@! TO.N,VCC*
X94019443Y-77207155D03*
G04 #@! TD*
D14*
G04 #@! TO.P,D56,1,K*
G04 #@! TO.N,ebus11*
X83300643Y-77207155D03*
G04 #@! TO.P,D56,2,A*
G04 #@! TO.N,VCC*
X82815357Y-75396045D03*
G04 #@! TD*
D13*
G04 #@! TO.P,D57,1,K*
G04 #@! TO.N,fbus2*
X49541357Y-75345245D03*
G04 #@! TO.P,D57,2,A*
G04 #@! TO.N,VCC*
X50026643Y-77156355D03*
G04 #@! TD*
G04 #@! TO.P,D58,1,K*
G04 #@! TO.N,fbus9*
X38924157Y-75294445D03*
G04 #@! TO.P,D58,2,A*
G04 #@! TO.N,VCC*
X39409443Y-77105555D03*
G04 #@! TD*
G04 #@! TO.P,D59,1,K*
G04 #@! TO.N,fbus4*
X56500957Y-75548445D03*
G04 #@! TO.P,D59,2,A*
G04 #@! TO.N,VCC*
X56986243Y-77359555D03*
G04 #@! TD*
G04 #@! TO.P,D60,1,K*
G04 #@! TO.N,fbus11*
X45782157Y-75345245D03*
G04 #@! TO.P,D60,2,A*
G04 #@! TO.N,VCC*
X46267443Y-77156355D03*
G04 #@! TD*
D12*
G04 #@! TO.P,D61,1,K*
G04 #@! TO.N,ebus3*
X89892900Y-79197200D03*
G04 #@! TO.P,D61,2,A*
G04 #@! TO.N,VCC*
X91767900Y-79197200D03*
G04 #@! TD*
G04 #@! TO.P,D62,1,K*
G04 #@! TO.N,ebus10*
X79326500Y-79197200D03*
G04 #@! TO.P,D62,2,A*
G04 #@! TO.N,VCC*
X81201500Y-79197200D03*
G04 #@! TD*
G04 #@! TO.P,D63,1,K*
G04 #@! TO.N,fbus3*
X52504100Y-79197200D03*
G04 #@! TO.P,D63,2,A*
G04 #@! TO.N,VCC*
X54379100Y-79197200D03*
G04 #@! TD*
G04 #@! TO.P,D64,1,K*
G04 #@! TO.N,fbus10*
X42394900Y-79197200D03*
G04 #@! TO.P,D64,2,A*
G04 #@! TO.N,VCC*
X44269900Y-79197200D03*
G04 #@! TD*
G04 #@! TO.P,D65,1,K*
G04 #@! TO.N,g4bus0*
X81485500Y-82423000D03*
G04 #@! TO.P,D65,2,A*
G04 #@! TO.N,VCC*
X83360500Y-82423000D03*
G04 #@! TD*
G04 #@! TO.P,D66,1,K*
G04 #@! TO.N,g4bus1*
X70182500Y-82448400D03*
G04 #@! TO.P,D66,2,A*
G04 #@! TO.N,VCC*
X72057500Y-82448400D03*
G04 #@! TD*
G04 #@! TO.P,D67,1,K*
G04 #@! TO.N,g4bus2*
X57380900Y-82448400D03*
G04 #@! TO.P,D67,2,A*
G04 #@! TO.N,VCC*
X59255900Y-82448400D03*
G04 #@! TD*
G04 #@! TO.P,D68,1,K*
G04 #@! TO.N,g4bus3*
X44958000Y-82423000D03*
G04 #@! TO.P,D68,2,A*
G04 #@! TO.N,VCC*
X46833000Y-82423000D03*
G04 #@! TD*
G04 #@! TO.P,D69,1,K*
G04 #@! TO.N,abus0*
X81510900Y-87426800D03*
G04 #@! TO.P,D69,2,A*
G04 #@! TO.N,VCC*
X83385900Y-87426800D03*
G04 #@! TD*
G04 #@! TO.P,D70,1,K*
G04 #@! TO.N,abus7*
X71096900Y-87426800D03*
G04 #@! TO.P,D70,2,A*
G04 #@! TO.N,VCC*
X72971900Y-87426800D03*
G04 #@! TD*
G04 #@! TO.P,D71,1,K*
G04 #@! TO.N,abus14*
X60835300Y-87426800D03*
G04 #@! TO.P,D71,2,A*
G04 #@! TO.N,VCC*
X62710300Y-87426800D03*
G04 #@! TD*
G04 #@! TO.P,D72,1,K*
G04 #@! TO.N,abus21*
X50218100Y-87426800D03*
G04 #@! TO.P,D72,2,A*
G04 #@! TO.N,VCC*
X52093100Y-87426800D03*
G04 #@! TD*
G04 #@! TO.P,D73,1,K*
G04 #@! TO.N,abus28*
X39905700Y-87426800D03*
G04 #@! TO.P,D73,2,A*
G04 #@! TO.N,VCC*
X41780700Y-87426800D03*
G04 #@! TD*
D15*
G04 #@! TO.P,D74,1,K*
G04 #@! TO.N,sabus0*
X92200000Y-91137500D03*
G04 #@! TO.P,D74,2,A*
G04 #@! TO.N,VCC*
X92200000Y-89262500D03*
G04 #@! TD*
D13*
G04 #@! TO.P,D75,1,K*
G04 #@! TO.N,abus5*
X86066557Y-89315245D03*
G04 #@! TO.P,D75,2,A*
G04 #@! TO.N,VCC*
X86551843Y-91126355D03*
G04 #@! TD*
G04 #@! TO.P,D76,1,K*
G04 #@! TO.N,abus1*
X79208557Y-89112045D03*
G04 #@! TO.P,D76,2,A*
G04 #@! TO.N,VCC*
X79693843Y-90923155D03*
G04 #@! TD*
G04 #@! TO.P,D77,1,K*
G04 #@! TO.N,abus12*
X75500157Y-89366045D03*
G04 #@! TO.P,D77,2,A*
G04 #@! TO.N,VCC*
X75985443Y-91177155D03*
G04 #@! TD*
G04 #@! TO.P,D78,1,K*
G04 #@! TO.N,abus19*
X65136957Y-89366045D03*
G04 #@! TO.P,D78,2,A*
G04 #@! TO.N,VCC*
X65622243Y-91177155D03*
G04 #@! TD*
G04 #@! TO.P,D79,1,K*
G04 #@! TO.N,abus8*
X68692957Y-88959645D03*
G04 #@! TO.P,D79,2,A*
G04 #@! TO.N,VCC*
X69178243Y-90770755D03*
G04 #@! TD*
G04 #@! TO.P,D80,1,K*
G04 #@! TO.N,abus15*
X58278957Y-89010445D03*
G04 #@! TO.P,D80,2,A*
G04 #@! TO.N,VCC*
X58764243Y-90821555D03*
G04 #@! TD*
G04 #@! TO.P,D81,1,K*
G04 #@! TO.N,abus26*
X54824557Y-89416845D03*
G04 #@! TO.P,D81,2,A*
G04 #@! TO.N,VCC*
X55309843Y-91227955D03*
G04 #@! TD*
G04 #@! TO.P,D82,1,K*
G04 #@! TO.N,abus33*
X44308957Y-89518445D03*
G04 #@! TO.P,D82,2,A*
G04 #@! TO.N,VCC*
X44794243Y-91329555D03*
G04 #@! TD*
G04 #@! TO.P,D83,1,K*
G04 #@! TO.N,abus22*
X47864957Y-89112045D03*
G04 #@! TO.P,D83,2,A*
G04 #@! TO.N,VCC*
X48350243Y-90923155D03*
G04 #@! TD*
G04 #@! TO.P,D84,1,K*
G04 #@! TO.N,abus29*
X37400157Y-88908845D03*
G04 #@! TO.P,D84,2,A*
G04 #@! TO.N,VCC*
X37885443Y-90719955D03*
G04 #@! TD*
D12*
G04 #@! TO.P,D85,1,K*
G04 #@! TO.N,abus6*
X82679300Y-93065600D03*
G04 #@! TO.P,D85,2,A*
G04 #@! TO.N,VCC*
X84554300Y-93065600D03*
G04 #@! TD*
G04 #@! TO.P,D86,1,K*
G04 #@! TO.N,sabus1*
X91162500Y-93000000D03*
G04 #@! TO.P,D86,2,A*
G04 #@! TO.N,VCC*
X93037500Y-93000000D03*
G04 #@! TD*
G04 #@! TO.P,D87,1,K*
G04 #@! TO.N,abus13*
X72214500Y-93065600D03*
G04 #@! TO.P,D87,2,A*
G04 #@! TO.N,VCC*
X74089500Y-93065600D03*
G04 #@! TD*
G04 #@! TO.P,D88,1,K*
G04 #@! TO.N,abus20*
X61851300Y-93065600D03*
G04 #@! TO.P,D88,2,A*
G04 #@! TO.N,VCC*
X63726300Y-93065600D03*
G04 #@! TD*
G04 #@! TO.P,D89,1,K*
G04 #@! TO.N,abus27*
X51284900Y-93116400D03*
G04 #@! TO.P,D89,2,A*
G04 #@! TO.N,VCC*
X53159900Y-93116400D03*
G04 #@! TD*
G04 #@! TO.P,D90,1,K*
G04 #@! TO.N,abus34*
X40870900Y-93065600D03*
G04 #@! TO.P,D90,2,A*
G04 #@! TO.N,VCC*
X42745900Y-93065600D03*
G04 #@! TD*
D13*
G04 #@! TO.P,D91,1,K*
G04 #@! TO.N,abus2*
X80630957Y-94801645D03*
G04 #@! TO.P,D91,2,A*
G04 #@! TO.N,VCC*
X81116243Y-96612755D03*
G04 #@! TD*
G04 #@! TO.P,D92,1,K*
G04 #@! TO.N,abus4*
X87488957Y-95004845D03*
G04 #@! TO.P,D92,2,A*
G04 #@! TO.N,VCC*
X87974243Y-96815955D03*
G04 #@! TD*
G04 #@! TO.P,D93,1,K*
G04 #@! TO.N,abus9*
X70216957Y-94750845D03*
G04 #@! TO.P,D93,2,A*
G04 #@! TO.N,VCC*
X70702243Y-96561955D03*
G04 #@! TD*
G04 #@! TO.P,D94,1,K*
G04 #@! TO.N,abus16*
X59752157Y-94700045D03*
G04 #@! TO.P,D94,2,A*
G04 #@! TO.N,VCC*
X60237443Y-96511155D03*
G04 #@! TD*
G04 #@! TO.P,D95,1,K*
G04 #@! TO.N,abus11*
X76922557Y-94801645D03*
G04 #@! TO.P,D95,2,A*
G04 #@! TO.N,VCC*
X77407843Y-96612755D03*
G04 #@! TD*
G04 #@! TO.P,D96,1,K*
G04 #@! TO.N,abus18*
X66559357Y-94903245D03*
G04 #@! TO.P,D96,2,A*
G04 #@! TO.N,VCC*
X67044643Y-96714355D03*
G04 #@! TD*
G04 #@! TO.P,D97,1,K*
G04 #@! TO.N,abus23*
X49388957Y-94700045D03*
G04 #@! TO.P,D97,2,A*
G04 #@! TO.N,VCC*
X49874243Y-96511155D03*
G04 #@! TD*
G04 #@! TO.P,D98,1,K*
G04 #@! TO.N,abus30*
X38974957Y-94649245D03*
G04 #@! TO.P,D98,2,A*
G04 #@! TO.N,VCC*
X39460243Y-96460355D03*
G04 #@! TD*
G04 #@! TO.P,D99,1,K*
G04 #@! TO.N,abus25*
X56043757Y-94598445D03*
G04 #@! TO.P,D99,2,A*
G04 #@! TO.N,VCC*
X56529043Y-96409555D03*
G04 #@! TD*
G04 #@! TO.P,D100,1,K*
G04 #@! TO.N,abus32*
X45731357Y-94700045D03*
G04 #@! TO.P,D100,2,A*
G04 #@! TO.N,VCC*
X46216643Y-96511155D03*
G04 #@! TD*
D12*
G04 #@! TO.P,D101,1,K*
G04 #@! TO.N,abus3*
X83695300Y-98602800D03*
G04 #@! TO.P,D101,2,A*
G04 #@! TO.N,VCC*
X85570300Y-98602800D03*
G04 #@! TD*
D15*
G04 #@! TO.P,D102,1,K*
G04 #@! TO.N,sabus2*
X92100000Y-96644700D03*
G04 #@! TO.P,D102,2,A*
G04 #@! TO.N,VCC*
X92100000Y-94769700D03*
G04 #@! TD*
D12*
G04 #@! TO.P,D103,1,K*
G04 #@! TO.N,abus10*
X73433700Y-98602800D03*
G04 #@! TO.P,D103,2,A*
G04 #@! TO.N,VCC*
X75308700Y-98602800D03*
G04 #@! TD*
G04 #@! TO.P,D104,1,K*
G04 #@! TO.N,abus17*
X62918100Y-98602800D03*
G04 #@! TO.P,D104,2,A*
G04 #@! TO.N,VCC*
X64793100Y-98602800D03*
G04 #@! TD*
G04 #@! TO.P,D105,1,K*
G04 #@! TO.N,abus24*
X52656500Y-98602800D03*
G04 #@! TO.P,D105,2,A*
G04 #@! TO.N,VCC*
X54531500Y-98602800D03*
G04 #@! TD*
G04 #@! TO.P,D106,1,K*
G04 #@! TO.N,abus31*
X42293300Y-98602800D03*
G04 #@! TO.P,D106,2,A*
G04 #@! TO.N,VCC*
X44168300Y-98602800D03*
G04 #@! TD*
G04 #@! TO.P,D107,1,K*
G04 #@! TO.N,g5bus0*
X80291700Y-101752000D03*
G04 #@! TO.P,D107,2,A*
G04 #@! TO.N,VCC*
X82166700Y-101752000D03*
G04 #@! TD*
G04 #@! TO.P,D108,1,K*
G04 #@! TO.N,g5bus1*
X68099700Y-101752000D03*
G04 #@! TO.P,D108,2,A*
G04 #@! TO.N,VCC*
X69974700Y-101752000D03*
G04 #@! TD*
G04 #@! TO.P,D109,1,K*
G04 #@! TO.N,g5bus2*
X57431700Y-101752000D03*
G04 #@! TO.P,D109,2,A*
G04 #@! TO.N,VCC*
X59306700Y-101752000D03*
G04 #@! TD*
G04 #@! TO.P,D110,1,K*
G04 #@! TO.N,g5bus3*
X45646100Y-101752000D03*
G04 #@! TO.P,D110,2,A*
G04 #@! TO.N,VCC*
X47521100Y-101752000D03*
G04 #@! TD*
G04 #@! TO.P,D111,1,K*
G04 #@! TO.N,bbus0*
X81663300Y-106782000D03*
G04 #@! TO.P,D111,2,A*
G04 #@! TO.N,VCC*
X83538300Y-106782000D03*
G04 #@! TD*
D15*
G04 #@! TO.P,D112,1,K*
G04 #@! TO.N,sbbus0*
X92000000Y-110437500D03*
G04 #@! TO.P,D112,2,A*
G04 #@! TO.N,VCC*
X92000000Y-108562500D03*
G04 #@! TD*
D12*
G04 #@! TO.P,D113,1,K*
G04 #@! TO.N,bbus7*
X71046100Y-106782000D03*
G04 #@! TO.P,D113,2,A*
G04 #@! TO.N,VCC*
X72921100Y-106782000D03*
G04 #@! TD*
G04 #@! TO.P,D114,1,K*
G04 #@! TO.N,bbus14*
X60784500Y-106782000D03*
G04 #@! TO.P,D114,2,A*
G04 #@! TO.N,VCC*
X62659500Y-106782000D03*
G04 #@! TD*
G04 #@! TO.P,D115,1,K*
G04 #@! TO.N,bbus21*
X50218100Y-106782000D03*
G04 #@! TO.P,D115,2,A*
G04 #@! TO.N,VCC*
X52093100Y-106782000D03*
G04 #@! TD*
G04 #@! TO.P,D116,1,K*
G04 #@! TO.N,bbus28*
X39550100Y-106782000D03*
G04 #@! TO.P,D116,2,A*
G04 #@! TO.N,VCC*
X41425100Y-106782000D03*
G04 #@! TD*
D13*
G04 #@! TO.P,D117,1,K*
G04 #@! TO.N,bbus5*
X85812557Y-108619445D03*
G04 #@! TO.P,D117,2,A*
G04 #@! TO.N,VCC*
X86297843Y-110430555D03*
G04 #@! TD*
G04 #@! TO.P,D118,1,K*
G04 #@! TO.N,bbus1*
X79056157Y-108466445D03*
G04 #@! TO.P,D118,2,A*
G04 #@! TO.N,VCC*
X79541443Y-110277555D03*
G04 #@! TD*
G04 #@! TO.P,D119,1,K*
G04 #@! TO.N,bbus12*
X75449357Y-108314445D03*
G04 #@! TO.P,D119,2,A*
G04 #@! TO.N,VCC*
X75934643Y-110125555D03*
G04 #@! TD*
G04 #@! TO.P,D120,1,K*
G04 #@! TO.N,bbus19*
X65136957Y-108873445D03*
G04 #@! TO.P,D120,2,A*
G04 #@! TO.N,VCC*
X65622243Y-110684555D03*
G04 #@! TD*
G04 #@! TO.P,D121,1,K*
G04 #@! TO.N,bbus8*
X68743757Y-108466445D03*
G04 #@! TO.P,D121,2,A*
G04 #@! TO.N,VCC*
X69229043Y-110277555D03*
G04 #@! TD*
G04 #@! TO.P,D122,1,K*
G04 #@! TO.N,bbus15*
X58278957Y-108263445D03*
G04 #@! TO.P,D122,2,A*
G04 #@! TO.N,VCC*
X58764243Y-110074555D03*
G04 #@! TD*
G04 #@! TO.P,D123,1,K*
G04 #@! TO.N,bbus26*
X54722957Y-109025445D03*
G04 #@! TO.P,D123,2,A*
G04 #@! TO.N,VCC*
X55208243Y-110836555D03*
G04 #@! TD*
G04 #@! TO.P,D124,1,K*
G04 #@! TO.N,bbus33*
X44314757Y-108888445D03*
G04 #@! TO.P,D124,2,A*
G04 #@! TO.N,VCC*
X44800043Y-110699555D03*
G04 #@! TD*
G04 #@! TO.P,D125,1,K*
G04 #@! TO.N,bbus22*
X47864957Y-108314445D03*
G04 #@! TO.P,D125,2,A*
G04 #@! TO.N,VCC*
X48350243Y-110125555D03*
G04 #@! TD*
G04 #@! TO.P,D126,1,K*
G04 #@! TO.N,bbus29*
X37501757Y-108619445D03*
G04 #@! TO.P,D126,2,A*
G04 #@! TO.N,VCC*
X37987043Y-110430555D03*
G04 #@! TD*
D12*
G04 #@! TO.P,D127,1,K*
G04 #@! TO.N,sbbus1*
X91061300Y-112319000D03*
G04 #@! TO.P,D127,2,A*
G04 #@! TO.N,VCC*
X92936300Y-112319000D03*
G04 #@! TD*
G04 #@! TO.P,D128,1,K*
G04 #@! TO.N,bbus6*
X82425300Y-112319000D03*
G04 #@! TO.P,D128,2,A*
G04 #@! TO.N,VCC*
X84300300Y-112319000D03*
G04 #@! TD*
G04 #@! TO.P,D129,1,K*
G04 #@! TO.N,bbus13*
X72163700Y-112268000D03*
G04 #@! TO.P,D129,2,A*
G04 #@! TO.N,VCC*
X74038700Y-112268000D03*
G04 #@! TD*
G04 #@! TO.P,D130,1,K*
G04 #@! TO.N,bbus20*
X61749700Y-112471000D03*
G04 #@! TO.P,D130,2,A*
G04 #@! TO.N,VCC*
X63624700Y-112471000D03*
G04 #@! TD*
G04 #@! TO.P,D131,1,K*
G04 #@! TO.N,bbus27*
X51488100Y-112471000D03*
G04 #@! TO.P,D131,2,A*
G04 #@! TO.N,VCC*
X53363100Y-112471000D03*
G04 #@! TD*
G04 #@! TO.P,D132,1,K*
G04 #@! TO.N,bbus34*
X40870900Y-112319000D03*
G04 #@! TO.P,D132,2,A*
G04 #@! TO.N,VCC*
X42745900Y-112319000D03*
G04 #@! TD*
D13*
G04 #@! TO.P,D133,1,K*
G04 #@! TO.N,bbus2*
X80580157Y-114207445D03*
G04 #@! TO.P,D133,2,A*
G04 #@! TO.N,VCC*
X81065443Y-116018555D03*
G04 #@! TD*
G04 #@! TO.P,D134,1,K*
G04 #@! TO.N,bbus4*
X87285757Y-114105445D03*
G04 #@! TO.P,D134,2,A*
G04 #@! TO.N,VCC*
X87771043Y-115916555D03*
G04 #@! TD*
G04 #@! TO.P,D135,1,K*
G04 #@! TO.N,bbus9*
X70064557Y-114004445D03*
G04 #@! TO.P,D135,2,A*
G04 #@! TO.N,VCC*
X70549843Y-115815555D03*
G04 #@! TD*
G04 #@! TO.P,D136,1,K*
G04 #@! TO.N,bbus16*
X59802957Y-114004445D03*
G04 #@! TO.P,D136,2,A*
G04 #@! TO.N,VCC*
X60288243Y-115815555D03*
G04 #@! TD*
G04 #@! TO.P,D137,1,K*
G04 #@! TO.N,bbus11*
X76820957Y-113597445D03*
G04 #@! TO.P,D137,2,A*
G04 #@! TO.N,VCC*
X77306243Y-115408555D03*
G04 #@! TD*
G04 #@! TO.P,D138,1,K*
G04 #@! TO.N,bbus18*
X66406957Y-113699445D03*
G04 #@! TO.P,D138,2,A*
G04 #@! TO.N,VCC*
X66892243Y-115510555D03*
G04 #@! TD*
G04 #@! TO.P,D139,1,K*
G04 #@! TO.N,bbus23*
X49388957Y-114105445D03*
G04 #@! TO.P,D139,2,A*
G04 #@! TO.N,VCC*
X49874243Y-115916555D03*
G04 #@! TD*
G04 #@! TO.P,D140,1,K*
G04 #@! TO.N,bbus30*
X38974957Y-114207445D03*
G04 #@! TO.P,D140,2,A*
G04 #@! TO.N,VCC*
X39460243Y-116018555D03*
G04 #@! TD*
G04 #@! TO.P,D141,1,K*
G04 #@! TO.N,bbus25*
X56043757Y-114054445D03*
G04 #@! TO.P,D141,2,A*
G04 #@! TO.N,VCC*
X56529043Y-115865555D03*
G04 #@! TD*
G04 #@! TO.P,D142,1,K*
G04 #@! TO.N,bbus32*
X45657357Y-113794445D03*
G04 #@! TO.P,D142,2,A*
G04 #@! TO.N,VCC*
X46142643Y-115605555D03*
G04 #@! TD*
D15*
G04 #@! TO.P,D143,1,K*
G04 #@! TO.N,sbbus2*
X91978800Y-115999500D03*
G04 #@! TO.P,D143,2,A*
G04 #@! TO.N,VCC*
X91978800Y-114124500D03*
G04 #@! TD*
D12*
G04 #@! TO.P,D144,1,K*
G04 #@! TO.N,bbus3*
X83847700Y-117856000D03*
G04 #@! TO.P,D144,2,A*
G04 #@! TO.N,VCC*
X85722700Y-117856000D03*
G04 #@! TD*
G04 #@! TO.P,D145,1,K*
G04 #@! TO.N,bbus10*
X73332100Y-117754000D03*
G04 #@! TO.P,D145,2,A*
G04 #@! TO.N,VCC*
X75207100Y-117754000D03*
G04 #@! TD*
G04 #@! TO.P,D146,1,K*
G04 #@! TO.N,bbus17*
X62968900Y-118059000D03*
G04 #@! TO.P,D146,2,A*
G04 #@! TO.N,VCC*
X64843900Y-118059000D03*
G04 #@! TD*
G04 #@! TO.P,D147,1,K*
G04 #@! TO.N,bbus24*
X52758100Y-117805000D03*
G04 #@! TO.P,D147,2,A*
G04 #@! TO.N,VCC*
X54633100Y-117805000D03*
G04 #@! TD*
G04 #@! TO.P,D148,1,K*
G04 #@! TO.N,bbus31*
X42394900Y-117907000D03*
G04 #@! TO.P,D148,2,A*
G04 #@! TO.N,VCC*
X44269900Y-117907000D03*
G04 #@! TD*
G04 #@! TO.P,D149,1,K*
G04 #@! TO.N,g6bus0*
X79631300Y-120853000D03*
G04 #@! TO.P,D149,2,A*
G04 #@! TO.N,VCC*
X81506300Y-120853000D03*
G04 #@! TD*
G04 #@! TO.P,D150,1,K*
G04 #@! TO.N,g6bus1*
X67515500Y-121031000D03*
G04 #@! TO.P,D150,2,A*
G04 #@! TO.N,VCC*
X69390500Y-121031000D03*
G04 #@! TD*
G04 #@! TO.P,D151,1,K*
G04 #@! TO.N,g6bus2*
X53926500Y-120853000D03*
G04 #@! TO.P,D151,2,A*
G04 #@! TO.N,VCC*
X55801500Y-120853000D03*
G04 #@! TD*
G04 #@! TO.P,D152,1,K*
G04 #@! TO.N,g6bus3*
X44477700Y-120853000D03*
G04 #@! TO.P,D152,2,A*
G04 #@! TO.N,VCC*
X46352700Y-120853000D03*
G04 #@! TD*
D15*
G04 #@! TO.P,D153,1,K*
G04 #@! TO.N,scbus0*
X91978800Y-129512500D03*
G04 #@! TO.P,D153,2,A*
G04 #@! TO.N,VCC*
X91978800Y-127637500D03*
G04 #@! TD*
D12*
G04 #@! TO.P,D154,1,K*
G04 #@! TO.N,cbus0*
X81460100Y-125832000D03*
G04 #@! TO.P,D154,2,A*
G04 #@! TO.N,VCC*
X83335100Y-125832000D03*
G04 #@! TD*
G04 #@! TO.P,D155,1,K*
G04 #@! TO.N,cbus7*
X71198500Y-125730000D03*
G04 #@! TO.P,D155,2,A*
G04 #@! TO.N,VCC*
X73073500Y-125730000D03*
G04 #@! TD*
G04 #@! TO.P,D156,1,K*
G04 #@! TO.N,cbus14*
X60276500Y-125832000D03*
G04 #@! TO.P,D156,2,A*
G04 #@! TO.N,VCC*
X62151500Y-125832000D03*
G04 #@! TD*
G04 #@! TO.P,D157,1,K*
G04 #@! TO.N,cbus21*
X50167300Y-125832000D03*
G04 #@! TO.P,D157,2,A*
G04 #@! TO.N,VCC*
X52042300Y-125832000D03*
G04 #@! TD*
G04 #@! TO.P,D158,1,K*
G04 #@! TO.N,cbus28*
X39905700Y-125832000D03*
G04 #@! TO.P,D158,2,A*
G04 #@! TO.N,VCC*
X41780700Y-125832000D03*
G04 #@! TD*
D13*
G04 #@! TO.P,D159,1,K*
G04 #@! TO.N,cbus5*
X85964957Y-128024445D03*
G04 #@! TO.P,D159,2,A*
G04 #@! TO.N,VCC*
X86450243Y-129835555D03*
G04 #@! TD*
G04 #@! TO.P,D160,1,K*
G04 #@! TO.N,cbus1*
X79005357Y-127415445D03*
G04 #@! TO.P,D160,2,A*
G04 #@! TO.N,VCC*
X79490643Y-129226555D03*
G04 #@! TD*
G04 #@! TO.P,D161,1,K*
G04 #@! TO.N,cbus12*
X75550957Y-127974445D03*
G04 #@! TO.P,D161,2,A*
G04 #@! TO.N,VCC*
X76036243Y-129785555D03*
G04 #@! TD*
G04 #@! TO.P,D162,1,K*
G04 #@! TO.N,cbus19*
X65086157Y-127872445D03*
G04 #@! TO.P,D162,2,A*
G04 #@! TO.N,VCC*
X65571443Y-129683555D03*
G04 #@! TD*
D12*
G04 #@! TO.P,D163,1,K*
G04 #@! TO.N,scbus1*
X91061300Y-131267000D03*
G04 #@! TO.P,D163,2,A*
G04 #@! TO.N,VCC*
X92936300Y-131267000D03*
G04 #@! TD*
D13*
G04 #@! TO.P,D164,1,K*
G04 #@! TO.N,cbus8*
X68591357Y-127313445D03*
G04 #@! TO.P,D164,2,A*
G04 #@! TO.N,VCC*
X69076643Y-129124555D03*
G04 #@! TD*
G04 #@! TO.P,D165,1,K*
G04 #@! TO.N,cbus15*
X58532957Y-128583445D03*
G04 #@! TO.P,D165,2,A*
G04 #@! TO.N,VCC*
X59018243Y-130394555D03*
G04 #@! TD*
G04 #@! TO.P,D166,1,K*
G04 #@! TO.N,cbus26*
X54875357Y-127872445D03*
G04 #@! TO.P,D166,2,A*
G04 #@! TO.N,VCC*
X55360643Y-129683555D03*
G04 #@! TD*
G04 #@! TO.P,D167,1,K*
G04 #@! TO.N,cbus33*
X44221757Y-127719445D03*
G04 #@! TO.P,D167,2,A*
G04 #@! TO.N,VCC*
X44707043Y-129530555D03*
G04 #@! TD*
G04 #@! TO.P,D168,1,K*
G04 #@! TO.N,cbus22*
X47828557Y-127312445D03*
G04 #@! TO.P,D168,2,A*
G04 #@! TO.N,VCC*
X48313843Y-129123555D03*
G04 #@! TD*
G04 #@! TO.P,D169,1,K*
G04 #@! TO.N,cbus29*
X37298557Y-127466445D03*
G04 #@! TO.P,D169,2,A*
G04 #@! TO.N,VCC*
X37783843Y-129277555D03*
G04 #@! TD*
D12*
G04 #@! TO.P,D170,1,K*
G04 #@! TO.N,cbus6*
X82476100Y-131420000D03*
G04 #@! TO.P,D170,2,A*
G04 #@! TO.N,VCC*
X84351100Y-131420000D03*
G04 #@! TD*
G04 #@! TO.P,D171,1,K*
G04 #@! TO.N,cbus13*
X72265300Y-131369000D03*
G04 #@! TO.P,D171,2,A*
G04 #@! TO.N,VCC*
X74140300Y-131369000D03*
G04 #@! TD*
G04 #@! TO.P,D172,1,K*
G04 #@! TO.N,cbus20*
X61394100Y-131623000D03*
G04 #@! TO.P,D172,2,A*
G04 #@! TO.N,VCC*
X63269100Y-131623000D03*
G04 #@! TD*
G04 #@! TO.P,D173,1,K*
G04 #@! TO.N,cbus27*
X51488100Y-131521000D03*
G04 #@! TO.P,D173,2,A*
G04 #@! TO.N,VCC*
X53363100Y-131521000D03*
G04 #@! TD*
G04 #@! TO.P,D174,1,K*
G04 #@! TO.N,cbus34*
X40972500Y-131369000D03*
G04 #@! TO.P,D174,2,A*
G04 #@! TO.N,VCC*
X42847500Y-131369000D03*
G04 #@! TD*
D13*
G04 #@! TO.P,D175,1,K*
G04 #@! TO.N,cbus2*
X80630957Y-133358445D03*
G04 #@! TO.P,D175,2,A*
G04 #@! TO.N,VCC*
X81116243Y-135169555D03*
G04 #@! TD*
D15*
G04 #@! TO.P,D176,1,K*
G04 #@! TO.N,scbus2*
X91978800Y-135201500D03*
G04 #@! TO.P,D176,2,A*
G04 #@! TO.N,VCC*
X91978800Y-133326500D03*
G04 #@! TD*
D13*
G04 #@! TO.P,D177,1,K*
G04 #@! TO.N,cbus4*
X87336557Y-133104445D03*
G04 #@! TO.P,D177,2,A*
G04 #@! TO.N,VCC*
X87821843Y-134915555D03*
G04 #@! TD*
G04 #@! TO.P,D178,1,K*
G04 #@! TO.N,cbus9*
X70115357Y-133104445D03*
G04 #@! TO.P,D178,2,A*
G04 #@! TO.N,VCC*
X70600643Y-134915555D03*
G04 #@! TD*
G04 #@! TO.P,D179,1,K*
G04 #@! TO.N,cbus16*
X59752157Y-133358445D03*
G04 #@! TO.P,D179,2,A*
G04 #@! TO.N,VCC*
X60237443Y-135169555D03*
G04 #@! TD*
G04 #@! TO.P,D180,1,K*
G04 #@! TO.N,cbus11*
X76973357Y-133206445D03*
G04 #@! TO.P,D180,2,A*
G04 #@! TO.N,VCC*
X77458643Y-135017555D03*
G04 #@! TD*
G04 #@! TO.P,D181,1,K*
G04 #@! TO.N,cbus18*
X66457757Y-132850445D03*
G04 #@! TO.P,D181,2,A*
G04 #@! TO.N,VCC*
X66943043Y-134661555D03*
G04 #@! TD*
G04 #@! TO.P,D182,1,K*
G04 #@! TO.N,cbus23*
X49301757Y-133154445D03*
G04 #@! TO.P,D182,2,A*
G04 #@! TO.N,VCC*
X49787043Y-134965555D03*
G04 #@! TD*
G04 #@! TO.P,D183,1,K*
G04 #@! TO.N,cbus30*
X38684557Y-133205445D03*
G04 #@! TO.P,D183,2,A*
G04 #@! TO.N,VCC*
X39169843Y-135016555D03*
G04 #@! TD*
G04 #@! TO.P,D184,1,K*
G04 #@! TO.N,cbus25*
X56297757Y-133562445D03*
G04 #@! TO.P,D184,2,A*
G04 #@! TO.N,VCC*
X56783043Y-135373555D03*
G04 #@! TD*
G04 #@! TO.P,D185,1,K*
G04 #@! TO.N,cbus32*
X45694957Y-133408445D03*
G04 #@! TO.P,D185,2,A*
G04 #@! TO.N,VCC*
X46180243Y-135219555D03*
G04 #@! TD*
D12*
G04 #@! TO.P,D186,1,K*
G04 #@! TO.N,cbus3*
X83949300Y-136957000D03*
G04 #@! TO.P,D186,2,A*
G04 #@! TO.N,VCC*
X85824300Y-136957000D03*
G04 #@! TD*
G04 #@! TO.P,D187,1,K*
G04 #@! TO.N,cbus10*
X73332100Y-136957000D03*
G04 #@! TO.P,D187,2,A*
G04 #@! TO.N,VCC*
X75207100Y-136957000D03*
G04 #@! TD*
G04 #@! TO.P,D188,1,K*
G04 #@! TO.N,cbus17*
X63121300Y-136957000D03*
G04 #@! TO.P,D188,2,A*
G04 #@! TO.N,VCC*
X64996300Y-136957000D03*
G04 #@! TD*
G04 #@! TO.P,D189,1,K*
G04 #@! TO.N,cbus24*
X52808900Y-136957000D03*
G04 #@! TO.P,D189,2,A*
G04 #@! TO.N,VCC*
X54683900Y-136957000D03*
G04 #@! TD*
G04 #@! TO.P,D190,1,K*
G04 #@! TO.N,cbus31*
X42344100Y-136957000D03*
G04 #@! TO.P,D190,2,A*
G04 #@! TO.N,VCC*
X44219100Y-136957000D03*
G04 #@! TD*
D16*
G04 #@! TO.N,GND*
X83400000Y-110400000D03*
X86500000Y-131700000D03*
X52100000Y-47000000D03*
X67700000Y-44700000D03*
X69800000Y-46400000D03*
X84300000Y-46400000D03*
X86600000Y-112600000D03*
X86300000Y-45100000D03*
G04 #@! TO.N,+3V3*
X72977000Y-73027800D03*
X59200000Y-64817400D03*
X65348000Y-64632300D03*
G04 #@! TO.N,Net-(U6-VDDCORE)*
X67064100Y-63991300D03*
X69163600Y-63206600D03*
G04 #@! TO.N,g0bus0*
X80592900Y-40334300D03*
G04 #@! TO.N,g0bus2*
X74056300Y-45602800D03*
G04 #@! TO.N,g1bus0*
X83822000Y-51929100D03*
X54746200Y-37327500D03*
G04 #@! TO.N,g1bus3*
X85246400Y-52735900D03*
X52685500Y-35696400D03*
G04 #@! TO.N,g0bus3*
X73333500Y-45250100D03*
G04 #@! TO.N,g1bus1*
X84212100Y-50761000D03*
G04 #@! TO.N,g1bus2*
X84968700Y-50803000D03*
X44563200Y-40827100D03*
G04 #@! TO.N,g0bus1*
X76046800Y-44184700D03*
G04 #@! TO.N,g0bus6*
X75320300Y-46870300D03*
X72180500Y-44127600D03*
G04 #@! TO.N,g0bus5*
X78500700Y-45581800D03*
X73552400Y-43511300D03*
G04 #@! TO.N,g0bus4*
X75171900Y-44199100D03*
G04 #@! TO.N,g0bus7*
X71923900Y-43338600D03*
X76126500Y-52797500D03*
G04 #@! TO.N,dbus0*
X66188000Y-43241700D03*
G04 #@! TO.N,dbus7*
X63844200Y-47773100D03*
G04 #@! TO.N,dbus5*
X63449300Y-46501700D03*
G04 #@! TO.N,dbus12*
X66312500Y-49153500D03*
G04 #@! TO.N,dbus1*
X61212600Y-45170800D03*
G04 #@! TO.N,dbus8*
X38660700Y-45518200D03*
X64693900Y-47561500D03*
G04 #@! TO.N,dbus6*
X62429500Y-48335200D03*
X46632800Y-48418100D03*
G04 #@! TO.N,dbus13*
X61676900Y-50020700D03*
X41798800Y-48322800D03*
G04 #@! TO.N,dbus2*
X60275600Y-50040300D03*
G04 #@! TO.N,dbus9*
X64446100Y-48311900D03*
X40227100Y-51418400D03*
G04 #@! TO.N,dbus4*
X64235500Y-45687700D03*
G04 #@! TO.N,dbus11*
X63730400Y-49938800D03*
G04 #@! TO.N,dbus3*
X60360400Y-51997000D03*
G04 #@! TO.N,dbus10*
X43046600Y-54059900D03*
X64446100Y-49062300D03*
G04 #@! TO.N,g2bus0*
X85618900Y-59773000D03*
G04 #@! TO.N,g2bus3*
X86808600Y-54150900D03*
G04 #@! TO.N,g3bus0*
X87732900Y-49516700D03*
X53720500Y-60405600D03*
G04 #@! TO.N,g3bus3*
X41031300Y-62994900D03*
X88096100Y-51937100D03*
G04 #@! TO.N,g2bus1*
X86177500Y-55585900D03*
G04 #@! TO.N,g2bus2*
X86745400Y-52159100D03*
G04 #@! TO.N,g3bus1*
X54586900Y-62498100D03*
X87624000Y-50890700D03*
G04 #@! TO.N,g3bus2*
X88386700Y-50919700D03*
X45071300Y-62916400D03*
G04 #@! TO.N,ebus0*
X67203700Y-50086300D03*
X86742100Y-67222000D03*
G04 #@! TO.N,ebus7*
X75163600Y-65648200D03*
G04 #@! TO.N,fbus0*
X82257100Y-43307500D03*
X49199700Y-68250100D03*
G04 #@! TO.N,fbus7*
X80153800Y-47946800D03*
G04 #@! TO.N,ebus5*
X71580100Y-63206600D03*
X92190000Y-68940800D03*
G04 #@! TO.N,ebus12*
X81588500Y-69359400D03*
X74459100Y-57313100D03*
G04 #@! TO.N,ebus1*
X70160600Y-59653700D03*
X67641200Y-51606600D03*
G04 #@! TO.N,ebus8*
X73731700Y-63206600D03*
G04 #@! TO.N,fbus5*
X81085300Y-46275600D03*
X74649500Y-52793200D03*
G04 #@! TO.N,fbus12*
X44346200Y-69110100D03*
X82781700Y-58197800D03*
G04 #@! TO.N,fbus1*
X77944200Y-50253300D03*
G04 #@! TO.N,fbus8*
X81152900Y-47726500D03*
G04 #@! TO.N,ebus6*
X76048700Y-73367800D03*
X70047400Y-50592500D03*
G04 #@! TO.N,ebus13*
X76898700Y-65654300D03*
X77404800Y-72767000D03*
G04 #@! TO.N,fbus6*
X79198200Y-49956000D03*
G04 #@! TO.N,fbus13*
X41363000Y-72536300D03*
X79793400Y-61172700D03*
G04 #@! TO.N,ebus2*
X68202300Y-51088700D03*
X75414100Y-74436800D03*
G04 #@! TO.N,ebus9*
X71176400Y-49148400D03*
X73620000Y-67658900D03*
G04 #@! TO.N,ebus4*
X70637800Y-65454900D03*
X92257200Y-75396000D03*
X69090900Y-52858200D03*
G04 #@! TO.N,ebus11*
X81588300Y-77711500D03*
X72981500Y-49191400D03*
G04 #@! TO.N,fbus2*
X50109900Y-58160800D03*
X80771600Y-44824600D03*
X50109900Y-74297100D03*
G04 #@! TO.N,fbus9*
X38875600Y-74243500D03*
X80799500Y-48434500D03*
G04 #@! TO.N,fbus4*
X80040400Y-46145500D03*
X76973300Y-56501000D03*
G04 #@! TO.N,fbus11*
X81549400Y-49241300D03*
X50837100Y-62492900D03*
G04 #@! TO.N,ebus3*
X82739500Y-80079500D03*
X68761500Y-52027200D03*
G04 #@! TO.N,ebus10*
X72104800Y-48613400D03*
X78362300Y-78233000D03*
G04 #@! TO.N,fbus3*
X79315600Y-46977400D03*
G04 #@! TO.N,fbus10*
X42394900Y-78038100D03*
X80799100Y-49213400D03*
G04 #@! TO.N,g4bus0*
X80635000Y-81572500D03*
X48485000Y-65485400D03*
G04 #@! TO.N,g4bus1*
X69217900Y-82225500D03*
X50702400Y-66045200D03*
G04 #@! TO.N,g4bus2*
X51558000Y-82021600D03*
X48901100Y-49933800D03*
G04 #@! TO.N,g4bus3*
X49318100Y-74294800D03*
X50427000Y-54244800D03*
G04 #@! TO.N,abus0*
X87843600Y-86446900D03*
G04 #@! TO.N,abus7*
X80167900Y-86529400D03*
G04 #@! TO.N,abus14*
X81211600Y-91000200D03*
X61721300Y-86592400D03*
G04 #@! TO.N,abus21*
X50631400Y-88987900D03*
X78877400Y-93510100D03*
G04 #@! TO.N,abus28*
X84480900Y-97303100D03*
X40627700Y-88402000D03*
G04 #@! TO.N,abus5*
X85355600Y-87633400D03*
G04 #@! TO.N,abus1*
X87296100Y-89359800D03*
G04 #@! TO.N,abus12*
X81924800Y-90039200D03*
G04 #@! TO.N,abus19*
X66375100Y-89417600D03*
X80779700Y-93310000D03*
G04 #@! TO.N,abus8*
X70538900Y-88551600D03*
G04 #@! TO.N,abus15*
X78473300Y-91191700D03*
X59483000Y-89010400D03*
G04 #@! TO.N,abus26*
X81583700Y-99878500D03*
G04 #@! TO.N,abus33*
X49937900Y-88581700D03*
X86690000Y-96179900D03*
G04 #@! TO.N,abus22*
X82127500Y-95068100D03*
X49227900Y-89742100D03*
G04 #@! TO.N,abus29*
X38620300Y-89342900D03*
X83985800Y-100142500D03*
G04 #@! TO.N,abus6*
X79781800Y-93110500D03*
X84909900Y-88860000D03*
G04 #@! TO.N,abus13*
X76903700Y-92265900D03*
G04 #@! TO.N,abus20*
X64670100Y-93548900D03*
X79961800Y-93862200D03*
G04 #@! TO.N,abus27*
X83311100Y-97450600D03*
X51832400Y-94270000D03*
G04 #@! TO.N,abus34*
X87629700Y-97952700D03*
X41666900Y-93965500D03*
G04 #@! TO.N,abus2*
X87021000Y-88518800D03*
G04 #@! TO.N,abus4*
X85939400Y-86803700D03*
G04 #@! TO.N,abus9*
X72404900Y-94248200D03*
G04 #@! TO.N,abus16*
X62929000Y-95180700D03*
G04 #@! TO.N,abus11*
X75971200Y-93842300D03*
G04 #@! TO.N,abus18*
X72707700Y-97033300D03*
G04 #@! TO.N,abus23*
X79735700Y-98332400D03*
X50299600Y-95409000D03*
G04 #@! TO.N,abus30*
X85393800Y-99764500D03*
X40107400Y-95164700D03*
G04 #@! TO.N,abus25*
X83336400Y-96205700D03*
X57271300Y-94598400D03*
G04 #@! TO.N,abus32*
X86363100Y-97391500D03*
X50935900Y-94274400D03*
G04 #@! TO.N,abus3*
X86510600Y-87339500D03*
G04 #@! TO.N,abus10*
X74858100Y-94697500D03*
G04 #@! TO.N,abus17*
X63905100Y-99410600D03*
G04 #@! TO.N,abus24*
X80620200Y-98595100D03*
X57610300Y-97818400D03*
G04 #@! TO.N,abus31*
X86383200Y-99487500D03*
X42293300Y-99770900D03*
G04 #@! TO.N,g5bus0*
X49167200Y-43209200D03*
X75594300Y-101647600D03*
G04 #@! TO.N,g5bus1*
X61290900Y-100802700D03*
X48000000Y-43500000D03*
G04 #@! TO.N,g5bus2*
X56046000Y-100796700D03*
X47200000Y-44049500D03*
G04 #@! TO.N,g5bus3*
X45554600Y-100583400D03*
X46111800Y-44714200D03*
G04 #@! TO.N,bbus0*
X82301800Y-105440600D03*
G04 #@! TO.N,bbus7*
X83119100Y-105409800D03*
G04 #@! TO.N,bbus14*
X78663900Y-106710600D03*
G04 #@! TO.N,bbus21*
X78768800Y-112979200D03*
X51080200Y-107644100D03*
G04 #@! TO.N,bbus28*
X42372900Y-106283400D03*
X82369700Y-116161700D03*
G04 #@! TO.N,bbus5*
X86831400Y-105819300D03*
G04 #@! TO.N,bbus1*
X87774000Y-107817800D03*
X80503700Y-108783800D03*
G04 #@! TO.N,bbus12*
X80782100Y-107611200D03*
G04 #@! TO.N,bbus19*
X79862100Y-112211500D03*
G04 #@! TO.N,bbus8*
X70427700Y-108448100D03*
G04 #@! TO.N,bbus15*
X59497300Y-108263400D03*
X78486400Y-109714500D03*
G04 #@! TO.N,bbus26*
X82787600Y-115512600D03*
X55945500Y-109289000D03*
G04 #@! TO.N,bbus33*
X45312400Y-109527000D03*
X86732000Y-115210100D03*
G04 #@! TO.N,bbus22*
X78244200Y-113545900D03*
X49086500Y-108314400D03*
G04 #@! TO.N,bbus29*
X84801600Y-116161300D03*
X38710500Y-108619400D03*
G04 #@! TO.N,bbus6*
X84963000Y-107793500D03*
X81961300Y-113909900D03*
G04 #@! TO.N,bbus13*
X81129200Y-109593500D03*
G04 #@! TO.N,bbus20*
X77750900Y-112453700D03*
X66384100Y-112112400D03*
G04 #@! TO.N,bbus27*
X83199800Y-116161700D03*
G04 #@! TO.N,bbus34*
X41712500Y-113160600D03*
X88851400Y-116444000D03*
G04 #@! TO.N,bbus2*
X86358400Y-106444100D03*
X79369800Y-114207400D03*
G04 #@! TO.N,bbus4*
X85861100Y-107033700D03*
G04 #@! TO.N,bbus9*
X71213700Y-112302200D03*
G04 #@! TO.N,bbus16*
X64586100Y-111947300D03*
X76951200Y-110836800D03*
G04 #@! TO.N,bbus11*
X82349900Y-108095400D03*
G04 #@! TO.N,bbus18*
X73892600Y-113796900D03*
G04 #@! TO.N,bbus23*
X76091400Y-115823700D03*
X50758600Y-114359600D03*
G04 #@! TO.N,bbus30*
X40196900Y-114207400D03*
X83116500Y-118880800D03*
G04 #@! TO.N,bbus25*
X63674300Y-114337900D03*
X83254600Y-114918200D03*
G04 #@! TO.N,bbus32*
X84964200Y-119604600D03*
G04 #@! TO.N,bbus3*
X86465000Y-107559300D03*
G04 #@! TO.N,bbus10*
X73302400Y-116162500D03*
G04 #@! TO.N,bbus17*
X71761500Y-116822800D03*
X78169700Y-111337100D03*
G04 #@! TO.N,bbus24*
X80696600Y-117095000D03*
X53585900Y-116924600D03*
G04 #@! TO.N,bbus31*
X84897400Y-118722500D03*
X43236200Y-118748300D03*
G04 #@! TO.N,g6bus0*
X47064800Y-45619200D03*
X78666700Y-120853000D03*
G04 #@! TO.N,g6bus1*
X66566300Y-121214400D03*
X47060600Y-46459900D03*
G04 #@! TO.N,g6bus2*
X47052100Y-47210300D03*
X53333100Y-119675000D03*
G04 #@! TO.N,g6bus3*
X46282400Y-49931500D03*
X45673700Y-119657000D03*
G04 #@! TO.N,sabus0*
X89575600Y-48419400D03*
X90042200Y-88477900D03*
G04 #@! TO.N,cbus0*
X88511400Y-124628300D03*
G04 #@! TO.N,cbus7*
X79313700Y-125202900D03*
G04 #@! TO.N,cbus14*
X78285500Y-128933600D03*
X63489200Y-126800300D03*
G04 #@! TO.N,cbus21*
X51549500Y-127732600D03*
X79553900Y-132822800D03*
G04 #@! TO.N,cbus28*
X81426700Y-137047400D03*
X38890800Y-128452200D03*
G04 #@! TO.N,cbus5*
X85052600Y-126447900D03*
G04 #@! TO.N,cbus1*
X82663200Y-124046300D03*
G04 #@! TO.N,cbus12*
X77792500Y-127310200D03*
G04 #@! TO.N,cbus19*
X76980000Y-128898600D03*
G04 #@! TO.N,sabus1*
X89341700Y-88097200D03*
X89217500Y-47322800D03*
G04 #@! TO.N,cbus8*
X70259600Y-125915000D03*
G04 #@! TO.N,cbus15*
X80800800Y-129882500D03*
G04 #@! TO.N,cbus26*
X56971200Y-127984200D03*
G04 #@! TO.N,cbus33*
X87300900Y-135989500D03*
X45442000Y-127683800D03*
G04 #@! TO.N,cbus22*
X49047500Y-127732600D03*
X79408700Y-133717300D03*
G04 #@! TO.N,cbus29*
X38521300Y-127466400D03*
X82436900Y-136185700D03*
G04 #@! TO.N,cbus6*
X82151000Y-124779800D03*
G04 #@! TO.N,cbus13*
X74748100Y-130217000D03*
G04 #@! TO.N,cbus20*
X79012200Y-132272400D03*
X62249100Y-132511300D03*
G04 #@! TO.N,cbus27*
X52380200Y-132324000D03*
X83733300Y-134983500D03*
G04 #@! TO.N,cbus34*
X88219900Y-133848200D03*
X48497600Y-132320400D03*
G04 #@! TO.N,cbus2*
X81288100Y-128813000D03*
X86992600Y-127314700D03*
G04 #@! TO.N,sabus2*
X90328100Y-48743000D03*
X90721600Y-96185800D03*
G04 #@! TO.N,cbus4*
X85689800Y-126882200D03*
G04 #@! TO.N,cbus9*
X71404000Y-133522000D03*
G04 #@! TO.N,cbus16*
X78279900Y-130556400D03*
X60935600Y-132791000D03*
G04 #@! TO.N,cbus11*
X82378700Y-127711500D03*
G04 #@! TO.N,cbus18*
X80140200Y-131371800D03*
G04 #@! TO.N,cbus23*
X79778700Y-134958900D03*
G04 #@! TO.N,cbus30*
X47030200Y-134348100D03*
X85355000Y-134934500D03*
G04 #@! TO.N,cbus25*
X57466400Y-134038300D03*
X80516000Y-136401400D03*
G04 #@! TO.N,cbus32*
X86637900Y-135475400D03*
X48087600Y-133408400D03*
G04 #@! TO.N,cbus3*
X87313200Y-126101900D03*
G04 #@! TO.N,cbus10*
X72393100Y-136749300D03*
G04 #@! TO.N,cbus17*
X76429700Y-136750800D03*
G04 #@! TO.N,cbus24*
X79511600Y-136631200D03*
G04 #@! TO.N,cbus31*
X43376600Y-137824600D03*
X83009200Y-136686600D03*
G04 #@! TO.N,sbbus0*
X90939000Y-111080200D03*
X90878500Y-48222700D03*
G04 #@! TO.N,sbbus1*
X90656700Y-113908600D03*
X92172100Y-48199600D03*
G04 #@! TO.N,sbbus2*
X92835900Y-115174300D03*
X90429200Y-45531600D03*
G04 #@! TO.N,scbus0*
X89902200Y-44971000D03*
X89664900Y-126174600D03*
G04 #@! TO.N,scbus1*
X90150700Y-128458200D03*
X89066300Y-44588800D03*
G04 #@! TO.N,scbus2*
X89114600Y-126704400D03*
X88698800Y-43862600D03*
G04 #@! TO.N,/SCL0*
X65930800Y-83362700D03*
X68312700Y-42364000D03*
X89953800Y-97545100D03*
G04 #@! TO.N,/SDA0*
X66500400Y-82791100D03*
X51286100Y-82791100D03*
X93473100Y-128341100D03*
X89467100Y-111731000D03*
X69151600Y-42357200D03*
X90171200Y-94597900D03*
G04 #@! TO.N,/SCL1*
X51602000Y-40237700D03*
X84694600Y-41884500D03*
X56388100Y-81136100D03*
G04 #@! TO.N,/SDA1*
X85565000Y-42011600D03*
X58339700Y-83536400D03*
X52312700Y-42361900D03*
X73110600Y-40804100D03*
G04 #@! TO.N,VCC*
X48203000Y-80438400D03*
X90052400Y-114524400D03*
X89489000Y-95707200D03*
X82205300Y-79222800D03*
X58463400Y-81438300D03*
X53175000Y-41938200D03*
X86354500Y-42153900D03*
G04 #@! TD*
D17*
G04 #@! TO.N,g0bus0*
X90604100Y-38862000D02*
X82065200Y-38862000D01*
X82065200Y-38862000D02*
X80592900Y-40334300D01*
G04 #@! TO.N,g0bus2*
X76278500Y-38862000D02*
X76278500Y-41573100D01*
X73848500Y-45810600D02*
X74056300Y-45602800D01*
X72783000Y-44997400D02*
X72783000Y-45489100D01*
X73281300Y-44499100D02*
X72783000Y-44997400D01*
X72783000Y-45489100D02*
X73104500Y-45810600D01*
X76278500Y-41573100D02*
X73352500Y-44499100D01*
X73104500Y-45810600D02*
X73848500Y-45810600D01*
X73352500Y-44499100D02*
X73281300Y-44499100D01*
G04 #@! TO.N,g1bus0*
X49226100Y-35840800D02*
X51345400Y-35840800D01*
X51345400Y-35840800D02*
X52832100Y-37327500D01*
X52832100Y-37327500D02*
X54746200Y-37327500D01*
X48236900Y-36830000D02*
X49226100Y-35840800D01*
G04 #@! TO.N,g1bus3*
X52479500Y-35490400D02*
X52685500Y-35696400D01*
X40058100Y-36830000D02*
X41397700Y-35490400D01*
X41397700Y-35490400D02*
X52479500Y-35490400D01*
G04 #@! TO.N,g0bus3*
X81707600Y-43879600D02*
X81416300Y-43588300D01*
X83644500Y-43332400D02*
X83097300Y-43879600D01*
X74995300Y-43588300D02*
X73333500Y-45250100D01*
X81416300Y-43588300D02*
X74995300Y-43588300D01*
X83097300Y-43879600D02*
X81707600Y-43879600D01*
G04 #@! TO.N,g1bus1*
X84383200Y-50589900D02*
X84212100Y-50761000D01*
X72959400Y-46160900D02*
X75344300Y-46160900D01*
X54281100Y-41147000D02*
X68808800Y-41147000D01*
X81385100Y-45725200D02*
X84383200Y-48723300D01*
X84383200Y-48723300D02*
X84383200Y-50589900D01*
X76473700Y-45031500D02*
X79704900Y-45031500D01*
X79704900Y-45031500D02*
X80398600Y-45725200D01*
X80398600Y-45725200D02*
X81385100Y-45725200D01*
X68808800Y-41147000D02*
X69807800Y-42146000D01*
X69807800Y-43009300D02*
X72959400Y-46160900D01*
X53113700Y-39979600D02*
X54281100Y-41147000D01*
X75344300Y-46160900D02*
X76473700Y-45031500D01*
X69807800Y-42146000D02*
X69807800Y-43009300D01*
G04 #@! TO.N,g1bus2*
X43715700Y-39979600D02*
X44563200Y-40827100D01*
G04 #@! TO.N,g0bus1*
X90604100Y-47040800D02*
X88012800Y-44449500D01*
X81607100Y-44449500D02*
X81342300Y-44184700D01*
X88012800Y-44449500D02*
X81607100Y-44449500D01*
X81342300Y-44184700D02*
X76046800Y-44184700D01*
G04 #@! TO.N,g0bus6*
X75490800Y-47040800D02*
X75320300Y-46870300D01*
X76278500Y-47040800D02*
X75490800Y-47040800D01*
G04 #@! TO.N,g0bus5*
X80857400Y-46825900D02*
X81628200Y-46825900D01*
X78698500Y-45581800D02*
X79812500Y-46695800D01*
X78500700Y-45581800D02*
X78698500Y-45581800D01*
X79812500Y-46695800D02*
X80727300Y-46695800D01*
X81628200Y-46825900D02*
X83644500Y-48842200D01*
X83644500Y-48842200D02*
X83644500Y-49631600D01*
X80727300Y-46695800D02*
X80857400Y-46825900D01*
G04 #@! TO.N,g0bus4*
X75707800Y-44735000D02*
X76274700Y-44735000D01*
X79812700Y-44643800D02*
X80543800Y-45374900D01*
X90604100Y-51552000D02*
X90604100Y-54051200D01*
X76274700Y-44735000D02*
X76365900Y-44643800D01*
X84427000Y-45374900D02*
X90604100Y-51552000D01*
X76365900Y-44643800D02*
X79812700Y-44643800D01*
X75171900Y-44199100D02*
X75707800Y-44735000D01*
X80543800Y-45374900D02*
X84427000Y-45374900D01*
G04 #@! TO.N,g0bus7*
X76126500Y-53899200D02*
X76126500Y-52797500D01*
X76278500Y-54051200D02*
X76126500Y-53899200D01*
G04 #@! TO.N,dbus0*
X54304100Y-43241700D02*
X66188000Y-43241700D01*
X50472100Y-43789600D02*
X51432800Y-44750300D01*
X51432800Y-44750300D02*
X52795500Y-44750300D01*
X52795500Y-44750300D02*
X54304100Y-43241700D01*
G04 #@! TO.N,dbus7*
X50023100Y-50103800D02*
X49171500Y-49252200D01*
X56596100Y-47773100D02*
X54265400Y-50103800D01*
X39956500Y-44079800D02*
X39956500Y-43789600D01*
X49171500Y-49252200D02*
X45128900Y-49252200D01*
X45128900Y-49252200D02*
X39956500Y-44079800D01*
X63844200Y-47773100D02*
X56596100Y-47773100D01*
X54265400Y-50103800D02*
X50023100Y-50103800D01*
G04 #@! TO.N,dbus5*
X55172500Y-45721100D02*
X62668700Y-45721100D01*
X62668700Y-45721100D02*
X63449300Y-46501700D01*
X54824600Y-45373200D02*
X55172500Y-45721100D01*
G04 #@! TO.N,dbus12*
X44359800Y-45678000D02*
X46052200Y-45678000D01*
X46661800Y-45068400D02*
X49237000Y-45068400D01*
X63499700Y-44157900D02*
X66312400Y-46970600D01*
X49237000Y-45068400D02*
X49336100Y-45167500D01*
X66312400Y-46970600D02*
X66312400Y-49153500D01*
X46052200Y-45678000D02*
X46661800Y-45068400D01*
X52873800Y-45167500D02*
X53883400Y-44157900D01*
X53883400Y-44157900D02*
X63499700Y-44157900D01*
X66312400Y-49153500D02*
X66312500Y-49153500D01*
X49336100Y-45167500D02*
X52873800Y-45167500D01*
G04 #@! TO.N,dbus1*
X52901100Y-45932000D02*
X54320000Y-44513100D01*
X48271400Y-45932000D02*
X52901100Y-45932000D01*
X54320000Y-44513100D02*
X60554900Y-44513100D01*
X60554900Y-44513100D02*
X61212600Y-45170800D01*
G04 #@! TO.N,dbus8*
X37451000Y-45728800D02*
X37661600Y-45518200D01*
X37661600Y-45518200D02*
X38660700Y-45518200D01*
G04 #@! TO.N,dbus6*
X51488100Y-49123600D02*
X51266300Y-48901800D01*
X51266300Y-48901800D02*
X47116500Y-48901800D01*
X47116500Y-48901800D02*
X46632800Y-48418100D01*
G04 #@! TO.N,dbus13*
X41124900Y-48996700D02*
X41124900Y-49377600D01*
X41798800Y-48322800D02*
X41124900Y-48996700D01*
G04 #@! TO.N,dbus2*
X49795400Y-51367600D02*
X54487900Y-51367600D01*
X55815200Y-50040300D02*
X60275600Y-50040300D01*
X54487900Y-51367600D02*
X55815200Y-50040300D01*
G04 #@! TO.N,dbus9*
X39025800Y-51418400D02*
X40227100Y-51418400D01*
G04 #@! TO.N,dbus4*
X65244200Y-49236100D02*
X63519100Y-50961200D01*
X64235500Y-45687700D02*
X65244200Y-46696400D01*
X63519100Y-50961200D02*
X56399400Y-50961200D01*
X65244200Y-46696400D02*
X65244200Y-49236100D01*
G04 #@! TO.N,dbus11*
X46477400Y-50520000D02*
X54417100Y-50520000D01*
X63261900Y-49470300D02*
X63730400Y-49938800D01*
X55466800Y-49470300D02*
X63261900Y-49470300D01*
X54417100Y-50520000D02*
X55466800Y-49470300D01*
X45782200Y-51215200D02*
X46477400Y-50520000D01*
G04 #@! TO.N,dbus3*
X52910500Y-54914800D02*
X53909200Y-53916100D01*
X53909200Y-53916100D02*
X58441300Y-53916100D01*
X58441300Y-53916100D02*
X60360400Y-51997000D01*
G04 #@! TO.N,dbus10*
X42191700Y-54914800D02*
X43046600Y-54059900D01*
G04 #@! TO.N,g2bus0*
X85618900Y-60560400D02*
X85618900Y-59773000D01*
X85219300Y-60960000D02*
X85618900Y-60560400D01*
G04 #@! TO.N,g2bus3*
X76436700Y-61931000D02*
X77817800Y-61931000D01*
X77817800Y-61931000D02*
X85597900Y-54150900D01*
X75465700Y-60960000D02*
X76436700Y-61931000D01*
X85597900Y-54150900D02*
X86808600Y-54150900D01*
G04 #@! TO.N,g3bus0*
X50620100Y-60405600D02*
X53720500Y-60405600D01*
X49659300Y-61366400D02*
X50620100Y-60405600D01*
G04 #@! TO.N,g3bus3*
X39702500Y-61468000D02*
X39702500Y-61666100D01*
X39702500Y-61666100D02*
X41031300Y-62994900D01*
G04 #@! TO.N,g2bus1*
X90299300Y-59707700D02*
X86177500Y-55585900D01*
X90299300Y-64109600D02*
X90299300Y-59707700D01*
G04 #@! TO.N,g2bus2*
X86222500Y-54762500D02*
X86989300Y-54762500D01*
X85294000Y-55691000D02*
X86222500Y-54762500D01*
X85294000Y-58599300D02*
X85294000Y-55691000D01*
X87370600Y-52784300D02*
X86745400Y-52159100D01*
X86989300Y-54762500D02*
X87370600Y-54381200D01*
X79783700Y-64109600D02*
X85294000Y-58599300D01*
X87370600Y-54381200D02*
X87370600Y-52784300D01*
G04 #@! TO.N,g3bus1*
X54586900Y-63754000D02*
X54586900Y-62498100D01*
G04 #@! TO.N,g3bus2*
X44325300Y-63855600D02*
X44325300Y-63662400D01*
X44325300Y-63662400D02*
X45071300Y-62916400D01*
G04 #@! TO.N,ebus0*
X86742100Y-67512000D02*
X86742100Y-67222000D01*
X87454500Y-68224400D02*
X86742100Y-67512000D01*
G04 #@! TO.N,ebus7*
X75163600Y-66296700D02*
X75163600Y-65648200D01*
X77091300Y-68224400D02*
X75163600Y-66296700D01*
G04 #@! TO.N,fbus0*
X50344800Y-68250100D02*
X49199700Y-68250100D01*
X50370500Y-68224400D02*
X50344800Y-68250100D01*
G04 #@! TO.N,fbus7*
X48043600Y-58737500D02*
X67323800Y-58737500D01*
X77464300Y-48597000D02*
X79503600Y-48597000D01*
X40108900Y-68224400D02*
X40108900Y-66672200D01*
X40108900Y-66672200D02*
X48043600Y-58737500D01*
X67323800Y-58737500D02*
X77464300Y-48597000D01*
X79503600Y-48597000D02*
X80153800Y-47946800D01*
G04 #@! TO.N,ebus5*
X92010200Y-69120600D02*
X92190000Y-68940800D01*
X92010200Y-70011200D02*
X92010200Y-69120600D01*
G04 #@! TO.N,ebus12*
X81494600Y-70417600D02*
X81588500Y-70323700D01*
X81588500Y-70323700D02*
X81588500Y-69359400D01*
G04 #@! TO.N,ebus1*
X83405800Y-71300400D02*
X77910200Y-71300400D01*
X85101400Y-69604800D02*
X83405800Y-71300400D01*
X77884000Y-69031500D02*
X77884000Y-65861300D01*
X77884000Y-65861300D02*
X71676400Y-59653700D01*
X77910200Y-71300400D02*
X77441300Y-70831500D01*
X77441300Y-70831500D02*
X77441300Y-69474200D01*
X71676400Y-59653700D02*
X70160600Y-59653700D01*
X77441300Y-69474200D02*
X77884000Y-69031500D01*
G04 #@! TO.N,ebus8*
X74585800Y-64060700D02*
X73731700Y-63206600D01*
X74585800Y-69909600D02*
X74585800Y-64060700D01*
G04 #@! TO.N,fbus5*
X57533100Y-69909600D02*
X74649500Y-52793200D01*
X54926200Y-69909600D02*
X57533100Y-69909600D01*
G04 #@! TO.N,fbus12*
X44207400Y-69248900D02*
X44346200Y-69110100D01*
X44207400Y-70163600D02*
X44207400Y-69248900D01*
G04 #@! TO.N,fbus1*
X65540600Y-61016200D02*
X76303500Y-50253300D01*
X55600200Y-63196900D02*
X57780900Y-61016200D01*
X50042700Y-66628900D02*
X53137600Y-66628900D01*
X53137600Y-66628900D02*
X55600200Y-64166300D01*
X57780900Y-61016200D02*
X65540600Y-61016200D01*
X76303500Y-50253300D02*
X77944200Y-50253300D01*
X48169800Y-70062000D02*
X48169800Y-68501800D01*
X48169800Y-68501800D02*
X50042700Y-66628900D01*
X55600200Y-64166300D02*
X55600200Y-63196900D01*
G04 #@! TO.N,fbus8*
X79674900Y-47396400D02*
X80437100Y-47396400D01*
X37501800Y-68783400D02*
X49194000Y-57091200D01*
X37501800Y-69808000D02*
X37501800Y-68783400D01*
X80767200Y-47726500D02*
X81152900Y-47726500D01*
X68474700Y-57091200D02*
X77319200Y-48246700D01*
X77319200Y-48246700D02*
X78824600Y-48246700D01*
X80437100Y-47396400D02*
X80767200Y-47726500D01*
X49194000Y-57091200D02*
X68474700Y-57091200D01*
X78824600Y-48246700D02*
X79674900Y-47396400D01*
G04 #@! TO.N,ebus6*
X77394300Y-74713400D02*
X76048700Y-73367800D01*
X88724500Y-73761600D02*
X81801100Y-73761600D01*
X80849300Y-74713400D02*
X77394300Y-74713400D01*
X81801100Y-73761600D02*
X80849300Y-74713400D01*
G04 #@! TO.N,ebus13*
X78107300Y-73761600D02*
X78107300Y-73469500D01*
X78107300Y-73469500D02*
X77404800Y-72767000D01*
G04 #@! TO.N,fbus6*
X76391100Y-51259300D02*
X75225900Y-52424500D01*
X64868900Y-63651900D02*
X55714600Y-72806200D01*
X64868900Y-63107800D02*
X64868900Y-63651900D01*
X52595900Y-72806200D02*
X51640500Y-73761600D01*
X75225900Y-52424500D02*
X75225900Y-53011000D01*
X55714600Y-72806200D02*
X52595900Y-72806200D01*
X77894900Y-51259300D02*
X76391100Y-51259300D01*
X74633200Y-53343500D02*
X64868900Y-63107800D01*
X74893400Y-53343500D02*
X74633200Y-53343500D01*
X79198200Y-49956000D02*
X77894900Y-51259300D01*
X75225900Y-53011000D02*
X74893400Y-53343500D01*
G04 #@! TO.N,fbus13*
X41023300Y-72876000D02*
X41023300Y-73710800D01*
X41363000Y-72536300D02*
X41023300Y-72876000D01*
G04 #@! TO.N,ebus2*
X81063300Y-75064300D02*
X77161900Y-75064300D01*
X76534400Y-74436800D02*
X75414100Y-74436800D01*
X77161900Y-75064300D02*
X76534400Y-74436800D01*
X81580600Y-74547000D02*
X81063300Y-75064300D01*
X86727000Y-75548400D02*
X85725600Y-74547000D01*
X85725600Y-74547000D02*
X81580600Y-74547000D01*
G04 #@! TO.N,ebus9*
X75563600Y-75396000D02*
X73545500Y-73377900D01*
X76059000Y-75396000D02*
X75563600Y-75396000D01*
X73545500Y-73377900D02*
X73545500Y-67733400D01*
X73545500Y-67733400D02*
X73620000Y-67658900D01*
G04 #@! TO.N,ebus4*
X93534200Y-75396000D02*
X92257200Y-75396000D01*
G04 #@! TO.N,ebus11*
X83300600Y-77207200D02*
X82796300Y-77711500D01*
X82796300Y-77711500D02*
X81588300Y-77711500D01*
G04 #@! TO.N,fbus2*
X50109900Y-74776700D02*
X50109900Y-74297100D01*
X49541400Y-75345200D02*
X50109900Y-74776700D01*
G04 #@! TO.N,fbus9*
X38924200Y-75294400D02*
X38875600Y-75245800D01*
X38875600Y-75245800D02*
X38875600Y-74243500D01*
G04 #@! TO.N,fbus4*
X56501000Y-75548400D02*
X66144400Y-65905000D01*
X66144400Y-62835400D02*
X72478800Y-56501000D01*
X66144400Y-65905000D02*
X66144400Y-62835400D01*
X72478800Y-56501000D02*
X76973300Y-56501000D01*
G04 #@! TO.N,fbus11*
X45782200Y-69416200D02*
X50837100Y-64361300D01*
X50837100Y-64361300D02*
X50837100Y-62492900D01*
X45782200Y-75345200D02*
X45782200Y-69416200D01*
G04 #@! TO.N,ebus3*
X83621800Y-79197200D02*
X82739500Y-80079500D01*
X89892900Y-79197200D02*
X83621800Y-79197200D01*
G04 #@! TO.N,ebus10*
X79326500Y-79197200D02*
X78362300Y-78233000D01*
G04 #@! TO.N,fbus3*
X75038500Y-53693800D02*
X74778300Y-53693800D01*
X79315600Y-46977400D02*
X79384300Y-47046100D01*
X75576200Y-53156100D02*
X75038500Y-53693800D01*
X74778300Y-53693800D02*
X65352900Y-63119200D01*
X65352900Y-63119200D02*
X65352900Y-63663200D01*
X80582200Y-47046100D02*
X80712300Y-47176200D01*
X79334800Y-52247200D02*
X75898600Y-52247200D01*
X81436800Y-47176200D02*
X82122500Y-47861900D01*
X52504100Y-76512000D02*
X52504100Y-79197200D01*
X75576200Y-52569600D02*
X75576200Y-53156100D01*
X75898600Y-52247200D02*
X75576200Y-52569600D01*
X79384300Y-47046100D02*
X80582200Y-47046100D01*
X82122500Y-47861900D02*
X82122500Y-49459500D01*
X82122500Y-49459500D02*
X79334800Y-52247200D01*
X65352900Y-63663200D02*
X52504100Y-76512000D01*
X80712300Y-47176200D02*
X81436800Y-47176200D01*
G04 #@! TO.N,fbus10*
X42394900Y-79197200D02*
X42394900Y-78038100D01*
G04 #@! TO.N,g4bus0*
X80635000Y-81572500D02*
X81485500Y-82423000D01*
G04 #@! TO.N,g4bus1*
X69217900Y-82225500D02*
X69959600Y-82225500D01*
X69959600Y-82225500D02*
X70182500Y-82448400D01*
G04 #@! TO.N,g4bus2*
X51984800Y-82448400D02*
X51558000Y-82021600D01*
X57380900Y-82448400D02*
X51984800Y-82448400D01*
G04 #@! TO.N,g4bus3*
X44958000Y-82423000D02*
X47265400Y-80115600D01*
X47265400Y-76293200D02*
X49263800Y-74294800D01*
X49263800Y-74294800D02*
X49318100Y-74294800D01*
X47265400Y-80115600D02*
X47265400Y-76293200D01*
G04 #@! TO.N,abus0*
X81510900Y-87426800D02*
X82691100Y-86246600D01*
X82691100Y-86246600D02*
X87643300Y-86246600D01*
X87643300Y-86246600D02*
X87843600Y-86446900D01*
G04 #@! TO.N,abus7*
X78336800Y-86529400D02*
X80167900Y-86529400D01*
X72055000Y-88384900D02*
X76481300Y-88384900D01*
X71096900Y-87426800D02*
X72055000Y-88384900D01*
X76481300Y-88384900D02*
X78336800Y-86529400D01*
G04 #@! TO.N,abus14*
X60835300Y-87426800D02*
X61669700Y-86592400D01*
X61669700Y-86592400D02*
X61721300Y-86592400D01*
G04 #@! TO.N,abus21*
X50631400Y-87840100D02*
X50631400Y-88987900D01*
X50218100Y-87426800D02*
X50631400Y-87840100D01*
G04 #@! TO.N,abus28*
X40627700Y-88148800D02*
X40627700Y-88402000D01*
X39905700Y-87426800D02*
X40627700Y-88148800D01*
G04 #@! TO.N,abus5*
X86066600Y-89315200D02*
X86066600Y-88344400D01*
X86066600Y-88344400D02*
X85355600Y-87633400D01*
G04 #@! TO.N,abus1*
X87296100Y-89441700D02*
X87296100Y-89359800D01*
X82567600Y-90174600D02*
X86563200Y-90174600D01*
X81696900Y-90589500D02*
X82152700Y-90589500D01*
X79208600Y-89112000D02*
X80219400Y-89112000D01*
X80219400Y-89112000D02*
X81696900Y-90589500D01*
X82152700Y-90589500D02*
X82567600Y-90174600D01*
X86563200Y-90174600D02*
X87296100Y-89441700D01*
G04 #@! TO.N,abus12*
X77645600Y-88213200D02*
X80098800Y-88213200D01*
X76492800Y-89366000D02*
X77645600Y-88213200D01*
X75500200Y-89366000D02*
X76492800Y-89366000D01*
X80098800Y-88213200D02*
X81924800Y-90039200D01*
G04 #@! TO.N,abus19*
X66323500Y-89366000D02*
X66375100Y-89417600D01*
X65137000Y-89366000D02*
X66323500Y-89366000D01*
G04 #@! TO.N,abus8*
X70130900Y-88959600D02*
X70538900Y-88551600D01*
X68693000Y-88959600D02*
X70130900Y-88959600D01*
G04 #@! TO.N,abus15*
X58279000Y-89010400D02*
X59483000Y-89010400D01*
G04 #@! TO.N,abus26*
X63479300Y-94952700D02*
X63157000Y-94630400D01*
X58174400Y-91742600D02*
X55848600Y-89416800D01*
X62008200Y-94630400D02*
X59120400Y-91742600D01*
X55848600Y-89416800D02*
X54824600Y-89416800D01*
X68252500Y-99878500D02*
X63479300Y-95105300D01*
X63479300Y-95105300D02*
X63479300Y-94952700D01*
X59120400Y-91742600D02*
X58174400Y-91742600D01*
X81583700Y-99878500D02*
X68252500Y-99878500D01*
X63157000Y-94630400D02*
X62008200Y-94630400D01*
G04 #@! TO.N,abus33*
X49582400Y-88226200D02*
X49937900Y-88581700D01*
X45601200Y-88226200D02*
X49582400Y-88226200D01*
X44309000Y-89518400D02*
X45601200Y-88226200D01*
G04 #@! TO.N,abus22*
X47865000Y-89112000D02*
X48495100Y-89742100D01*
X48495100Y-89742100D02*
X49227900Y-89742100D01*
G04 #@! TO.N,abus29*
X37400200Y-88908800D02*
X38186200Y-88908800D01*
X38186200Y-88908800D02*
X38620300Y-89342900D01*
G04 #@! TO.N,abus6*
X82679300Y-93065600D02*
X82373300Y-92759600D01*
X82373300Y-92759600D02*
X80132700Y-92759600D01*
X80132700Y-92759600D02*
X79781800Y-93110500D01*
G04 #@! TO.N,abus13*
X73165800Y-92114300D02*
X76752100Y-92114300D01*
X76752100Y-92114300D02*
X76903700Y-92265900D01*
X72214500Y-93065600D02*
X73165800Y-92114300D01*
G04 #@! TO.N,abus20*
X61851300Y-93065600D02*
X62813300Y-94027600D01*
X62813300Y-94027600D02*
X64191400Y-94027600D01*
X64191400Y-94027600D02*
X64670100Y-93548900D01*
G04 #@! TO.N,abus27*
X51832400Y-93663900D02*
X51832400Y-94270000D01*
X51284900Y-93116400D02*
X51832400Y-93663900D01*
G04 #@! TO.N,abus34*
X40870900Y-93065600D02*
X41666900Y-93861600D01*
X41666900Y-93861600D02*
X41666900Y-93965500D01*
G04 #@! TO.N,abus2*
X87908300Y-89139500D02*
X87287600Y-88518800D01*
X87908300Y-91127100D02*
X87908300Y-89139500D01*
X84993800Y-94041600D02*
X87908300Y-91127100D01*
X80631000Y-94801600D02*
X81391000Y-94041600D01*
X87287600Y-88518800D02*
X87021000Y-88518800D01*
X81391000Y-94041600D02*
X84993800Y-94041600D01*
G04 #@! TO.N,abus4*
X86028200Y-86714900D02*
X85939400Y-86803700D01*
X86695900Y-86714900D02*
X86028200Y-86714900D01*
X87489000Y-95004800D02*
X88612300Y-93881500D01*
X88612300Y-88631300D02*
X86695900Y-86714900D01*
X88612300Y-93881500D02*
X88612300Y-88631300D01*
G04 #@! TO.N,abus9*
X71902300Y-94750800D02*
X72404900Y-94248200D01*
X70217000Y-94750800D02*
X71902300Y-94750800D01*
G04 #@! TO.N,abus16*
X59752200Y-94700000D02*
X60232900Y-95180700D01*
X60232900Y-95180700D02*
X62929000Y-95180700D01*
G04 #@! TO.N,abus11*
X76922600Y-94793700D02*
X75971200Y-93842300D01*
X76922600Y-94801600D02*
X76922600Y-94793700D01*
G04 #@! TO.N,abus18*
X66444200Y-97574800D02*
X72166200Y-97574800D01*
X66036300Y-97166900D02*
X66444200Y-97574800D01*
X66036300Y-95426300D02*
X66036300Y-97166900D01*
X66559400Y-94903200D02*
X66036300Y-95426300D01*
X72166200Y-97574800D02*
X72707700Y-97033300D01*
G04 #@! TO.N,abus23*
X49590600Y-94700000D02*
X50299600Y-95409000D01*
X49389000Y-94700000D02*
X49590600Y-94700000D01*
G04 #@! TO.N,abus30*
X38975000Y-94649200D02*
X39591900Y-94649200D01*
X39591900Y-94649200D02*
X40107400Y-95164700D01*
G04 #@! TO.N,abus25*
X56043800Y-94598400D02*
X57271300Y-94598400D01*
G04 #@! TO.N,abus32*
X50481700Y-93820200D02*
X50935900Y-94274400D01*
X45731400Y-94700000D02*
X46611200Y-93820200D01*
X46611200Y-93820200D02*
X50481700Y-93820200D01*
G04 #@! TO.N,abus3*
X83861400Y-98436700D02*
X83861400Y-96459100D01*
X88261900Y-88958400D02*
X86643000Y-87339500D01*
X88261900Y-92058600D02*
X88261900Y-88958400D01*
X86643000Y-87339500D02*
X86510600Y-87339500D01*
X83861400Y-96459100D02*
X88261900Y-92058600D01*
X83695300Y-98602800D02*
X83861400Y-98436700D01*
G04 #@! TO.N,abus10*
X73433700Y-96121900D02*
X74858100Y-94697500D01*
X73433700Y-98602800D02*
X73433700Y-96121900D01*
G04 #@! TO.N,abus17*
X62918100Y-98602800D02*
X63725900Y-99410600D01*
X63725900Y-99410600D02*
X63905100Y-99410600D01*
G04 #@! TO.N,abus24*
X52656500Y-98602800D02*
X53607800Y-97651500D01*
X53607800Y-97651500D02*
X57443400Y-97651500D01*
X57443400Y-97651500D02*
X57610300Y-97818400D01*
G04 #@! TO.N,abus31*
X42293300Y-98602800D02*
X42293300Y-99770900D01*
G04 #@! TO.N,g5bus0*
X80291700Y-101752000D02*
X75698700Y-101752000D01*
X75698700Y-101752000D02*
X75594300Y-101647600D01*
G04 #@! TO.N,g5bus1*
X68099700Y-101752000D02*
X62240200Y-101752000D01*
X62240200Y-101752000D02*
X61290900Y-100802700D01*
G04 #@! TO.N,g5bus2*
X57001300Y-101752000D02*
X56046000Y-100796700D01*
X57431700Y-101752000D02*
X57001300Y-101752000D01*
G04 #@! TO.N,g5bus3*
X45646100Y-101752000D02*
X45554600Y-101660500D01*
X45554600Y-101660500D02*
X45554600Y-100583400D01*
G04 #@! TO.N,bbus0*
X82301700Y-106143600D02*
X82301700Y-105440600D01*
X81663300Y-106782000D02*
X82301700Y-106143600D01*
X82301700Y-105440600D02*
X82301800Y-105440600D01*
G04 #@! TO.N,bbus7*
X71046100Y-106782000D02*
X72960100Y-104868000D01*
X82577300Y-104868000D02*
X83119100Y-105409800D01*
X72960100Y-104868000D02*
X82577300Y-104868000D01*
G04 #@! TO.N,bbus14*
X68100700Y-110383900D02*
X68100700Y-110662000D01*
X70240100Y-111125300D02*
X74654800Y-106710600D01*
X68564000Y-111125300D02*
X70240100Y-111125300D01*
X74654800Y-106710600D02*
X78663900Y-106710600D01*
X68100700Y-110662000D02*
X68564000Y-111125300D01*
X60784500Y-106782000D02*
X61769400Y-107766900D01*
X65483700Y-107766900D02*
X68100700Y-110383900D01*
X61769400Y-107766900D02*
X65483700Y-107766900D01*
G04 #@! TO.N,bbus21*
X50218100Y-106782000D02*
X51080200Y-107644100D01*
G04 #@! TO.N,bbus28*
X41901400Y-105811900D02*
X42372900Y-106283400D01*
X39550100Y-106782000D02*
X40520200Y-105811900D01*
X40520200Y-105811900D02*
X41901400Y-105811900D01*
G04 #@! TO.N,bbus5*
X85287600Y-107238600D02*
X85812600Y-107763600D01*
X86831400Y-105819300D02*
X86159400Y-105819300D01*
X85812600Y-107763600D02*
X85812600Y-108619400D01*
X85287600Y-106691100D02*
X85287600Y-107238600D01*
X86159400Y-105819300D02*
X85287600Y-106691100D01*
G04 #@! TO.N,bbus1*
X79056200Y-108466400D02*
X80186300Y-108466400D01*
X80186300Y-108466400D02*
X80503700Y-108783800D01*
G04 #@! TO.N,bbus12*
X80782100Y-107611200D02*
X80431800Y-107260900D01*
X76502900Y-107260900D02*
X75449400Y-108314400D01*
X80431800Y-107260900D02*
X76502900Y-107260900D01*
G04 #@! TO.N,bbus19*
X65405700Y-108873400D02*
X65137000Y-108873400D01*
X79946800Y-107611200D02*
X77550800Y-107611200D01*
X79862100Y-112211500D02*
X81681500Y-110392100D01*
X75884100Y-109277900D02*
X72830400Y-109277900D01*
X81681500Y-109183300D02*
X80731700Y-108233500D01*
X72830400Y-109277900D02*
X70632600Y-111475700D01*
X81681500Y-110392100D02*
X81681500Y-109183300D01*
X77550800Y-107611200D02*
X75884100Y-109277900D01*
X80569100Y-108233500D02*
X79946800Y-107611200D01*
X80731700Y-108233500D02*
X80569100Y-108233500D01*
X68008000Y-111475700D02*
X65405700Y-108873400D01*
X70632600Y-111475700D02*
X68008000Y-111475700D01*
G04 #@! TO.N,bbus8*
X68743800Y-108466400D02*
X70409400Y-108466400D01*
X70409400Y-108466400D02*
X70427700Y-108448100D01*
G04 #@! TO.N,bbus15*
X58279000Y-108263400D02*
X59497300Y-108263400D01*
G04 #@! TO.N,bbus26*
X54723000Y-109025400D02*
X55681900Y-109025400D01*
X55681900Y-109025400D02*
X55945500Y-109289000D01*
G04 #@! TO.N,bbus33*
X44314800Y-108888400D02*
X44953400Y-109527000D01*
X44953400Y-109527000D02*
X45312400Y-109527000D01*
G04 #@! TO.N,bbus22*
X47865000Y-108314400D02*
X49086500Y-108314400D01*
G04 #@! TO.N,bbus29*
X37501800Y-108619400D02*
X38710500Y-108619400D01*
G04 #@! TO.N,bbus6*
X81961300Y-112783000D02*
X81961300Y-113909900D01*
X82425300Y-112319000D02*
X81961300Y-112783000D01*
G04 #@! TO.N,bbus13*
X81129200Y-110012200D02*
X79238000Y-111903400D01*
X81129200Y-109593500D02*
X81129200Y-110012200D01*
X73119400Y-113223700D02*
X72163700Y-112268000D01*
X76810500Y-111903400D02*
X75490200Y-113223700D01*
X75490200Y-113223700D02*
X73119400Y-113223700D01*
X79238000Y-111903400D02*
X76810500Y-111903400D01*
G04 #@! TO.N,bbus20*
X64566500Y-111149400D02*
X65529500Y-112112400D01*
X61749700Y-112471000D02*
X61749700Y-112451900D01*
X61749700Y-112451900D02*
X63052200Y-111149400D01*
X63052200Y-111149400D02*
X64566500Y-111149400D01*
X65529500Y-112112400D02*
X66384100Y-112112400D01*
G04 #@! TO.N,bbus27*
X79954900Y-119406600D02*
X83199800Y-116161700D01*
X58423700Y-119406600D02*
X79954900Y-119406600D01*
X51488100Y-112471000D02*
X58423700Y-119406600D01*
G04 #@! TO.N,bbus34*
X40870900Y-112319000D02*
X41712500Y-113160600D01*
G04 #@! TO.N,bbus2*
X80580200Y-114207400D02*
X79369800Y-114207400D01*
G04 #@! TO.N,bbus4*
X87708200Y-108530100D02*
X87708200Y-113683000D01*
X85895100Y-106999700D02*
X86683700Y-106999700D01*
X87223700Y-108045600D02*
X87708200Y-108530100D01*
X86683700Y-106999700D02*
X87223700Y-107539700D01*
X87223700Y-107539700D02*
X87223700Y-108045600D01*
X85861100Y-107033700D02*
X85895100Y-106999700D01*
X87708200Y-113683000D02*
X87285800Y-114105400D01*
G04 #@! TO.N,bbus9*
X71213700Y-112855300D02*
X71213700Y-112302200D01*
X70064600Y-114004400D02*
X71213700Y-112855300D01*
G04 #@! TO.N,bbus16*
X63182500Y-111514500D02*
X64153300Y-111514500D01*
X62488500Y-112208500D02*
X63182500Y-111514500D01*
X62488500Y-113159300D02*
X62488500Y-112208500D01*
X59803000Y-114004400D02*
X61643400Y-114004400D01*
X64153300Y-111514500D02*
X64586100Y-111947300D01*
X61643400Y-114004400D02*
X62488500Y-113159300D01*
G04 #@! TO.N,bbus11*
X79846100Y-112764000D02*
X80129300Y-112764000D01*
X82349900Y-110543400D02*
X82349900Y-108095400D01*
X76821000Y-113597400D02*
X77346900Y-114123300D01*
X78486800Y-114123300D02*
X79846100Y-112764000D01*
X77346900Y-114123300D02*
X78486800Y-114123300D01*
X80129300Y-112764000D02*
X82349900Y-110543400D01*
G04 #@! TO.N,bbus18*
X66407000Y-113699400D02*
X66576100Y-113699400D01*
X70993100Y-116696400D02*
X73892600Y-113796900D01*
X66576100Y-113699400D02*
X69573100Y-116696400D01*
X69573100Y-116696400D02*
X70993100Y-116696400D01*
G04 #@! TO.N,bbus23*
X49389000Y-114105400D02*
X49643200Y-114359600D01*
X49643200Y-114359600D02*
X50758600Y-114359600D01*
G04 #@! TO.N,bbus30*
X38975000Y-114207400D02*
X40196900Y-114207400D01*
G04 #@! TO.N,bbus25*
X63111500Y-114900700D02*
X63674300Y-114337900D01*
X56890100Y-114900700D02*
X63111500Y-114900700D01*
X56043800Y-114054400D02*
X56890100Y-114900700D01*
G04 #@! TO.N,bbus32*
X53369200Y-115114100D02*
X58012100Y-119757000D01*
X46202900Y-113248900D02*
X50692700Y-113248900D01*
X58012100Y-119757000D02*
X84811800Y-119757000D01*
X84811800Y-119757000D02*
X84964200Y-119604600D01*
X50692700Y-113248900D02*
X52557900Y-115114100D01*
X45657400Y-113794400D02*
X46202900Y-113248900D01*
X52557900Y-115114100D02*
X53369200Y-115114100D01*
G04 #@! TO.N,bbus3*
X87323800Y-108687600D02*
X86465000Y-107828800D01*
X83847700Y-114547200D02*
X87323800Y-111071100D01*
X83847700Y-117856000D02*
X83847700Y-114547200D01*
X86465000Y-107828800D02*
X86465000Y-107559300D01*
X87323800Y-111071100D02*
X87323800Y-108687600D01*
G04 #@! TO.N,bbus10*
X73332100Y-116192200D02*
X73302400Y-116162500D01*
X73332100Y-117754000D02*
X73332100Y-116192200D01*
G04 #@! TO.N,bbus17*
X63927600Y-119017700D02*
X69566600Y-119017700D01*
X69566600Y-119017700D02*
X71761500Y-116822800D01*
X62968900Y-118059000D02*
X63927600Y-119017700D01*
G04 #@! TO.N,bbus24*
X52758100Y-117805000D02*
X52758100Y-117752400D01*
X52758100Y-117752400D02*
X53585900Y-116924600D01*
G04 #@! TO.N,bbus31*
X42394900Y-117907000D02*
X43236200Y-118748300D01*
G04 #@! TO.N,g6bus0*
X79631300Y-120853000D02*
X78666700Y-120853000D01*
G04 #@! TO.N,g6bus1*
X66749700Y-121031000D02*
X66566300Y-121214400D01*
X67515500Y-121031000D02*
X66749700Y-121031000D01*
G04 #@! TO.N,g6bus2*
X53333100Y-120259600D02*
X53333100Y-119675000D01*
X53926500Y-120853000D02*
X53333100Y-120259600D01*
G04 #@! TO.N,g6bus3*
X44477700Y-120853000D02*
X45673700Y-119657000D01*
G04 #@! TO.N,sabus0*
X90042200Y-88979700D02*
X90042200Y-88477900D01*
X92200000Y-91137500D02*
X90042200Y-88979700D01*
G04 #@! TO.N,cbus0*
X81460100Y-125832000D02*
X81877000Y-125832000D01*
X81877000Y-125832000D02*
X83080700Y-124628300D01*
X83080700Y-124628300D02*
X88511400Y-124628300D01*
G04 #@! TO.N,cbus7*
X71198500Y-125730000D02*
X72192500Y-126724000D01*
X72192500Y-126724000D02*
X77792600Y-126724000D01*
X77792600Y-126724000D02*
X79313700Y-125202900D01*
G04 #@! TO.N,cbus14*
X60276500Y-125832000D02*
X61244800Y-126800300D01*
X61244800Y-126800300D02*
X63489200Y-126800300D01*
G04 #@! TO.N,cbus21*
X51549500Y-127214200D02*
X51549500Y-127732600D01*
X50167300Y-125832000D02*
X51549500Y-127214200D01*
G04 #@! TO.N,cbus28*
X39905700Y-127437300D02*
X38890800Y-128452200D01*
X39905700Y-125832000D02*
X39905700Y-127437300D01*
G04 #@! TO.N,cbus5*
X85052600Y-127112000D02*
X85052600Y-126447900D01*
X85965000Y-128024400D02*
X85052600Y-127112000D01*
G04 #@! TO.N,cbus1*
X79005400Y-127415400D02*
X79005400Y-126293000D01*
X81252100Y-124046300D02*
X82663200Y-124046300D01*
X79005400Y-126293000D02*
X81252100Y-124046300D01*
G04 #@! TO.N,cbus12*
X76215200Y-127310200D02*
X77792500Y-127310200D01*
X75551000Y-127974400D02*
X76215200Y-127310200D01*
G04 #@! TO.N,cbus19*
X68429300Y-129972300D02*
X70675700Y-129972300D01*
X66329400Y-127872400D02*
X68429300Y-129972300D01*
X71749400Y-128898600D02*
X76980000Y-128898600D01*
X70675700Y-129972300D02*
X71749400Y-128898600D01*
X65086200Y-127872400D02*
X66329400Y-127872400D01*
G04 #@! TO.N,sabus1*
X89341700Y-91179200D02*
X89341700Y-88097200D01*
X91162500Y-93000000D02*
X89341700Y-91179200D01*
G04 #@! TO.N,cbus8*
X69989800Y-125915000D02*
X70259600Y-125915000D01*
X68591400Y-127313400D02*
X69989800Y-125915000D01*
G04 #@! TO.N,cbus15*
X61823200Y-128583400D02*
X58533000Y-128583400D01*
X77343300Y-130006100D02*
X76191500Y-131157900D01*
X74593700Y-132345100D02*
X71424300Y-132345100D01*
X78507900Y-130006100D02*
X77343300Y-130006100D01*
X80800800Y-129882500D02*
X80598700Y-130084600D01*
X70277400Y-131198200D02*
X64438000Y-131198200D01*
X80598700Y-130084600D02*
X78586400Y-130084600D01*
X76191500Y-131157900D02*
X75780900Y-131157900D01*
X75780900Y-131157900D02*
X74593700Y-132345100D01*
X78586400Y-130084600D02*
X78507900Y-130006100D01*
X64438000Y-131198200D02*
X61823200Y-128583400D01*
X71424300Y-132345100D02*
X70277400Y-131198200D01*
G04 #@! TO.N,cbus26*
X54875400Y-127872400D02*
X56859400Y-127872400D01*
X56859400Y-127872400D02*
X56971200Y-127984200D01*
G04 #@! TO.N,cbus33*
X44221800Y-127719400D02*
X45406400Y-127719400D01*
X45406400Y-127719400D02*
X45442000Y-127683800D01*
G04 #@! TO.N,cbus22*
X48627300Y-127312400D02*
X49047500Y-127732600D01*
X47828600Y-127312400D02*
X48627300Y-127312400D01*
G04 #@! TO.N,cbus29*
X37298600Y-127466400D02*
X38521300Y-127466400D01*
G04 #@! TO.N,cbus6*
X82476100Y-131420000D02*
X82476100Y-128692600D01*
X80703200Y-126919700D02*
X80703200Y-125114100D01*
X82476100Y-128692600D02*
X80703200Y-126919700D01*
X81037500Y-124779800D02*
X82151000Y-124779800D01*
X80703200Y-125114100D02*
X81037500Y-124779800D01*
G04 #@! TO.N,cbus13*
X72265300Y-131369000D02*
X73417300Y-130217000D01*
X73417300Y-130217000D02*
X74748100Y-130217000D01*
G04 #@! TO.N,cbus20*
X61394100Y-131656300D02*
X62249100Y-132511300D01*
X61394100Y-131623000D02*
X61394100Y-131656300D01*
G04 #@! TO.N,cbus27*
X51577200Y-131521000D02*
X52380200Y-132324000D01*
X51488100Y-131521000D02*
X51577200Y-131521000D01*
G04 #@! TO.N,cbus34*
X40972500Y-131369000D02*
X41923900Y-132320400D01*
X41923900Y-132320400D02*
X48497600Y-132320400D01*
G04 #@! TO.N,cbus2*
X81374100Y-132615300D02*
X81374100Y-128899000D01*
X81374100Y-128899000D02*
X81288100Y-128813000D01*
X80631000Y-133358400D02*
X81374100Y-132615300D01*
G04 #@! TO.N,sabus2*
X92100000Y-96644700D02*
X91180500Y-96644700D01*
X91180500Y-96644700D02*
X90721600Y-96185800D01*
G04 #@! TO.N,cbus4*
X87543000Y-132898000D02*
X87543000Y-127027300D01*
X87543000Y-127027300D02*
X87280000Y-126764300D01*
X87280000Y-126764300D02*
X85807700Y-126764300D01*
X85807700Y-126764300D02*
X85689800Y-126882200D01*
X87336600Y-133104400D02*
X87543000Y-132898000D01*
G04 #@! TO.N,cbus9*
X70986400Y-133104400D02*
X71404000Y-133522000D01*
X70115400Y-133104400D02*
X70986400Y-133104400D01*
G04 #@! TO.N,cbus16*
X60319500Y-132791100D02*
X60935600Y-132791100D01*
X60935600Y-132791100D02*
X60935600Y-132791000D01*
X59752200Y-133358400D02*
X60319500Y-132791100D01*
G04 #@! TO.N,cbus11*
X76973400Y-133206400D02*
X77726400Y-133206400D01*
X83234900Y-132140300D02*
X83234900Y-128567700D01*
X77726400Y-133206400D02*
X78841900Y-134321900D01*
X78841900Y-134321900D02*
X81053300Y-134321900D01*
X83234900Y-128567700D02*
X82378700Y-127711500D01*
X81053300Y-134321900D02*
X83234900Y-132140300D01*
G04 #@! TO.N,cbus18*
X71236300Y-132720400D02*
X74853500Y-132720400D01*
X74853500Y-132720400D02*
X75970500Y-131603400D01*
X67081500Y-132226700D02*
X70742600Y-132226700D01*
X75970500Y-131603400D02*
X79908600Y-131603400D01*
X70742600Y-132226700D02*
X71236300Y-132720400D01*
X66457800Y-132850400D02*
X67081500Y-132226700D01*
X79908600Y-131603400D02*
X80140200Y-131371800D01*
G04 #@! TO.N,cbus23*
X62845100Y-135786600D02*
X71762000Y-135786600D01*
X62367900Y-136263800D02*
X62845100Y-135786600D01*
X71762000Y-135786600D02*
X73378600Y-134170000D01*
X55761800Y-136263800D02*
X62367900Y-136263800D01*
X49301800Y-133154400D02*
X52652400Y-133154400D01*
X73378600Y-134170000D02*
X78078500Y-134170000D01*
X52652400Y-133154400D02*
X55761800Y-136263800D01*
X78867400Y-134958900D02*
X79778700Y-134958900D01*
X78078500Y-134170000D02*
X78867400Y-134958900D01*
G04 #@! TO.N,cbus30*
X38684600Y-133205400D02*
X43049400Y-133205400D01*
X43049400Y-133205400D02*
X44192100Y-134348100D01*
X44192100Y-134348100D02*
X47030200Y-134348100D01*
G04 #@! TO.N,cbus25*
X56773700Y-134038300D02*
X57466400Y-134038300D01*
X56297800Y-133562400D02*
X56773700Y-134038300D01*
G04 #@! TO.N,cbus32*
X45695000Y-133408400D02*
X48087600Y-133408400D01*
G04 #@! TO.N,cbus3*
X88399000Y-132256700D02*
X88399000Y-127187700D01*
X86347400Y-137915800D02*
X88832800Y-135430400D01*
X88832800Y-132690500D02*
X88399000Y-132256700D01*
X88399000Y-127187700D02*
X87313200Y-126101900D01*
X83949300Y-136957000D02*
X84908100Y-137915800D01*
X88832800Y-135430400D02*
X88832800Y-132690500D01*
X84908100Y-137915800D02*
X86347400Y-137915800D01*
G04 #@! TO.N,cbus10*
X72600800Y-136957000D02*
X72393100Y-136749300D01*
X73332100Y-136957000D02*
X72600800Y-136957000D01*
G04 #@! TO.N,cbus17*
X63121300Y-136957000D02*
X64102100Y-137937800D01*
X76429700Y-137189100D02*
X76429700Y-136750800D01*
X64102100Y-137937800D02*
X75681000Y-137937800D01*
X75681000Y-137937800D02*
X76429700Y-137189100D01*
G04 #@! TO.N,cbus24*
X54155700Y-138303800D02*
X77839000Y-138303800D01*
X52808900Y-136957000D02*
X54155700Y-138303800D01*
X77839000Y-138303800D02*
X79511600Y-136631200D01*
G04 #@! TO.N,cbus31*
X42344100Y-136957000D02*
X43211700Y-137824600D01*
X43211700Y-137824600D02*
X43376600Y-137824600D01*
G04 #@! TO.N,sbbus0*
X92000000Y-110437500D02*
X91581700Y-110437500D01*
X91581700Y-110437500D02*
X90939000Y-111080200D01*
G04 #@! TO.N,sbbus1*
X90656700Y-112723600D02*
X90656700Y-113908600D01*
X91061300Y-112319000D02*
X90656700Y-112723600D01*
G04 #@! TO.N,sbbus2*
X92010700Y-115999500D02*
X92835900Y-115174300D01*
X91978800Y-115999500D02*
X92010700Y-115999500D01*
G04 #@! TO.N,scbus0*
X89664900Y-127033300D02*
X89664900Y-126174600D01*
X91978800Y-129512500D02*
X91978800Y-129347200D01*
X91978800Y-129347200D02*
X89664900Y-127033300D01*
G04 #@! TO.N,scbus1*
X91061300Y-131267000D02*
X90150700Y-130356400D01*
X90150700Y-130356400D02*
X90150700Y-128458200D01*
G04 #@! TO.N,scbus2*
X89114600Y-132337300D02*
X89114600Y-126704400D01*
X91978800Y-135201500D02*
X89114600Y-132337300D01*
G04 #@! TO.N,VCC*
X69390500Y-122047000D02*
X70239000Y-122895500D01*
X44168300Y-96589500D02*
X46138300Y-96589500D01*
X83855600Y-126126100D02*
X83561500Y-125832000D01*
X75985400Y-91177200D02*
X76334700Y-91177200D01*
X53139800Y-52772400D02*
X56884600Y-52772400D01*
X52320900Y-39022800D02*
X50820300Y-39022800D01*
X83048300Y-91559600D02*
X80330200Y-91559600D01*
X76501900Y-93065600D02*
X74089500Y-93065600D01*
X81716200Y-79711900D02*
X82205300Y-79222800D01*
X53363100Y-112471000D02*
X54997500Y-110836600D01*
X57654600Y-98602800D02*
X59306700Y-100254900D01*
X62710300Y-85902800D02*
X59255900Y-82448400D01*
X55309800Y-47184400D02*
X53370600Y-49123600D01*
X66442000Y-126692500D02*
X64057700Y-126692500D01*
X42822600Y-70218300D02*
X42822600Y-68224400D01*
X50736100Y-73230200D02*
X50496900Y-72991100D01*
D18*
X92479100Y-54051200D02*
X92846900Y-53683400D01*
D17*
X83385900Y-87426800D02*
X82427800Y-88384900D01*
X50280600Y-53178800D02*
X50842300Y-53740500D01*
X70426000Y-115815600D02*
X69053300Y-114442900D01*
D18*
X42822600Y-68224400D02*
X41983900Y-68224400D01*
D17*
X63334600Y-125832000D02*
X62151500Y-125832000D01*
X89329500Y-68904800D02*
X92247100Y-71822400D01*
X89103300Y-42237700D02*
X89103400Y-42237700D01*
X76151000Y-135017600D02*
X75207100Y-135961500D01*
X92479100Y-45613500D02*
X89103400Y-42237700D01*
X41780700Y-125832000D02*
X41780700Y-128253000D01*
X93186800Y-90249300D02*
X92200000Y-89262500D01*
X86551800Y-91126400D02*
X86493500Y-91126400D01*
X44706500Y-117907000D02*
X46352700Y-119553200D01*
X49787000Y-135092600D02*
X49787000Y-134965600D01*
X69053300Y-114442900D02*
X69053300Y-113481200D01*
X54031900Y-39022800D02*
X52320900Y-39022800D01*
X53230900Y-129683600D02*
X53363100Y-129683600D01*
X78153500Y-54051200D02*
X83068500Y-54051200D01*
X51063500Y-61366400D02*
X48574300Y-63855600D01*
X85081000Y-77540700D02*
X85262100Y-77359600D01*
X53360600Y-115916600D02*
X49874200Y-115916600D01*
X69053300Y-113481200D02*
X68323500Y-112751400D01*
X70549800Y-115815600D02*
X70426000Y-115815600D01*
X42822600Y-68224400D02*
X46200300Y-64846700D01*
X42847500Y-131369000D02*
X42847500Y-131068500D01*
X46267400Y-53026400D02*
X50128200Y-53026400D01*
X85759700Y-129835600D02*
X83855600Y-127931500D01*
X52099800Y-128552500D02*
X52099800Y-125889500D01*
X53159900Y-93116400D02*
X53444000Y-93116400D01*
X81716200Y-79711900D02*
X81201500Y-79197200D01*
X40843400Y-42801500D02*
X41831500Y-43789600D01*
X86818300Y-71416000D02*
X85586600Y-71416000D01*
X80747100Y-88061700D02*
X80747100Y-85036400D01*
X93186800Y-93000000D02*
X93186800Y-90249300D01*
X84351100Y-131420000D02*
X84351100Y-132631500D01*
D18*
X92846900Y-47408600D02*
X92479100Y-47040800D01*
D17*
X87094300Y-60960000D02*
X86960900Y-61093400D01*
X85570300Y-98602800D02*
X86187400Y-98602800D01*
X85533500Y-118901700D02*
X85533500Y-120853000D01*
X79982300Y-73761600D02*
X77941500Y-71720800D01*
X45408100Y-115605500D02*
X46142600Y-115605500D01*
X90599500Y-73761600D02*
X90599500Y-74750700D01*
X75207100Y-135961500D02*
X75207100Y-136957000D01*
X43169100Y-131068500D02*
X44707000Y-129530600D01*
X76841300Y-91683800D02*
X77099900Y-91683800D01*
X93028800Y-112226500D02*
X93028800Y-109591300D01*
X72402800Y-135961500D02*
X71407300Y-136957000D01*
X55801500Y-122072800D02*
X58392300Y-122072800D01*
X89329500Y-68224400D02*
X89329500Y-68904800D01*
X77547200Y-116018600D02*
X77306200Y-115777600D01*
X65500300Y-91177200D02*
X65622200Y-91177200D01*
X91978800Y-114124500D02*
X92936300Y-113167000D01*
X44219100Y-135219600D02*
X46180200Y-135219600D01*
X45116400Y-47760600D02*
X48739200Y-47760600D01*
X53363100Y-112805000D02*
X56423700Y-115865600D01*
X47776200Y-110699600D02*
X44800000Y-110699600D01*
X87212200Y-77359600D02*
X87990600Y-77359600D01*
X59306700Y-105124000D02*
X60013400Y-105830700D01*
X48884900Y-128552500D02*
X52099800Y-128552500D01*
X90052400Y-114524400D02*
X89163200Y-114524400D01*
X93037500Y-93832200D02*
X93037500Y-93000000D01*
X37783800Y-129277600D02*
X37650000Y-129411400D01*
X54988700Y-39979600D02*
X54031900Y-39022800D01*
X44269900Y-117907000D02*
X44706500Y-117907000D01*
X82936200Y-75396000D02*
X84708000Y-77167700D01*
X67044600Y-96714400D02*
X67197000Y-96562000D01*
X52320900Y-41340800D02*
X52918300Y-41938200D01*
X87974200Y-96816000D02*
X89083000Y-95707200D01*
X76762600Y-93185300D02*
X76572400Y-92995100D01*
X77965700Y-135524700D02*
X80761100Y-135524700D01*
X44168300Y-98602800D02*
X44371900Y-98602800D01*
X62040700Y-130394600D02*
X63269100Y-131623000D01*
X42959800Y-40685100D02*
X40843400Y-42801500D01*
X40906400Y-129127300D02*
X40756100Y-129277600D01*
X41780700Y-89580100D02*
X40640800Y-90720000D01*
X70239000Y-122895500D02*
X66442100Y-126692400D01*
X41831500Y-43789600D02*
X41831500Y-44655600D01*
X69974700Y-107206300D02*
X69974700Y-101752000D01*
X69053300Y-113481200D02*
X69177200Y-113481200D01*
X53782400Y-89830700D02*
X53782400Y-88806500D01*
X92479100Y-55048300D02*
X92479100Y-54051200D01*
X81716200Y-79711900D02*
X81716200Y-80778700D01*
X50026600Y-80208400D02*
X50026600Y-77156400D01*
X89560700Y-95635500D02*
X91234200Y-95635500D01*
X52320900Y-39022800D02*
X52320900Y-41340800D01*
X50842300Y-53740500D02*
X52171700Y-53740500D01*
X53175000Y-41938200D02*
X52918300Y-41938200D01*
X68144400Y-90548200D02*
X67688600Y-90548200D01*
X92100000Y-94769700D02*
X93037500Y-93832200D01*
X48739200Y-47760600D02*
X48756600Y-47743200D01*
X44269900Y-79153900D02*
X44269900Y-79197200D01*
X92247100Y-71822400D02*
X90599500Y-73470000D01*
X39409400Y-77105600D02*
X41165900Y-75349100D01*
X58160700Y-98096700D02*
X57654600Y-98602800D01*
X60108600Y-110074600D02*
X60108600Y-107831100D01*
X79490600Y-129226600D02*
X79061400Y-129655800D01*
X42898300Y-73655600D02*
X42898300Y-73710800D01*
X78153500Y-47040800D02*
X78029800Y-47040800D01*
X48313800Y-129123600D02*
X48884900Y-128552500D01*
X50801700Y-73445000D02*
X50757600Y-73400900D01*
X37650000Y-129411400D02*
X37650000Y-133629100D01*
X68826700Y-100604000D02*
X69974700Y-101752000D01*
X42959800Y-38972100D02*
X44583200Y-38972100D01*
X83889800Y-133092800D02*
X81813000Y-135169600D01*
X86413100Y-42237700D02*
X86413100Y-42212500D01*
X75301200Y-129785600D02*
X75301200Y-130499800D01*
X47906800Y-129530600D02*
X44707000Y-129530600D01*
X44665100Y-47489200D02*
X44845000Y-47489200D01*
X81813000Y-135169600D02*
X81116200Y-135169600D01*
X59490500Y-97258100D02*
X60237400Y-96511200D01*
X76010600Y-110201600D02*
X73991500Y-112220700D01*
X57377500Y-97258100D02*
X58160700Y-97258100D01*
X92174300Y-64109600D02*
X91818400Y-64109600D01*
X79644100Y-77639800D02*
X81201500Y-79197200D01*
X87545700Y-52455100D02*
X87545700Y-52159000D01*
X89068500Y-124388000D02*
X85533500Y-120853000D01*
X68367000Y-90770800D02*
X69178200Y-90770800D01*
X52245500Y-68224400D02*
X56461900Y-64008000D01*
X44706500Y-116307100D02*
X44706500Y-117907000D01*
X49874200Y-96511200D02*
X50414900Y-96511200D01*
X74432000Y-131369000D02*
X74140300Y-131369000D01*
X58307200Y-129683600D02*
X59018200Y-130394600D01*
X44579100Y-71974800D02*
X42898300Y-73655600D01*
X42745900Y-92825100D02*
X40640800Y-90720000D01*
X41425100Y-106782000D02*
X41425100Y-109863000D01*
X56269400Y-79197200D02*
X54379100Y-79197200D01*
X79541400Y-110277600D02*
X76086600Y-110277600D01*
X42745900Y-112943300D02*
X42745900Y-112319000D01*
X70239000Y-122895500D02*
X73073500Y-125730000D01*
X86960900Y-64109600D02*
X89329500Y-66478200D01*
X66794300Y-100604000D02*
X68826700Y-100604000D01*
X39535800Y-42801500D02*
X40843400Y-42801500D01*
X53444000Y-92963700D02*
X55179700Y-91228000D01*
X72057500Y-82448400D02*
X76544200Y-77961700D01*
X54038800Y-88550100D02*
X56387400Y-88550100D01*
X56461900Y-64008000D02*
X56461900Y-63754000D01*
X60238200Y-115865600D02*
X60288200Y-115815600D01*
X77458600Y-135017600D02*
X76151000Y-135017600D01*
X56371500Y-96409600D02*
X56529000Y-96409600D01*
X91698100Y-64109600D02*
X89329500Y-66478200D01*
X36502300Y-68419700D02*
X41668100Y-63253900D01*
X50496900Y-72991100D02*
X49772900Y-72991100D01*
X64057700Y-126692500D02*
X64057700Y-126555100D01*
X42745900Y-112943300D02*
X45408100Y-115605500D01*
X89329500Y-68904800D02*
X86818300Y-71416000D01*
X68367000Y-96562000D02*
X68367000Y-90770800D01*
X52819500Y-135092600D02*
X54683900Y-136957000D01*
X46453600Y-115916600D02*
X46142600Y-115605600D01*
X66934400Y-112751400D02*
X65386000Y-112751400D01*
X93056000Y-77207200D02*
X91767900Y-78495300D01*
X71235800Y-108467300D02*
X69974700Y-107206300D01*
X44371900Y-98602800D02*
X47521100Y-101752000D01*
X66934400Y-111878900D02*
X65740100Y-110684600D01*
X53782400Y-88806500D02*
X52402700Y-87426800D01*
X86413100Y-42212500D02*
X86354500Y-42153900D01*
X46200300Y-64846700D02*
X46200300Y-63855600D01*
X48350200Y-90923200D02*
X47943800Y-91329600D01*
X89163200Y-114524400D02*
X87771000Y-115916600D01*
X41165900Y-75349100D02*
X41260000Y-75349100D01*
X92936300Y-113167000D02*
X92936300Y-112319000D01*
X86027300Y-134915600D02*
X86027300Y-134828500D01*
X82815400Y-75396000D02*
X82936200Y-75396000D01*
X53363100Y-112471000D02*
X53363100Y-112805000D01*
X52918300Y-41938200D02*
X52918300Y-43218400D01*
D18*
X50801700Y-74842000D02*
X50901700Y-74842000D01*
D17*
X57654600Y-98602800D02*
X54531500Y-98602800D01*
X86413100Y-42237700D02*
X89103300Y-42237700D01*
X91234200Y-95635500D02*
X92100000Y-94769700D01*
X62710300Y-88387200D02*
X62710300Y-87426800D01*
X77362800Y-91946700D02*
X77454000Y-91946700D01*
X91978800Y-127637500D02*
X92936300Y-128595000D01*
X87521500Y-115916600D02*
X85722700Y-117715400D01*
X53363100Y-112471000D02*
X51017700Y-110125600D01*
X44692600Y-71974800D02*
X44579100Y-71974800D01*
X49874200Y-115916600D02*
X46453600Y-115916600D01*
X46833000Y-82423000D02*
X48510300Y-80745700D01*
X41668100Y-61558600D02*
X41577500Y-61468000D01*
X54997500Y-110836600D02*
X55208200Y-110836600D01*
X53782400Y-88806500D02*
X54038800Y-88550100D01*
X85759700Y-129835600D02*
X84351100Y-131244200D01*
X40756100Y-129277600D02*
X37783800Y-129277600D01*
X60237400Y-135169600D02*
X56987000Y-135169600D01*
X42847500Y-131068500D02*
X43169100Y-131068500D01*
X42959800Y-38972100D02*
X42959800Y-40685100D01*
X86182600Y-110430600D02*
X86297800Y-110430600D01*
X91767900Y-78495300D02*
X91767900Y-79197200D01*
X84803100Y-125178600D02*
X89068500Y-125178600D01*
X44845000Y-47489200D02*
X45116400Y-47760600D01*
X53444000Y-93116400D02*
X53444000Y-92963700D01*
X69425500Y-110277600D02*
X71235800Y-108467300D01*
X85722700Y-118712500D02*
X85533500Y-118901700D01*
X86253200Y-50365300D02*
X85519500Y-49631600D01*
X85722700Y-117715400D02*
X85722700Y-117856000D01*
X50939400Y-74842000D02*
X50901700Y-74842000D01*
X64057700Y-128311400D02*
X65429900Y-129683600D01*
X81116200Y-96612800D02*
X77934500Y-96612800D01*
X88673200Y-105235700D02*
X85084600Y-105235700D01*
X91818400Y-64109600D02*
X91698100Y-64109600D01*
X63584500Y-134661600D02*
X63269100Y-134346200D01*
X58764200Y-90821600D02*
X60275900Y-90821600D01*
X90052400Y-114524400D02*
X91578900Y-114524400D01*
X91818400Y-64109600D02*
X91818400Y-55048300D01*
X36502300Y-70266800D02*
X36502300Y-68419700D01*
X50111900Y-38314400D02*
X50111900Y-36830000D01*
X55801500Y-118973400D02*
X55801500Y-120853000D01*
X62710300Y-88387200D02*
X65500300Y-91177200D01*
X56987000Y-135169600D02*
X56783000Y-135373600D01*
X50757600Y-73251800D02*
X50736100Y-73230200D01*
X72057500Y-86466800D02*
X72057500Y-82448400D01*
X75124900Y-129609300D02*
X75301200Y-129785600D01*
X50801700Y-74842000D02*
X50801700Y-73445000D01*
D18*
X92936300Y-131267000D02*
X92936300Y-132369000D01*
D17*
X75329800Y-117754000D02*
X75207100Y-117754000D01*
X41165900Y-75349100D02*
X37987000Y-72170200D01*
X76086600Y-110277600D02*
X76010600Y-110201600D01*
X84615600Y-99557500D02*
X85570300Y-98602800D01*
X42745900Y-112319000D02*
X40857500Y-110430600D01*
X86960900Y-61093400D02*
X86960900Y-64109600D01*
X41780700Y-87426800D02*
X41780700Y-89580100D01*
X67197000Y-96562000D02*
X68367000Y-96562000D01*
X86027300Y-134828500D02*
X84291600Y-133092800D01*
X82166700Y-99557500D02*
X84615600Y-99557500D01*
X86253200Y-50866500D02*
X86253200Y-50365300D01*
X82166700Y-99557500D02*
X82166700Y-97663300D01*
X75207100Y-135961500D02*
X72402800Y-135961500D01*
X39169800Y-135016600D02*
X44016100Y-135016600D01*
X60013400Y-105830700D02*
X61708200Y-105830700D01*
X48350200Y-110125600D02*
X47776200Y-110699600D01*
X48574300Y-63855600D02*
X46200300Y-63855600D01*
X66772600Y-115510600D02*
X64843900Y-117439300D01*
X69390500Y-121031000D02*
X69390500Y-122047000D01*
X42794600Y-73814500D02*
X45476700Y-76496600D01*
X37936200Y-47628200D02*
X37936200Y-47540000D01*
X60013400Y-107735900D02*
X60013400Y-105830700D01*
X78966300Y-66802000D02*
X78966300Y-68224400D01*
X47255900Y-38314400D02*
X45590700Y-39979600D01*
X80447000Y-73761600D02*
X79982300Y-73761600D01*
X91578900Y-114524400D02*
X91978800Y-114124500D01*
X44644700Y-54336800D02*
X45955100Y-53026400D01*
X81979800Y-72228800D02*
X80447000Y-73761600D01*
X49047600Y-80208400D02*
X50026600Y-80208400D01*
X55801500Y-120853000D02*
X55801500Y-122072800D01*
X39460200Y-116018600D02*
X39670600Y-116018600D01*
X58160700Y-97258100D02*
X58160700Y-98096700D01*
X77298700Y-96612800D02*
X75308700Y-98602800D01*
X83855600Y-126126100D02*
X84803100Y-125178600D01*
X42745900Y-96047000D02*
X42332500Y-96460400D01*
X72971900Y-87381200D02*
X72057500Y-86466800D01*
X69229000Y-110277600D02*
X69425500Y-110277600D01*
X64793100Y-98602800D02*
X66794300Y-100604000D01*
X77407800Y-96612800D02*
X77298700Y-96612800D01*
X89068500Y-125178600D02*
X89068500Y-124388000D01*
X84554300Y-93065600D02*
X83048300Y-91559600D01*
X52171700Y-53740500D02*
X53139800Y-52772400D01*
X86413100Y-42438800D02*
X86413100Y-42237700D01*
X78153500Y-60147200D02*
X77340700Y-60960000D01*
X48655000Y-71873200D02*
X49772900Y-72991100D01*
X92479100Y-47040800D02*
X92479100Y-45613500D01*
X90138900Y-55048300D02*
X87545700Y-52455100D01*
X82528400Y-101752000D02*
X85084600Y-104308200D01*
X50757600Y-73400900D02*
X50757600Y-73251800D01*
X85759700Y-129835600D02*
X86450200Y-129835600D01*
X48313800Y-129123600D02*
X47906800Y-129530600D01*
X63269100Y-134346200D02*
X61060800Y-134346200D01*
X41252500Y-50944600D02*
X41252500Y-50944500D01*
X44644700Y-54336800D02*
X44066700Y-54914800D01*
X42794600Y-73814500D02*
X42898300Y-73710800D01*
X89103400Y-42237700D02*
X92479100Y-38862000D01*
X44168300Y-96589500D02*
X44168300Y-98602800D01*
X83538300Y-106782000D02*
X83538300Y-107786300D01*
X80747100Y-85036400D02*
X83360500Y-82423000D01*
X76544200Y-77639800D02*
X79644100Y-77639800D01*
X62710300Y-87426800D02*
X62710300Y-85902800D01*
X58392300Y-122072800D02*
X62151500Y-125832000D01*
X82166700Y-99557500D02*
X82166700Y-101752000D01*
X81506300Y-120853000D02*
X85533500Y-120853000D01*
X82166700Y-101752000D02*
X82528400Y-101752000D01*
X84300300Y-112319000D02*
X84300300Y-112783700D01*
X86493500Y-91126400D02*
X84554300Y-93065600D01*
X63269100Y-131623000D02*
X63269100Y-134346200D01*
X60108600Y-107831100D02*
X60013400Y-107735900D01*
X55801500Y-122072800D02*
X52042300Y-125832000D01*
X41577500Y-61468000D02*
X44066700Y-58978800D01*
X70869400Y-96562000D02*
X74089500Y-93341900D01*
X49787000Y-135092600D02*
X52819500Y-135092600D01*
X70702200Y-96562000D02*
X70869400Y-96562000D01*
X71407300Y-136957000D02*
X64996300Y-136957000D01*
X61708200Y-105830700D02*
X62659500Y-106782000D01*
X76010600Y-110201600D02*
X75934600Y-110125600D01*
X78153500Y-54051200D02*
X78153500Y-60147200D01*
X52093100Y-106782000D02*
X52093100Y-109050200D01*
X66442100Y-126692400D02*
X68874200Y-129124600D01*
X39670600Y-116018600D02*
X42745900Y-112943300D01*
X82205300Y-79222800D02*
X82581300Y-78846800D01*
X51982700Y-47743200D02*
X53363100Y-49123600D01*
X41433000Y-50944500D02*
X41252500Y-50944500D01*
X70346600Y-134661600D02*
X70600600Y-134915600D01*
X72249600Y-130325900D02*
X72966200Y-129609300D01*
X41933100Y-36830000D02*
X42959800Y-37856700D01*
X49772900Y-72991100D02*
X46267400Y-76496600D01*
X69816100Y-86466800D02*
X67688600Y-88594300D01*
X42959800Y-37856700D02*
X42959800Y-38972100D01*
X50414900Y-96511200D02*
X53444000Y-93482100D01*
X37854700Y-71619200D02*
X36502300Y-70266800D01*
X52245500Y-71720800D02*
X55411400Y-71720800D01*
X50111900Y-38314400D02*
X47255900Y-38314400D01*
X40906400Y-129127300D02*
X42847500Y-131068500D01*
X67688600Y-90548200D02*
X66251200Y-90548200D01*
X90599500Y-74750700D02*
X93056000Y-77207200D01*
X85824300Y-136957000D02*
X86027300Y-136754000D01*
X76572400Y-92995100D02*
X76501900Y-93065600D01*
X87545700Y-52159000D02*
X86253200Y-50866500D01*
X48756600Y-47743200D02*
X51982700Y-47743200D01*
X56529000Y-115865600D02*
X60238200Y-115865600D01*
X48510300Y-80745700D02*
X48203000Y-80438400D01*
X77934500Y-96612800D02*
X77934500Y-94357300D01*
X56269400Y-79197200D02*
X56269400Y-79244300D01*
X54633100Y-117189100D02*
X53360600Y-115916600D01*
X81070300Y-88384900D02*
X80747100Y-88061700D01*
D18*
X52435100Y-74842000D02*
X53515500Y-73761600D01*
D17*
X65740100Y-110684600D02*
X65622200Y-110684600D01*
X59018200Y-130394600D02*
X62040700Y-130394600D01*
X46180200Y-135219600D02*
X49533000Y-135219600D01*
X85084600Y-105235700D02*
X83538300Y-106782000D01*
X39511000Y-53229600D02*
X41524300Y-51216300D01*
X39217600Y-46258600D02*
X39217600Y-43119700D01*
X41252500Y-50944500D02*
X37936200Y-47628200D01*
X44644700Y-54336800D02*
X41524300Y-51216300D01*
X58160700Y-97258100D02*
X59490500Y-97258100D01*
X87990600Y-77359600D02*
X90599500Y-74750700D01*
X64843900Y-117439300D02*
X64843900Y-118059000D01*
X76166000Y-129655800D02*
X76036200Y-129785600D01*
X46138300Y-96589500D02*
X46216600Y-96511200D01*
X42745900Y-92825100D02*
X44241400Y-91329600D01*
X92000000Y-108562500D02*
X88673200Y-105235700D01*
X89519900Y-125178600D02*
X91978800Y-127637500D01*
X66251200Y-90548200D02*
X65622200Y-91177200D01*
D18*
X92936300Y-132369000D02*
X91978800Y-133326500D01*
D17*
X91818400Y-55048300D02*
X92479100Y-55048300D01*
X89489000Y-95707200D02*
X89560700Y-95635500D01*
X52171700Y-55626900D02*
X52171700Y-53740500D01*
X76334700Y-91177200D02*
X76841300Y-91683800D01*
X86182600Y-110430600D02*
X84300300Y-112312900D01*
X40857500Y-110430600D02*
X37987000Y-110430600D01*
X53444000Y-93116400D02*
X53444000Y-93482100D01*
X72057500Y-86466800D02*
X69816100Y-86466800D01*
X44579100Y-71974800D02*
X42822600Y-70218300D01*
X84291600Y-133092800D02*
X83889800Y-133092800D01*
X50128200Y-53026400D02*
X50280600Y-53178800D01*
X77306200Y-115408600D02*
X77306200Y-115777600D01*
X56269400Y-78076400D02*
X56269400Y-79197200D01*
X85722700Y-117856000D02*
X85722700Y-118712500D01*
X41780700Y-128253000D02*
X40906400Y-129127300D01*
X66442100Y-126692400D02*
X66442000Y-126692500D01*
X51017700Y-110125600D02*
X48350200Y-110125600D01*
X71341700Y-111316700D02*
X73087400Y-111316700D01*
X83028900Y-78846800D02*
X84708000Y-77167700D01*
X37936200Y-47540000D02*
X39217600Y-46258600D01*
X49660000Y-135092600D02*
X49787000Y-135092600D01*
X82581300Y-78846800D02*
X83028900Y-78846800D01*
X81658700Y-64109600D02*
X78966300Y-66802000D01*
X56986200Y-77359600D02*
X56269400Y-78076400D01*
X77934500Y-94357300D02*
X76762600Y-93185300D01*
X60237400Y-96511200D02*
X62701500Y-96511200D01*
X44219100Y-135219600D02*
X44219100Y-136957000D01*
X50736100Y-73230200D02*
X52245500Y-71720800D01*
X53444000Y-93482100D02*
X56371500Y-96409600D01*
X41260000Y-75349100D02*
X42794600Y-73814500D01*
X85519500Y-43332400D02*
X86413100Y-42438800D01*
D18*
X92846900Y-53683400D02*
X92846900Y-47408600D01*
D17*
X52918300Y-43218400D02*
X52347100Y-43789600D01*
X63905100Y-112751400D02*
X63624700Y-112471000D01*
X53363100Y-129683600D02*
X55360600Y-129683600D01*
X66772600Y-115510600D02*
X66892200Y-115510600D01*
X42745900Y-96047000D02*
X42745900Y-93065600D01*
X41425100Y-109863000D02*
X40857500Y-110430600D01*
X92936300Y-112319000D02*
X93028800Y-112226500D01*
X84351100Y-132631500D02*
X83889800Y-133092800D01*
X66934400Y-112751400D02*
X66934400Y-111878900D01*
X80566600Y-41275100D02*
X78153500Y-38862000D01*
X52418900Y-55874100D02*
X52171700Y-55626900D01*
X49533000Y-135219600D02*
X49660000Y-135092600D01*
X77454000Y-92493900D02*
X77454000Y-91946700D01*
X44066700Y-58978800D02*
X44066700Y-54914800D01*
X54379100Y-79197200D02*
X53367900Y-80208400D01*
X41831500Y-44655600D02*
X44665100Y-47489200D01*
X65386000Y-114124000D02*
X66772600Y-115510600D01*
X86354500Y-42153900D02*
X86354500Y-41953700D01*
X66213700Y-130325900D02*
X72249600Y-130325900D01*
X84351100Y-131244200D02*
X84351100Y-131420000D01*
X63726300Y-93065600D02*
X65500300Y-91291600D01*
X64057700Y-126692500D02*
X64057700Y-128311400D01*
X76544200Y-77639800D02*
X76544200Y-77207200D01*
X56529000Y-96409600D02*
X57377500Y-97258100D01*
X85586600Y-71416000D02*
X84773800Y-72228800D01*
X89083000Y-95707200D02*
X89489000Y-95707200D01*
X82427800Y-88384900D02*
X81070300Y-88384900D01*
X52093100Y-109050200D02*
X51017700Y-110125600D01*
X44365300Y-110699600D02*
X42745900Y-112319000D01*
X83561500Y-125832000D02*
X83335100Y-125832000D01*
X60108600Y-110074600D02*
X58764200Y-110074600D01*
X52402700Y-87426800D02*
X52093100Y-87426800D01*
X46267400Y-76496600D02*
X46267400Y-77156400D01*
X55208200Y-110836600D02*
X58002200Y-110836600D01*
X59306700Y-100254900D02*
X59306700Y-101752000D01*
X56387400Y-88550100D02*
X58658900Y-90821600D01*
X81065400Y-116018600D02*
X77547200Y-116018600D01*
X85262100Y-77359600D02*
X87212200Y-77359600D01*
X50801700Y-76381300D02*
X50801700Y-74842000D01*
X70155800Y-54914800D02*
X54785500Y-54914800D01*
X92247100Y-71822400D02*
X92495400Y-71822400D01*
X92936300Y-128595000D02*
X92936300Y-131267000D01*
X53370600Y-49123600D02*
X53363100Y-49123600D01*
X75301200Y-130499800D02*
X74432000Y-131369000D01*
X77306200Y-115777600D02*
X75329800Y-117754000D01*
X69177200Y-113481200D02*
X71341700Y-111316700D01*
X56269400Y-79244300D02*
X58463400Y-81438300D01*
X83855600Y-127931500D02*
X83855600Y-126126100D01*
X81716200Y-80778700D02*
X83360500Y-82423000D01*
X37987000Y-72170200D02*
X37987000Y-71619200D01*
X89329500Y-66478200D02*
X89329500Y-68224400D01*
X77941500Y-71720800D02*
X75071000Y-71720800D01*
X84773800Y-72228800D02*
X81979800Y-72228800D01*
X39037500Y-135016600D02*
X39169800Y-135016600D01*
X55179700Y-91228000D02*
X55309800Y-91228000D01*
X48510300Y-80745700D02*
X49047600Y-80208400D01*
X56423700Y-115865600D02*
X56529000Y-115865600D01*
X42745900Y-93065600D02*
X42745900Y-92825100D01*
X81658700Y-64109600D02*
X86960900Y-64109600D01*
X39217600Y-43119700D02*
X39535800Y-42801500D01*
X55179700Y-91228000D02*
X53782400Y-89830700D01*
X89068500Y-125178600D02*
X89519900Y-125178600D01*
X42745900Y-96047000D02*
X43625800Y-96047000D01*
X87821800Y-134915600D02*
X86027300Y-134915600D01*
X43625800Y-96047000D02*
X44168300Y-96589500D01*
X72971900Y-87426800D02*
X72971900Y-87381200D01*
X52099800Y-128552500D02*
X53230900Y-129683600D01*
X73087400Y-111316700D02*
X73991500Y-112220700D01*
X82166700Y-97663300D02*
X81116200Y-96612800D01*
X53367900Y-80208400D02*
X50026600Y-80208400D01*
X60275900Y-90821600D02*
X62710300Y-88387200D01*
X65012200Y-110074600D02*
X65622200Y-110684600D01*
X59306700Y-101752000D02*
X59306700Y-105124000D01*
X40640800Y-90720000D02*
X37885400Y-90720000D01*
X79061400Y-129655800D02*
X76166000Y-129655800D01*
X50820300Y-39022800D02*
X50111900Y-38314400D01*
X71235800Y-108467300D02*
X72921100Y-106782000D01*
X80761100Y-135524700D02*
X81116200Y-135169600D01*
X54633100Y-117805000D02*
X54633100Y-117189100D01*
X85675900Y-41275100D02*
X80566600Y-41275100D01*
X77454000Y-91946700D02*
X78670300Y-91946700D01*
X58002200Y-110836600D02*
X58764200Y-110074600D01*
X52099800Y-125889500D02*
X52042300Y-125832000D01*
X76544200Y-77961700D02*
X76544200Y-77639800D01*
X54633100Y-117805000D02*
X55801500Y-118973400D01*
X44241400Y-91329600D02*
X44794200Y-91329600D01*
X83068500Y-54051200D02*
X86253200Y-50866500D01*
X65386000Y-112751400D02*
X65386000Y-114124000D01*
X76762600Y-93185300D02*
X77454000Y-92493900D01*
X93028800Y-109591300D02*
X92000000Y-108562500D01*
X44016100Y-135016600D02*
X44219100Y-135219600D01*
X86187400Y-98602800D02*
X87974200Y-96816000D01*
X58463400Y-81655900D02*
X59255900Y-82448400D01*
X90599500Y-73470000D02*
X90599500Y-73761600D01*
X45408100Y-115605500D02*
X44706500Y-116307100D01*
X46142600Y-115605500D02*
X46142600Y-115605600D01*
X91818400Y-55048300D02*
X90138900Y-55048300D01*
X42999900Y-49377600D02*
X41433000Y-50944500D01*
X53363100Y-129683600D02*
X53363100Y-131521000D01*
X55360600Y-129683600D02*
X58307200Y-129683600D01*
X44800000Y-110699600D02*
X44365300Y-110699600D01*
X52245500Y-71720800D02*
X52245500Y-68224400D01*
X50026600Y-77156400D02*
X50801700Y-76381300D01*
X77458600Y-135017600D02*
X77965700Y-135524700D01*
X45476700Y-76496600D02*
X46267400Y-76496600D01*
X84300300Y-112783700D02*
X81065400Y-116018600D01*
X60108600Y-110074600D02*
X65012200Y-110074600D01*
X66943000Y-134661600D02*
X63584500Y-134661600D01*
X84708000Y-77167700D02*
X85081000Y-77540700D01*
X53826200Y-55874100D02*
X52418900Y-55874100D01*
X80330200Y-91559600D02*
X79693800Y-90923200D01*
X65429900Y-129683600D02*
X65571400Y-129683600D01*
X37650000Y-133629100D02*
X39037500Y-135016600D01*
X65500300Y-91291600D02*
X65500300Y-91177200D01*
X46216600Y-96511200D02*
X49874200Y-96511200D01*
X46352700Y-119553200D02*
X46352700Y-120853000D01*
X68367000Y-90770800D02*
X68144400Y-90548200D01*
X77934500Y-96612800D02*
X77407800Y-96612800D01*
X62701500Y-96511200D02*
X64793100Y-98602800D01*
D18*
X50939400Y-74842000D02*
X52435100Y-74842000D01*
D17*
X68874200Y-129124600D02*
X69076600Y-129124600D01*
X64057700Y-126555100D02*
X63334600Y-125832000D01*
X67688600Y-88594300D02*
X67688600Y-90548200D01*
X85084600Y-104308200D02*
X85084600Y-105235700D01*
X84300300Y-112312900D02*
X84300300Y-112319000D01*
X58463400Y-81438300D02*
X58463400Y-81655900D01*
X78029800Y-47040800D02*
X70155800Y-54914800D01*
X47943800Y-91329600D02*
X44794200Y-91329600D01*
X37987000Y-71619200D02*
X37854700Y-71619200D01*
X65386000Y-112751400D02*
X63905100Y-112751400D01*
X65571400Y-129683600D02*
X66213700Y-130325900D01*
X61060800Y-134346200D02*
X60237400Y-135169600D01*
X45955100Y-53026400D02*
X46267400Y-53026400D01*
X44583200Y-38972100D02*
X45590700Y-39979600D01*
X68323500Y-112751400D02*
X66934400Y-112751400D01*
X51534300Y-61366400D02*
X51063500Y-61366400D01*
X78670300Y-91946700D02*
X79693800Y-90923200D01*
X73991500Y-112220700D02*
X74038700Y-112268000D01*
X75301200Y-129785600D02*
X76036200Y-129785600D01*
X72966200Y-129609300D02*
X75124900Y-129609300D01*
X68367000Y-96562000D02*
X70702200Y-96562000D01*
X66943000Y-134661600D02*
X70346600Y-134661600D01*
X77099900Y-91683800D02*
X77362800Y-91946700D01*
X94019400Y-77207200D02*
X93056000Y-77207200D01*
X86354500Y-41953700D02*
X85675900Y-41275100D01*
X41668100Y-63253900D02*
X41668100Y-61558600D01*
X42332500Y-96460400D02*
X39460200Y-96460400D01*
X74089500Y-93341900D02*
X74089500Y-93065600D01*
X83538300Y-107786300D02*
X86182600Y-110430600D01*
X58658900Y-90821600D02*
X58764200Y-90821600D01*
X93037500Y-93000000D02*
X93186800Y-93000000D01*
X86027300Y-136754000D02*
X86027300Y-134915600D01*
X87771000Y-115916600D02*
X87521500Y-115916600D01*
X46267400Y-77156400D02*
X44269900Y-79153900D01*
X41524300Y-51216300D02*
X41252500Y-50944600D01*
X54785500Y-54914800D02*
X53826200Y-55874100D01*
G04 #@! TD*
G04 #@! TA.AperFunction,Conductor*
G04 #@! TO.N,GND*
G36*
X86846865Y-130781122D02*
G01*
X86905661Y-130820916D01*
X86933609Y-130886180D01*
X86934500Y-130901139D01*
X86934500Y-132084357D01*
X86914498Y-132152478D01*
X86860842Y-132198971D01*
X86841112Y-132206063D01*
X86589668Y-132273438D01*
X86589657Y-132273442D01*
X86589654Y-132273443D01*
X86570281Y-132280815D01*
X86492858Y-132310275D01*
X86345935Y-132406908D01*
X86345934Y-132406909D01*
X86225263Y-132534814D01*
X86225262Y-132534815D01*
X86137337Y-132687105D01*
X86137336Y-132687107D01*
X86137336Y-132687108D01*
X86086902Y-132855570D01*
X86083798Y-132908858D01*
X86076677Y-133031124D01*
X86076677Y-133031125D01*
X86093135Y-133133123D01*
X86093175Y-133133366D01*
X86242541Y-133690804D01*
X86245299Y-133701094D01*
X86259000Y-133737099D01*
X86278349Y-133787950D01*
X86282131Y-133797887D01*
X86282131Y-133797888D01*
X86378757Y-133944800D01*
X86378759Y-133944802D01*
X86378760Y-133944803D01*
X86378761Y-133944804D01*
X86415475Y-133979442D01*
X86506669Y-134065480D01*
X86517929Y-134071981D01*
X86566922Y-134123363D01*
X86580358Y-134193077D01*
X86553972Y-134258988D01*
X86496140Y-134300170D01*
X86454929Y-134307100D01*
X86418639Y-134307100D01*
X86350518Y-134287098D01*
X86329544Y-134270195D01*
X84975462Y-132916113D01*
X84941436Y-132853801D01*
X84942852Y-132794400D01*
X84943933Y-132790361D01*
X84943938Y-132790351D01*
X84964851Y-132631500D01*
X84963366Y-132620221D01*
X84974302Y-132550074D01*
X85021429Y-132496973D01*
X85021930Y-132496661D01*
X85064598Y-132470344D01*
X85188944Y-132345998D01*
X85281261Y-132196329D01*
X85336574Y-132029404D01*
X85347100Y-131926375D01*
X85347099Y-131160937D01*
X85367101Y-131092817D01*
X85383999Y-131071848D01*
X85576655Y-130879192D01*
X85638965Y-130845168D01*
X85709780Y-130850233D01*
X85728746Y-130859169D01*
X85772648Y-130884516D01*
X85941110Y-130934950D01*
X86116663Y-130945175D01*
X86218906Y-130928677D01*
X86775892Y-130779432D01*
X86846865Y-130781122D01*
G37*
G04 #@! TD.AperFunction*
G04 #@! TA.AperFunction,Conductor*
G36*
X87017732Y-112341883D02*
G01*
X87074568Y-112384430D01*
X87099379Y-112450950D01*
X87099700Y-112459939D01*
X87099700Y-113027479D01*
X87079698Y-113095600D01*
X87026042Y-113142093D01*
X87006312Y-113149185D01*
X86538868Y-113274438D01*
X86538857Y-113274442D01*
X86538854Y-113274443D01*
X86512174Y-113284595D01*
X86442058Y-113311275D01*
X86295135Y-113407908D01*
X86295134Y-113407909D01*
X86174463Y-113535814D01*
X86174462Y-113535815D01*
X86086537Y-113688105D01*
X86086537Y-113688106D01*
X86086536Y-113688108D01*
X86036102Y-113856570D01*
X86029032Y-113977949D01*
X86025877Y-114032124D01*
X86025877Y-114032125D01*
X86042374Y-114134363D01*
X86042374Y-114134365D01*
X86154984Y-114554627D01*
X86153294Y-114625603D01*
X86122375Y-114676331D01*
X86095888Y-114702819D01*
X85998958Y-114857082D01*
X85998957Y-114857084D01*
X85941596Y-115021015D01*
X85938783Y-115029053D01*
X85918384Y-115210100D01*
X85938783Y-115391147D01*
X85938783Y-115391149D01*
X85938784Y-115391150D01*
X85998957Y-115563115D01*
X85998958Y-115563118D01*
X86095887Y-115717379D01*
X86095888Y-115717381D01*
X86224718Y-115846211D01*
X86224720Y-115846212D01*
X86378981Y-115943141D01*
X86385356Y-115946211D01*
X86384809Y-115947345D01*
X86436608Y-115984489D01*
X86462777Y-116050487D01*
X86449111Y-116120156D01*
X86426405Y-116151144D01*
X85966953Y-116610596D01*
X85904643Y-116644620D01*
X85877860Y-116647500D01*
X85665620Y-116647500D01*
X85597499Y-116627498D01*
X85551006Y-116573842D01*
X85540902Y-116503568D01*
X85546691Y-116479885D01*
X85562460Y-116434818D01*
X85594817Y-116342347D01*
X85615216Y-116161300D01*
X85594817Y-115980253D01*
X85534643Y-115808285D01*
X85534641Y-115808282D01*
X85534641Y-115808281D01*
X85437712Y-115654020D01*
X85437711Y-115654018D01*
X85308881Y-115525188D01*
X85308879Y-115525187D01*
X85154618Y-115428258D01*
X85154615Y-115428257D01*
X84982650Y-115368084D01*
X84982649Y-115368083D01*
X84982647Y-115368083D01*
X84801600Y-115347684D01*
X84620553Y-115368083D01*
X84620550Y-115368083D01*
X84620549Y-115368084D01*
X84613654Y-115369658D01*
X84613159Y-115367489D01*
X84552890Y-115370556D01*
X84491291Y-115335256D01*
X84458555Y-115272257D01*
X84456200Y-115248012D01*
X84456200Y-114851439D01*
X84476202Y-114783318D01*
X84493105Y-114762344D01*
X86884605Y-112370844D01*
X86946917Y-112336818D01*
X87017732Y-112341883D01*
G37*
G04 #@! TD.AperFunction*
G04 #@! TA.AperFunction,Conductor*
G36*
X83260341Y-108377174D02*
G01*
X83291334Y-108399883D01*
X85009581Y-110118129D01*
X85043606Y-110180441D01*
X85046273Y-110214550D01*
X85037962Y-110357233D01*
X85037963Y-110357235D01*
X85054460Y-110459473D01*
X85054460Y-110459475D01*
X85086079Y-110577476D01*
X85084389Y-110648452D01*
X85053467Y-110699182D01*
X84679054Y-111073595D01*
X84616742Y-111107621D01*
X84589959Y-111110500D01*
X84006425Y-111110500D01*
X83903400Y-111121025D01*
X83903397Y-111121025D01*
X83903396Y-111121026D01*
X83820685Y-111148433D01*
X83736470Y-111176339D01*
X83586801Y-111268656D01*
X83586795Y-111268661D01*
X83462455Y-111393001D01*
X83461632Y-111394043D01*
X83460885Y-111394571D01*
X83457266Y-111398191D01*
X83456647Y-111397572D01*
X83403689Y-111435069D01*
X83332764Y-111438256D01*
X83271375Y-111402592D01*
X83263968Y-111394043D01*
X83263144Y-111393001D01*
X83138804Y-111268661D01*
X83138798Y-111268656D01*
X83096389Y-111242498D01*
X82989129Y-111176339D01*
X82989127Y-111176338D01*
X82989125Y-111176337D01*
X82871976Y-111137518D01*
X82813605Y-111097104D01*
X82786349Y-111031548D01*
X82798862Y-110961663D01*
X82811641Y-110941218D01*
X82881424Y-110850276D01*
X82942738Y-110702251D01*
X82963651Y-110543400D01*
X82958940Y-110507611D01*
X82958400Y-110499380D01*
X82958400Y-108681393D01*
X82978402Y-108613272D01*
X82985899Y-108602821D01*
X82986004Y-108602687D01*
X82986011Y-108602681D01*
X83021548Y-108546124D01*
X83082939Y-108448422D01*
X83082939Y-108448420D01*
X83082943Y-108448415D01*
X83083306Y-108447374D01*
X83083724Y-108446792D01*
X83086011Y-108442044D01*
X83086842Y-108442444D01*
X83124674Y-108389682D01*
X83190671Y-108363510D01*
X83260341Y-108377174D01*
G37*
G04 #@! TD.AperFunction*
G04 #@! TA.AperFunction,Conductor*
G36*
X54123591Y-41740014D02*
G01*
X54136165Y-41741670D01*
X54241215Y-41755500D01*
X54241220Y-41755500D01*
X54281100Y-41760750D01*
X54316881Y-41756040D01*
X54325112Y-41755500D01*
X67512209Y-41755500D01*
X67580330Y-41775502D01*
X67626823Y-41829158D01*
X67636927Y-41899432D01*
X67618896Y-41948536D01*
X67579658Y-42010982D01*
X67579657Y-42010984D01*
X67520218Y-42180853D01*
X67519483Y-42182953D01*
X67499084Y-42364000D01*
X67519483Y-42545047D01*
X67519483Y-42545049D01*
X67519484Y-42545050D01*
X67579657Y-42717015D01*
X67579658Y-42717018D01*
X67676587Y-42871279D01*
X67676588Y-42871281D01*
X67805418Y-43000111D01*
X67805420Y-43000112D01*
X67959681Y-43097041D01*
X67959682Y-43097041D01*
X67959685Y-43097043D01*
X68131653Y-43157217D01*
X68312700Y-43177616D01*
X68493747Y-43157217D01*
X68665715Y-43097043D01*
X68670522Y-43094022D01*
X68738840Y-43074712D01*
X68792229Y-43087182D01*
X68798581Y-43090241D01*
X68798585Y-43090243D01*
X68970553Y-43150417D01*
X69145365Y-43170113D01*
X69210817Y-43197617D01*
X69247664Y-43247100D01*
X69276276Y-43316176D01*
X69312799Y-43363774D01*
X69349322Y-43411371D01*
X69349325Y-43411374D01*
X69373814Y-43443288D01*
X69402451Y-43465262D01*
X69408644Y-43470693D01*
X72498005Y-46560054D01*
X72503437Y-46566248D01*
X72525412Y-46594886D01*
X72555236Y-46617771D01*
X72555266Y-46617795D01*
X72626718Y-46672621D01*
X72626719Y-46672621D01*
X72652525Y-46692424D01*
X72800550Y-46753738D01*
X72919515Y-46769400D01*
X72919522Y-46769400D01*
X72959400Y-46774650D01*
X72959400Y-46774649D01*
X72959401Y-46774650D01*
X72995181Y-46769940D01*
X73003412Y-46769400D01*
X74382715Y-46769400D01*
X74450836Y-46789402D01*
X74497329Y-46843058D01*
X74507922Y-46881288D01*
X74527083Y-47051347D01*
X74527083Y-47051349D01*
X74527084Y-47051350D01*
X74587257Y-47223315D01*
X74587258Y-47223318D01*
X74684187Y-47377579D01*
X74684188Y-47377581D01*
X74813018Y-47506411D01*
X74813020Y-47506412D01*
X74967281Y-47603341D01*
X74967282Y-47603341D01*
X74967285Y-47603343D01*
X75139253Y-47663517D01*
X75223438Y-47673002D01*
X75288892Y-47700505D01*
X75328936Y-47758576D01*
X75342591Y-47799784D01*
X75348339Y-47817129D01*
X75432765Y-47954005D01*
X75440656Y-47966798D01*
X75440661Y-47966804D01*
X75564995Y-48091138D01*
X75565001Y-48091143D01*
X75565002Y-48091144D01*
X75714671Y-48183461D01*
X75755048Y-48196840D01*
X75813418Y-48237252D01*
X75840675Y-48302808D01*
X75828163Y-48372693D01*
X75804510Y-48405539D01*
X69940656Y-54269395D01*
X69878344Y-54303421D01*
X69851561Y-54306300D01*
X59215839Y-54306300D01*
X59147718Y-54286298D01*
X59101225Y-54232642D01*
X59091121Y-54162368D01*
X59120615Y-54097788D01*
X59126731Y-54091217D01*
X60382118Y-52835829D01*
X60444427Y-52801807D01*
X60457092Y-52799721D01*
X60541447Y-52790217D01*
X60713415Y-52730043D01*
X60867681Y-52633111D01*
X60996511Y-52504281D01*
X61093443Y-52350015D01*
X61153617Y-52178047D01*
X61174016Y-51997000D01*
X61153617Y-51815953D01*
X61126099Y-51737313D01*
X61122480Y-51666411D01*
X61157769Y-51604806D01*
X61220762Y-51572059D01*
X61245029Y-51569700D01*
X63475088Y-51569700D01*
X63483319Y-51570240D01*
X63495649Y-51571862D01*
X63519100Y-51574950D01*
X63558980Y-51569700D01*
X63558985Y-51569700D01*
X63664483Y-51555811D01*
X63677951Y-51554038D01*
X63825976Y-51492724D01*
X63921172Y-51419677D01*
X63921172Y-51419676D01*
X63929391Y-51413370D01*
X63929400Y-51413362D01*
X63953087Y-51395187D01*
X63975065Y-51366544D01*
X63980484Y-51360363D01*
X65589134Y-49751713D01*
X65651444Y-49717689D01*
X65722259Y-49722754D01*
X65767322Y-49751715D01*
X65805218Y-49789611D01*
X65805220Y-49789612D01*
X65959481Y-49886541D01*
X65959482Y-49886541D01*
X65959485Y-49886543D01*
X66131453Y-49946717D01*
X66278193Y-49963250D01*
X66343645Y-49990754D01*
X66383838Y-50049278D01*
X66388630Y-50079342D01*
X66389292Y-50079268D01*
X66390084Y-50086298D01*
X66390084Y-50086300D01*
X66410483Y-50267347D01*
X66410483Y-50267349D01*
X66410484Y-50267350D01*
X66470657Y-50439315D01*
X66470658Y-50439318D01*
X66567587Y-50593579D01*
X66567588Y-50593581D01*
X66696418Y-50722411D01*
X66696420Y-50722412D01*
X66850681Y-50819341D01*
X66850682Y-50819341D01*
X66850685Y-50819343D01*
X66983194Y-50865709D01*
X67040885Y-50907087D01*
X67067047Y-50973087D01*
X67053375Y-51042755D01*
X67030675Y-51073732D01*
X67005086Y-51099321D01*
X66908158Y-51253581D01*
X66908157Y-51253584D01*
X66848665Y-51423605D01*
X66847983Y-51425553D01*
X66827584Y-51606600D01*
X66847983Y-51787647D01*
X66847983Y-51787649D01*
X66847984Y-51787650D01*
X66908157Y-51959615D01*
X66908158Y-51959618D01*
X67005087Y-52113879D01*
X67005088Y-52113881D01*
X67133918Y-52242711D01*
X67133920Y-52242712D01*
X67288181Y-52339641D01*
X67288182Y-52339641D01*
X67288185Y-52339643D01*
X67460153Y-52399817D01*
X67641200Y-52420216D01*
X67822247Y-52399817D01*
X67906545Y-52370319D01*
X67977447Y-52366700D01*
X68039052Y-52401989D01*
X68054845Y-52422213D01*
X68125387Y-52534479D01*
X68125388Y-52534481D01*
X68251776Y-52660869D01*
X68285802Y-52723181D01*
X68287889Y-52764070D01*
X68277505Y-52856240D01*
X68277284Y-52858200D01*
X68297683Y-53039247D01*
X68297683Y-53039249D01*
X68297684Y-53039250D01*
X68357857Y-53211215D01*
X68357858Y-53211218D01*
X68454787Y-53365479D01*
X68454788Y-53365481D01*
X68583618Y-53494311D01*
X68583620Y-53494312D01*
X68737881Y-53591241D01*
X68737882Y-53591241D01*
X68737885Y-53591243D01*
X68909853Y-53651417D01*
X69090900Y-53671816D01*
X69271947Y-53651417D01*
X69443915Y-53591243D01*
X69598181Y-53494311D01*
X69727011Y-53365481D01*
X69823943Y-53211215D01*
X69884117Y-53039247D01*
X69904516Y-52858200D01*
X69884117Y-52677153D01*
X69823943Y-52505185D01*
X69823941Y-52505182D01*
X69823941Y-52505181D01*
X69727012Y-52350920D01*
X69727011Y-52350918D01*
X69600623Y-52224530D01*
X69566597Y-52162218D01*
X69564510Y-52121327D01*
X69564868Y-52118150D01*
X69575116Y-52027200D01*
X69554717Y-51846153D01*
X69494543Y-51674185D01*
X69494541Y-51674182D01*
X69494541Y-51674181D01*
X69397612Y-51519920D01*
X69397611Y-51519918D01*
X69268781Y-51391088D01*
X69268779Y-51391087D01*
X69114518Y-51294158D01*
X69114515Y-51294157D01*
X69092227Y-51286358D01*
X69034535Y-51244980D01*
X69008373Y-51178980D01*
X69008633Y-51153328D01*
X69015916Y-51088700D01*
X68995517Y-50907653D01*
X68935343Y-50735685D01*
X68935341Y-50735682D01*
X68935341Y-50735681D01*
X68845374Y-50592500D01*
X69233784Y-50592500D01*
X69254183Y-50773547D01*
X69254183Y-50773549D01*
X69254184Y-50773550D01*
X69314357Y-50945515D01*
X69314358Y-50945518D01*
X69411287Y-51099779D01*
X69411288Y-51099781D01*
X69540118Y-51228611D01*
X69540120Y-51228612D01*
X69694381Y-51325541D01*
X69694382Y-51325541D01*
X69694385Y-51325543D01*
X69866353Y-51385717D01*
X70047400Y-51406116D01*
X70228447Y-51385717D01*
X70400415Y-51325543D01*
X70554681Y-51228611D01*
X70683511Y-51099781D01*
X70780443Y-50945515D01*
X70840617Y-50773547D01*
X70861016Y-50592500D01*
X70840617Y-50411453D01*
X70780443Y-50239485D01*
X70780441Y-50239482D01*
X70780441Y-50239481D01*
X70683512Y-50085220D01*
X70679103Y-50079691D01*
X70680507Y-50078570D01*
X70650864Y-50024285D01*
X70655929Y-49953470D01*
X70698476Y-49896634D01*
X70764996Y-49871823D01*
X70815853Y-49881542D01*
X70816706Y-49879106D01*
X70823385Y-49881443D01*
X70995353Y-49941617D01*
X71176400Y-49962016D01*
X71357447Y-49941617D01*
X71529415Y-49881443D01*
X71683681Y-49784511D01*
X71812511Y-49655681D01*
X71909443Y-49501415D01*
X71909445Y-49501406D01*
X71912515Y-49495035D01*
X71914206Y-49495849D01*
X71950075Y-49445824D01*
X72016072Y-49419651D01*
X72041741Y-49419910D01*
X72104800Y-49427016D01*
X72104801Y-49427015D01*
X72104803Y-49427016D01*
X72111877Y-49427016D01*
X72111877Y-49428594D01*
X72173550Y-49439387D01*
X72225766Y-49487491D01*
X72236673Y-49510738D01*
X72248458Y-49544418D01*
X72345387Y-49698679D01*
X72345388Y-49698681D01*
X72474218Y-49827511D01*
X72474220Y-49827512D01*
X72628481Y-49924441D01*
X72628482Y-49924441D01*
X72628485Y-49924443D01*
X72800453Y-49984617D01*
X72981500Y-50005016D01*
X73162547Y-49984617D01*
X73334515Y-49924443D01*
X73488781Y-49827511D01*
X73617611Y-49698681D01*
X73714543Y-49544415D01*
X73774717Y-49372447D01*
X73795116Y-49191400D01*
X73774717Y-49010353D01*
X73714543Y-48838385D01*
X73714541Y-48838382D01*
X73714541Y-48838381D01*
X73617612Y-48684120D01*
X73617611Y-48684118D01*
X73488781Y-48555288D01*
X73488779Y-48555287D01*
X73334518Y-48458358D01*
X73334515Y-48458357D01*
X73162550Y-48398184D01*
X73162549Y-48398183D01*
X73162547Y-48398183D01*
X72981500Y-48377784D01*
X72981498Y-48377784D01*
X72981497Y-48377784D01*
X72974424Y-48377784D01*
X72974424Y-48376210D01*
X72912725Y-48365401D01*
X72860519Y-48317286D01*
X72849628Y-48294066D01*
X72837843Y-48260385D01*
X72824264Y-48238774D01*
X72740912Y-48106120D01*
X72740911Y-48106118D01*
X72612081Y-47977288D01*
X72612079Y-47977287D01*
X72457818Y-47880358D01*
X72457815Y-47880357D01*
X72285850Y-47820184D01*
X72285849Y-47820183D01*
X72285847Y-47820183D01*
X72104800Y-47799784D01*
X71923753Y-47820183D01*
X71923750Y-47820183D01*
X71923749Y-47820184D01*
X71751784Y-47880357D01*
X71751781Y-47880358D01*
X71597520Y-47977287D01*
X71597518Y-47977288D01*
X71468688Y-48106118D01*
X71468687Y-48106120D01*
X71371758Y-48260381D01*
X71368689Y-48266756D01*
X71367003Y-48265944D01*
X71331105Y-48315991D01*
X71265104Y-48342150D01*
X71239452Y-48341888D01*
X71176400Y-48334784D01*
X70995353Y-48355183D01*
X70995350Y-48355183D01*
X70995349Y-48355184D01*
X70823384Y-48415357D01*
X70823381Y-48415358D01*
X70669120Y-48512287D01*
X70669118Y-48512288D01*
X70540288Y-48641118D01*
X70540287Y-48641120D01*
X70443358Y-48795381D01*
X70443357Y-48795384D01*
X70386691Y-48957328D01*
X70383183Y-48967353D01*
X70362784Y-49148400D01*
X70383183Y-49329447D01*
X70383183Y-49329449D01*
X70383184Y-49329450D01*
X70443357Y-49501415D01*
X70443358Y-49501418D01*
X70540287Y-49655679D01*
X70544697Y-49661209D01*
X70543292Y-49662329D01*
X70572935Y-49716614D01*
X70567870Y-49787429D01*
X70525323Y-49844265D01*
X70458803Y-49869076D01*
X70407943Y-49859366D01*
X70407094Y-49861794D01*
X70228450Y-49799284D01*
X70228449Y-49799283D01*
X70228447Y-49799283D01*
X70047400Y-49778884D01*
X69866353Y-49799283D01*
X69866350Y-49799283D01*
X69866349Y-49799284D01*
X69694384Y-49859457D01*
X69694381Y-49859458D01*
X69540120Y-49956387D01*
X69540118Y-49956388D01*
X69411288Y-50085218D01*
X69411287Y-50085220D01*
X69314358Y-50239481D01*
X69314357Y-50239484D01*
X69268869Y-50369484D01*
X69254183Y-50411453D01*
X69233784Y-50592500D01*
X68845374Y-50592500D01*
X68838412Y-50581420D01*
X68838411Y-50581418D01*
X68709581Y-50452588D01*
X68709579Y-50452587D01*
X68555318Y-50355658D01*
X68555315Y-50355657D01*
X68383350Y-50295484D01*
X68383349Y-50295483D01*
X68383347Y-50295483D01*
X68202300Y-50275084D01*
X68202298Y-50275084D01*
X68202297Y-50275084D01*
X68150395Y-50280931D01*
X68080463Y-50268680D01*
X68028256Y-50220567D01*
X68010349Y-50151865D01*
X68011081Y-50141631D01*
X68017316Y-50086300D01*
X67996917Y-49905253D01*
X67936743Y-49733285D01*
X67936741Y-49733282D01*
X67936741Y-49733281D01*
X67839812Y-49579020D01*
X67839811Y-49579018D01*
X67710981Y-49450188D01*
X67710979Y-49450187D01*
X67556718Y-49353258D01*
X67556715Y-49353257D01*
X67384750Y-49293084D01*
X67384749Y-49293083D01*
X67384747Y-49293083D01*
X67295879Y-49283070D01*
X67238007Y-49276549D01*
X67172555Y-49249045D01*
X67132362Y-49190521D01*
X67127569Y-49160457D01*
X67126908Y-49160532D01*
X67125541Y-49148400D01*
X67105717Y-48972453D01*
X67045543Y-48800485D01*
X66948611Y-48646219D01*
X66948610Y-48646218D01*
X66948607Y-48646213D01*
X66948382Y-48645930D01*
X66948293Y-48645712D01*
X66944847Y-48640228D01*
X66945808Y-48639624D01*
X66921554Y-48580198D01*
X66920900Y-48567380D01*
X66920900Y-47799784D01*
X66920900Y-47014593D01*
X66921437Y-47006390D01*
X66926150Y-46970600D01*
X66920900Y-46930722D01*
X66920900Y-46930715D01*
X66905238Y-46811750D01*
X66843924Y-46663725D01*
X66841581Y-46660672D01*
X66813737Y-46624385D01*
X66813737Y-46624384D01*
X66813735Y-46624382D01*
X66770877Y-46568528D01*
X66770874Y-46568525D01*
X66769290Y-46566460D01*
X66769271Y-46566436D01*
X66768532Y-46565473D01*
X66746387Y-46536613D01*
X66735318Y-46528119D01*
X66717746Y-46514635D01*
X66711553Y-46509204D01*
X64267643Y-44065295D01*
X64233618Y-44002983D01*
X64238683Y-43932168D01*
X64281230Y-43875332D01*
X64347750Y-43850521D01*
X64356739Y-43850200D01*
X65602006Y-43850200D01*
X65670127Y-43870202D01*
X65680570Y-43877692D01*
X65680725Y-43877816D01*
X65834981Y-43974741D01*
X65834982Y-43974741D01*
X65834985Y-43974743D01*
X66006953Y-44034917D01*
X66188000Y-44055316D01*
X66369047Y-44034917D01*
X66541015Y-43974743D01*
X66695281Y-43877811D01*
X66824111Y-43748981D01*
X66921043Y-43594715D01*
X66981217Y-43422747D01*
X67001616Y-43241700D01*
X66981217Y-43060653D01*
X66921043Y-42888685D01*
X66921041Y-42888682D01*
X66921041Y-42888681D01*
X66824112Y-42734420D01*
X66824111Y-42734418D01*
X66695281Y-42605588D01*
X66695279Y-42605587D01*
X66541018Y-42508658D01*
X66541015Y-42508657D01*
X66369050Y-42448484D01*
X66369049Y-42448483D01*
X66369047Y-42448483D01*
X66188000Y-42428084D01*
X66006953Y-42448483D01*
X66006950Y-42448483D01*
X66006949Y-42448484D01*
X65834984Y-42508657D01*
X65834981Y-42508658D01*
X65680725Y-42605583D01*
X65680570Y-42605708D01*
X65680450Y-42605756D01*
X65674727Y-42609353D01*
X65674097Y-42608350D01*
X65614841Y-42632545D01*
X65602006Y-42633200D01*
X54348119Y-42633200D01*
X54339887Y-42632660D01*
X54304101Y-42627949D01*
X54304100Y-42627949D01*
X54145250Y-42648861D01*
X53997225Y-42710175D01*
X53997217Y-42710180D01*
X53920784Y-42768831D01*
X53908500Y-42778257D01*
X53902247Y-42783055D01*
X53902204Y-42783087D01*
X53870111Y-42807714D01*
X53848139Y-42836347D01*
X53842702Y-42842547D01*
X53741896Y-42943354D01*
X53679584Y-42977379D01*
X53608768Y-42972315D01*
X53551932Y-42929769D01*
X53527121Y-42863248D01*
X53526800Y-42854259D01*
X53526800Y-42741644D01*
X53546802Y-42673523D01*
X53585761Y-42634958D01*
X53682281Y-42574311D01*
X53811111Y-42445481D01*
X53908043Y-42291215D01*
X53968217Y-42119247D01*
X53988616Y-41938200D01*
X53981950Y-41879043D01*
X53994199Y-41809115D01*
X54042311Y-41756906D01*
X54111012Y-41738997D01*
X54123591Y-41740014D01*
G37*
G04 #@! TD.AperFunction*
G04 #@! TA.AperFunction,Conductor*
G36*
X84190882Y-46003402D02*
G01*
X84211856Y-46020305D01*
X87065938Y-48874387D01*
X87099964Y-48936699D01*
X87094899Y-49007514D01*
X87083531Y-49030518D01*
X86999856Y-49163686D01*
X86939684Y-49335649D01*
X86939683Y-49335653D01*
X86919284Y-49516700D01*
X86939683Y-49697747D01*
X86939683Y-49697749D01*
X86939684Y-49697750D01*
X86999857Y-49869715D01*
X86999858Y-49869718D01*
X87096787Y-50023979D01*
X87096788Y-50023981D01*
X87134378Y-50061571D01*
X87168404Y-50123883D01*
X87163339Y-50194698D01*
X87122020Y-50249892D01*
X87122249Y-50250179D01*
X87121150Y-50251054D01*
X87120792Y-50251534D01*
X87119042Y-50252736D01*
X87116719Y-50254588D01*
X87063795Y-50307512D01*
X87001482Y-50341537D01*
X86930666Y-50336471D01*
X86873831Y-50293924D01*
X86849778Y-50234861D01*
X86847896Y-50220567D01*
X86846038Y-50206450D01*
X86784724Y-50058425D01*
X86758294Y-50023981D01*
X86711677Y-49963228D01*
X86711674Y-49963225D01*
X86709166Y-49959956D01*
X86687187Y-49931313D01*
X86678233Y-49924442D01*
X86658546Y-49909335D01*
X86652353Y-49903904D01*
X86552404Y-49803955D01*
X86518378Y-49741643D01*
X86515499Y-49714860D01*
X86515499Y-49125225D01*
X86508374Y-49055477D01*
X86504974Y-49022196D01*
X86449661Y-48855271D01*
X86357344Y-48705602D01*
X86357343Y-48705601D01*
X86357338Y-48705595D01*
X86233004Y-48581261D01*
X86232998Y-48581256D01*
X86083329Y-48488939D01*
X86059355Y-48480995D01*
X85916404Y-48433626D01*
X85916401Y-48433625D01*
X85916399Y-48433625D01*
X85813383Y-48423100D01*
X85225625Y-48423100D01*
X85122598Y-48433625D01*
X85052437Y-48456874D01*
X84981482Y-48459314D01*
X84920472Y-48423005D01*
X84912855Y-48413989D01*
X84841678Y-48321229D01*
X84841674Y-48321225D01*
X84817187Y-48289313D01*
X84817186Y-48289312D01*
X84788546Y-48267335D01*
X84782353Y-48261904D01*
X82718944Y-46198495D01*
X82684918Y-46136183D01*
X82689983Y-46065368D01*
X82732530Y-46008532D01*
X82799050Y-45983721D01*
X82808039Y-45983400D01*
X84122761Y-45983400D01*
X84190882Y-46003402D01*
G37*
G04 #@! TD.AperFunction*
G04 #@! TA.AperFunction,Conductor*
G36*
X87776682Y-45078002D02*
G01*
X87797656Y-45094905D01*
X89039765Y-46337014D01*
X89073791Y-46399326D01*
X89068726Y-46470141D01*
X89026179Y-46526977D01*
X88992285Y-46545038D01*
X88864484Y-46589757D01*
X88864481Y-46589758D01*
X88710220Y-46686687D01*
X88710218Y-46686688D01*
X88581388Y-46815518D01*
X88581387Y-46815520D01*
X88484458Y-46969781D01*
X88484457Y-46969784D01*
X88425221Y-47139073D01*
X88424283Y-47141753D01*
X88403884Y-47322800D01*
X88424283Y-47503847D01*
X88424283Y-47503849D01*
X88424284Y-47503850D01*
X88484457Y-47675815D01*
X88484458Y-47675818D01*
X88581387Y-47830079D01*
X88581388Y-47830081D01*
X88710216Y-47958909D01*
X88710218Y-47958910D01*
X88710219Y-47958911D01*
X88764453Y-47992988D01*
X88811490Y-48046165D01*
X88822311Y-48116332D01*
X88816347Y-48141289D01*
X88782383Y-48238352D01*
X88761984Y-48419400D01*
X88776260Y-48546106D01*
X88764010Y-48616038D01*
X88715897Y-48668246D01*
X88647197Y-48686154D01*
X88579720Y-48664077D01*
X88561957Y-48649308D01*
X85185744Y-45273095D01*
X85151718Y-45210783D01*
X85156783Y-45139968D01*
X85199330Y-45083132D01*
X85265850Y-45058321D01*
X85274839Y-45058000D01*
X87708561Y-45058000D01*
X87776682Y-45078002D01*
G37*
G04 #@! TD.AperFunction*
G04 #@! TA.AperFunction,Conductor*
G36*
X53737082Y-46060731D02*
G01*
X53793918Y-46103278D01*
X53798321Y-46109548D01*
X53866760Y-46213603D01*
X53866761Y-46213604D01*
X53994669Y-46334280D01*
X54146962Y-46422206D01*
X54146968Y-46422207D01*
X54148166Y-46422725D01*
X54148864Y-46423304D01*
X54153318Y-46425876D01*
X54152878Y-46426636D01*
X54202797Y-46468068D01*
X54224241Y-46535749D01*
X54205689Y-46604279D01*
X54199342Y-46613658D01*
X54198553Y-46614717D01*
X54110623Y-46767015D01*
X54110622Y-46767017D01*
X54110622Y-46767018D01*
X54060188Y-46935480D01*
X54051950Y-47076925D01*
X54049963Y-47111034D01*
X54049963Y-47111035D01*
X54066460Y-47213273D01*
X54066460Y-47213275D01*
X54122423Y-47422131D01*
X54120733Y-47493108D01*
X54089812Y-47543837D01*
X53755156Y-47878494D01*
X53692843Y-47912519D01*
X53659659Y-47915236D01*
X53656985Y-47915100D01*
X53067339Y-47915100D01*
X52999218Y-47895098D01*
X52978244Y-47878195D01*
X52713323Y-47613274D01*
X52444090Y-47344041D01*
X52438663Y-47337853D01*
X52416687Y-47309213D01*
X52384774Y-47284725D01*
X52384774Y-47284724D01*
X52289582Y-47211680D01*
X52289574Y-47211675D01*
X52141549Y-47150361D01*
X52112306Y-47146512D01*
X52018927Y-47134218D01*
X52018897Y-47134215D01*
X51982702Y-47129450D01*
X51982699Y-47129450D01*
X51946919Y-47134160D01*
X51938688Y-47134700D01*
X49930277Y-47134700D01*
X49862156Y-47114698D01*
X49815663Y-47061042D01*
X49812514Y-47053510D01*
X49811692Y-47051350D01*
X49811071Y-47049717D01*
X49811068Y-47049712D01*
X49811068Y-47049711D01*
X49714442Y-46902799D01*
X49714440Y-46902797D01*
X49586530Y-46782119D01*
X49575271Y-46775619D01*
X49526278Y-46724237D01*
X49512842Y-46654523D01*
X49539228Y-46588612D01*
X49597060Y-46547430D01*
X49638271Y-46540500D01*
X52857088Y-46540500D01*
X52865319Y-46541040D01*
X52877649Y-46542662D01*
X52901100Y-46545750D01*
X52940980Y-46540500D01*
X52940985Y-46540500D01*
X53018891Y-46530243D01*
X53040557Y-46527391D01*
X53040557Y-46527392D01*
X53040561Y-46527390D01*
X53059951Y-46524838D01*
X53207976Y-46463524D01*
X53303172Y-46390477D01*
X53303172Y-46390476D01*
X53311391Y-46384170D01*
X53311400Y-46384162D01*
X53335087Y-46365987D01*
X53357065Y-46337344D01*
X53362484Y-46331163D01*
X53603957Y-46089690D01*
X53666267Y-46055666D01*
X53737082Y-46060731D01*
G37*
G04 #@! TD.AperFunction*
G04 #@! TD*
M02*
