M48
INCH,TZ
T1C0.0118
T2C0.0197
%
G90
G05
T1
X15166Y-50184
X15205Y-35174
X15221Y-17921
X15240Y-42764
X15305Y-29230
X15311Y-50572
X15790Y-37466
X15826Y-44964
X15837Y-20243
X15995Y-34804
X16154Y-24801
X16285Y-28558
X16404Y-36994
X16422Y-44551
X16456Y-19025
X16651Y-39280
X16682Y-41844
X16691Y-30724
X16947Y-21283
X17022Y-46751
X17077Y-54262
X17459Y-27209
X17545Y-16074
X17745Y-24770
X17840Y-43121
X17891Y-50269
X17935Y-39600
X17982Y-47109
X18154Y-17604
X18221Y-19658
X18359Y-19062
X18516Y-52893
X18524Y-18587
X18528Y-18291
X18529Y-17960
X18583Y-17342
X18898Y-17126
X18932Y-52523
X18978Y-31669
X19089Y-25782
X19094Y-52095
X19252Y-19659
X19310Y-50288
X19325Y-42643
X19357Y-17011
X19370Y-26870
X19381Y-35332
X19417Y-29250
X19661Y-34875
X19728Y-22898
X19728Y-29251
X19803Y-37563
X19853Y-21356
X19934Y-35035
X19962Y-26002
X19984Y-45023
X20015Y-24604
X20054Y-37116
X20110Y-42380
X20191Y-32595
X20295Y-50288
X20298Y-32292
X20316Y-15842
X20406Y-37114
X20512Y-18504
X20596Y-16678
X20622Y-52096
X20742Y-14054
X20935Y-16511
X20997Y-47116
X21097Y-46033
X21150Y-23782
X21491Y-24606
X21554Y-14696
X22026Y-43027
X22065Y-39684
X22200Y-31943
X22430Y-50387
X22548Y-37243
X22625Y-52771
X22681Y-38511
X22968Y-32888
X23017Y-32062
X23307Y-25519
X23419Y-35043
X23424Y-42623
X23731Y-19701
X23764Y-20471
X23990Y-52280
X24099Y-17784
X24130Y-39686
X24282Y-19693
X24300Y-34091
X24508Y-52170
X24579Y-19030
X24775Y-37473
X24980Y-18308
X24996Y-49921
X25069Y-45015
X25091Y-19661
X25136Y-18808
X25159Y-39138
X25290Y-17987
X25372Y-19020
X25372Y-19316
X25428Y-44074
X25461Y-36830
X25470Y-18725
X25728Y-25446
X25957Y-32820
X26058Y-17024
X26107Y-19352
X26132Y-35204
X26135Y-44139
X26181Y-32595
X26207Y-47722
X26403Y-25193
X26458Y-19719
X26630Y-20318
X26654Y-17598
X26851Y-20114
X26895Y-16679
X27071Y-20483
X27201Y-20810
X27225Y-16676
X27230Y-24884
X27251Y-32372
X27480Y-18268
X27578Y-19918
X27622Y-23486
X27661Y-49573
X27727Y-42696
X27771Y-34863
X27810Y-25770
X28022Y-19350
X28037Y-44213
X28112Y-52568
X28181Y-24884
X28253Y-45993
X28316Y-17062
X28388Y-19139
X28418Y-17373
X28501Y-53838
X28506Y-37106
X28625Y-38202
X28731Y-28751
X28733Y-19367
X28784Y-16065
X28859Y-45733
X28871Y-17815
X28958Y-17130
X28984Y-26637
X29028Y-24884
X29092Y-44802
X29156Y-17954
X29315Y-22564
X29390Y-20785
X29428Y-51267
X29472Y-37282
X29592Y-25846
X29595Y-17401
X29654Y-18453
X29691Y-29306
X29762Y-40019
X29910Y-36946
X29940Y-17396
X29940Y-28885
X29957Y-45600
X29971Y-20786
X30090Y-53839
X30275Y-25848
X30277Y-36325
X30296Y-43637
X30304Y-22244
X30307Y-50747
X30474Y-28648
X30611Y-44273
X30627Y-50122
X30687Y-19785
X30775Y-43834
X30805Y-44703
X30819Y-51400
X30821Y-50761
X30851Y-30800
X30895Y-35902
X30900Y-43195
X30906Y-17946
X30970Y-42012
X30971Y-47580
X31011Y-44480
X31054Y-36815
X31107Y-52076
X31180Y-19668
X31226Y-49292
X31227Y-18495
X31248Y-44964
X31263Y-52645
X31304Y-53792
X31320Y-52292
X31392Y-38714
X31409Y-53133
X31410Y-36658
X31415Y-24084
X31442Y-44178
X31481Y-36954
X31512Y-18168
X31551Y-51721
X31557Y-18877
X31562Y-34067
X31694Y-42828
X31699Y-53701
X31729Y-15880
X31740Y-38817
X31746Y-32115
X31770Y-46100
X31800Y-17647
X31803Y-36736
X31804Y-42367
X31811Y-19375
X31811Y-19069
X31811Y-51135
X31923Y-18219
X31941Y-43147
X31950Y-18790
X31973Y-35827
X32003Y-50714
X32058Y-53956
X32106Y-19386
X32120Y-39322
X32121Y-30595
X32121Y-27307
X32254Y-35449
X32268Y-44846
X32334Y-37428
X32343Y-49126
X32364Y-31190
X32385Y-17050
X32402Y-41512
X32421Y-42557
X32429Y-45733
X32433Y-50280
X32455Y-53616
X32545Y-48837
X32575Y-31527
X32591Y-22913
X32594Y-45477
X32681Y-53814
X32723Y-46803
X32724Y-41500
X32756Y-45733
X32777Y-45243
X32800Y-38366
X32810Y-37876
X32835Y-43465
X32966Y-53143
X33001Y-20445
X33065Y-39426
X33154Y-19985
X33189Y-18268
X33260Y-38308
X33344Y-16490
X33386Y-45733
X33424Y-46741
X33429Y-34984
X33450Y-42438
X33450Y-47088
X33452Y-20001
X33485Y-49783
X33562Y-20762
X33604Y-53124
X33605Y-34501
X33620Y-39277
X33687Y-16540
X33708Y-23533
X33736Y-49954
X33804Y-42139
X33834Y-34175
X33928Y-21884
X33976Y-17756
X33998Y-16596
X33999Y-41907
X34001Y-38343
X34009Y-39168
X34041Y-42346
X34055Y-51850
X34059Y-34386
X34094Y-44331
X34109Y-53337
X34130Y-37866
X34146Y-45358
X34150Y-26465
X34152Y-20535
X34177Y-21319
X34186Y-41661
X34249Y-50124
X34260Y-34850
X34369Y-35181
X34370Y-53539
X34375Y-49646
X34498Y-20036
X34500Y-38564
X34541Y-19495
X34557Y-42448
X34584Y-34034
X34684Y-20448
X34732Y-52696
X34798Y-20047
X34847Y-49066
X34921Y-17269
X34981Y-45844
X35065Y-17555
X35084Y-49884
X35125Y-18631
X35174Y-34684
X35223Y-43989
X35232Y-37680
X35266Y-19063
X35301Y-49675
X35395Y-17705
X35415Y-38404
X35450Y-34834
X35454Y-45088
X35492Y-50574
X35500Y-37243
X35562Y-19190
X35602Y-17926
X35692Y-44846
X35717Y-37868
X35779Y-18985
X35803Y-43732
X36288Y-18976
X36295Y-27142
X36322Y-29683
X36550Y-45344
X36800Y-50528
T2
G00X30807Y-25571
M15
G01X30807Y-25295
M16
G05
G00X30807Y-27776
M15
G01X30807Y-27500
M16
G05
G00X31654Y-26752
M15
G01X31654Y-26319
M16
G05
T0
M30
