G04 #@! TF.GenerationSoftware,KiCad,Pcbnew,7.0.5*
G04 #@! TF.CreationDate,2025-03-16T21:08:27-05:00*
G04 #@! TF.ProjectId,DSKY_led_display,44534b59-5f6c-4656-945f-646973706c61,V7*
G04 #@! TF.SameCoordinates,Original*
G04 #@! TF.FileFunction,Profile,NP*
%FSLAX46Y46*%
G04 Gerber Fmt 4.6, Leading zero omitted, Abs format (unit mm)*
G04 Created by KiCad (PCBNEW 7.0.5) date 2025-03-16 21:08:27*
%MOMM*%
%LPD*%
G01*
G04 APERTURE LIST*
G04 #@! TA.AperFunction,Profile*
%ADD10C,0.050000*%
G04 #@! TD*
G04 #@! TA.AperFunction,Profile*
%ADD11C,0.005000*%
G04 #@! TD*
G04 APERTURE END LIST*
D10*
X33900000Y-34000000D02*
X97400000Y-34000000D01*
X97400000Y-34000000D02*
X97400000Y-139500000D01*
X33900000Y-139500000D02*
X97400000Y-139500000D01*
X33900000Y-139500000D02*
X33900000Y-34000000D01*
D11*
G04 #@! TO.C,J1*
X78500000Y-70550000D02*
X78500000Y-69850000D01*
X78000000Y-69850000D02*
X78000000Y-70550000D01*
X80650000Y-67950000D02*
X80650000Y-66850000D01*
X80150000Y-66850000D02*
X80150000Y-67950000D01*
X78500000Y-64950000D02*
X78500000Y-64250000D01*
X78000000Y-64250000D02*
X78000000Y-64950000D01*
X78000000Y-70550000D02*
G75*
G03*
X78250000Y-70800000I249999J-1D01*
G01*
X78250000Y-70800000D02*
G75*
G03*
X78500000Y-70550000I1J249999D01*
G01*
X78250000Y-69600000D02*
G75*
G03*
X78000000Y-69850000I-1J-249999D01*
G01*
X78500000Y-69850000D02*
G75*
G03*
X78250000Y-69600000I-249999J1D01*
G01*
X80150000Y-67950000D02*
G75*
G03*
X80400000Y-68200000I249999J-1D01*
G01*
X80400000Y-68200000D02*
G75*
G03*
X80650000Y-67950000I1J249999D01*
G01*
X80400000Y-66600000D02*
G75*
G03*
X80150000Y-66850000I0J-250000D01*
G01*
X80650000Y-66850000D02*
G75*
G03*
X80400000Y-66600000I-250000J0D01*
G01*
X78000000Y-64950000D02*
G75*
G03*
X78250000Y-65200000I250000J0D01*
G01*
X78250000Y-65200000D02*
G75*
G03*
X78500000Y-64950000I0J250000D01*
G01*
X78250000Y-64000000D02*
G75*
G03*
X78000000Y-64250000I0J-250000D01*
G01*
X78500000Y-64250000D02*
G75*
G03*
X78250000Y-64000000I-250000J0D01*
G01*
G04 #@! TD*
M02*
