G04 #@! TF.GenerationSoftware,KiCad,Pcbnew,7.0.5*
G04 #@! TF.CreationDate,2025-03-16T19:14:48-05:00*
G04 #@! TF.ProjectId,DSKY_led_display,44534b59-5f6c-4656-945f-646973706c61,V7*
G04 #@! TF.SameCoordinates,Original*
G04 #@! TF.FileFunction,Soldermask,Top*
G04 #@! TF.FilePolarity,Negative*
%FSLAX46Y46*%
G04 Gerber Fmt 4.6, Leading zero omitted, Abs format (unit mm)*
G04 Created by KiCad (PCBNEW 7.0.5) date 2025-03-16 19:14:48*
%MOMM*%
%LPD*%
G01*
G04 APERTURE LIST*
G04 Aperture macros list*
%AMRoundRect*
0 Rectangle with rounded corners*
0 $1 Rounding radius*
0 $2 $3 $4 $5 $6 $7 $8 $9 X,Y pos of 4 corners*
0 Add a 4 corners polygon primitive as box body*
4,1,4,$2,$3,$4,$5,$6,$7,$8,$9,$2,$3,0*
0 Add four circle primitives for the rounded corners*
1,1,$1+$1,$2,$3*
1,1,$1+$1,$4,$5*
1,1,$1+$1,$6,$7*
1,1,$1+$1,$8,$9*
0 Add four rect primitives between the rounded corners*
20,1,$1+$1,$2,$3,$4,$5,0*
20,1,$1+$1,$4,$5,$6,$7,0*
20,1,$1+$1,$6,$7,$8,$9,0*
20,1,$1+$1,$8,$9,$2,$3,0*%
G04 Aperture macros list end*
%ADD10C,0.010000*%
%ADD11RoundRect,0.050000X-0.050000X0.362500X-0.050000X-0.362500X0.050000X-0.362500X0.050000X0.362500X0*%
%ADD12RoundRect,0.050000X-0.362500X0.050000X-0.362500X-0.050000X0.362500X-0.050000X0.362500X0.050000X0*%
%ADD13R,3.800000X2.800000*%
%ADD14RoundRect,0.050000X-0.362500X-0.050000X0.362500X-0.050000X0.362500X0.050000X-0.362500X0.050000X0*%
%ADD15RoundRect,0.050000X-0.050000X-0.362500X0.050000X-0.362500X0.050000X0.362500X-0.050000X0.362500X0*%
%ADD16R,2.800000X3.800000*%
%ADD17R,1.600000X0.550000*%
%ADD18R,0.550000X1.600000*%
%ADD19RoundRect,0.225000X-0.225000X-0.250000X0.225000X-0.250000X0.225000X0.250000X-0.225000X0.250000X0*%
%ADD20RoundRect,0.218750X0.218750X0.256250X-0.218750X0.256250X-0.218750X-0.256250X0.218750X-0.256250X0*%
%ADD21RoundRect,0.218750X-0.218750X-0.256250X0.218750X-0.256250X0.218750X0.256250X-0.218750X0.256250X0*%
%ADD22RoundRect,0.200000X-0.200000X-0.275000X0.200000X-0.275000X0.200000X0.275000X-0.200000X0.275000X0*%
%ADD23RoundRect,0.200000X-0.275000X0.200000X-0.275000X-0.200000X0.275000X-0.200000X0.275000X0.200000X0*%
%ADD24R,1.060000X0.650000*%
%ADD25RoundRect,0.225000X0.250000X-0.225000X0.250000X0.225000X-0.250000X0.225000X-0.250000X-0.225000X0*%
%ADD26R,1.500000X0.450000*%
%ADD27O,1.100000X1.700000*%
%ADD28O,1.100000X2.100000*%
%ADD29RoundRect,0.200000X0.275000X-0.200000X0.275000X0.200000X-0.275000X0.200000X-0.275000X-0.200000X0*%
%ADD30RoundRect,0.200000X0.200000X0.275000X-0.200000X0.275000X-0.200000X-0.275000X0.200000X-0.275000X0*%
%ADD31RoundRect,0.050800X0.450000X-0.450000X0.450000X0.450000X-0.450000X0.450000X-0.450000X-0.450000X0*%
%ADD32R,0.650000X2.760000*%
%ADD33R,0.650000X2.750000*%
%ADD34R,1.100000X1.100000*%
%ADD35RoundRect,0.225000X0.225000X0.250000X-0.225000X0.250000X-0.225000X-0.250000X0.225000X-0.250000X0*%
%ADD36RoundRect,0.150000X-0.825000X-0.150000X0.825000X-0.150000X0.825000X0.150000X-0.825000X0.150000X0*%
G04 APERTURE END LIST*
G04 #@! TO.C,J3*
D10*
X86539019Y-79807000D02*
X83007020Y-79807000D01*
X83007020Y-78435000D01*
X86539019Y-78435000D01*
X86539019Y-79807000D01*
G36*
X86539019Y-79807000D02*
G01*
X83007020Y-79807000D01*
X83007020Y-78435000D01*
X86539019Y-78435000D01*
X86539019Y-79807000D01*
G37*
X89459000Y-77267000D02*
X85927006Y-77267000D01*
X85927006Y-75894997D01*
X89459000Y-75894997D01*
X89459000Y-77267000D01*
G36*
X89459000Y-77267000D02*
G01*
X85927006Y-77267000D01*
X85927006Y-75894997D01*
X89459000Y-75894997D01*
X89459000Y-77267000D01*
G37*
X86539019Y-74727003D02*
X83007020Y-74727003D01*
X83007020Y-73355000D01*
X86539019Y-73355000D01*
X86539019Y-74727003D01*
G36*
X86539019Y-74727003D02*
G01*
X83007020Y-74727003D01*
X83007020Y-73355000D01*
X86539019Y-73355000D01*
X86539019Y-74727003D01*
G37*
X89459000Y-72187000D02*
X85927006Y-72187000D01*
X85927006Y-70815000D01*
X89459000Y-70815000D01*
X89459000Y-72187000D01*
G36*
X89459000Y-72187000D02*
G01*
X85927006Y-72187000D01*
X85927006Y-70815000D01*
X89459000Y-70815000D01*
X89459000Y-72187000D01*
G37*
G04 #@! TD*
D11*
G04 #@! TO.C,U2*
X87490000Y-90247500D03*
X87090000Y-90247500D03*
X86690000Y-90247500D03*
X86290000Y-90247500D03*
X85890000Y-90247500D03*
X85490000Y-90247500D03*
X85090000Y-90247500D03*
X84690000Y-90247500D03*
X84290000Y-90247500D03*
X83890000Y-90247500D03*
X83490000Y-90247500D03*
X83090000Y-90247500D03*
X82690000Y-90247500D03*
D12*
X82127500Y-90910000D03*
X82127500Y-91310000D03*
X82127500Y-91710000D03*
X82127500Y-92110000D03*
X82127500Y-92510000D03*
X82127500Y-92910000D03*
X82127500Y-93310000D03*
X82127500Y-93710000D03*
X82127500Y-94110000D03*
X82127500Y-94510000D03*
D11*
X82690000Y-95172500D03*
X83090000Y-95172500D03*
X83490000Y-95172500D03*
X83890000Y-95172500D03*
X84290000Y-95172500D03*
X84690000Y-95172500D03*
X85090000Y-95172500D03*
X85490000Y-95172500D03*
X85890000Y-95172500D03*
X86290000Y-95172500D03*
X86690000Y-95172500D03*
X87090000Y-95172500D03*
X87490000Y-95172500D03*
D12*
X88052500Y-94510000D03*
X88052500Y-94110000D03*
X88052500Y-93710000D03*
X88052500Y-93310000D03*
X88052500Y-92910000D03*
X88052500Y-92510000D03*
X88052500Y-92110000D03*
X88052500Y-91710000D03*
X88052500Y-91310000D03*
X88052500Y-90910000D03*
D13*
X85090000Y-92710000D03*
G04 #@! TD*
D11*
G04 #@! TO.C,U3*
X87363000Y-128580900D03*
X86963000Y-128580900D03*
X86563000Y-128580900D03*
X86163000Y-128580900D03*
X85763000Y-128580900D03*
X85363000Y-128580900D03*
X84963000Y-128580900D03*
X84563000Y-128580900D03*
X84163000Y-128580900D03*
X83763000Y-128580900D03*
X83363000Y-128580900D03*
X82963000Y-128580900D03*
X82563000Y-128580900D03*
D12*
X82000500Y-129243400D03*
X82000500Y-129643400D03*
X82000500Y-130043400D03*
X82000500Y-130443400D03*
X82000500Y-130843400D03*
X82000500Y-131243400D03*
X82000500Y-131643400D03*
X82000500Y-132043400D03*
X82000500Y-132443400D03*
X82000500Y-132843400D03*
D11*
X82563000Y-133505900D03*
X82963000Y-133505900D03*
X83363000Y-133505900D03*
X83763000Y-133505900D03*
X84163000Y-133505900D03*
X84563000Y-133505900D03*
X84963000Y-133505900D03*
X85363000Y-133505900D03*
X85763000Y-133505900D03*
X86163000Y-133505900D03*
X86563000Y-133505900D03*
X86963000Y-133505900D03*
X87363000Y-133505900D03*
D12*
X87925500Y-132843400D03*
X87925500Y-132443400D03*
X87925500Y-132043400D03*
X87925500Y-131643400D03*
X87925500Y-131243400D03*
X87925500Y-130843400D03*
X87925500Y-130443400D03*
X87925500Y-130043400D03*
X87925500Y-129643400D03*
X87925500Y-129243400D03*
D13*
X84963000Y-131043400D03*
G04 #@! TD*
D11*
G04 #@! TO.C,U4*
X87363000Y-109068500D03*
X86963000Y-109068500D03*
X86563000Y-109068500D03*
X86163000Y-109068500D03*
X85763000Y-109068500D03*
X85363000Y-109068500D03*
X84963000Y-109068500D03*
X84563000Y-109068500D03*
X84163000Y-109068500D03*
X83763000Y-109068500D03*
X83363000Y-109068500D03*
X82963000Y-109068500D03*
X82563000Y-109068500D03*
D12*
X82000500Y-109731000D03*
X82000500Y-110131000D03*
X82000500Y-110531000D03*
X82000500Y-110931000D03*
X82000500Y-111331000D03*
X82000500Y-111731000D03*
X82000500Y-112131000D03*
X82000500Y-112531000D03*
X82000500Y-112931000D03*
X82000500Y-113331000D03*
D11*
X82563000Y-113993500D03*
X82963000Y-113993500D03*
X83363000Y-113993500D03*
X83763000Y-113993500D03*
X84163000Y-113993500D03*
X84563000Y-113993500D03*
X84963000Y-113993500D03*
X85363000Y-113993500D03*
X85763000Y-113993500D03*
X86163000Y-113993500D03*
X86563000Y-113993500D03*
X86963000Y-113993500D03*
X87363000Y-113993500D03*
D12*
X87925500Y-113331000D03*
X87925500Y-112931000D03*
X87925500Y-112531000D03*
X87925500Y-112131000D03*
X87925500Y-111731000D03*
X87925500Y-111331000D03*
X87925500Y-110931000D03*
X87925500Y-110531000D03*
X87925500Y-110131000D03*
X87925500Y-109731000D03*
D13*
X84963000Y-111531000D03*
G04 #@! TD*
D14*
G04 #@! TO.C,U5*
X66312500Y-43793000D03*
X66312500Y-44193000D03*
X66312500Y-44593000D03*
X66312500Y-44993000D03*
X66312500Y-45393000D03*
X66312500Y-45793000D03*
X66312500Y-46193000D03*
X66312500Y-46593000D03*
X66312500Y-46993000D03*
X66312500Y-47393000D03*
X66312500Y-47793000D03*
X66312500Y-48193000D03*
X66312500Y-48593000D03*
D15*
X66975000Y-49155500D03*
X67375000Y-49155500D03*
X67775000Y-49155500D03*
X68175000Y-49155500D03*
X68575000Y-49155500D03*
X68975000Y-49155500D03*
X69375000Y-49155500D03*
X69775000Y-49155500D03*
X70175000Y-49155500D03*
X70575000Y-49155500D03*
D14*
X71237500Y-48593000D03*
X71237500Y-48193000D03*
X71237500Y-47793000D03*
X71237500Y-47393000D03*
X71237500Y-46993000D03*
X71237500Y-46593000D03*
X71237500Y-46193000D03*
X71237500Y-45793000D03*
X71237500Y-45393000D03*
X71237500Y-44993000D03*
X71237500Y-44593000D03*
X71237500Y-44193000D03*
X71237500Y-43793000D03*
D15*
X70575000Y-43230500D03*
X70175000Y-43230500D03*
X69775000Y-43230500D03*
X69375000Y-43230500D03*
X68975000Y-43230500D03*
X68575000Y-43230500D03*
X68175000Y-43230500D03*
X67775000Y-43230500D03*
X67375000Y-43230500D03*
X66975000Y-43230500D03*
D16*
X68775000Y-46193000D03*
G04 #@! TD*
D17*
G04 #@! TO.C,U6*
X62298000Y-67354800D03*
X62298000Y-68154800D03*
X62298000Y-68954800D03*
X62298000Y-69754800D03*
X62298000Y-70554800D03*
X62298000Y-71354800D03*
X62298000Y-72154800D03*
X62298000Y-72954800D03*
D18*
X63748000Y-74404800D03*
X64548000Y-74404800D03*
X65348000Y-74404800D03*
X66148000Y-74404800D03*
X66948000Y-74404800D03*
X67748000Y-74404800D03*
X68548000Y-74404800D03*
X69348000Y-74404800D03*
D17*
X70798000Y-72954800D03*
X70798000Y-72154800D03*
X70798000Y-71354800D03*
X70798000Y-70554800D03*
X70798000Y-69754800D03*
X70798000Y-68954800D03*
X70798000Y-68154800D03*
X70798000Y-67354800D03*
D18*
X69348000Y-65904800D03*
X68548000Y-65904800D03*
X67748000Y-65904800D03*
X66948000Y-65904800D03*
X66148000Y-65904800D03*
X65348000Y-65904800D03*
X64548000Y-65904800D03*
X63748000Y-65904800D03*
G04 #@! TD*
D14*
G04 #@! TO.C,U7*
X49312500Y-43787700D03*
X49312500Y-44187700D03*
X49312500Y-44587700D03*
X49312500Y-44987700D03*
X49312500Y-45387700D03*
X49312500Y-45787700D03*
X49312500Y-46187700D03*
X49312500Y-46587700D03*
X49312500Y-46987700D03*
X49312500Y-47387700D03*
X49312500Y-47787700D03*
X49312500Y-48187700D03*
X49312500Y-48587700D03*
D15*
X49975000Y-49150200D03*
X50375000Y-49150200D03*
X50775000Y-49150200D03*
X51175000Y-49150200D03*
X51575000Y-49150200D03*
X51975000Y-49150200D03*
X52375000Y-49150200D03*
X52775000Y-49150200D03*
X53175000Y-49150200D03*
X53575000Y-49150200D03*
D14*
X54237500Y-48587700D03*
X54237500Y-48187700D03*
X54237500Y-47787700D03*
X54237500Y-47387700D03*
X54237500Y-46987700D03*
X54237500Y-46587700D03*
X54237500Y-46187700D03*
X54237500Y-45787700D03*
X54237500Y-45387700D03*
X54237500Y-44987700D03*
X54237500Y-44587700D03*
X54237500Y-44187700D03*
X54237500Y-43787700D03*
D15*
X53575000Y-43225200D03*
X53175000Y-43225200D03*
X52775000Y-43225200D03*
X52375000Y-43225200D03*
X51975000Y-43225200D03*
X51575000Y-43225200D03*
X51175000Y-43225200D03*
X50775000Y-43225200D03*
X50375000Y-43225200D03*
X49975000Y-43225200D03*
D16*
X51775000Y-46187700D03*
G04 #@! TD*
D19*
G04 #@! TO.C,C1*
X89925000Y-132400000D03*
X91475000Y-132400000D03*
G04 #@! TD*
G04 #@! TO.C,C2*
X70850000Y-37700000D03*
X72400000Y-37700000D03*
G04 #@! TD*
D20*
G04 #@! TO.C,D1*
X76123900Y-82194400D03*
X74548900Y-82194400D03*
G04 #@! TD*
D21*
G04 #@! TO.C,D2*
X63220500Y-79756000D03*
X64795500Y-79756000D03*
G04 #@! TD*
D22*
G04 #@! TO.C,R4*
X72694800Y-80314800D03*
X74344800Y-80314800D03*
G04 #@! TD*
D23*
G04 #@! TO.C,R5*
X66903600Y-77051400D03*
X66903600Y-78701400D03*
G04 #@! TD*
D24*
G04 #@! TO.C,U1*
X74556800Y-78470800D03*
X74556800Y-77520800D03*
X74556800Y-76570800D03*
X72356800Y-76570800D03*
X72356800Y-78470800D03*
G04 #@! TD*
D14*
G04 #@! TO.C,U8*
X82902500Y-43788800D03*
X82902500Y-44188800D03*
X82902500Y-44588800D03*
X82902500Y-44988800D03*
X82902500Y-45388800D03*
X82902500Y-45788800D03*
X82902500Y-46188800D03*
X82902500Y-46588800D03*
X82902500Y-46988800D03*
X82902500Y-47388800D03*
X82902500Y-47788800D03*
X82902500Y-48188800D03*
X82902500Y-48588800D03*
D15*
X83565000Y-49151300D03*
X83965000Y-49151300D03*
X84365000Y-49151300D03*
X84765000Y-49151300D03*
X85165000Y-49151300D03*
X85565000Y-49151300D03*
X85965000Y-49151300D03*
X86365000Y-49151300D03*
X86765000Y-49151300D03*
X87165000Y-49151300D03*
D14*
X87827500Y-48588800D03*
X87827500Y-48188800D03*
X87827500Y-47788800D03*
X87827500Y-47388800D03*
X87827500Y-46988800D03*
X87827500Y-46588800D03*
X87827500Y-46188800D03*
X87827500Y-45788800D03*
X87827500Y-45388800D03*
X87827500Y-44988800D03*
X87827500Y-44588800D03*
X87827500Y-44188800D03*
X87827500Y-43788800D03*
D15*
X87165000Y-43226300D03*
X86765000Y-43226300D03*
X86365000Y-43226300D03*
X85965000Y-43226300D03*
X85565000Y-43226300D03*
X85165000Y-43226300D03*
X84765000Y-43226300D03*
X84365000Y-43226300D03*
X83965000Y-43226300D03*
X83565000Y-43226300D03*
D16*
X85365000Y-46188800D03*
G04 #@! TD*
D19*
G04 #@! TO.C,C3*
X89925000Y-112800000D03*
X91475000Y-112800000D03*
G04 #@! TD*
G04 #@! TO.C,C4*
X89525000Y-93800000D03*
X91075000Y-93800000D03*
G04 #@! TD*
G04 #@! TO.C,C5*
X65353600Y-62179200D03*
X66903600Y-62179200D03*
G04 #@! TD*
D25*
G04 #@! TO.C,C6*
X53800000Y-39075000D03*
X53800000Y-37525000D03*
G04 #@! TD*
D19*
G04 #@! TO.C,C7*
X86125000Y-37100000D03*
X87675000Y-37100000D03*
G04 #@! TD*
D26*
G04 #@! TO.C,J1*
X78500000Y-68700000D03*
X78500000Y-68050000D03*
X78500000Y-67400000D03*
X78500000Y-66750000D03*
X78500000Y-66100000D03*
D27*
X78250000Y-70200000D03*
X78250000Y-64600000D03*
D28*
X80400000Y-67400000D03*
G04 #@! TD*
D29*
G04 #@! TO.C,R15*
X91100000Y-91025000D03*
X91100000Y-89375000D03*
G04 #@! TD*
G04 #@! TO.C,R16*
X91000000Y-129225000D03*
X91000000Y-127575000D03*
G04 #@! TD*
G04 #@! TO.C,R17*
X91000000Y-109825000D03*
X91000000Y-108175000D03*
G04 #@! TD*
D30*
G04 #@! TO.C,R18*
X66825000Y-40000000D03*
X65175000Y-40000000D03*
G04 #@! TD*
G04 #@! TO.C,R19*
X50125000Y-40100000D03*
X48475000Y-40100000D03*
G04 #@! TD*
G04 #@! TO.C,R20*
X83125000Y-40200000D03*
X81475000Y-40200000D03*
G04 #@! TD*
D31*
G04 #@! TO.C,SW1*
X68550000Y-54125000D03*
X68550000Y-58225000D03*
X70150000Y-54125000D03*
X70150000Y-58225000D03*
G04 #@! TD*
D32*
G04 #@! TO.C,J2*
X58160000Y-59030000D03*
X58160000Y-54970000D03*
X59430000Y-59030000D03*
D33*
X59430000Y-54970000D03*
D32*
X60700000Y-59030000D03*
X60700000Y-54970000D03*
X61970000Y-59030000D03*
X61970000Y-54970000D03*
X63240000Y-59030000D03*
X63240000Y-54970000D03*
G04 #@! TD*
D34*
G04 #@! TO.C,D191*
X76984400Y-78943200D03*
X79784400Y-78943200D03*
G04 #@! TD*
G04 #@! TO.C,D192*
X76984400Y-76504800D03*
X79784400Y-76504800D03*
G04 #@! TD*
D19*
G04 #@! TO.C,C8*
X69163600Y-62179200D03*
X70713600Y-62179200D03*
G04 #@! TD*
D25*
G04 #@! TO.C,C9*
X89535000Y-90932000D03*
X89535000Y-89382000D03*
G04 #@! TD*
G04 #@! TO.C,C10*
X89408000Y-129159000D03*
X89408000Y-127609000D03*
G04 #@! TD*
D35*
G04 #@! TO.C,C11*
X66775000Y-41700000D03*
X65225000Y-41700000D03*
G04 #@! TD*
D25*
G04 #@! TO.C,C12*
X89408000Y-109741000D03*
X89408000Y-108191000D03*
G04 #@! TD*
D35*
G04 #@! TO.C,C13*
X50075000Y-41700000D03*
X48525000Y-41700000D03*
G04 #@! TD*
G04 #@! TO.C,C14*
X83075000Y-41800000D03*
X81525000Y-41800000D03*
G04 #@! TD*
G04 #@! TO.C,C15*
X52975000Y-75700000D03*
X51425000Y-75700000D03*
G04 #@! TD*
D23*
G04 #@! TO.C,R7*
X45000000Y-80675000D03*
X45000000Y-82325000D03*
G04 #@! TD*
G04 #@! TO.C,R8*
X46700000Y-80675000D03*
X46700000Y-82325000D03*
G04 #@! TD*
G04 #@! TO.C,R9*
X57700000Y-80675000D03*
X57700000Y-82325000D03*
G04 #@! TD*
G04 #@! TO.C,R10*
X59300000Y-82275000D03*
X59300000Y-83925000D03*
G04 #@! TD*
D36*
G04 #@! TO.C,U9*
X49900000Y-77230000D03*
X49900000Y-78500000D03*
X49900000Y-79770000D03*
X49900000Y-81040000D03*
X49900000Y-82310000D03*
X49900000Y-83580000D03*
X49900000Y-84850000D03*
X54850000Y-84850000D03*
X54850000Y-83580000D03*
X54850000Y-82310000D03*
X54850000Y-81040000D03*
X54850000Y-79770000D03*
X54850000Y-78500000D03*
X54850000Y-77230000D03*
G04 #@! TD*
D23*
G04 #@! TO.C,R13*
X59200000Y-65675000D03*
X59200000Y-67325000D03*
G04 #@! TD*
G04 #@! TO.C,R14*
X59500000Y-73175000D03*
X59500000Y-74825000D03*
G04 #@! TD*
G04 #@! TO.C,R21*
X57800000Y-73175000D03*
X57800000Y-74825000D03*
G04 #@! TD*
D29*
G04 #@! TO.C,R22*
X43300000Y-82325000D03*
X43300000Y-80675000D03*
G04 #@! TD*
G04 #@! TO.C,R23*
X59300000Y-87425000D03*
X59300000Y-85775000D03*
G04 #@! TD*
M02*
