G04 #@! TF.GenerationSoftware,KiCad,Pcbnew,7.0.5*
G04 #@! TF.CreationDate,2025-03-16T19:14:48-05:00*
G04 #@! TF.ProjectId,DSKY_led_display,44534b59-5f6c-4656-945f-646973706c61,V7*
G04 #@! TF.SameCoordinates,Original*
G04 #@! TF.FileFunction,Copper,L3,Inr*
G04 #@! TF.FilePolarity,Positive*
%FSLAX46Y46*%
G04 Gerber Fmt 4.6, Leading zero omitted, Abs format (unit mm)*
G04 Created by KiCad (PCBNEW 7.0.5) date 2025-03-16 19:14:48*
%MOMM*%
%LPD*%
G01*
G04 APERTURE LIST*
G04 #@! TA.AperFunction,ComponentPad*
%ADD10O,1.100000X1.700000*%
G04 #@! TD*
G04 #@! TA.AperFunction,ComponentPad*
%ADD11O,1.100000X2.100000*%
G04 #@! TD*
G04 #@! TA.AperFunction,ViaPad*
%ADD12C,0.600000*%
G04 #@! TD*
G04 #@! TA.AperFunction,Conductor*
%ADD13C,0.200000*%
G04 #@! TD*
G04 APERTURE END LIST*
D10*
G04 #@! TO.N,N/C*
G04 #@! TO.C,J1*
X78250000Y-70200000D03*
G04 #@! TO.N,unconnected-(J1-SHIELD-PadS2)*
X78250000Y-64600000D03*
D11*
G04 #@! TO.N,N/C*
X80400000Y-67400000D03*
G04 #@! TD*
D12*
G04 #@! TO.N,GND*
X83400000Y-110400000D03*
X86500000Y-131700000D03*
X52100000Y-47000000D03*
X67700000Y-44700000D03*
X69800000Y-46400000D03*
X84300000Y-46400000D03*
X86600000Y-112600000D03*
X86300000Y-45100000D03*
G04 #@! TO.N,+3V3*
X72977000Y-73027800D03*
X59200000Y-64817400D03*
X65348000Y-64632300D03*
G04 #@! TO.N,Net-(U6-VDDCORE)*
X67064100Y-63991300D03*
X69163600Y-63206600D03*
G04 #@! TO.N,g0bus0*
X80592900Y-40334300D03*
G04 #@! TO.N,g0bus2*
X74056300Y-45602800D03*
G04 #@! TO.N,g1bus0*
X83822000Y-51929100D03*
X54746200Y-37327500D03*
G04 #@! TO.N,g1bus3*
X85246400Y-52735900D03*
X52685500Y-35696400D03*
G04 #@! TO.N,g0bus3*
X73333500Y-45250100D03*
G04 #@! TO.N,g1bus1*
X84212100Y-50761000D03*
G04 #@! TO.N,g1bus2*
X84968700Y-50803000D03*
X44563200Y-40827100D03*
G04 #@! TO.N,g0bus1*
X76046800Y-44184700D03*
G04 #@! TO.N,g0bus6*
X75320300Y-46870300D03*
X72180500Y-44127600D03*
G04 #@! TO.N,g0bus5*
X78500700Y-45581800D03*
X73552400Y-43511300D03*
G04 #@! TO.N,g0bus4*
X75171900Y-44199100D03*
G04 #@! TO.N,g0bus7*
X71923900Y-43338600D03*
X76126500Y-52797500D03*
G04 #@! TO.N,dbus0*
X66188000Y-43241700D03*
G04 #@! TO.N,dbus7*
X63844200Y-47773100D03*
G04 #@! TO.N,dbus5*
X63449300Y-46501700D03*
G04 #@! TO.N,dbus12*
X66312500Y-49153500D03*
G04 #@! TO.N,dbus1*
X61212600Y-45170800D03*
G04 #@! TO.N,dbus8*
X38660700Y-45518200D03*
X64693900Y-47561500D03*
G04 #@! TO.N,dbus6*
X62429500Y-48335200D03*
X46632800Y-48418100D03*
G04 #@! TO.N,dbus13*
X61676900Y-50020700D03*
X41798800Y-48322800D03*
G04 #@! TO.N,dbus2*
X60275600Y-50040300D03*
G04 #@! TO.N,dbus9*
X64446100Y-48311900D03*
X40227100Y-51418400D03*
G04 #@! TO.N,dbus4*
X64235500Y-45687700D03*
G04 #@! TO.N,dbus11*
X63730400Y-49938800D03*
G04 #@! TO.N,dbus3*
X60360400Y-51997000D03*
G04 #@! TO.N,dbus10*
X43046600Y-54059900D03*
X64446100Y-49062300D03*
G04 #@! TO.N,g2bus0*
X85618900Y-59773000D03*
G04 #@! TO.N,g2bus3*
X86808600Y-54150900D03*
G04 #@! TO.N,g3bus0*
X87732900Y-49516700D03*
X53720500Y-60405600D03*
G04 #@! TO.N,g3bus3*
X41031300Y-62994900D03*
X88096100Y-51937100D03*
G04 #@! TO.N,g2bus1*
X86177500Y-55585900D03*
G04 #@! TO.N,g2bus2*
X86745400Y-52159100D03*
G04 #@! TO.N,g3bus1*
X54586900Y-62498100D03*
X87624000Y-50890700D03*
G04 #@! TO.N,g3bus2*
X88386700Y-50919700D03*
X45071300Y-62916400D03*
G04 #@! TO.N,ebus0*
X67203700Y-50086300D03*
X86742100Y-67222000D03*
G04 #@! TO.N,ebus7*
X75163600Y-65648200D03*
G04 #@! TO.N,fbus0*
X82257100Y-43307500D03*
X49199700Y-68250100D03*
G04 #@! TO.N,fbus7*
X80153800Y-47946800D03*
G04 #@! TO.N,ebus5*
X71580100Y-63206600D03*
X92190000Y-68940800D03*
G04 #@! TO.N,ebus12*
X81588500Y-69359400D03*
X74459100Y-57313100D03*
G04 #@! TO.N,ebus1*
X70160600Y-59653700D03*
X67641200Y-51606600D03*
G04 #@! TO.N,ebus8*
X73731700Y-63206600D03*
G04 #@! TO.N,fbus5*
X81085300Y-46275600D03*
X74649500Y-52793200D03*
G04 #@! TO.N,fbus12*
X44346200Y-69110100D03*
X82781700Y-58197800D03*
G04 #@! TO.N,fbus1*
X77944200Y-50253300D03*
G04 #@! TO.N,fbus8*
X81152900Y-47726500D03*
G04 #@! TO.N,ebus6*
X76048700Y-73367800D03*
X70047400Y-50592500D03*
G04 #@! TO.N,ebus13*
X76898700Y-65654300D03*
X77404800Y-72767000D03*
G04 #@! TO.N,fbus6*
X79198200Y-49956000D03*
G04 #@! TO.N,fbus13*
X41363000Y-72536300D03*
X79793400Y-61172700D03*
G04 #@! TO.N,ebus2*
X68202300Y-51088700D03*
X75414100Y-74436800D03*
G04 #@! TO.N,ebus9*
X71176400Y-49148400D03*
X73620000Y-67658900D03*
G04 #@! TO.N,ebus4*
X70637800Y-65454900D03*
X92257200Y-75396000D03*
X69090900Y-52858200D03*
G04 #@! TO.N,ebus11*
X81588300Y-77711500D03*
X72981500Y-49191400D03*
G04 #@! TO.N,fbus2*
X50109900Y-58160800D03*
X80771600Y-44824600D03*
X50109900Y-74297100D03*
G04 #@! TO.N,fbus9*
X38875600Y-74243500D03*
X80799500Y-48434500D03*
G04 #@! TO.N,fbus4*
X80040400Y-46145500D03*
X76973300Y-56501000D03*
G04 #@! TO.N,fbus11*
X81549400Y-49241300D03*
X50837100Y-62492900D03*
G04 #@! TO.N,ebus3*
X82739500Y-80079500D03*
X68761500Y-52027200D03*
G04 #@! TO.N,ebus10*
X72104800Y-48613400D03*
X78362300Y-78233000D03*
G04 #@! TO.N,fbus3*
X79315600Y-46977400D03*
G04 #@! TO.N,fbus10*
X42394900Y-78038100D03*
X80799100Y-49213400D03*
G04 #@! TO.N,g4bus0*
X80635000Y-81572500D03*
X48485000Y-65485400D03*
G04 #@! TO.N,g4bus1*
X69217900Y-82225500D03*
X50702400Y-66045200D03*
G04 #@! TO.N,g4bus2*
X51558000Y-82021600D03*
X48901100Y-49933800D03*
G04 #@! TO.N,g4bus3*
X49318100Y-74294800D03*
X50427000Y-54244800D03*
G04 #@! TO.N,abus0*
X87843600Y-86446900D03*
G04 #@! TO.N,abus7*
X80167900Y-86529400D03*
G04 #@! TO.N,abus14*
X81211600Y-91000200D03*
X61721300Y-86592400D03*
G04 #@! TO.N,abus21*
X50631400Y-88987900D03*
X78877400Y-93510100D03*
G04 #@! TO.N,abus28*
X84480900Y-97303100D03*
X40627700Y-88402000D03*
G04 #@! TO.N,abus5*
X85355600Y-87633400D03*
G04 #@! TO.N,abus1*
X87296100Y-89359800D03*
G04 #@! TO.N,abus12*
X81924800Y-90039200D03*
G04 #@! TO.N,abus19*
X66375100Y-89417600D03*
X80779700Y-93310000D03*
G04 #@! TO.N,abus8*
X70538900Y-88551600D03*
G04 #@! TO.N,abus15*
X78473300Y-91191700D03*
X59483000Y-89010400D03*
G04 #@! TO.N,abus26*
X81583700Y-99878500D03*
G04 #@! TO.N,abus33*
X49937900Y-88581700D03*
X86690000Y-96179900D03*
G04 #@! TO.N,abus22*
X82127500Y-95068100D03*
X49227900Y-89742100D03*
G04 #@! TO.N,abus29*
X38620300Y-89342900D03*
X83985800Y-100142500D03*
G04 #@! TO.N,abus6*
X79781800Y-93110500D03*
X84909900Y-88860000D03*
G04 #@! TO.N,abus13*
X76903700Y-92265900D03*
G04 #@! TO.N,abus20*
X64670100Y-93548900D03*
X79961800Y-93862200D03*
G04 #@! TO.N,abus27*
X83311100Y-97450600D03*
X51832400Y-94270000D03*
G04 #@! TO.N,abus34*
X87629700Y-97952700D03*
X41666900Y-93965500D03*
G04 #@! TO.N,abus2*
X87021000Y-88518800D03*
G04 #@! TO.N,abus4*
X85939400Y-86803700D03*
G04 #@! TO.N,abus9*
X72404900Y-94248200D03*
G04 #@! TO.N,abus16*
X62929000Y-95180700D03*
G04 #@! TO.N,abus11*
X75971200Y-93842300D03*
G04 #@! TO.N,abus18*
X72707700Y-97033300D03*
G04 #@! TO.N,abus23*
X79735700Y-98332400D03*
X50299600Y-95409000D03*
G04 #@! TO.N,abus30*
X85393800Y-99764500D03*
X40107400Y-95164700D03*
G04 #@! TO.N,abus25*
X83336400Y-96205700D03*
X57271300Y-94598400D03*
G04 #@! TO.N,abus32*
X86363100Y-97391500D03*
X50935900Y-94274400D03*
G04 #@! TO.N,abus3*
X86510600Y-87339500D03*
G04 #@! TO.N,abus10*
X74858100Y-94697500D03*
G04 #@! TO.N,abus17*
X63905100Y-99410600D03*
G04 #@! TO.N,abus24*
X80620200Y-98595100D03*
X57610300Y-97818400D03*
G04 #@! TO.N,abus31*
X86383200Y-99487500D03*
X42293300Y-99770900D03*
G04 #@! TO.N,g5bus0*
X49167200Y-43209200D03*
X75594300Y-101647600D03*
G04 #@! TO.N,g5bus1*
X61290900Y-100802700D03*
X48000000Y-43500000D03*
G04 #@! TO.N,g5bus2*
X56046000Y-100796700D03*
X47200000Y-44049500D03*
G04 #@! TO.N,g5bus3*
X45554600Y-100583400D03*
X46111800Y-44714200D03*
G04 #@! TO.N,bbus0*
X82301800Y-105440600D03*
G04 #@! TO.N,bbus7*
X83119100Y-105409800D03*
G04 #@! TO.N,bbus14*
X78663900Y-106710600D03*
G04 #@! TO.N,bbus21*
X78768800Y-112979200D03*
X51080200Y-107644100D03*
G04 #@! TO.N,bbus28*
X42372900Y-106283400D03*
X82369700Y-116161700D03*
G04 #@! TO.N,bbus5*
X86831400Y-105819300D03*
G04 #@! TO.N,bbus1*
X87774000Y-107817800D03*
X80503700Y-108783800D03*
G04 #@! TO.N,bbus12*
X80782100Y-107611200D03*
G04 #@! TO.N,bbus19*
X79862100Y-112211500D03*
G04 #@! TO.N,bbus8*
X70427700Y-108448100D03*
G04 #@! TO.N,bbus15*
X59497300Y-108263400D03*
X78486400Y-109714500D03*
G04 #@! TO.N,bbus26*
X82787600Y-115512600D03*
X55945500Y-109289000D03*
G04 #@! TO.N,bbus33*
X45312400Y-109527000D03*
X86732000Y-115210100D03*
G04 #@! TO.N,bbus22*
X78244200Y-113545900D03*
X49086500Y-108314400D03*
G04 #@! TO.N,bbus29*
X84801600Y-116161300D03*
X38710500Y-108619400D03*
G04 #@! TO.N,bbus6*
X84963000Y-107793500D03*
X81961300Y-113909900D03*
G04 #@! TO.N,bbus13*
X81129200Y-109593500D03*
G04 #@! TO.N,bbus20*
X77750900Y-112453700D03*
X66384100Y-112112400D03*
G04 #@! TO.N,bbus27*
X83199800Y-116161700D03*
G04 #@! TO.N,bbus34*
X41712500Y-113160600D03*
X88851400Y-116444000D03*
G04 #@! TO.N,bbus2*
X86358400Y-106444100D03*
X79369800Y-114207400D03*
G04 #@! TO.N,bbus4*
X85861100Y-107033700D03*
G04 #@! TO.N,bbus9*
X71213700Y-112302200D03*
G04 #@! TO.N,bbus16*
X64586100Y-111947300D03*
X76951200Y-110836800D03*
G04 #@! TO.N,bbus11*
X82349900Y-108095400D03*
G04 #@! TO.N,bbus18*
X73892600Y-113796900D03*
G04 #@! TO.N,bbus23*
X76091400Y-115823700D03*
X50758600Y-114359600D03*
G04 #@! TO.N,bbus30*
X40196900Y-114207400D03*
X83116500Y-118880800D03*
G04 #@! TO.N,bbus25*
X63674300Y-114337900D03*
X83254600Y-114918200D03*
G04 #@! TO.N,bbus32*
X84964200Y-119604600D03*
G04 #@! TO.N,bbus3*
X86465000Y-107559300D03*
G04 #@! TO.N,bbus10*
X73302400Y-116162500D03*
G04 #@! TO.N,bbus17*
X71761500Y-116822800D03*
X78169700Y-111337100D03*
G04 #@! TO.N,bbus24*
X80696600Y-117095000D03*
X53585900Y-116924600D03*
G04 #@! TO.N,bbus31*
X84897400Y-118722500D03*
X43236200Y-118748300D03*
G04 #@! TO.N,g6bus0*
X47064800Y-45619200D03*
X78666700Y-120853000D03*
G04 #@! TO.N,g6bus1*
X66566300Y-121214400D03*
X47060600Y-46459900D03*
G04 #@! TO.N,g6bus2*
X47052100Y-47210300D03*
X53333100Y-119675000D03*
G04 #@! TO.N,g6bus3*
X46282400Y-49931500D03*
X45673700Y-119657000D03*
G04 #@! TO.N,/sabus0*
X89575600Y-48419400D03*
X90042200Y-88477900D03*
G04 #@! TO.N,cbus0*
X88511400Y-124628300D03*
G04 #@! TO.N,cbus7*
X79313700Y-125202900D03*
G04 #@! TO.N,cbus14*
X78285500Y-128933600D03*
X63489200Y-126800300D03*
G04 #@! TO.N,cbus21*
X51549500Y-127732600D03*
X79553900Y-132822800D03*
G04 #@! TO.N,cbus28*
X81426700Y-137047400D03*
X38890800Y-128452200D03*
G04 #@! TO.N,cbus5*
X85052600Y-126447900D03*
G04 #@! TO.N,cbus1*
X82663200Y-124046300D03*
G04 #@! TO.N,cbus12*
X77792500Y-127310200D03*
G04 #@! TO.N,cbus19*
X76980000Y-128898600D03*
G04 #@! TO.N,/sabus1*
X89341700Y-88097200D03*
X89217500Y-47322800D03*
G04 #@! TO.N,cbus8*
X70259600Y-125915000D03*
G04 #@! TO.N,cbus15*
X80800800Y-129882500D03*
G04 #@! TO.N,cbus26*
X56971200Y-127984200D03*
G04 #@! TO.N,cbus33*
X87300900Y-135989500D03*
X45442000Y-127683800D03*
G04 #@! TO.N,cbus22*
X49047500Y-127732600D03*
X79408700Y-133717300D03*
G04 #@! TO.N,cbus29*
X38521300Y-127466400D03*
X82436900Y-136185700D03*
G04 #@! TO.N,cbus6*
X82151000Y-124779800D03*
G04 #@! TO.N,cbus13*
X74748100Y-130217000D03*
G04 #@! TO.N,cbus20*
X79012200Y-132272400D03*
X62249100Y-132511300D03*
G04 #@! TO.N,cbus27*
X52380200Y-132324000D03*
X83733300Y-134983500D03*
G04 #@! TO.N,cbus34*
X88219900Y-133848200D03*
X48497600Y-132320400D03*
G04 #@! TO.N,cbus2*
X81288100Y-128813000D03*
X86992600Y-127314700D03*
G04 #@! TO.N,/sabus2*
X90328100Y-48743000D03*
X90721600Y-96185800D03*
G04 #@! TO.N,cbus4*
X85689800Y-126882200D03*
G04 #@! TO.N,cbus9*
X71404000Y-133522000D03*
G04 #@! TO.N,cbus16*
X78279900Y-130556400D03*
X60935600Y-132791000D03*
G04 #@! TO.N,cbus11*
X82378700Y-127711500D03*
G04 #@! TO.N,cbus18*
X80140200Y-131371800D03*
G04 #@! TO.N,cbus23*
X79778700Y-134958900D03*
G04 #@! TO.N,cbus30*
X47030200Y-134348100D03*
X85355000Y-134934500D03*
G04 #@! TO.N,cbus25*
X57466400Y-134038300D03*
X80516000Y-136401400D03*
G04 #@! TO.N,cbus32*
X86637900Y-135475400D03*
X48087600Y-133408400D03*
G04 #@! TO.N,cbus3*
X87313200Y-126101900D03*
G04 #@! TO.N,cbus10*
X72393100Y-136749300D03*
G04 #@! TO.N,cbus17*
X76429700Y-136750800D03*
G04 #@! TO.N,cbus24*
X79511600Y-136631200D03*
G04 #@! TO.N,cbus31*
X43376600Y-137824600D03*
X83009200Y-136686600D03*
G04 #@! TO.N,/sbbus0*
X90939000Y-111080200D03*
X90878500Y-48222700D03*
G04 #@! TO.N,/sbbus1*
X90656700Y-113908600D03*
X92172100Y-48199600D03*
G04 #@! TO.N,/sbbus2*
X92835900Y-115174300D03*
X90429200Y-45531600D03*
G04 #@! TO.N,/scbus0*
X89902200Y-44971000D03*
X89664900Y-126174600D03*
G04 #@! TO.N,/scbus1*
X90150700Y-128458200D03*
X89066300Y-44588800D03*
G04 #@! TO.N,/scbus2*
X89114600Y-126704400D03*
X88698800Y-43862600D03*
G04 #@! TO.N,/SCL0*
X65930800Y-83362700D03*
X68312700Y-42364000D03*
X89953800Y-97545100D03*
G04 #@! TO.N,/SDA0*
X66500400Y-82791100D03*
X51286100Y-82791100D03*
X93473100Y-128341100D03*
X89467100Y-111731000D03*
X69151600Y-42357200D03*
X90171200Y-94597900D03*
G04 #@! TO.N,/SCL1*
X51602000Y-40237700D03*
X84694600Y-41884500D03*
X56388100Y-81136100D03*
G04 #@! TO.N,/SDA1*
X85565000Y-42011600D03*
X58339700Y-83536400D03*
X52312700Y-42361900D03*
X73110600Y-40804100D03*
G04 #@! TO.N,VCC*
X48203000Y-80438400D03*
X90052400Y-114524400D03*
X89489000Y-95707200D03*
X82205300Y-79222800D03*
X58463400Y-81438300D03*
X53175000Y-41938200D03*
X86354500Y-42153900D03*
G04 #@! TD*
D13*
G04 #@! TO.N,g1bus0*
X82779300Y-50886400D02*
X82779300Y-46048800D01*
X82779300Y-46048800D02*
X74058000Y-37327500D01*
X83822000Y-51929100D02*
X82779300Y-50886400D01*
X74058000Y-37327500D02*
X54746200Y-37327500D01*
G04 #@! TO.N,g1bus3*
X83442200Y-46193300D02*
X72945300Y-35696400D01*
X72945300Y-35696400D02*
X52685500Y-35696400D01*
X85246400Y-52735900D02*
X85246400Y-52575300D01*
X83442200Y-50771100D02*
X83442200Y-46193300D01*
X85246400Y-52575300D02*
X83442200Y-50771100D01*
G04 #@! TO.N,g0bus7*
X76126500Y-49415800D02*
X72767300Y-46056600D01*
X72767300Y-46056600D02*
X72767300Y-43926800D01*
X76126500Y-52797500D02*
X76126500Y-49415800D01*
X72767300Y-43926800D02*
X72179100Y-43338600D01*
X72179100Y-43338600D02*
X71923900Y-43338600D01*
G04 #@! TO.N,ebus0*
X69270800Y-48019200D02*
X72606400Y-48019200D01*
X75433200Y-55913100D02*
X86742100Y-67222000D01*
X67203700Y-50086300D02*
X69270800Y-48019200D01*
X72606400Y-48019200D02*
X75433200Y-50846000D01*
X75433200Y-50846000D02*
X75433200Y-55913100D01*
G04 #@! TO.N,ebus12*
X81588500Y-64442500D02*
X81588500Y-69359400D01*
X74459100Y-57313100D02*
X81588500Y-64442500D01*
G04 #@! TO.N,ebus1*
X67641200Y-57134300D02*
X70160600Y-59653700D01*
X67641200Y-51606600D02*
X67641200Y-57134300D01*
G04 #@! TO.N,ebus6*
X72540700Y-58969100D02*
X72540700Y-69859800D01*
X72540700Y-69859800D02*
X76048700Y-73367800D01*
X72479300Y-58907700D02*
X72540700Y-58969100D01*
X70047400Y-50592500D02*
X72479300Y-53024400D01*
X72479300Y-53024400D02*
X72479300Y-58907700D01*
G04 #@! TO.N,ebus13*
X76898700Y-65654300D02*
X77404800Y-66160400D01*
X77404800Y-66160400D02*
X77404800Y-72767000D01*
G04 #@! TO.N,ebus2*
X68653900Y-51088700D02*
X72129000Y-54563800D01*
X68202300Y-51088700D02*
X68653900Y-51088700D01*
X72190400Y-71213100D02*
X75414100Y-74436800D01*
X72129000Y-54563800D02*
X72129000Y-59052800D01*
X72190400Y-59114200D02*
X72190400Y-71213100D01*
X72129000Y-59052800D02*
X72190400Y-59114200D01*
G04 #@! TO.N,ebus9*
X72829600Y-58762600D02*
X73006100Y-58939100D01*
X71176400Y-49148400D02*
X72829600Y-50801600D01*
X73006100Y-58939100D02*
X73006100Y-67045000D01*
X72829600Y-50801600D02*
X72829600Y-58762600D01*
X73006100Y-67045000D02*
X73620000Y-67658900D01*
G04 #@! TO.N,ebus4*
X70637800Y-65454900D02*
X70637800Y-62189400D01*
X70637800Y-62189400D02*
X70725400Y-62101800D01*
X70725400Y-62101800D02*
X70725400Y-54492700D01*
X70725400Y-54492700D02*
X69090900Y-52858200D01*
G04 #@! TO.N,ebus11*
X81588300Y-77711500D02*
X81588300Y-70343900D01*
X73705300Y-58472500D02*
X73705300Y-49915200D01*
X77766100Y-65645600D02*
X77354600Y-65234100D01*
X77354600Y-62121800D02*
X73705300Y-58472500D01*
X73705300Y-49915200D02*
X72981500Y-49191400D01*
X77766100Y-66521700D02*
X77766100Y-65645600D01*
X81588300Y-70343900D02*
X77766100Y-66521700D01*
X77354600Y-65234100D02*
X77354600Y-62121800D01*
G04 #@! TO.N,fbus2*
X50109900Y-58160800D02*
X50109900Y-74297100D01*
G04 #@! TO.N,fbus4*
X76973300Y-56501000D02*
X78519200Y-54955100D01*
X78519200Y-46976400D02*
X79350100Y-46145500D01*
X78519200Y-54955100D02*
X78519200Y-46976400D01*
X79350100Y-46145500D02*
X80040400Y-46145500D01*
G04 #@! TO.N,ebus3*
X79198100Y-80079500D02*
X82739500Y-80079500D01*
X71363400Y-72244800D02*
X79198100Y-80079500D01*
X71363400Y-65333000D02*
X71363400Y-72244800D01*
X71147800Y-54136600D02*
X71147800Y-62350100D01*
X68761500Y-52027200D02*
X69038400Y-52027200D01*
X70988100Y-62509800D02*
X70988100Y-64957700D01*
X71147800Y-62350100D02*
X70988100Y-62509800D01*
X69038400Y-52027200D02*
X71147800Y-54136600D01*
X70988100Y-64957700D02*
X71363400Y-65333000D01*
G04 #@! TO.N,ebus10*
X76608200Y-66142100D02*
X76608200Y-76478900D01*
X73180000Y-58617500D02*
X76348300Y-61785800D01*
X76348300Y-65882200D02*
X76608200Y-66142100D01*
X72104800Y-48613400D02*
X72104800Y-49092800D01*
X73180000Y-50168000D02*
X73180000Y-58617500D01*
X76608200Y-76478900D02*
X78362300Y-78233000D01*
X72104800Y-49092800D02*
X73180000Y-50168000D01*
X76348300Y-61785800D02*
X76348300Y-65882200D01*
G04 #@! TO.N,g4bus2*
X49088700Y-67582900D02*
X48649400Y-68022200D01*
X49088700Y-50121400D02*
X49088700Y-67582900D01*
X48649400Y-79113000D02*
X51558000Y-82021600D01*
X48901100Y-49933800D02*
X49088700Y-50121400D01*
X48649400Y-68022200D02*
X48649400Y-79113000D01*
G04 #@! TO.N,g4bus3*
X49526700Y-67798800D02*
X49526700Y-55145100D01*
X49750000Y-68022100D02*
X49526700Y-67798800D01*
X49750000Y-73862900D02*
X49750000Y-68022100D01*
X49526700Y-55145100D02*
X50427000Y-54244800D01*
X49318100Y-74294800D02*
X49750000Y-73862900D01*
G04 #@! TO.N,abus6*
X84189500Y-88860000D02*
X84909900Y-88860000D01*
X79781800Y-93110500D02*
X79939000Y-93110500D01*
X79939000Y-93110500D02*
X84189500Y-88860000D01*
G04 #@! TO.N,g5bus0*
X55686400Y-81739700D02*
X75594300Y-101647600D01*
X49167200Y-43209200D02*
X55686300Y-49728300D01*
X55686300Y-49728300D02*
X55686300Y-81739700D01*
X55686300Y-81739700D02*
X55686400Y-81739700D01*
G04 #@! TO.N,g5bus1*
X48366000Y-44054900D02*
X52540700Y-48229600D01*
X48366000Y-43866000D02*
X48000000Y-43500000D01*
X52540700Y-81060000D02*
X61290900Y-89810200D01*
X52540700Y-48229600D02*
X52540700Y-81060000D01*
X48366000Y-44054900D02*
X48366000Y-43866000D01*
X61290900Y-89810200D02*
X61290900Y-100802700D01*
G04 #@! TO.N,g5bus2*
X52015200Y-48482400D02*
X52015200Y-81030000D01*
X52015200Y-81030000D02*
X56046000Y-85060800D01*
X47582300Y-44049500D02*
X47200000Y-44049500D01*
X56046000Y-85060800D02*
X56046000Y-100796700D01*
X47582300Y-44049500D02*
X52015200Y-48482400D01*
G04 #@! TO.N,g5bus3*
X45668500Y-45157500D02*
X46111800Y-44714200D01*
X45668500Y-100469500D02*
X45668500Y-45157500D01*
X45554600Y-100583400D02*
X45668500Y-100469500D01*
G04 #@! TO.N,bbus2*
X80445500Y-111513200D02*
X80445500Y-113131700D01*
X80445500Y-113131700D02*
X79369800Y-114207400D01*
X85514600Y-106444100D02*
X80445500Y-111513200D01*
X86358400Y-106444100D02*
X85514600Y-106444100D01*
G04 #@! TO.N,bbus17*
X71761500Y-116822800D02*
X77247200Y-111337100D01*
X77247200Y-111337100D02*
X78169700Y-111337100D01*
G04 #@! TO.N,g6bus0*
X74346500Y-120853000D02*
X78666700Y-120853000D01*
X52395700Y-98902200D02*
X74346500Y-120853000D01*
X47064800Y-45619200D02*
X51489800Y-50044200D01*
X51489800Y-50044200D02*
X51489800Y-81174900D01*
X51489800Y-81174900D02*
X52395700Y-82080800D01*
X52395700Y-82080800D02*
X52395700Y-98902200D01*
G04 #@! TO.N,g6bus1*
X47650000Y-102298100D02*
X66566300Y-121214400D01*
X47168200Y-46459900D02*
X47650000Y-46941700D01*
X47650000Y-46941700D02*
X47650000Y-102298100D01*
X47060600Y-46459900D02*
X47168200Y-46459900D01*
G04 #@! TO.N,g6bus2*
X47199800Y-47358000D02*
X47052100Y-47210300D01*
X53333100Y-119675000D02*
X47199800Y-113541700D01*
X47199800Y-113541700D02*
X47199800Y-47358000D01*
G04 #@! TO.N,g6bus3*
X46282400Y-49931500D02*
X46282400Y-119048300D01*
X46282400Y-119048300D02*
X45673700Y-119657000D01*
G04 #@! TO.N,/sabus0*
X89575600Y-48804500D02*
X89575600Y-48419400D01*
X90042200Y-49271100D02*
X89575600Y-48804500D01*
X90042200Y-88477900D02*
X90042200Y-49271100D01*
G04 #@! TO.N,cbus14*
X78285500Y-128933600D02*
X76152300Y-126800400D01*
X76152300Y-126800400D02*
X63489200Y-126800400D01*
X63489200Y-126800400D02*
X63489200Y-126800300D01*
G04 #@! TO.N,/sabus1*
X89020300Y-47520000D02*
X89020300Y-48744600D01*
X89020300Y-48744600D02*
X89691900Y-49416200D01*
X89217500Y-47322800D02*
X89020300Y-47520000D01*
X89691900Y-87747000D02*
X89341700Y-88097200D01*
X89691900Y-49416200D02*
X89691900Y-87747000D01*
G04 #@! TO.N,cbus34*
X81838400Y-133848200D02*
X88219900Y-133848200D01*
X79673300Y-131683100D02*
X81838400Y-133848200D01*
X48497600Y-132320400D02*
X49134900Y-131683100D01*
X49134900Y-131683100D02*
X79673300Y-131683100D01*
G04 #@! TO.N,/sabus2*
X90721600Y-96185800D02*
X90721600Y-49136500D01*
X90721600Y-49136500D02*
X90328100Y-48743000D01*
G04 #@! TO.N,cbus25*
X59500900Y-136072800D02*
X80187400Y-136072800D01*
X80187400Y-136072800D02*
X80516000Y-136401400D01*
X57466400Y-134038300D02*
X59500900Y-136072800D01*
G04 #@! TO.N,cbus32*
X65826900Y-134384200D02*
X64851100Y-133408400D01*
X86637900Y-135439100D02*
X85583000Y-134384200D01*
X86637900Y-135475400D02*
X86637900Y-135439100D01*
X85583000Y-134384200D02*
X65826900Y-134384200D01*
X64851100Y-133408400D02*
X48087600Y-133408400D01*
G04 #@! TO.N,cbus31*
X81871200Y-137824600D02*
X83009200Y-136686600D01*
X43376600Y-137824600D02*
X81871200Y-137824600D01*
G04 #@! TO.N,/sbbus0*
X91271900Y-48616100D02*
X90878500Y-48222700D01*
X90939000Y-111080200D02*
X91271900Y-110747300D01*
X91271900Y-110747300D02*
X91271900Y-48616100D01*
G04 #@! TO.N,/sbbus1*
X92172100Y-48199600D02*
X91637400Y-48734300D01*
X91637400Y-48734300D02*
X91637400Y-112927900D01*
X91637400Y-112927900D02*
X90656700Y-113908600D01*
G04 #@! TO.N,/sbbus2*
X92835900Y-115174300D02*
X92835900Y-47938300D01*
X92835900Y-47938300D02*
X90429200Y-45531600D01*
G04 #@! TO.N,/scbus0*
X88791400Y-115388800D02*
X89664900Y-116262300D01*
X89341600Y-86398100D02*
X88791400Y-86948300D01*
X89902200Y-44971000D02*
X88667200Y-46206000D01*
X89664900Y-116262300D02*
X89664900Y-126174600D01*
X88667200Y-49135900D02*
X89341600Y-49810300D01*
X88791400Y-86948300D02*
X88791400Y-115388800D01*
X88667200Y-46206000D02*
X88667200Y-49135900D01*
X89341600Y-49810300D02*
X89341600Y-86398100D01*
G04 #@! TO.N,/scbus2*
X88943200Y-86125800D02*
X88335900Y-86733100D01*
X88335900Y-86733100D02*
X88335900Y-109079200D01*
X88943200Y-49907300D02*
X88943200Y-86125800D01*
X88316900Y-44244500D02*
X88316900Y-49281000D01*
X88245400Y-123568000D02*
X89114600Y-124437200D01*
X88245400Y-109169700D02*
X88245400Y-123568000D01*
X88335900Y-109079200D02*
X88245400Y-109169700D01*
X88698800Y-43862600D02*
X88316900Y-44244500D01*
X88316900Y-49281000D02*
X88943200Y-49907300D01*
X89114600Y-124437200D02*
X89114600Y-126704400D01*
G04 #@! TO.N,/SCL0*
X65738000Y-44938700D02*
X68312700Y-42364000D01*
X65738000Y-63836800D02*
X65738000Y-44938700D01*
X65930800Y-83362700D02*
X65930800Y-64029600D01*
X65930800Y-64029600D02*
X65738000Y-63836800D01*
G04 #@! TO.N,/SDA0*
X89478600Y-111731000D02*
X89467100Y-111731000D01*
X90171200Y-94597900D02*
X90171200Y-96413500D01*
X90504100Y-96746400D02*
X90504100Y-110705500D01*
X69151600Y-42357200D02*
X69151600Y-47247200D01*
X93473100Y-118875700D02*
X93473100Y-128341100D01*
X89478600Y-111731000D02*
X89478600Y-114881200D01*
X69151600Y-47247200D02*
X66500400Y-49898400D01*
X90504100Y-110705500D02*
X89478600Y-111731000D01*
X66500400Y-49898400D02*
X66500400Y-82791100D01*
X90171200Y-96413500D02*
X90504100Y-96746400D01*
X89478600Y-114881200D02*
X93473100Y-118875700D01*
G04 #@! TO.N,/SCL1*
X56388100Y-47627900D02*
X51602000Y-42841800D01*
X56388100Y-81136100D02*
X56388100Y-47627900D01*
X51602000Y-42841800D02*
X51602000Y-40237700D01*
G04 #@! TO.N,/SDA1*
X57896200Y-42488500D02*
X57896200Y-83092900D01*
X57896200Y-83092900D02*
X58339700Y-83536400D01*
X57896200Y-42488500D02*
X52439300Y-42488500D01*
X52439300Y-42488500D02*
X52312700Y-42361900D01*
X59580600Y-40804100D02*
X73110600Y-40804100D01*
X57896200Y-42488500D02*
X59580600Y-40804100D01*
G04 #@! TD*
M02*
