G04 #@! TF.GenerationSoftware,KiCad,Pcbnew,7.0.5*
G04 #@! TF.CreationDate,2025-03-16T19:14:48-05:00*
G04 #@! TF.ProjectId,DSKY_led_display,44534b59-5f6c-4656-945f-646973706c61,V7*
G04 #@! TF.SameCoordinates,Original*
G04 #@! TF.FileFunction,Soldermask,Bot*
G04 #@! TF.FilePolarity,Negative*
%FSLAX46Y46*%
G04 Gerber Fmt 4.6, Leading zero omitted, Abs format (unit mm)*
G04 Created by KiCad (PCBNEW 7.0.5) date 2025-03-16 19:14:48*
%MOMM*%
%LPD*%
G01*
G04 APERTURE LIST*
G04 Aperture macros list*
%AMRoundRect*
0 Rectangle with rounded corners*
0 $1 Rounding radius*
0 $2 $3 $4 $5 $6 $7 $8 $9 X,Y pos of 4 corners*
0 Add a 4 corners polygon primitive as box body*
4,1,4,$2,$3,$4,$5,$6,$7,$8,$9,$2,$3,0*
0 Add four circle primitives for the rounded corners*
1,1,$1+$1,$2,$3*
1,1,$1+$1,$4,$5*
1,1,$1+$1,$6,$7*
1,1,$1+$1,$8,$9*
0 Add four rect primitives between the rounded corners*
20,1,$1+$1,$2,$3,$4,$5,0*
20,1,$1+$1,$4,$5,$6,$7,0*
20,1,$1+$1,$6,$7,$8,$9,0*
20,1,$1+$1,$8,$9,$2,$3,0*%
G04 Aperture macros list end*
%ADD10O,1.100000X1.700000*%
%ADD11O,1.100000X2.100000*%
%ADD12RoundRect,0.243750X-0.243750X-0.456250X0.243750X-0.456250X0.243750X0.456250X-0.243750X0.456250X0*%
%ADD13RoundRect,0.243750X-0.503791X0.117358X-0.377617X-0.353531X0.503791X-0.117358X0.377617X0.353531X0*%
%ADD14RoundRect,0.243750X0.503791X-0.117358X0.377617X0.353531X-0.503791X0.117358X-0.377617X-0.353531X0*%
%ADD15RoundRect,0.243750X0.456250X-0.243750X0.456250X0.243750X-0.456250X0.243750X-0.456250X-0.243750X0*%
G04 APERTURE END LIST*
D10*
G04 #@! TO.C,J1*
X78250000Y-70200000D03*
X78250000Y-64600000D03*
D11*
X80400000Y-67400000D03*
G04 #@! TD*
D12*
G04 #@! TO.C,D3*
X90604100Y-38862000D03*
X92479100Y-38862000D03*
G04 #@! TD*
G04 #@! TO.C,D4*
X76278500Y-38862000D03*
X78153500Y-38862000D03*
G04 #@! TD*
G04 #@! TO.C,D5*
X48236900Y-36830000D03*
X50111900Y-36830000D03*
G04 #@! TD*
G04 #@! TO.C,D6*
X40058100Y-36830000D03*
X41933100Y-36830000D03*
G04 #@! TD*
G04 #@! TO.C,D7*
X83644500Y-43332400D03*
X85519500Y-43332400D03*
G04 #@! TD*
G04 #@! TO.C,D8*
X53113700Y-39979600D03*
X54988700Y-39979600D03*
G04 #@! TD*
G04 #@! TO.C,D9*
X43715700Y-39979600D03*
X45590700Y-39979600D03*
G04 #@! TD*
G04 #@! TO.C,D10*
X90604100Y-47040800D03*
X92479100Y-47040800D03*
G04 #@! TD*
G04 #@! TO.C,D11*
X76278500Y-47040800D03*
X78153500Y-47040800D03*
G04 #@! TD*
G04 #@! TO.C,D12*
X83644500Y-49631600D03*
X85519500Y-49631600D03*
G04 #@! TD*
G04 #@! TO.C,D13*
X90604100Y-54051200D03*
X92479100Y-54051200D03*
G04 #@! TD*
G04 #@! TO.C,D14*
X76278500Y-54051200D03*
X78153500Y-54051200D03*
G04 #@! TD*
G04 #@! TO.C,D15*
X50472100Y-43789600D03*
X52347100Y-43789600D03*
G04 #@! TD*
G04 #@! TO.C,D16*
X39956500Y-43789600D03*
X41831500Y-43789600D03*
G04 #@! TD*
D13*
G04 #@! TO.C,D17*
X54824557Y-45373245D03*
X55309843Y-47184355D03*
G04 #@! TD*
G04 #@! TO.C,D18*
X44359757Y-45678045D03*
X44845043Y-47489155D03*
G04 #@! TD*
G04 #@! TO.C,D19*
X48271357Y-45932045D03*
X48756643Y-47743155D03*
G04 #@! TD*
G04 #@! TO.C,D20*
X37450957Y-45728845D03*
X37936243Y-47539955D03*
G04 #@! TD*
D12*
G04 #@! TO.C,D21*
X51488100Y-49123600D03*
X53363100Y-49123600D03*
G04 #@! TD*
G04 #@! TO.C,D22*
X41124900Y-49377600D03*
X42999900Y-49377600D03*
G04 #@! TD*
D13*
G04 #@! TO.C,D23*
X49795357Y-51367645D03*
X50280643Y-53178755D03*
G04 #@! TD*
G04 #@! TO.C,D24*
X39025757Y-51418445D03*
X39511043Y-53229555D03*
G04 #@! TD*
G04 #@! TO.C,D25*
X56399357Y-50961245D03*
X56884643Y-52772355D03*
G04 #@! TD*
G04 #@! TO.C,D26*
X45782157Y-51215245D03*
X46267443Y-53026355D03*
G04 #@! TD*
D12*
G04 #@! TO.C,D27*
X52910500Y-54914800D03*
X54785500Y-54914800D03*
G04 #@! TD*
G04 #@! TO.C,D28*
X42191700Y-54914800D03*
X44066700Y-54914800D03*
G04 #@! TD*
G04 #@! TO.C,D29*
X85219300Y-60960000D03*
X87094300Y-60960000D03*
G04 #@! TD*
G04 #@! TO.C,D30*
X75465700Y-60960000D03*
X77340700Y-60960000D03*
G04 #@! TD*
G04 #@! TO.C,D31*
X49659300Y-61366400D03*
X51534300Y-61366400D03*
G04 #@! TD*
G04 #@! TO.C,D32*
X39702500Y-61468000D03*
X41577500Y-61468000D03*
G04 #@! TD*
G04 #@! TO.C,D33*
X90299300Y-64109600D03*
X92174300Y-64109600D03*
G04 #@! TD*
G04 #@! TO.C,D34*
X79783700Y-64109600D03*
X81658700Y-64109600D03*
G04 #@! TD*
G04 #@! TO.C,D35*
X54586900Y-63754000D03*
X56461900Y-63754000D03*
G04 #@! TD*
G04 #@! TO.C,D36*
X44325300Y-63855600D03*
X46200300Y-63855600D03*
G04 #@! TD*
G04 #@! TO.C,D37*
X87454500Y-68224400D03*
X89329500Y-68224400D03*
G04 #@! TD*
G04 #@! TO.C,D38*
X77091300Y-68224400D03*
X78966300Y-68224400D03*
G04 #@! TD*
G04 #@! TO.C,D39*
X50370500Y-68224400D03*
X52245500Y-68224400D03*
G04 #@! TD*
G04 #@! TO.C,D40*
X40108900Y-68224400D03*
X41983900Y-68224400D03*
G04 #@! TD*
D13*
G04 #@! TO.C,D41*
X92010157Y-70011245D03*
X92495443Y-71822355D03*
G04 #@! TD*
G04 #@! TO.C,D42*
X81494557Y-70417645D03*
X81979843Y-72228755D03*
G04 #@! TD*
G04 #@! TO.C,D43*
X85101357Y-69604845D03*
X85586643Y-71415955D03*
G04 #@! TD*
G04 #@! TO.C,D44*
X74585757Y-69909645D03*
X75071043Y-71720755D03*
G04 #@! TD*
G04 #@! TO.C,D45*
X54926157Y-69909645D03*
X55411443Y-71720755D03*
G04 #@! TD*
G04 #@! TO.C,D46*
X44207357Y-70163645D03*
X44692643Y-71974755D03*
G04 #@! TD*
G04 #@! TO.C,D47*
X48169757Y-70062045D03*
X48655043Y-71873155D03*
G04 #@! TD*
G04 #@! TO.C,D48*
X37501757Y-69808045D03*
X37987043Y-71619155D03*
G04 #@! TD*
D12*
G04 #@! TO.C,D49*
X88724500Y-73761600D03*
X90599500Y-73761600D03*
G04 #@! TD*
G04 #@! TO.C,D50*
X78107300Y-73761600D03*
X79982300Y-73761600D03*
G04 #@! TD*
G04 #@! TO.C,D51*
X51640500Y-73761600D03*
X53515500Y-73761600D03*
G04 #@! TD*
G04 #@! TO.C,D52*
X41023300Y-73710800D03*
X42898300Y-73710800D03*
G04 #@! TD*
D13*
G04 #@! TO.C,D53*
X86726957Y-75548445D03*
X87212243Y-77359555D03*
G04 #@! TD*
G04 #@! TO.C,D54*
X76058957Y-75396045D03*
X76544243Y-77207155D03*
G04 #@! TD*
G04 #@! TO.C,D55*
X93534157Y-75396045D03*
X94019443Y-77207155D03*
G04 #@! TD*
D14*
G04 #@! TO.C,D56*
X83300643Y-77207155D03*
X82815357Y-75396045D03*
G04 #@! TD*
D13*
G04 #@! TO.C,D57*
X49541357Y-75345245D03*
X50026643Y-77156355D03*
G04 #@! TD*
G04 #@! TO.C,D58*
X38924157Y-75294445D03*
X39409443Y-77105555D03*
G04 #@! TD*
G04 #@! TO.C,D59*
X56500957Y-75548445D03*
X56986243Y-77359555D03*
G04 #@! TD*
G04 #@! TO.C,D60*
X45782157Y-75345245D03*
X46267443Y-77156355D03*
G04 #@! TD*
D12*
G04 #@! TO.C,D61*
X89892900Y-79197200D03*
X91767900Y-79197200D03*
G04 #@! TD*
G04 #@! TO.C,D62*
X79326500Y-79197200D03*
X81201500Y-79197200D03*
G04 #@! TD*
G04 #@! TO.C,D63*
X52504100Y-79197200D03*
X54379100Y-79197200D03*
G04 #@! TD*
G04 #@! TO.C,D64*
X42394900Y-79197200D03*
X44269900Y-79197200D03*
G04 #@! TD*
G04 #@! TO.C,D65*
X81485500Y-82423000D03*
X83360500Y-82423000D03*
G04 #@! TD*
G04 #@! TO.C,D66*
X70182500Y-82448400D03*
X72057500Y-82448400D03*
G04 #@! TD*
G04 #@! TO.C,D67*
X57380900Y-82448400D03*
X59255900Y-82448400D03*
G04 #@! TD*
G04 #@! TO.C,D68*
X44958000Y-82423000D03*
X46833000Y-82423000D03*
G04 #@! TD*
G04 #@! TO.C,D69*
X81510900Y-87426800D03*
X83385900Y-87426800D03*
G04 #@! TD*
G04 #@! TO.C,D70*
X71096900Y-87426800D03*
X72971900Y-87426800D03*
G04 #@! TD*
G04 #@! TO.C,D71*
X60835300Y-87426800D03*
X62710300Y-87426800D03*
G04 #@! TD*
G04 #@! TO.C,D72*
X50218100Y-87426800D03*
X52093100Y-87426800D03*
G04 #@! TD*
G04 #@! TO.C,D73*
X39905700Y-87426800D03*
X41780700Y-87426800D03*
G04 #@! TD*
D15*
G04 #@! TO.C,D74*
X92200000Y-91137500D03*
X92200000Y-89262500D03*
G04 #@! TD*
D13*
G04 #@! TO.C,D75*
X86066557Y-89315245D03*
X86551843Y-91126355D03*
G04 #@! TD*
G04 #@! TO.C,D76*
X79208557Y-89112045D03*
X79693843Y-90923155D03*
G04 #@! TD*
G04 #@! TO.C,D77*
X75500157Y-89366045D03*
X75985443Y-91177155D03*
G04 #@! TD*
G04 #@! TO.C,D78*
X65136957Y-89366045D03*
X65622243Y-91177155D03*
G04 #@! TD*
G04 #@! TO.C,D79*
X68692957Y-88959645D03*
X69178243Y-90770755D03*
G04 #@! TD*
G04 #@! TO.C,D80*
X58278957Y-89010445D03*
X58764243Y-90821555D03*
G04 #@! TD*
G04 #@! TO.C,D81*
X54824557Y-89416845D03*
X55309843Y-91227955D03*
G04 #@! TD*
G04 #@! TO.C,D82*
X44308957Y-89518445D03*
X44794243Y-91329555D03*
G04 #@! TD*
G04 #@! TO.C,D83*
X47864957Y-89112045D03*
X48350243Y-90923155D03*
G04 #@! TD*
G04 #@! TO.C,D84*
X37400157Y-88908845D03*
X37885443Y-90719955D03*
G04 #@! TD*
D12*
G04 #@! TO.C,D85*
X82679300Y-93065600D03*
X84554300Y-93065600D03*
G04 #@! TD*
G04 #@! TO.C,D86*
X91162500Y-93000000D03*
X93037500Y-93000000D03*
G04 #@! TD*
G04 #@! TO.C,D87*
X72214500Y-93065600D03*
X74089500Y-93065600D03*
G04 #@! TD*
G04 #@! TO.C,D88*
X61851300Y-93065600D03*
X63726300Y-93065600D03*
G04 #@! TD*
G04 #@! TO.C,D89*
X51284900Y-93116400D03*
X53159900Y-93116400D03*
G04 #@! TD*
G04 #@! TO.C,D90*
X40870900Y-93065600D03*
X42745900Y-93065600D03*
G04 #@! TD*
D13*
G04 #@! TO.C,D91*
X80630957Y-94801645D03*
X81116243Y-96612755D03*
G04 #@! TD*
G04 #@! TO.C,D92*
X87488957Y-95004845D03*
X87974243Y-96815955D03*
G04 #@! TD*
G04 #@! TO.C,D93*
X70216957Y-94750845D03*
X70702243Y-96561955D03*
G04 #@! TD*
G04 #@! TO.C,D94*
X59752157Y-94700045D03*
X60237443Y-96511155D03*
G04 #@! TD*
G04 #@! TO.C,D95*
X76922557Y-94801645D03*
X77407843Y-96612755D03*
G04 #@! TD*
G04 #@! TO.C,D96*
X66559357Y-94903245D03*
X67044643Y-96714355D03*
G04 #@! TD*
G04 #@! TO.C,D97*
X49388957Y-94700045D03*
X49874243Y-96511155D03*
G04 #@! TD*
G04 #@! TO.C,D98*
X38974957Y-94649245D03*
X39460243Y-96460355D03*
G04 #@! TD*
G04 #@! TO.C,D99*
X56043757Y-94598445D03*
X56529043Y-96409555D03*
G04 #@! TD*
G04 #@! TO.C,D100*
X45731357Y-94700045D03*
X46216643Y-96511155D03*
G04 #@! TD*
D12*
G04 #@! TO.C,D101*
X83695300Y-98602800D03*
X85570300Y-98602800D03*
G04 #@! TD*
D15*
G04 #@! TO.C,D102*
X92100000Y-96644700D03*
X92100000Y-94769700D03*
G04 #@! TD*
D12*
G04 #@! TO.C,D103*
X73433700Y-98602800D03*
X75308700Y-98602800D03*
G04 #@! TD*
G04 #@! TO.C,D104*
X62918100Y-98602800D03*
X64793100Y-98602800D03*
G04 #@! TD*
G04 #@! TO.C,D105*
X52656500Y-98602800D03*
X54531500Y-98602800D03*
G04 #@! TD*
G04 #@! TO.C,D106*
X42293300Y-98602800D03*
X44168300Y-98602800D03*
G04 #@! TD*
G04 #@! TO.C,D107*
X80291700Y-101752000D03*
X82166700Y-101752000D03*
G04 #@! TD*
G04 #@! TO.C,D108*
X68099700Y-101752000D03*
X69974700Y-101752000D03*
G04 #@! TD*
G04 #@! TO.C,D109*
X57431700Y-101752000D03*
X59306700Y-101752000D03*
G04 #@! TD*
G04 #@! TO.C,D110*
X45646100Y-101752000D03*
X47521100Y-101752000D03*
G04 #@! TD*
G04 #@! TO.C,D111*
X81663300Y-106782000D03*
X83538300Y-106782000D03*
G04 #@! TD*
D15*
G04 #@! TO.C,D112*
X92000000Y-110437500D03*
X92000000Y-108562500D03*
G04 #@! TD*
D12*
G04 #@! TO.C,D113*
X71046100Y-106782000D03*
X72921100Y-106782000D03*
G04 #@! TD*
G04 #@! TO.C,D114*
X60784500Y-106782000D03*
X62659500Y-106782000D03*
G04 #@! TD*
G04 #@! TO.C,D115*
X50218100Y-106782000D03*
X52093100Y-106782000D03*
G04 #@! TD*
G04 #@! TO.C,D116*
X39550100Y-106782000D03*
X41425100Y-106782000D03*
G04 #@! TD*
D13*
G04 #@! TO.C,D117*
X85812557Y-108619445D03*
X86297843Y-110430555D03*
G04 #@! TD*
G04 #@! TO.C,D118*
X79056157Y-108466445D03*
X79541443Y-110277555D03*
G04 #@! TD*
G04 #@! TO.C,D119*
X75449357Y-108314445D03*
X75934643Y-110125555D03*
G04 #@! TD*
G04 #@! TO.C,D120*
X65136957Y-108873445D03*
X65622243Y-110684555D03*
G04 #@! TD*
G04 #@! TO.C,D121*
X68743757Y-108466445D03*
X69229043Y-110277555D03*
G04 #@! TD*
G04 #@! TO.C,D122*
X58278957Y-108263445D03*
X58764243Y-110074555D03*
G04 #@! TD*
G04 #@! TO.C,D123*
X54722957Y-109025445D03*
X55208243Y-110836555D03*
G04 #@! TD*
G04 #@! TO.C,D124*
X44314757Y-108888445D03*
X44800043Y-110699555D03*
G04 #@! TD*
G04 #@! TO.C,D125*
X47864957Y-108314445D03*
X48350243Y-110125555D03*
G04 #@! TD*
G04 #@! TO.C,D126*
X37501757Y-108619445D03*
X37987043Y-110430555D03*
G04 #@! TD*
D12*
G04 #@! TO.C,D127*
X91061300Y-112319000D03*
X92936300Y-112319000D03*
G04 #@! TD*
G04 #@! TO.C,D128*
X82425300Y-112319000D03*
X84300300Y-112319000D03*
G04 #@! TD*
G04 #@! TO.C,D129*
X72163700Y-112268000D03*
X74038700Y-112268000D03*
G04 #@! TD*
G04 #@! TO.C,D130*
X61749700Y-112471000D03*
X63624700Y-112471000D03*
G04 #@! TD*
G04 #@! TO.C,D131*
X51488100Y-112471000D03*
X53363100Y-112471000D03*
G04 #@! TD*
G04 #@! TO.C,D132*
X40870900Y-112319000D03*
X42745900Y-112319000D03*
G04 #@! TD*
D13*
G04 #@! TO.C,D133*
X80580157Y-114207445D03*
X81065443Y-116018555D03*
G04 #@! TD*
G04 #@! TO.C,D134*
X87285757Y-114105445D03*
X87771043Y-115916555D03*
G04 #@! TD*
G04 #@! TO.C,D135*
X70064557Y-114004445D03*
X70549843Y-115815555D03*
G04 #@! TD*
G04 #@! TO.C,D136*
X59802957Y-114004445D03*
X60288243Y-115815555D03*
G04 #@! TD*
G04 #@! TO.C,D137*
X76820957Y-113597445D03*
X77306243Y-115408555D03*
G04 #@! TD*
G04 #@! TO.C,D138*
X66406957Y-113699445D03*
X66892243Y-115510555D03*
G04 #@! TD*
G04 #@! TO.C,D139*
X49388957Y-114105445D03*
X49874243Y-115916555D03*
G04 #@! TD*
G04 #@! TO.C,D140*
X38974957Y-114207445D03*
X39460243Y-116018555D03*
G04 #@! TD*
G04 #@! TO.C,D141*
X56043757Y-114054445D03*
X56529043Y-115865555D03*
G04 #@! TD*
G04 #@! TO.C,D142*
X45657357Y-113794445D03*
X46142643Y-115605555D03*
G04 #@! TD*
D15*
G04 #@! TO.C,D143*
X91978800Y-115999500D03*
X91978800Y-114124500D03*
G04 #@! TD*
D12*
G04 #@! TO.C,D144*
X83847700Y-117856000D03*
X85722700Y-117856000D03*
G04 #@! TD*
G04 #@! TO.C,D145*
X73332100Y-117754000D03*
X75207100Y-117754000D03*
G04 #@! TD*
G04 #@! TO.C,D146*
X62968900Y-118059000D03*
X64843900Y-118059000D03*
G04 #@! TD*
G04 #@! TO.C,D147*
X52758100Y-117805000D03*
X54633100Y-117805000D03*
G04 #@! TD*
G04 #@! TO.C,D148*
X42394900Y-117907000D03*
X44269900Y-117907000D03*
G04 #@! TD*
G04 #@! TO.C,D149*
X79631300Y-120853000D03*
X81506300Y-120853000D03*
G04 #@! TD*
G04 #@! TO.C,D150*
X67515500Y-121031000D03*
X69390500Y-121031000D03*
G04 #@! TD*
G04 #@! TO.C,D151*
X53926500Y-120853000D03*
X55801500Y-120853000D03*
G04 #@! TD*
G04 #@! TO.C,D152*
X44477700Y-120853000D03*
X46352700Y-120853000D03*
G04 #@! TD*
D15*
G04 #@! TO.C,D153*
X91978800Y-129512500D03*
X91978800Y-127637500D03*
G04 #@! TD*
D12*
G04 #@! TO.C,D154*
X81460100Y-125832000D03*
X83335100Y-125832000D03*
G04 #@! TD*
G04 #@! TO.C,D155*
X71198500Y-125730000D03*
X73073500Y-125730000D03*
G04 #@! TD*
G04 #@! TO.C,D156*
X60276500Y-125832000D03*
X62151500Y-125832000D03*
G04 #@! TD*
G04 #@! TO.C,D157*
X50167300Y-125832000D03*
X52042300Y-125832000D03*
G04 #@! TD*
G04 #@! TO.C,D158*
X39905700Y-125832000D03*
X41780700Y-125832000D03*
G04 #@! TD*
D13*
G04 #@! TO.C,D159*
X85964957Y-128024445D03*
X86450243Y-129835555D03*
G04 #@! TD*
G04 #@! TO.C,D160*
X79005357Y-127415445D03*
X79490643Y-129226555D03*
G04 #@! TD*
G04 #@! TO.C,D161*
X75550957Y-127974445D03*
X76036243Y-129785555D03*
G04 #@! TD*
G04 #@! TO.C,D162*
X65086157Y-127872445D03*
X65571443Y-129683555D03*
G04 #@! TD*
D12*
G04 #@! TO.C,D163*
X91061300Y-131267000D03*
X92936300Y-131267000D03*
G04 #@! TD*
D13*
G04 #@! TO.C,D164*
X68591357Y-127313445D03*
X69076643Y-129124555D03*
G04 #@! TD*
G04 #@! TO.C,D165*
X58532957Y-128583445D03*
X59018243Y-130394555D03*
G04 #@! TD*
G04 #@! TO.C,D166*
X54875357Y-127872445D03*
X55360643Y-129683555D03*
G04 #@! TD*
G04 #@! TO.C,D167*
X44221757Y-127719445D03*
X44707043Y-129530555D03*
G04 #@! TD*
G04 #@! TO.C,D168*
X47828557Y-127312445D03*
X48313843Y-129123555D03*
G04 #@! TD*
G04 #@! TO.C,D169*
X37298557Y-127466445D03*
X37783843Y-129277555D03*
G04 #@! TD*
D12*
G04 #@! TO.C,D170*
X82476100Y-131420000D03*
X84351100Y-131420000D03*
G04 #@! TD*
G04 #@! TO.C,D171*
X72265300Y-131369000D03*
X74140300Y-131369000D03*
G04 #@! TD*
G04 #@! TO.C,D172*
X61394100Y-131623000D03*
X63269100Y-131623000D03*
G04 #@! TD*
G04 #@! TO.C,D173*
X51488100Y-131521000D03*
X53363100Y-131521000D03*
G04 #@! TD*
G04 #@! TO.C,D174*
X40972500Y-131369000D03*
X42847500Y-131369000D03*
G04 #@! TD*
D13*
G04 #@! TO.C,D175*
X80630957Y-133358445D03*
X81116243Y-135169555D03*
G04 #@! TD*
D15*
G04 #@! TO.C,D176*
X91978800Y-135201500D03*
X91978800Y-133326500D03*
G04 #@! TD*
D13*
G04 #@! TO.C,D177*
X87336557Y-133104445D03*
X87821843Y-134915555D03*
G04 #@! TD*
G04 #@! TO.C,D178*
X70115357Y-133104445D03*
X70600643Y-134915555D03*
G04 #@! TD*
G04 #@! TO.C,D179*
X59752157Y-133358445D03*
X60237443Y-135169555D03*
G04 #@! TD*
G04 #@! TO.C,D180*
X76973357Y-133206445D03*
X77458643Y-135017555D03*
G04 #@! TD*
G04 #@! TO.C,D181*
X66457757Y-132850445D03*
X66943043Y-134661555D03*
G04 #@! TD*
G04 #@! TO.C,D182*
X49301757Y-133154445D03*
X49787043Y-134965555D03*
G04 #@! TD*
G04 #@! TO.C,D183*
X38684557Y-133205445D03*
X39169843Y-135016555D03*
G04 #@! TD*
G04 #@! TO.C,D184*
X56297757Y-133562445D03*
X56783043Y-135373555D03*
G04 #@! TD*
G04 #@! TO.C,D185*
X45694957Y-133408445D03*
X46180243Y-135219555D03*
G04 #@! TD*
D12*
G04 #@! TO.C,D186*
X83949300Y-136957000D03*
X85824300Y-136957000D03*
G04 #@! TD*
G04 #@! TO.C,D187*
X73332100Y-136957000D03*
X75207100Y-136957000D03*
G04 #@! TD*
G04 #@! TO.C,D188*
X63121300Y-136957000D03*
X64996300Y-136957000D03*
G04 #@! TD*
G04 #@! TO.C,D189*
X52808900Y-136957000D03*
X54683900Y-136957000D03*
G04 #@! TD*
G04 #@! TO.C,D190*
X42344100Y-136957000D03*
X44219100Y-136957000D03*
G04 #@! TD*
M02*
