G04 #@! TF.GenerationSoftware,KiCad,Pcbnew,7.0.5*
G04 #@! TF.CreationDate,2025-03-16T19:14:48-05:00*
G04 #@! TF.ProjectId,DSKY_led_display,44534b59-5f6c-4656-945f-646973706c61,V7*
G04 #@! TF.SameCoordinates,Original*
G04 #@! TF.FileFunction,Paste,Top*
G04 #@! TF.FilePolarity,Positive*
%FSLAX46Y46*%
G04 Gerber Fmt 4.6, Leading zero omitted, Abs format (unit mm)*
G04 Created by KiCad (PCBNEW 7.0.5) date 2025-03-16 19:14:48*
%MOMM*%
%LPD*%
G01*
G04 APERTURE LIST*
G04 Aperture macros list*
%AMRoundRect*
0 Rectangle with rounded corners*
0 $1 Rounding radius*
0 $2 $3 $4 $5 $6 $7 $8 $9 X,Y pos of 4 corners*
0 Add a 4 corners polygon primitive as box body*
4,1,4,$2,$3,$4,$5,$6,$7,$8,$9,$2,$3,0*
0 Add four circle primitives for the rounded corners*
1,1,$1+$1,$2,$3*
1,1,$1+$1,$4,$5*
1,1,$1+$1,$6,$7*
1,1,$1+$1,$8,$9*
0 Add four rect primitives between the rounded corners*
20,1,$1+$1,$2,$3,$4,$5,0*
20,1,$1+$1,$4,$5,$6,$7,0*
20,1,$1+$1,$6,$7,$8,$9,0*
20,1,$1+$1,$8,$9,$2,$3,0*%
G04 Aperture macros list end*
%ADD10C,0.005000*%
%ADD11C,0.010000*%
%ADD12RoundRect,0.250000X-0.260000X0.315000X-0.260000X-0.315000X0.260000X-0.315000X0.260000X0.315000X0*%
%ADD13RoundRect,0.050000X-0.050000X0.362500X-0.050000X-0.362500X0.050000X-0.362500X0.050000X0.362500X0*%
%ADD14RoundRect,0.050000X-0.362500X0.050000X-0.362500X-0.050000X0.362500X-0.050000X0.362500X0.050000X0*%
%ADD15RoundRect,0.250000X-0.315000X-0.260000X0.315000X-0.260000X0.315000X0.260000X-0.315000X0.260000X0*%
%ADD16RoundRect,0.050000X-0.362500X-0.050000X0.362500X-0.050000X0.362500X0.050000X-0.362500X0.050000X0*%
%ADD17RoundRect,0.050000X-0.050000X-0.362500X0.050000X-0.362500X0.050000X0.362500X-0.050000X0.362500X0*%
%ADD18R,1.600000X0.550000*%
%ADD19R,0.550000X1.600000*%
%ADD20RoundRect,0.225000X-0.225000X-0.250000X0.225000X-0.250000X0.225000X0.250000X-0.225000X0.250000X0*%
%ADD21RoundRect,0.218750X0.218750X0.256250X-0.218750X0.256250X-0.218750X-0.256250X0.218750X-0.256250X0*%
%ADD22RoundRect,0.218750X-0.218750X-0.256250X0.218750X-0.256250X0.218750X0.256250X-0.218750X0.256250X0*%
%ADD23RoundRect,0.200000X-0.200000X-0.275000X0.200000X-0.275000X0.200000X0.275000X-0.200000X0.275000X0*%
%ADD24RoundRect,0.200000X-0.275000X0.200000X-0.275000X-0.200000X0.275000X-0.200000X0.275000X0.200000X0*%
%ADD25R,1.060000X0.650000*%
%ADD26RoundRect,0.225000X0.250000X-0.225000X0.250000X0.225000X-0.250000X0.225000X-0.250000X-0.225000X0*%
%ADD27R,1.500000X0.450000*%
%ADD28RoundRect,0.200000X0.275000X-0.200000X0.275000X0.200000X-0.275000X0.200000X-0.275000X-0.200000X0*%
%ADD29RoundRect,0.200000X0.200000X0.275000X-0.200000X0.275000X-0.200000X-0.275000X0.200000X-0.275000X0*%
%ADD30R,0.900000X0.900000*%
%ADD31R,0.650000X2.760000*%
%ADD32R,0.650000X2.750000*%
%ADD33R,3.429990X1.270000*%
%ADD34R,1.100000X1.100000*%
%ADD35RoundRect,0.225000X0.225000X0.250000X-0.225000X0.250000X-0.225000X-0.250000X0.225000X-0.250000X0*%
%ADD36RoundRect,0.150000X-0.825000X-0.150000X0.825000X-0.150000X0.825000X0.150000X-0.825000X0.150000X0*%
G04 APERTURE END LIST*
G04 #@! TO.C,J1*
D10*
X78278785Y-69300754D02*
X78307491Y-69303013D01*
X78336039Y-69306771D01*
X78364351Y-69312019D01*
X78392350Y-69318741D01*
X78419959Y-69326919D01*
X78447102Y-69336531D01*
X78473705Y-69347550D01*
X78499695Y-69359946D01*
X78525000Y-69373686D01*
X78549551Y-69388731D01*
X78573282Y-69405041D01*
X78596126Y-69422570D01*
X78618022Y-69441270D01*
X78638909Y-69461091D01*
X78658730Y-69481978D01*
X78677430Y-69503874D01*
X78694959Y-69526718D01*
X78711269Y-69550449D01*
X78726314Y-69575000D01*
X78740054Y-69600305D01*
X78752450Y-69626295D01*
X78763469Y-69652898D01*
X78773081Y-69680041D01*
X78781259Y-69707650D01*
X78787981Y-69735649D01*
X78793229Y-69763961D01*
X78796987Y-69792509D01*
X78799246Y-69821215D01*
X78800000Y-69850000D01*
X78800000Y-70550000D01*
X78799246Y-70578785D01*
X78796987Y-70607491D01*
X78793229Y-70636039D01*
X78787981Y-70664351D01*
X78781259Y-70692350D01*
X78773081Y-70719959D01*
X78763469Y-70747102D01*
X78752450Y-70773705D01*
X78740054Y-70799695D01*
X78726314Y-70825000D01*
X78711269Y-70849551D01*
X78694959Y-70873282D01*
X78677430Y-70896126D01*
X78658730Y-70918022D01*
X78638909Y-70938909D01*
X78618022Y-70958730D01*
X78596126Y-70977430D01*
X78573282Y-70994959D01*
X78549551Y-71011269D01*
X78525000Y-71026314D01*
X78499695Y-71040054D01*
X78473705Y-71052450D01*
X78447102Y-71063469D01*
X78419959Y-71073081D01*
X78392350Y-71081259D01*
X78364351Y-71087981D01*
X78336039Y-71093229D01*
X78307491Y-71096987D01*
X78278785Y-71099246D01*
X78250000Y-71100000D01*
X78221215Y-71099246D01*
X78192509Y-71096987D01*
X78163961Y-71093229D01*
X78135649Y-71087981D01*
X78107650Y-71081259D01*
X78080041Y-71073081D01*
X78052898Y-71063469D01*
X78026295Y-71052450D01*
X78000305Y-71040054D01*
X77975000Y-71026314D01*
X77950449Y-71011269D01*
X77926718Y-70994959D01*
X77903874Y-70977430D01*
X77881978Y-70958730D01*
X77861091Y-70938909D01*
X77841270Y-70918022D01*
X77822570Y-70896126D01*
X77805041Y-70873282D01*
X77788731Y-70849551D01*
X77773686Y-70825000D01*
X77759946Y-70799695D01*
X77747550Y-70773705D01*
X77736531Y-70747102D01*
X77726919Y-70719959D01*
X77718741Y-70692350D01*
X77712019Y-70664351D01*
X77706771Y-70636039D01*
X77703013Y-70607491D01*
X77700754Y-70578785D01*
X77700000Y-70550000D01*
X77700000Y-70200000D01*
X78000000Y-70200000D01*
X78000000Y-70550000D01*
X78000343Y-70563084D01*
X78001370Y-70576132D01*
X78003078Y-70589109D01*
X78005463Y-70601978D01*
X78008519Y-70614705D01*
X78012236Y-70627254D01*
X78016605Y-70639592D01*
X78021614Y-70651684D01*
X78027248Y-70663498D01*
X78033494Y-70675000D01*
X78040332Y-70686160D01*
X78047746Y-70696946D01*
X78055714Y-70707330D01*
X78064214Y-70717283D01*
X78073223Y-70726777D01*
X78082717Y-70735786D01*
X78092670Y-70744286D01*
X78103054Y-70752254D01*
X78113840Y-70759668D01*
X78125000Y-70766506D01*
X78136502Y-70772752D01*
X78148316Y-70778386D01*
X78160408Y-70783395D01*
X78172746Y-70787764D01*
X78185295Y-70791481D01*
X78198022Y-70794537D01*
X78210891Y-70796922D01*
X78223868Y-70798630D01*
X78236916Y-70799657D01*
X78250000Y-70800000D01*
X78263084Y-70799657D01*
X78276132Y-70798630D01*
X78289109Y-70796922D01*
X78301978Y-70794537D01*
X78314705Y-70791481D01*
X78327254Y-70787764D01*
X78339592Y-70783395D01*
X78351684Y-70778386D01*
X78363498Y-70772752D01*
X78375000Y-70766506D01*
X78386160Y-70759668D01*
X78396946Y-70752254D01*
X78407330Y-70744286D01*
X78417283Y-70735786D01*
X78426777Y-70726777D01*
X78435786Y-70717283D01*
X78444286Y-70707330D01*
X78452254Y-70696946D01*
X78459668Y-70686160D01*
X78466506Y-70675000D01*
X78472752Y-70663498D01*
X78478386Y-70651684D01*
X78483395Y-70639592D01*
X78487764Y-70627254D01*
X78491481Y-70614705D01*
X78494537Y-70601978D01*
X78496922Y-70589109D01*
X78498630Y-70576132D01*
X78499657Y-70563084D01*
X78500000Y-70550000D01*
X78500000Y-69850000D01*
X78499657Y-69836916D01*
X78498630Y-69823868D01*
X78496922Y-69810891D01*
X78494537Y-69798022D01*
X78491481Y-69785295D01*
X78487764Y-69772746D01*
X78483395Y-69760408D01*
X78478386Y-69748316D01*
X78472752Y-69736502D01*
X78466506Y-69725000D01*
X78459668Y-69713840D01*
X78452254Y-69703054D01*
X78444286Y-69692670D01*
X78435786Y-69682717D01*
X78426777Y-69673223D01*
X78417283Y-69664214D01*
X78407330Y-69655714D01*
X78396946Y-69647746D01*
X78386160Y-69640332D01*
X78375000Y-69633494D01*
X78363498Y-69627248D01*
X78351684Y-69621614D01*
X78339592Y-69616605D01*
X78327254Y-69612236D01*
X78314705Y-69608519D01*
X78301978Y-69605463D01*
X78289109Y-69603078D01*
X78276132Y-69601370D01*
X78263084Y-69600343D01*
X78250000Y-69600000D01*
X78236916Y-69600343D01*
X78223868Y-69601370D01*
X78210891Y-69603078D01*
X78198022Y-69605463D01*
X78185295Y-69608519D01*
X78172746Y-69612236D01*
X78160408Y-69616605D01*
X78148316Y-69621614D01*
X78136502Y-69627248D01*
X78125000Y-69633494D01*
X78113840Y-69640332D01*
X78103054Y-69647746D01*
X78092670Y-69655714D01*
X78082717Y-69664214D01*
X78073223Y-69673223D01*
X78064214Y-69682717D01*
X78055714Y-69692670D01*
X78047746Y-69703054D01*
X78040332Y-69713840D01*
X78033494Y-69725000D01*
X78027248Y-69736502D01*
X78021614Y-69748316D01*
X78016605Y-69760408D01*
X78012236Y-69772746D01*
X78008519Y-69785295D01*
X78005463Y-69798022D01*
X78003078Y-69810891D01*
X78001370Y-69823868D01*
X78000343Y-69836916D01*
X78000000Y-69850000D01*
X78000000Y-70200000D01*
X77700000Y-70200000D01*
X77700000Y-69850000D01*
X77700754Y-69821215D01*
X77703013Y-69792509D01*
X77706771Y-69763961D01*
X77712019Y-69735649D01*
X77718741Y-69707650D01*
X77726919Y-69680041D01*
X77736531Y-69652898D01*
X77747550Y-69626295D01*
X77759946Y-69600305D01*
X77773686Y-69575000D01*
X77788731Y-69550449D01*
X77805041Y-69526718D01*
X77822570Y-69503874D01*
X77841270Y-69481978D01*
X77861091Y-69461091D01*
X77881978Y-69441270D01*
X77903874Y-69422570D01*
X77926718Y-69405041D01*
X77950449Y-69388731D01*
X77975000Y-69373686D01*
X78000305Y-69359946D01*
X78026295Y-69347550D01*
X78052898Y-69336531D01*
X78080041Y-69326919D01*
X78107650Y-69318741D01*
X78135649Y-69312019D01*
X78163961Y-69306771D01*
X78192509Y-69303013D01*
X78221215Y-69300754D01*
X78250000Y-69300000D01*
X78278785Y-69300754D01*
G36*
X78278785Y-69300754D02*
G01*
X78307491Y-69303013D01*
X78336039Y-69306771D01*
X78364351Y-69312019D01*
X78392350Y-69318741D01*
X78419959Y-69326919D01*
X78447102Y-69336531D01*
X78473705Y-69347550D01*
X78499695Y-69359946D01*
X78525000Y-69373686D01*
X78549551Y-69388731D01*
X78573282Y-69405041D01*
X78596126Y-69422570D01*
X78618022Y-69441270D01*
X78638909Y-69461091D01*
X78658730Y-69481978D01*
X78677430Y-69503874D01*
X78694959Y-69526718D01*
X78711269Y-69550449D01*
X78726314Y-69575000D01*
X78740054Y-69600305D01*
X78752450Y-69626295D01*
X78763469Y-69652898D01*
X78773081Y-69680041D01*
X78781259Y-69707650D01*
X78787981Y-69735649D01*
X78793229Y-69763961D01*
X78796987Y-69792509D01*
X78799246Y-69821215D01*
X78800000Y-69850000D01*
X78800000Y-70550000D01*
X78799246Y-70578785D01*
X78796987Y-70607491D01*
X78793229Y-70636039D01*
X78787981Y-70664351D01*
X78781259Y-70692350D01*
X78773081Y-70719959D01*
X78763469Y-70747102D01*
X78752450Y-70773705D01*
X78740054Y-70799695D01*
X78726314Y-70825000D01*
X78711269Y-70849551D01*
X78694959Y-70873282D01*
X78677430Y-70896126D01*
X78658730Y-70918022D01*
X78638909Y-70938909D01*
X78618022Y-70958730D01*
X78596126Y-70977430D01*
X78573282Y-70994959D01*
X78549551Y-71011269D01*
X78525000Y-71026314D01*
X78499695Y-71040054D01*
X78473705Y-71052450D01*
X78447102Y-71063469D01*
X78419959Y-71073081D01*
X78392350Y-71081259D01*
X78364351Y-71087981D01*
X78336039Y-71093229D01*
X78307491Y-71096987D01*
X78278785Y-71099246D01*
X78250000Y-71100000D01*
X78221215Y-71099246D01*
X78192509Y-71096987D01*
X78163961Y-71093229D01*
X78135649Y-71087981D01*
X78107650Y-71081259D01*
X78080041Y-71073081D01*
X78052898Y-71063469D01*
X78026295Y-71052450D01*
X78000305Y-71040054D01*
X77975000Y-71026314D01*
X77950449Y-71011269D01*
X77926718Y-70994959D01*
X77903874Y-70977430D01*
X77881978Y-70958730D01*
X77861091Y-70938909D01*
X77841270Y-70918022D01*
X77822570Y-70896126D01*
X77805041Y-70873282D01*
X77788731Y-70849551D01*
X77773686Y-70825000D01*
X77759946Y-70799695D01*
X77747550Y-70773705D01*
X77736531Y-70747102D01*
X77726919Y-70719959D01*
X77718741Y-70692350D01*
X77712019Y-70664351D01*
X77706771Y-70636039D01*
X77703013Y-70607491D01*
X77700754Y-70578785D01*
X77700000Y-70550000D01*
X77700000Y-70200000D01*
X78000000Y-70200000D01*
X78000000Y-70550000D01*
X78000343Y-70563084D01*
X78001370Y-70576132D01*
X78003078Y-70589109D01*
X78005463Y-70601978D01*
X78008519Y-70614705D01*
X78012236Y-70627254D01*
X78016605Y-70639592D01*
X78021614Y-70651684D01*
X78027248Y-70663498D01*
X78033494Y-70675000D01*
X78040332Y-70686160D01*
X78047746Y-70696946D01*
X78055714Y-70707330D01*
X78064214Y-70717283D01*
X78073223Y-70726777D01*
X78082717Y-70735786D01*
X78092670Y-70744286D01*
X78103054Y-70752254D01*
X78113840Y-70759668D01*
X78125000Y-70766506D01*
X78136502Y-70772752D01*
X78148316Y-70778386D01*
X78160408Y-70783395D01*
X78172746Y-70787764D01*
X78185295Y-70791481D01*
X78198022Y-70794537D01*
X78210891Y-70796922D01*
X78223868Y-70798630D01*
X78236916Y-70799657D01*
X78250000Y-70800000D01*
X78263084Y-70799657D01*
X78276132Y-70798630D01*
X78289109Y-70796922D01*
X78301978Y-70794537D01*
X78314705Y-70791481D01*
X78327254Y-70787764D01*
X78339592Y-70783395D01*
X78351684Y-70778386D01*
X78363498Y-70772752D01*
X78375000Y-70766506D01*
X78386160Y-70759668D01*
X78396946Y-70752254D01*
X78407330Y-70744286D01*
X78417283Y-70735786D01*
X78426777Y-70726777D01*
X78435786Y-70717283D01*
X78444286Y-70707330D01*
X78452254Y-70696946D01*
X78459668Y-70686160D01*
X78466506Y-70675000D01*
X78472752Y-70663498D01*
X78478386Y-70651684D01*
X78483395Y-70639592D01*
X78487764Y-70627254D01*
X78491481Y-70614705D01*
X78494537Y-70601978D01*
X78496922Y-70589109D01*
X78498630Y-70576132D01*
X78499657Y-70563084D01*
X78500000Y-70550000D01*
X78500000Y-69850000D01*
X78499657Y-69836916D01*
X78498630Y-69823868D01*
X78496922Y-69810891D01*
X78494537Y-69798022D01*
X78491481Y-69785295D01*
X78487764Y-69772746D01*
X78483395Y-69760408D01*
X78478386Y-69748316D01*
X78472752Y-69736502D01*
X78466506Y-69725000D01*
X78459668Y-69713840D01*
X78452254Y-69703054D01*
X78444286Y-69692670D01*
X78435786Y-69682717D01*
X78426777Y-69673223D01*
X78417283Y-69664214D01*
X78407330Y-69655714D01*
X78396946Y-69647746D01*
X78386160Y-69640332D01*
X78375000Y-69633494D01*
X78363498Y-69627248D01*
X78351684Y-69621614D01*
X78339592Y-69616605D01*
X78327254Y-69612236D01*
X78314705Y-69608519D01*
X78301978Y-69605463D01*
X78289109Y-69603078D01*
X78276132Y-69601370D01*
X78263084Y-69600343D01*
X78250000Y-69600000D01*
X78236916Y-69600343D01*
X78223868Y-69601370D01*
X78210891Y-69603078D01*
X78198022Y-69605463D01*
X78185295Y-69608519D01*
X78172746Y-69612236D01*
X78160408Y-69616605D01*
X78148316Y-69621614D01*
X78136502Y-69627248D01*
X78125000Y-69633494D01*
X78113840Y-69640332D01*
X78103054Y-69647746D01*
X78092670Y-69655714D01*
X78082717Y-69664214D01*
X78073223Y-69673223D01*
X78064214Y-69682717D01*
X78055714Y-69692670D01*
X78047746Y-69703054D01*
X78040332Y-69713840D01*
X78033494Y-69725000D01*
X78027248Y-69736502D01*
X78021614Y-69748316D01*
X78016605Y-69760408D01*
X78012236Y-69772746D01*
X78008519Y-69785295D01*
X78005463Y-69798022D01*
X78003078Y-69810891D01*
X78001370Y-69823868D01*
X78000343Y-69836916D01*
X78000000Y-69850000D01*
X78000000Y-70200000D01*
X77700000Y-70200000D01*
X77700000Y-69850000D01*
X77700754Y-69821215D01*
X77703013Y-69792509D01*
X77706771Y-69763961D01*
X77712019Y-69735649D01*
X77718741Y-69707650D01*
X77726919Y-69680041D01*
X77736531Y-69652898D01*
X77747550Y-69626295D01*
X77759946Y-69600305D01*
X77773686Y-69575000D01*
X77788731Y-69550449D01*
X77805041Y-69526718D01*
X77822570Y-69503874D01*
X77841270Y-69481978D01*
X77861091Y-69461091D01*
X77881978Y-69441270D01*
X77903874Y-69422570D01*
X77926718Y-69405041D01*
X77950449Y-69388731D01*
X77975000Y-69373686D01*
X78000305Y-69359946D01*
X78026295Y-69347550D01*
X78052898Y-69336531D01*
X78080041Y-69326919D01*
X78107650Y-69318741D01*
X78135649Y-69312019D01*
X78163961Y-69306771D01*
X78192509Y-69303013D01*
X78221215Y-69300754D01*
X78250000Y-69300000D01*
X78278785Y-69300754D01*
G37*
X80428785Y-66300754D02*
X80457491Y-66303013D01*
X80486039Y-66306771D01*
X80514351Y-66312019D01*
X80542350Y-66318741D01*
X80569959Y-66326919D01*
X80597102Y-66336531D01*
X80623705Y-66347550D01*
X80649695Y-66359946D01*
X80675000Y-66373686D01*
X80699551Y-66388731D01*
X80723282Y-66405041D01*
X80746126Y-66422570D01*
X80768022Y-66441270D01*
X80788909Y-66461091D01*
X80808730Y-66481978D01*
X80827430Y-66503874D01*
X80844959Y-66526718D01*
X80861269Y-66550449D01*
X80876314Y-66575000D01*
X80890054Y-66600305D01*
X80902450Y-66626295D01*
X80913469Y-66652898D01*
X80923081Y-66680041D01*
X80931259Y-66707650D01*
X80937981Y-66735649D01*
X80943229Y-66763961D01*
X80946987Y-66792509D01*
X80949246Y-66821215D01*
X80950000Y-66850000D01*
X80950000Y-67950000D01*
X80949246Y-67978785D01*
X80946987Y-68007491D01*
X80943229Y-68036039D01*
X80937981Y-68064351D01*
X80931259Y-68092350D01*
X80923081Y-68119959D01*
X80913469Y-68147102D01*
X80902450Y-68173705D01*
X80890054Y-68199695D01*
X80876314Y-68225000D01*
X80861269Y-68249551D01*
X80844959Y-68273282D01*
X80827430Y-68296126D01*
X80808730Y-68318022D01*
X80788909Y-68338909D01*
X80768022Y-68358730D01*
X80746126Y-68377430D01*
X80723282Y-68394959D01*
X80699551Y-68411269D01*
X80675000Y-68426314D01*
X80649695Y-68440054D01*
X80623705Y-68452450D01*
X80597102Y-68463469D01*
X80569959Y-68473081D01*
X80542350Y-68481259D01*
X80514351Y-68487981D01*
X80486039Y-68493229D01*
X80457491Y-68496987D01*
X80428785Y-68499246D01*
X80400000Y-68500000D01*
X80371215Y-68499246D01*
X80342509Y-68496987D01*
X80313961Y-68493229D01*
X80285649Y-68487981D01*
X80257650Y-68481259D01*
X80230041Y-68473081D01*
X80202898Y-68463469D01*
X80176295Y-68452450D01*
X80150305Y-68440054D01*
X80125000Y-68426314D01*
X80100449Y-68411269D01*
X80076718Y-68394959D01*
X80053874Y-68377430D01*
X80031978Y-68358730D01*
X80011091Y-68338909D01*
X79991270Y-68318022D01*
X79972570Y-68296126D01*
X79955041Y-68273282D01*
X79938731Y-68249551D01*
X79923686Y-68225000D01*
X79909946Y-68199695D01*
X79897550Y-68173705D01*
X79886531Y-68147102D01*
X79876919Y-68119959D01*
X79868741Y-68092350D01*
X79862019Y-68064351D01*
X79856771Y-68036039D01*
X79853013Y-68007491D01*
X79850754Y-67978785D01*
X79850000Y-67950000D01*
X79850000Y-67400000D01*
X80150000Y-67400000D01*
X80150000Y-67950000D01*
X80150343Y-67963084D01*
X80151370Y-67976132D01*
X80153078Y-67989109D01*
X80155463Y-68001978D01*
X80158519Y-68014705D01*
X80162236Y-68027254D01*
X80166605Y-68039592D01*
X80171614Y-68051684D01*
X80177248Y-68063498D01*
X80183494Y-68075000D01*
X80190332Y-68086160D01*
X80197746Y-68096946D01*
X80205714Y-68107330D01*
X80214214Y-68117283D01*
X80223223Y-68126777D01*
X80232717Y-68135786D01*
X80242670Y-68144286D01*
X80253054Y-68152254D01*
X80263840Y-68159668D01*
X80275000Y-68166506D01*
X80286502Y-68172752D01*
X80298316Y-68178386D01*
X80310408Y-68183395D01*
X80322746Y-68187764D01*
X80335295Y-68191481D01*
X80348022Y-68194537D01*
X80360891Y-68196922D01*
X80373868Y-68198630D01*
X80386916Y-68199657D01*
X80400000Y-68200000D01*
X80413084Y-68199657D01*
X80426132Y-68198630D01*
X80439109Y-68196922D01*
X80451978Y-68194537D01*
X80464705Y-68191481D01*
X80477254Y-68187764D01*
X80489592Y-68183395D01*
X80501684Y-68178386D01*
X80513498Y-68172752D01*
X80525000Y-68166506D01*
X80536160Y-68159668D01*
X80546946Y-68152254D01*
X80557330Y-68144286D01*
X80567283Y-68135786D01*
X80576777Y-68126777D01*
X80585786Y-68117283D01*
X80594286Y-68107330D01*
X80602254Y-68096946D01*
X80609668Y-68086160D01*
X80616506Y-68075000D01*
X80622752Y-68063498D01*
X80628386Y-68051684D01*
X80633395Y-68039592D01*
X80637764Y-68027254D01*
X80641481Y-68014705D01*
X80644537Y-68001978D01*
X80646922Y-67989109D01*
X80648630Y-67976132D01*
X80649657Y-67963084D01*
X80650000Y-67950000D01*
X80650000Y-66850000D01*
X80649657Y-66836916D01*
X80648630Y-66823868D01*
X80646922Y-66810891D01*
X80644537Y-66798022D01*
X80641481Y-66785295D01*
X80637764Y-66772746D01*
X80633395Y-66760408D01*
X80628386Y-66748316D01*
X80622752Y-66736502D01*
X80616506Y-66725000D01*
X80609668Y-66713840D01*
X80602254Y-66703054D01*
X80594286Y-66692670D01*
X80585786Y-66682717D01*
X80576777Y-66673223D01*
X80567283Y-66664214D01*
X80557330Y-66655714D01*
X80546946Y-66647746D01*
X80536160Y-66640332D01*
X80525000Y-66633494D01*
X80513498Y-66627248D01*
X80501684Y-66621614D01*
X80489592Y-66616605D01*
X80477254Y-66612236D01*
X80464705Y-66608519D01*
X80451978Y-66605463D01*
X80439109Y-66603078D01*
X80426132Y-66601370D01*
X80413084Y-66600343D01*
X80400000Y-66600000D01*
X80386916Y-66600343D01*
X80373868Y-66601370D01*
X80360891Y-66603078D01*
X80348022Y-66605463D01*
X80335295Y-66608519D01*
X80322746Y-66612236D01*
X80310408Y-66616605D01*
X80298316Y-66621614D01*
X80286502Y-66627248D01*
X80275000Y-66633494D01*
X80263840Y-66640332D01*
X80253054Y-66647746D01*
X80242670Y-66655714D01*
X80232717Y-66664214D01*
X80223223Y-66673223D01*
X80214214Y-66682717D01*
X80205714Y-66692670D01*
X80197746Y-66703054D01*
X80190332Y-66713840D01*
X80183494Y-66725000D01*
X80177248Y-66736502D01*
X80171614Y-66748316D01*
X80166605Y-66760408D01*
X80162236Y-66772746D01*
X80158519Y-66785295D01*
X80155463Y-66798022D01*
X80153078Y-66810891D01*
X80151370Y-66823868D01*
X80150343Y-66836916D01*
X80150000Y-66850000D01*
X80150000Y-67400000D01*
X79850000Y-67400000D01*
X79850000Y-66850000D01*
X79850754Y-66821215D01*
X79853013Y-66792509D01*
X79856771Y-66763961D01*
X79862019Y-66735649D01*
X79868741Y-66707650D01*
X79876919Y-66680041D01*
X79886531Y-66652898D01*
X79897550Y-66626295D01*
X79909946Y-66600305D01*
X79923686Y-66575000D01*
X79938731Y-66550449D01*
X79955041Y-66526718D01*
X79972570Y-66503874D01*
X79991270Y-66481978D01*
X80011091Y-66461091D01*
X80031978Y-66441270D01*
X80053874Y-66422570D01*
X80076718Y-66405041D01*
X80100449Y-66388731D01*
X80125000Y-66373686D01*
X80150305Y-66359946D01*
X80176295Y-66347550D01*
X80202898Y-66336531D01*
X80230041Y-66326919D01*
X80257650Y-66318741D01*
X80285649Y-66312019D01*
X80313961Y-66306771D01*
X80342509Y-66303013D01*
X80371215Y-66300754D01*
X80400000Y-66300000D01*
X80428785Y-66300754D01*
G36*
X80428785Y-66300754D02*
G01*
X80457491Y-66303013D01*
X80486039Y-66306771D01*
X80514351Y-66312019D01*
X80542350Y-66318741D01*
X80569959Y-66326919D01*
X80597102Y-66336531D01*
X80623705Y-66347550D01*
X80649695Y-66359946D01*
X80675000Y-66373686D01*
X80699551Y-66388731D01*
X80723282Y-66405041D01*
X80746126Y-66422570D01*
X80768022Y-66441270D01*
X80788909Y-66461091D01*
X80808730Y-66481978D01*
X80827430Y-66503874D01*
X80844959Y-66526718D01*
X80861269Y-66550449D01*
X80876314Y-66575000D01*
X80890054Y-66600305D01*
X80902450Y-66626295D01*
X80913469Y-66652898D01*
X80923081Y-66680041D01*
X80931259Y-66707650D01*
X80937981Y-66735649D01*
X80943229Y-66763961D01*
X80946987Y-66792509D01*
X80949246Y-66821215D01*
X80950000Y-66850000D01*
X80950000Y-67950000D01*
X80949246Y-67978785D01*
X80946987Y-68007491D01*
X80943229Y-68036039D01*
X80937981Y-68064351D01*
X80931259Y-68092350D01*
X80923081Y-68119959D01*
X80913469Y-68147102D01*
X80902450Y-68173705D01*
X80890054Y-68199695D01*
X80876314Y-68225000D01*
X80861269Y-68249551D01*
X80844959Y-68273282D01*
X80827430Y-68296126D01*
X80808730Y-68318022D01*
X80788909Y-68338909D01*
X80768022Y-68358730D01*
X80746126Y-68377430D01*
X80723282Y-68394959D01*
X80699551Y-68411269D01*
X80675000Y-68426314D01*
X80649695Y-68440054D01*
X80623705Y-68452450D01*
X80597102Y-68463469D01*
X80569959Y-68473081D01*
X80542350Y-68481259D01*
X80514351Y-68487981D01*
X80486039Y-68493229D01*
X80457491Y-68496987D01*
X80428785Y-68499246D01*
X80400000Y-68500000D01*
X80371215Y-68499246D01*
X80342509Y-68496987D01*
X80313961Y-68493229D01*
X80285649Y-68487981D01*
X80257650Y-68481259D01*
X80230041Y-68473081D01*
X80202898Y-68463469D01*
X80176295Y-68452450D01*
X80150305Y-68440054D01*
X80125000Y-68426314D01*
X80100449Y-68411269D01*
X80076718Y-68394959D01*
X80053874Y-68377430D01*
X80031978Y-68358730D01*
X80011091Y-68338909D01*
X79991270Y-68318022D01*
X79972570Y-68296126D01*
X79955041Y-68273282D01*
X79938731Y-68249551D01*
X79923686Y-68225000D01*
X79909946Y-68199695D01*
X79897550Y-68173705D01*
X79886531Y-68147102D01*
X79876919Y-68119959D01*
X79868741Y-68092350D01*
X79862019Y-68064351D01*
X79856771Y-68036039D01*
X79853013Y-68007491D01*
X79850754Y-67978785D01*
X79850000Y-67950000D01*
X79850000Y-67400000D01*
X80150000Y-67400000D01*
X80150000Y-67950000D01*
X80150343Y-67963084D01*
X80151370Y-67976132D01*
X80153078Y-67989109D01*
X80155463Y-68001978D01*
X80158519Y-68014705D01*
X80162236Y-68027254D01*
X80166605Y-68039592D01*
X80171614Y-68051684D01*
X80177248Y-68063498D01*
X80183494Y-68075000D01*
X80190332Y-68086160D01*
X80197746Y-68096946D01*
X80205714Y-68107330D01*
X80214214Y-68117283D01*
X80223223Y-68126777D01*
X80232717Y-68135786D01*
X80242670Y-68144286D01*
X80253054Y-68152254D01*
X80263840Y-68159668D01*
X80275000Y-68166506D01*
X80286502Y-68172752D01*
X80298316Y-68178386D01*
X80310408Y-68183395D01*
X80322746Y-68187764D01*
X80335295Y-68191481D01*
X80348022Y-68194537D01*
X80360891Y-68196922D01*
X80373868Y-68198630D01*
X80386916Y-68199657D01*
X80400000Y-68200000D01*
X80413084Y-68199657D01*
X80426132Y-68198630D01*
X80439109Y-68196922D01*
X80451978Y-68194537D01*
X80464705Y-68191481D01*
X80477254Y-68187764D01*
X80489592Y-68183395D01*
X80501684Y-68178386D01*
X80513498Y-68172752D01*
X80525000Y-68166506D01*
X80536160Y-68159668D01*
X80546946Y-68152254D01*
X80557330Y-68144286D01*
X80567283Y-68135786D01*
X80576777Y-68126777D01*
X80585786Y-68117283D01*
X80594286Y-68107330D01*
X80602254Y-68096946D01*
X80609668Y-68086160D01*
X80616506Y-68075000D01*
X80622752Y-68063498D01*
X80628386Y-68051684D01*
X80633395Y-68039592D01*
X80637764Y-68027254D01*
X80641481Y-68014705D01*
X80644537Y-68001978D01*
X80646922Y-67989109D01*
X80648630Y-67976132D01*
X80649657Y-67963084D01*
X80650000Y-67950000D01*
X80650000Y-66850000D01*
X80649657Y-66836916D01*
X80648630Y-66823868D01*
X80646922Y-66810891D01*
X80644537Y-66798022D01*
X80641481Y-66785295D01*
X80637764Y-66772746D01*
X80633395Y-66760408D01*
X80628386Y-66748316D01*
X80622752Y-66736502D01*
X80616506Y-66725000D01*
X80609668Y-66713840D01*
X80602254Y-66703054D01*
X80594286Y-66692670D01*
X80585786Y-66682717D01*
X80576777Y-66673223D01*
X80567283Y-66664214D01*
X80557330Y-66655714D01*
X80546946Y-66647746D01*
X80536160Y-66640332D01*
X80525000Y-66633494D01*
X80513498Y-66627248D01*
X80501684Y-66621614D01*
X80489592Y-66616605D01*
X80477254Y-66612236D01*
X80464705Y-66608519D01*
X80451978Y-66605463D01*
X80439109Y-66603078D01*
X80426132Y-66601370D01*
X80413084Y-66600343D01*
X80400000Y-66600000D01*
X80386916Y-66600343D01*
X80373868Y-66601370D01*
X80360891Y-66603078D01*
X80348022Y-66605463D01*
X80335295Y-66608519D01*
X80322746Y-66612236D01*
X80310408Y-66616605D01*
X80298316Y-66621614D01*
X80286502Y-66627248D01*
X80275000Y-66633494D01*
X80263840Y-66640332D01*
X80253054Y-66647746D01*
X80242670Y-66655714D01*
X80232717Y-66664214D01*
X80223223Y-66673223D01*
X80214214Y-66682717D01*
X80205714Y-66692670D01*
X80197746Y-66703054D01*
X80190332Y-66713840D01*
X80183494Y-66725000D01*
X80177248Y-66736502D01*
X80171614Y-66748316D01*
X80166605Y-66760408D01*
X80162236Y-66772746D01*
X80158519Y-66785295D01*
X80155463Y-66798022D01*
X80153078Y-66810891D01*
X80151370Y-66823868D01*
X80150343Y-66836916D01*
X80150000Y-66850000D01*
X80150000Y-67400000D01*
X79850000Y-67400000D01*
X79850000Y-66850000D01*
X79850754Y-66821215D01*
X79853013Y-66792509D01*
X79856771Y-66763961D01*
X79862019Y-66735649D01*
X79868741Y-66707650D01*
X79876919Y-66680041D01*
X79886531Y-66652898D01*
X79897550Y-66626295D01*
X79909946Y-66600305D01*
X79923686Y-66575000D01*
X79938731Y-66550449D01*
X79955041Y-66526718D01*
X79972570Y-66503874D01*
X79991270Y-66481978D01*
X80011091Y-66461091D01*
X80031978Y-66441270D01*
X80053874Y-66422570D01*
X80076718Y-66405041D01*
X80100449Y-66388731D01*
X80125000Y-66373686D01*
X80150305Y-66359946D01*
X80176295Y-66347550D01*
X80202898Y-66336531D01*
X80230041Y-66326919D01*
X80257650Y-66318741D01*
X80285649Y-66312019D01*
X80313961Y-66306771D01*
X80342509Y-66303013D01*
X80371215Y-66300754D01*
X80400000Y-66300000D01*
X80428785Y-66300754D01*
G37*
X78279990Y-63701335D02*
X78308696Y-63703594D01*
X78337244Y-63707352D01*
X78365556Y-63712600D01*
X78393555Y-63719322D01*
X78421164Y-63727500D01*
X78448307Y-63737112D01*
X78474910Y-63748131D01*
X78500900Y-63760527D01*
X78526205Y-63774267D01*
X78550756Y-63789312D01*
X78574487Y-63805622D01*
X78597331Y-63823151D01*
X78619227Y-63841851D01*
X78640114Y-63861672D01*
X78659935Y-63882559D01*
X78678635Y-63904455D01*
X78696164Y-63927299D01*
X78712474Y-63951030D01*
X78727519Y-63975581D01*
X78741259Y-64000886D01*
X78753655Y-64026876D01*
X78764674Y-64053479D01*
X78774286Y-64080622D01*
X78782464Y-64108231D01*
X78789186Y-64136230D01*
X78794434Y-64164542D01*
X78798192Y-64193090D01*
X78800451Y-64221796D01*
X78801205Y-64250581D01*
X78801205Y-64950581D01*
X78800451Y-64979366D01*
X78798192Y-65008072D01*
X78794434Y-65036620D01*
X78789186Y-65064932D01*
X78782464Y-65092931D01*
X78774286Y-65120540D01*
X78764674Y-65147683D01*
X78753655Y-65174286D01*
X78741259Y-65200276D01*
X78727519Y-65225581D01*
X78712474Y-65250132D01*
X78696164Y-65273863D01*
X78678635Y-65296707D01*
X78659935Y-65318603D01*
X78640114Y-65339490D01*
X78619227Y-65359311D01*
X78597331Y-65378011D01*
X78574487Y-65395540D01*
X78550756Y-65411850D01*
X78526205Y-65426895D01*
X78500900Y-65440635D01*
X78474910Y-65453031D01*
X78448307Y-65464050D01*
X78421164Y-65473662D01*
X78393555Y-65481840D01*
X78365556Y-65488562D01*
X78337244Y-65493810D01*
X78308696Y-65497568D01*
X78279990Y-65499827D01*
X78251205Y-65500581D01*
X78222420Y-65499827D01*
X78193714Y-65497568D01*
X78165166Y-65493810D01*
X78136854Y-65488562D01*
X78108855Y-65481840D01*
X78081246Y-65473662D01*
X78054103Y-65464050D01*
X78027500Y-65453031D01*
X78001510Y-65440635D01*
X77976205Y-65426895D01*
X77951654Y-65411850D01*
X77927923Y-65395540D01*
X77905079Y-65378011D01*
X77883183Y-65359311D01*
X77862296Y-65339490D01*
X77842475Y-65318603D01*
X77823775Y-65296707D01*
X77806246Y-65273863D01*
X77789936Y-65250132D01*
X77774891Y-65225581D01*
X77761151Y-65200276D01*
X77748755Y-65174286D01*
X77737736Y-65147683D01*
X77728124Y-65120540D01*
X77719946Y-65092931D01*
X77713224Y-65064932D01*
X77707976Y-65036620D01*
X77704218Y-65008072D01*
X77701959Y-64979366D01*
X77701205Y-64950581D01*
X77701205Y-64600581D01*
X78001205Y-64600581D01*
X78001205Y-64950581D01*
X78001548Y-64963665D01*
X78002575Y-64976713D01*
X78004283Y-64989690D01*
X78006668Y-65002559D01*
X78009724Y-65015286D01*
X78013441Y-65027835D01*
X78017810Y-65040173D01*
X78022819Y-65052265D01*
X78028453Y-65064079D01*
X78034699Y-65075581D01*
X78041537Y-65086741D01*
X78048951Y-65097527D01*
X78056919Y-65107911D01*
X78065419Y-65117864D01*
X78074428Y-65127358D01*
X78083922Y-65136367D01*
X78093875Y-65144867D01*
X78104259Y-65152835D01*
X78115045Y-65160249D01*
X78126205Y-65167087D01*
X78137707Y-65173333D01*
X78149521Y-65178967D01*
X78161613Y-65183976D01*
X78173951Y-65188345D01*
X78186500Y-65192062D01*
X78199227Y-65195118D01*
X78212096Y-65197503D01*
X78225073Y-65199211D01*
X78238121Y-65200238D01*
X78251205Y-65200581D01*
X78264289Y-65200238D01*
X78277337Y-65199211D01*
X78290314Y-65197503D01*
X78303183Y-65195118D01*
X78315910Y-65192062D01*
X78328459Y-65188345D01*
X78340797Y-65183976D01*
X78352889Y-65178967D01*
X78364703Y-65173333D01*
X78376205Y-65167087D01*
X78387365Y-65160249D01*
X78398151Y-65152835D01*
X78408535Y-65144867D01*
X78418488Y-65136367D01*
X78427982Y-65127358D01*
X78436991Y-65117864D01*
X78445491Y-65107911D01*
X78453459Y-65097527D01*
X78460873Y-65086741D01*
X78467711Y-65075581D01*
X78473957Y-65064079D01*
X78479591Y-65052265D01*
X78484600Y-65040173D01*
X78488969Y-65027835D01*
X78492686Y-65015286D01*
X78495742Y-65002559D01*
X78498127Y-64989690D01*
X78499835Y-64976713D01*
X78500862Y-64963665D01*
X78501205Y-64950581D01*
X78501205Y-64250581D01*
X78500862Y-64237497D01*
X78499835Y-64224449D01*
X78498127Y-64211472D01*
X78495742Y-64198603D01*
X78492686Y-64185876D01*
X78488969Y-64173327D01*
X78484600Y-64160989D01*
X78479591Y-64148897D01*
X78473957Y-64137083D01*
X78467711Y-64125581D01*
X78460873Y-64114421D01*
X78453459Y-64103635D01*
X78445491Y-64093251D01*
X78436991Y-64083298D01*
X78427982Y-64073804D01*
X78418488Y-64064795D01*
X78408535Y-64056295D01*
X78398151Y-64048327D01*
X78387365Y-64040913D01*
X78376205Y-64034075D01*
X78364703Y-64027829D01*
X78352889Y-64022195D01*
X78340797Y-64017186D01*
X78328459Y-64012817D01*
X78315910Y-64009100D01*
X78303183Y-64006044D01*
X78290314Y-64003659D01*
X78277337Y-64001951D01*
X78264289Y-64000924D01*
X78251205Y-64000581D01*
X78238121Y-64000924D01*
X78225073Y-64001951D01*
X78212096Y-64003659D01*
X78199227Y-64006044D01*
X78186500Y-64009100D01*
X78173951Y-64012817D01*
X78161613Y-64017186D01*
X78149521Y-64022195D01*
X78137707Y-64027829D01*
X78126205Y-64034075D01*
X78115045Y-64040913D01*
X78104259Y-64048327D01*
X78093875Y-64056295D01*
X78083922Y-64064795D01*
X78074428Y-64073804D01*
X78065419Y-64083298D01*
X78056919Y-64093251D01*
X78048951Y-64103635D01*
X78041537Y-64114421D01*
X78034699Y-64125581D01*
X78028453Y-64137083D01*
X78022819Y-64148897D01*
X78017810Y-64160989D01*
X78013441Y-64173327D01*
X78009724Y-64185876D01*
X78006668Y-64198603D01*
X78004283Y-64211472D01*
X78002575Y-64224449D01*
X78001548Y-64237497D01*
X78001205Y-64250581D01*
X78001205Y-64600581D01*
X77701205Y-64600581D01*
X77701205Y-64250581D01*
X77701959Y-64221796D01*
X77704218Y-64193090D01*
X77707976Y-64164542D01*
X77713224Y-64136230D01*
X77719946Y-64108231D01*
X77728124Y-64080622D01*
X77737736Y-64053479D01*
X77748755Y-64026876D01*
X77761151Y-64000886D01*
X77774891Y-63975581D01*
X77789936Y-63951030D01*
X77806246Y-63927299D01*
X77823775Y-63904455D01*
X77842475Y-63882559D01*
X77862296Y-63861672D01*
X77883183Y-63841851D01*
X77905079Y-63823151D01*
X77927923Y-63805622D01*
X77951654Y-63789312D01*
X77976205Y-63774267D01*
X78001510Y-63760527D01*
X78027500Y-63748131D01*
X78054103Y-63737112D01*
X78081246Y-63727500D01*
X78108855Y-63719322D01*
X78136854Y-63712600D01*
X78165166Y-63707352D01*
X78193714Y-63703594D01*
X78222420Y-63701335D01*
X78251205Y-63700581D01*
X78279990Y-63701335D01*
G36*
X78279990Y-63701335D02*
G01*
X78308696Y-63703594D01*
X78337244Y-63707352D01*
X78365556Y-63712600D01*
X78393555Y-63719322D01*
X78421164Y-63727500D01*
X78448307Y-63737112D01*
X78474910Y-63748131D01*
X78500900Y-63760527D01*
X78526205Y-63774267D01*
X78550756Y-63789312D01*
X78574487Y-63805622D01*
X78597331Y-63823151D01*
X78619227Y-63841851D01*
X78640114Y-63861672D01*
X78659935Y-63882559D01*
X78678635Y-63904455D01*
X78696164Y-63927299D01*
X78712474Y-63951030D01*
X78727519Y-63975581D01*
X78741259Y-64000886D01*
X78753655Y-64026876D01*
X78764674Y-64053479D01*
X78774286Y-64080622D01*
X78782464Y-64108231D01*
X78789186Y-64136230D01*
X78794434Y-64164542D01*
X78798192Y-64193090D01*
X78800451Y-64221796D01*
X78801205Y-64250581D01*
X78801205Y-64950581D01*
X78800451Y-64979366D01*
X78798192Y-65008072D01*
X78794434Y-65036620D01*
X78789186Y-65064932D01*
X78782464Y-65092931D01*
X78774286Y-65120540D01*
X78764674Y-65147683D01*
X78753655Y-65174286D01*
X78741259Y-65200276D01*
X78727519Y-65225581D01*
X78712474Y-65250132D01*
X78696164Y-65273863D01*
X78678635Y-65296707D01*
X78659935Y-65318603D01*
X78640114Y-65339490D01*
X78619227Y-65359311D01*
X78597331Y-65378011D01*
X78574487Y-65395540D01*
X78550756Y-65411850D01*
X78526205Y-65426895D01*
X78500900Y-65440635D01*
X78474910Y-65453031D01*
X78448307Y-65464050D01*
X78421164Y-65473662D01*
X78393555Y-65481840D01*
X78365556Y-65488562D01*
X78337244Y-65493810D01*
X78308696Y-65497568D01*
X78279990Y-65499827D01*
X78251205Y-65500581D01*
X78222420Y-65499827D01*
X78193714Y-65497568D01*
X78165166Y-65493810D01*
X78136854Y-65488562D01*
X78108855Y-65481840D01*
X78081246Y-65473662D01*
X78054103Y-65464050D01*
X78027500Y-65453031D01*
X78001510Y-65440635D01*
X77976205Y-65426895D01*
X77951654Y-65411850D01*
X77927923Y-65395540D01*
X77905079Y-65378011D01*
X77883183Y-65359311D01*
X77862296Y-65339490D01*
X77842475Y-65318603D01*
X77823775Y-65296707D01*
X77806246Y-65273863D01*
X77789936Y-65250132D01*
X77774891Y-65225581D01*
X77761151Y-65200276D01*
X77748755Y-65174286D01*
X77737736Y-65147683D01*
X77728124Y-65120540D01*
X77719946Y-65092931D01*
X77713224Y-65064932D01*
X77707976Y-65036620D01*
X77704218Y-65008072D01*
X77701959Y-64979366D01*
X77701205Y-64950581D01*
X77701205Y-64600581D01*
X78001205Y-64600581D01*
X78001205Y-64950581D01*
X78001548Y-64963665D01*
X78002575Y-64976713D01*
X78004283Y-64989690D01*
X78006668Y-65002559D01*
X78009724Y-65015286D01*
X78013441Y-65027835D01*
X78017810Y-65040173D01*
X78022819Y-65052265D01*
X78028453Y-65064079D01*
X78034699Y-65075581D01*
X78041537Y-65086741D01*
X78048951Y-65097527D01*
X78056919Y-65107911D01*
X78065419Y-65117864D01*
X78074428Y-65127358D01*
X78083922Y-65136367D01*
X78093875Y-65144867D01*
X78104259Y-65152835D01*
X78115045Y-65160249D01*
X78126205Y-65167087D01*
X78137707Y-65173333D01*
X78149521Y-65178967D01*
X78161613Y-65183976D01*
X78173951Y-65188345D01*
X78186500Y-65192062D01*
X78199227Y-65195118D01*
X78212096Y-65197503D01*
X78225073Y-65199211D01*
X78238121Y-65200238D01*
X78251205Y-65200581D01*
X78264289Y-65200238D01*
X78277337Y-65199211D01*
X78290314Y-65197503D01*
X78303183Y-65195118D01*
X78315910Y-65192062D01*
X78328459Y-65188345D01*
X78340797Y-65183976D01*
X78352889Y-65178967D01*
X78364703Y-65173333D01*
X78376205Y-65167087D01*
X78387365Y-65160249D01*
X78398151Y-65152835D01*
X78408535Y-65144867D01*
X78418488Y-65136367D01*
X78427982Y-65127358D01*
X78436991Y-65117864D01*
X78445491Y-65107911D01*
X78453459Y-65097527D01*
X78460873Y-65086741D01*
X78467711Y-65075581D01*
X78473957Y-65064079D01*
X78479591Y-65052265D01*
X78484600Y-65040173D01*
X78488969Y-65027835D01*
X78492686Y-65015286D01*
X78495742Y-65002559D01*
X78498127Y-64989690D01*
X78499835Y-64976713D01*
X78500862Y-64963665D01*
X78501205Y-64950581D01*
X78501205Y-64250581D01*
X78500862Y-64237497D01*
X78499835Y-64224449D01*
X78498127Y-64211472D01*
X78495742Y-64198603D01*
X78492686Y-64185876D01*
X78488969Y-64173327D01*
X78484600Y-64160989D01*
X78479591Y-64148897D01*
X78473957Y-64137083D01*
X78467711Y-64125581D01*
X78460873Y-64114421D01*
X78453459Y-64103635D01*
X78445491Y-64093251D01*
X78436991Y-64083298D01*
X78427982Y-64073804D01*
X78418488Y-64064795D01*
X78408535Y-64056295D01*
X78398151Y-64048327D01*
X78387365Y-64040913D01*
X78376205Y-64034075D01*
X78364703Y-64027829D01*
X78352889Y-64022195D01*
X78340797Y-64017186D01*
X78328459Y-64012817D01*
X78315910Y-64009100D01*
X78303183Y-64006044D01*
X78290314Y-64003659D01*
X78277337Y-64001951D01*
X78264289Y-64000924D01*
X78251205Y-64000581D01*
X78238121Y-64000924D01*
X78225073Y-64001951D01*
X78212096Y-64003659D01*
X78199227Y-64006044D01*
X78186500Y-64009100D01*
X78173951Y-64012817D01*
X78161613Y-64017186D01*
X78149521Y-64022195D01*
X78137707Y-64027829D01*
X78126205Y-64034075D01*
X78115045Y-64040913D01*
X78104259Y-64048327D01*
X78093875Y-64056295D01*
X78083922Y-64064795D01*
X78074428Y-64073804D01*
X78065419Y-64083298D01*
X78056919Y-64093251D01*
X78048951Y-64103635D01*
X78041537Y-64114421D01*
X78034699Y-64125581D01*
X78028453Y-64137083D01*
X78022819Y-64148897D01*
X78017810Y-64160989D01*
X78013441Y-64173327D01*
X78009724Y-64185876D01*
X78006668Y-64198603D01*
X78004283Y-64211472D01*
X78002575Y-64224449D01*
X78001548Y-64237497D01*
X78001205Y-64250581D01*
X78001205Y-64600581D01*
X77701205Y-64600581D01*
X77701205Y-64250581D01*
X77701959Y-64221796D01*
X77704218Y-64193090D01*
X77707976Y-64164542D01*
X77713224Y-64136230D01*
X77719946Y-64108231D01*
X77728124Y-64080622D01*
X77737736Y-64053479D01*
X77748755Y-64026876D01*
X77761151Y-64000886D01*
X77774891Y-63975581D01*
X77789936Y-63951030D01*
X77806246Y-63927299D01*
X77823775Y-63904455D01*
X77842475Y-63882559D01*
X77862296Y-63861672D01*
X77883183Y-63841851D01*
X77905079Y-63823151D01*
X77927923Y-63805622D01*
X77951654Y-63789312D01*
X77976205Y-63774267D01*
X78001510Y-63760527D01*
X78027500Y-63748131D01*
X78054103Y-63737112D01*
X78081246Y-63727500D01*
X78108855Y-63719322D01*
X78136854Y-63712600D01*
X78165166Y-63707352D01*
X78193714Y-63703594D01*
X78222420Y-63701335D01*
X78251205Y-63700581D01*
X78279990Y-63701335D01*
G37*
G04 #@! TO.C,J3*
D11*
X86488016Y-79756000D02*
X83058030Y-79756000D01*
X83058030Y-78486000D01*
X86488016Y-78486000D01*
X86488016Y-79756000D01*
G36*
X86488016Y-79756000D02*
G01*
X83058030Y-79756000D01*
X83058030Y-78486000D01*
X86488016Y-78486000D01*
X86488016Y-79756000D01*
G37*
X89408000Y-77216000D02*
X85978009Y-77216000D01*
X85978009Y-75946000D01*
X89408000Y-75946000D01*
X89408000Y-77216000D01*
G36*
X89408000Y-77216000D02*
G01*
X85978009Y-77216000D01*
X85978009Y-75946000D01*
X89408000Y-75946000D01*
X89408000Y-77216000D01*
G37*
X86488016Y-74676000D02*
X83058030Y-74676000D01*
X83058030Y-73406000D01*
X86488016Y-73406000D01*
X86488016Y-74676000D01*
G36*
X86488016Y-74676000D02*
G01*
X83058030Y-74676000D01*
X83058030Y-73406000D01*
X86488016Y-73406000D01*
X86488016Y-74676000D01*
G37*
X89408000Y-72136000D02*
X85978009Y-72136000D01*
X85978009Y-70866000D01*
X89408000Y-70866000D01*
X89408000Y-72136000D01*
G36*
X89408000Y-72136000D02*
G01*
X85978009Y-72136000D01*
X85978009Y-70866000D01*
X89408000Y-70866000D01*
X89408000Y-72136000D01*
G37*
G04 #@! TD*
D12*
G04 #@! TO.C,U2*
X86360000Y-92010000D03*
X85090000Y-92010000D03*
X83820000Y-92010000D03*
X86360000Y-93410000D03*
X85090000Y-93410000D03*
X83820000Y-93410000D03*
D13*
X87490000Y-90247500D03*
X87090000Y-90247500D03*
X86690000Y-90247500D03*
X86290000Y-90247500D03*
X85890000Y-90247500D03*
X85490000Y-90247500D03*
X85090000Y-90247500D03*
X84690000Y-90247500D03*
X84290000Y-90247500D03*
X83890000Y-90247500D03*
X83490000Y-90247500D03*
X83090000Y-90247500D03*
X82690000Y-90247500D03*
D14*
X82127500Y-90910000D03*
X82127500Y-91310000D03*
X82127500Y-91710000D03*
X82127500Y-92110000D03*
X82127500Y-92510000D03*
X82127500Y-92910000D03*
X82127500Y-93310000D03*
X82127500Y-93710000D03*
X82127500Y-94110000D03*
X82127500Y-94510000D03*
D13*
X82690000Y-95172500D03*
X83090000Y-95172500D03*
X83490000Y-95172500D03*
X83890000Y-95172500D03*
X84290000Y-95172500D03*
X84690000Y-95172500D03*
X85090000Y-95172500D03*
X85490000Y-95172500D03*
X85890000Y-95172500D03*
X86290000Y-95172500D03*
X86690000Y-95172500D03*
X87090000Y-95172500D03*
X87490000Y-95172500D03*
D14*
X88052500Y-94510000D03*
X88052500Y-94110000D03*
X88052500Y-93710000D03*
X88052500Y-93310000D03*
X88052500Y-92910000D03*
X88052500Y-92510000D03*
X88052500Y-92110000D03*
X88052500Y-91710000D03*
X88052500Y-91310000D03*
X88052500Y-90910000D03*
G04 #@! TD*
D12*
G04 #@! TO.C,U3*
X86233000Y-130343400D03*
X84963000Y-130343400D03*
X83693000Y-130343400D03*
X86233000Y-131743400D03*
X84963000Y-131743400D03*
X83693000Y-131743400D03*
D13*
X87363000Y-128580900D03*
X86963000Y-128580900D03*
X86563000Y-128580900D03*
X86163000Y-128580900D03*
X85763000Y-128580900D03*
X85363000Y-128580900D03*
X84963000Y-128580900D03*
X84563000Y-128580900D03*
X84163000Y-128580900D03*
X83763000Y-128580900D03*
X83363000Y-128580900D03*
X82963000Y-128580900D03*
X82563000Y-128580900D03*
D14*
X82000500Y-129243400D03*
X82000500Y-129643400D03*
X82000500Y-130043400D03*
X82000500Y-130443400D03*
X82000500Y-130843400D03*
X82000500Y-131243400D03*
X82000500Y-131643400D03*
X82000500Y-132043400D03*
X82000500Y-132443400D03*
X82000500Y-132843400D03*
D13*
X82563000Y-133505900D03*
X82963000Y-133505900D03*
X83363000Y-133505900D03*
X83763000Y-133505900D03*
X84163000Y-133505900D03*
X84563000Y-133505900D03*
X84963000Y-133505900D03*
X85363000Y-133505900D03*
X85763000Y-133505900D03*
X86163000Y-133505900D03*
X86563000Y-133505900D03*
X86963000Y-133505900D03*
X87363000Y-133505900D03*
D14*
X87925500Y-132843400D03*
X87925500Y-132443400D03*
X87925500Y-132043400D03*
X87925500Y-131643400D03*
X87925500Y-131243400D03*
X87925500Y-130843400D03*
X87925500Y-130443400D03*
X87925500Y-130043400D03*
X87925500Y-129643400D03*
X87925500Y-129243400D03*
G04 #@! TD*
D12*
G04 #@! TO.C,U4*
X86233000Y-110831000D03*
X84963000Y-110831000D03*
X83693000Y-110831000D03*
X86233000Y-112231000D03*
X84963000Y-112231000D03*
X83693000Y-112231000D03*
D13*
X87363000Y-109068500D03*
X86963000Y-109068500D03*
X86563000Y-109068500D03*
X86163000Y-109068500D03*
X85763000Y-109068500D03*
X85363000Y-109068500D03*
X84963000Y-109068500D03*
X84563000Y-109068500D03*
X84163000Y-109068500D03*
X83763000Y-109068500D03*
X83363000Y-109068500D03*
X82963000Y-109068500D03*
X82563000Y-109068500D03*
D14*
X82000500Y-109731000D03*
X82000500Y-110131000D03*
X82000500Y-110531000D03*
X82000500Y-110931000D03*
X82000500Y-111331000D03*
X82000500Y-111731000D03*
X82000500Y-112131000D03*
X82000500Y-112531000D03*
X82000500Y-112931000D03*
X82000500Y-113331000D03*
D13*
X82563000Y-113993500D03*
X82963000Y-113993500D03*
X83363000Y-113993500D03*
X83763000Y-113993500D03*
X84163000Y-113993500D03*
X84563000Y-113993500D03*
X84963000Y-113993500D03*
X85363000Y-113993500D03*
X85763000Y-113993500D03*
X86163000Y-113993500D03*
X86563000Y-113993500D03*
X86963000Y-113993500D03*
X87363000Y-113993500D03*
D14*
X87925500Y-113331000D03*
X87925500Y-112931000D03*
X87925500Y-112531000D03*
X87925500Y-112131000D03*
X87925500Y-111731000D03*
X87925500Y-111331000D03*
X87925500Y-110931000D03*
X87925500Y-110531000D03*
X87925500Y-110131000D03*
X87925500Y-109731000D03*
G04 #@! TD*
D15*
G04 #@! TO.C,U5*
X68075000Y-44923000D03*
X68075000Y-46193000D03*
X68075000Y-47463000D03*
X69475000Y-44923000D03*
X69475000Y-46193000D03*
X69475000Y-47463000D03*
D16*
X66312500Y-43793000D03*
X66312500Y-44193000D03*
X66312500Y-44593000D03*
X66312500Y-44993000D03*
X66312500Y-45393000D03*
X66312500Y-45793000D03*
X66312500Y-46193000D03*
X66312500Y-46593000D03*
X66312500Y-46993000D03*
X66312500Y-47393000D03*
X66312500Y-47793000D03*
X66312500Y-48193000D03*
X66312500Y-48593000D03*
D17*
X66975000Y-49155500D03*
X67375000Y-49155500D03*
X67775000Y-49155500D03*
X68175000Y-49155500D03*
X68575000Y-49155500D03*
X68975000Y-49155500D03*
X69375000Y-49155500D03*
X69775000Y-49155500D03*
X70175000Y-49155500D03*
X70575000Y-49155500D03*
D16*
X71237500Y-48593000D03*
X71237500Y-48193000D03*
X71237500Y-47793000D03*
X71237500Y-47393000D03*
X71237500Y-46993000D03*
X71237500Y-46593000D03*
X71237500Y-46193000D03*
X71237500Y-45793000D03*
X71237500Y-45393000D03*
X71237500Y-44993000D03*
X71237500Y-44593000D03*
X71237500Y-44193000D03*
X71237500Y-43793000D03*
D17*
X70575000Y-43230500D03*
X70175000Y-43230500D03*
X69775000Y-43230500D03*
X69375000Y-43230500D03*
X68975000Y-43230500D03*
X68575000Y-43230500D03*
X68175000Y-43230500D03*
X67775000Y-43230500D03*
X67375000Y-43230500D03*
X66975000Y-43230500D03*
G04 #@! TD*
D18*
G04 #@! TO.C,U6*
X62298000Y-67354800D03*
X62298000Y-68154800D03*
X62298000Y-68954800D03*
X62298000Y-69754800D03*
X62298000Y-70554800D03*
X62298000Y-71354800D03*
X62298000Y-72154800D03*
X62298000Y-72954800D03*
D19*
X63748000Y-74404800D03*
X64548000Y-74404800D03*
X65348000Y-74404800D03*
X66148000Y-74404800D03*
X66948000Y-74404800D03*
X67748000Y-74404800D03*
X68548000Y-74404800D03*
X69348000Y-74404800D03*
D18*
X70798000Y-72954800D03*
X70798000Y-72154800D03*
X70798000Y-71354800D03*
X70798000Y-70554800D03*
X70798000Y-69754800D03*
X70798000Y-68954800D03*
X70798000Y-68154800D03*
X70798000Y-67354800D03*
D19*
X69348000Y-65904800D03*
X68548000Y-65904800D03*
X67748000Y-65904800D03*
X66948000Y-65904800D03*
X66148000Y-65904800D03*
X65348000Y-65904800D03*
X64548000Y-65904800D03*
X63748000Y-65904800D03*
G04 #@! TD*
D15*
G04 #@! TO.C,U7*
X51075000Y-44917700D03*
X51075000Y-46187700D03*
X51075000Y-47457700D03*
X52475000Y-44917700D03*
X52475000Y-46187700D03*
X52475000Y-47457700D03*
D16*
X49312500Y-43787700D03*
X49312500Y-44187700D03*
X49312500Y-44587700D03*
X49312500Y-44987700D03*
X49312500Y-45387700D03*
X49312500Y-45787700D03*
X49312500Y-46187700D03*
X49312500Y-46587700D03*
X49312500Y-46987700D03*
X49312500Y-47387700D03*
X49312500Y-47787700D03*
X49312500Y-48187700D03*
X49312500Y-48587700D03*
D17*
X49975000Y-49150200D03*
X50375000Y-49150200D03*
X50775000Y-49150200D03*
X51175000Y-49150200D03*
X51575000Y-49150200D03*
X51975000Y-49150200D03*
X52375000Y-49150200D03*
X52775000Y-49150200D03*
X53175000Y-49150200D03*
X53575000Y-49150200D03*
D16*
X54237500Y-48587700D03*
X54237500Y-48187700D03*
X54237500Y-47787700D03*
X54237500Y-47387700D03*
X54237500Y-46987700D03*
X54237500Y-46587700D03*
X54237500Y-46187700D03*
X54237500Y-45787700D03*
X54237500Y-45387700D03*
X54237500Y-44987700D03*
X54237500Y-44587700D03*
X54237500Y-44187700D03*
X54237500Y-43787700D03*
D17*
X53575000Y-43225200D03*
X53175000Y-43225200D03*
X52775000Y-43225200D03*
X52375000Y-43225200D03*
X51975000Y-43225200D03*
X51575000Y-43225200D03*
X51175000Y-43225200D03*
X50775000Y-43225200D03*
X50375000Y-43225200D03*
X49975000Y-43225200D03*
G04 #@! TD*
D20*
G04 #@! TO.C,C1*
X89925000Y-132400000D03*
X91475000Y-132400000D03*
G04 #@! TD*
G04 #@! TO.C,C2*
X70850000Y-37700000D03*
X72400000Y-37700000D03*
G04 #@! TD*
D21*
G04 #@! TO.C,D1*
X76123900Y-82194400D03*
X74548900Y-82194400D03*
G04 #@! TD*
D22*
G04 #@! TO.C,D2*
X63220500Y-79756000D03*
X64795500Y-79756000D03*
G04 #@! TD*
D23*
G04 #@! TO.C,R4*
X72694800Y-80314800D03*
X74344800Y-80314800D03*
G04 #@! TD*
D24*
G04 #@! TO.C,R5*
X66903600Y-77051400D03*
X66903600Y-78701400D03*
G04 #@! TD*
D25*
G04 #@! TO.C,U1*
X74556800Y-78470800D03*
X74556800Y-77520800D03*
X74556800Y-76570800D03*
X72356800Y-76570800D03*
X72356800Y-78470800D03*
G04 #@! TD*
D15*
G04 #@! TO.C,U8*
X84665000Y-44918800D03*
X84665000Y-46188800D03*
X84665000Y-47458800D03*
X86065000Y-44918800D03*
X86065000Y-46188800D03*
X86065000Y-47458800D03*
D16*
X82902500Y-43788800D03*
X82902500Y-44188800D03*
X82902500Y-44588800D03*
X82902500Y-44988800D03*
X82902500Y-45388800D03*
X82902500Y-45788800D03*
X82902500Y-46188800D03*
X82902500Y-46588800D03*
X82902500Y-46988800D03*
X82902500Y-47388800D03*
X82902500Y-47788800D03*
X82902500Y-48188800D03*
X82902500Y-48588800D03*
D17*
X83565000Y-49151300D03*
X83965000Y-49151300D03*
X84365000Y-49151300D03*
X84765000Y-49151300D03*
X85165000Y-49151300D03*
X85565000Y-49151300D03*
X85965000Y-49151300D03*
X86365000Y-49151300D03*
X86765000Y-49151300D03*
X87165000Y-49151300D03*
D16*
X87827500Y-48588800D03*
X87827500Y-48188800D03*
X87827500Y-47788800D03*
X87827500Y-47388800D03*
X87827500Y-46988800D03*
X87827500Y-46588800D03*
X87827500Y-46188800D03*
X87827500Y-45788800D03*
X87827500Y-45388800D03*
X87827500Y-44988800D03*
X87827500Y-44588800D03*
X87827500Y-44188800D03*
X87827500Y-43788800D03*
D17*
X87165000Y-43226300D03*
X86765000Y-43226300D03*
X86365000Y-43226300D03*
X85965000Y-43226300D03*
X85565000Y-43226300D03*
X85165000Y-43226300D03*
X84765000Y-43226300D03*
X84365000Y-43226300D03*
X83965000Y-43226300D03*
X83565000Y-43226300D03*
G04 #@! TD*
D20*
G04 #@! TO.C,C3*
X89925000Y-112800000D03*
X91475000Y-112800000D03*
G04 #@! TD*
G04 #@! TO.C,C4*
X89525000Y-93800000D03*
X91075000Y-93800000D03*
G04 #@! TD*
G04 #@! TO.C,C5*
X65353600Y-62179200D03*
X66903600Y-62179200D03*
G04 #@! TD*
D26*
G04 #@! TO.C,C6*
X53800000Y-39075000D03*
X53800000Y-37525000D03*
G04 #@! TD*
D20*
G04 #@! TO.C,C7*
X86125000Y-37100000D03*
X87675000Y-37100000D03*
G04 #@! TD*
D27*
G04 #@! TO.C,J1*
X78500000Y-68700000D03*
X78500000Y-68050000D03*
X78500000Y-67400000D03*
X78500000Y-66750000D03*
X78500000Y-66100000D03*
G04 #@! TD*
D28*
G04 #@! TO.C,R15*
X91100000Y-91025000D03*
X91100000Y-89375000D03*
G04 #@! TD*
G04 #@! TO.C,R16*
X91000000Y-129225000D03*
X91000000Y-127575000D03*
G04 #@! TD*
G04 #@! TO.C,R17*
X91000000Y-109825000D03*
X91000000Y-108175000D03*
G04 #@! TD*
D29*
G04 #@! TO.C,R18*
X66825000Y-40000000D03*
X65175000Y-40000000D03*
G04 #@! TD*
G04 #@! TO.C,R19*
X50125000Y-40100000D03*
X48475000Y-40100000D03*
G04 #@! TD*
G04 #@! TO.C,R20*
X83125000Y-40200000D03*
X81475000Y-40200000D03*
G04 #@! TD*
D30*
G04 #@! TO.C,SW1*
X68550000Y-54125000D03*
X68550000Y-58225000D03*
X70150000Y-54125000D03*
X70150000Y-58225000D03*
G04 #@! TD*
D31*
G04 #@! TO.C,J2*
X58160000Y-59030000D03*
X58160000Y-54970000D03*
X59430000Y-59030000D03*
D32*
X59430000Y-54970000D03*
D31*
X60700000Y-59030000D03*
X60700000Y-54970000D03*
X61970000Y-59030000D03*
X61970000Y-54970000D03*
X63240000Y-59030000D03*
X63240000Y-54970000D03*
G04 #@! TD*
D33*
G04 #@! TO.C,J3*
X84773010Y-79121000D03*
X87692990Y-76581000D03*
X84773010Y-74041000D03*
X87692990Y-71501000D03*
G04 #@! TD*
D34*
G04 #@! TO.C,D191*
X76984400Y-78943200D03*
X79784400Y-78943200D03*
G04 #@! TD*
G04 #@! TO.C,D192*
X76984400Y-76504800D03*
X79784400Y-76504800D03*
G04 #@! TD*
D20*
G04 #@! TO.C,C8*
X69163600Y-62179200D03*
X70713600Y-62179200D03*
G04 #@! TD*
D26*
G04 #@! TO.C,C9*
X89535000Y-90932000D03*
X89535000Y-89382000D03*
G04 #@! TD*
G04 #@! TO.C,C10*
X89408000Y-129159000D03*
X89408000Y-127609000D03*
G04 #@! TD*
D35*
G04 #@! TO.C,C11*
X66775000Y-41700000D03*
X65225000Y-41700000D03*
G04 #@! TD*
D26*
G04 #@! TO.C,C12*
X89408000Y-109741000D03*
X89408000Y-108191000D03*
G04 #@! TD*
D35*
G04 #@! TO.C,C13*
X50075000Y-41700000D03*
X48525000Y-41700000D03*
G04 #@! TD*
G04 #@! TO.C,C14*
X83075000Y-41800000D03*
X81525000Y-41800000D03*
G04 #@! TD*
G04 #@! TO.C,C15*
X52975000Y-75700000D03*
X51425000Y-75700000D03*
G04 #@! TD*
D24*
G04 #@! TO.C,R7*
X45000000Y-80675000D03*
X45000000Y-82325000D03*
G04 #@! TD*
G04 #@! TO.C,R8*
X46700000Y-80675000D03*
X46700000Y-82325000D03*
G04 #@! TD*
G04 #@! TO.C,R9*
X57700000Y-80675000D03*
X57700000Y-82325000D03*
G04 #@! TD*
G04 #@! TO.C,R10*
X59300000Y-82275000D03*
X59300000Y-83925000D03*
G04 #@! TD*
D36*
G04 #@! TO.C,U9*
X49900000Y-77230000D03*
X49900000Y-78500000D03*
X49900000Y-79770000D03*
X49900000Y-81040000D03*
X49900000Y-82310000D03*
X49900000Y-83580000D03*
X49900000Y-84850000D03*
X54850000Y-84850000D03*
X54850000Y-83580000D03*
X54850000Y-82310000D03*
X54850000Y-81040000D03*
X54850000Y-79770000D03*
X54850000Y-78500000D03*
X54850000Y-77230000D03*
G04 #@! TD*
D24*
G04 #@! TO.C,R13*
X59200000Y-65675000D03*
X59200000Y-67325000D03*
G04 #@! TD*
G04 #@! TO.C,R14*
X59500000Y-73175000D03*
X59500000Y-74825000D03*
G04 #@! TD*
G04 #@! TO.C,R21*
X57800000Y-73175000D03*
X57800000Y-74825000D03*
G04 #@! TD*
D28*
G04 #@! TO.C,R22*
X43300000Y-82325000D03*
X43300000Y-80675000D03*
G04 #@! TD*
G04 #@! TO.C,R23*
X59300000Y-87425000D03*
X59300000Y-85775000D03*
G04 #@! TD*
M02*
