M48
; DRILL file {KiCad (5.1.8)-1} date 07/31/21 20:08:50
; FORMAT={-:-/ absolute / inch / decimal}
; #@! TF.CreationDate,2021-07-31T20:08:50-05:00
; #@! TF.GenerationSoftware,Kicad,Pcbnew,(5.1.8)-1
; #@! TF.FileFunction,Plated,1,4,PTH
FMAT,2
INCH
T1C0.0118
T2C0.0197
%
G90
G05
T1
X1.5166Y-5.0184
X1.5205Y-3.5174
X1.5221Y-1.7921
X1.524Y-4.2764
X1.5305Y-2.923
X1.5311Y-5.0572
X1.579Y-3.7466
X1.5826Y-4.4964
X1.5837Y-2.0243
X1.5995Y-3.4804
X1.6154Y-2.4801
X1.6285Y-2.8558
X1.6404Y-3.6994
X1.6422Y-4.4551
X1.6456Y-1.9025
X1.6651Y-3.928
X1.6682Y-4.1844
X1.6691Y-3.0724
X1.6947Y-2.1283
X1.7022Y-4.6751
X1.7077Y-5.4262
X1.7459Y-2.7209
X1.7545Y-1.6074
X1.7745Y-2.477
X1.784Y-4.3121
X1.7891Y-5.0269
X1.7935Y-3.96
X1.7982Y-4.7109
X1.8154Y-1.7604
X1.8221Y-1.9658
X1.8359Y-1.9062
X1.8516Y-5.2893
X1.8524Y-1.8587
X1.8528Y-1.8291
X1.8529Y-1.796
X1.8583Y-1.7342
X1.8898Y-1.7126
X1.8932Y-5.2523
X1.8978Y-3.1669
X1.9089Y-2.5782
X1.9094Y-5.2095
X1.9252Y-1.9659
X1.931Y-5.0288
X1.9325Y-4.2643
X1.9357Y-1.7011
X1.937Y-2.687
X1.9381Y-3.5332
X1.9417Y-2.925
X1.9661Y-3.4875
X1.9728Y-2.2898
X1.9728Y-2.9251
X1.9803Y-3.7563
X1.9853Y-2.1356
X1.9934Y-3.5035
X1.9962Y-2.6002
X1.9984Y-4.5023
X2.0015Y-2.4604
X2.0054Y-3.7116
X2.011Y-4.238
X2.0191Y-3.2595
X2.0295Y-5.0288
X2.0298Y-3.2292
X2.0316Y-1.5842
X2.0406Y-3.7114
X2.0512Y-1.8504
X2.0596Y-1.6678
X2.0622Y-5.2096
X2.0742Y-1.4054
X2.0935Y-1.6511
X2.0997Y-4.7116
X2.1097Y-4.6033
X2.115Y-2.3782
X2.1491Y-2.4606
X2.1554Y-1.4696
X2.2026Y-4.3027
X2.2065Y-3.9684
X2.22Y-3.1943
X2.243Y-5.0387
X2.2548Y-3.7243
X2.2625Y-5.2771
X2.2681Y-3.8511
X2.2968Y-3.2888
X2.3017Y-3.2062
X2.3307Y-2.5519
X2.3419Y-3.5043
X2.3424Y-4.2623
X2.3731Y-1.9701
X2.3764Y-2.0471
X2.399Y-5.228
X2.4099Y-1.7784
X2.413Y-3.9686
X2.4282Y-1.9693
X2.43Y-3.4091
X2.4508Y-5.217
X2.4579Y-1.903
X2.4775Y-3.7473
X2.498Y-1.8308
X2.4996Y-4.9921
X2.5069Y-4.5015
X2.5091Y-1.9661
X2.5136Y-1.8808
X2.5159Y-3.9138
X2.529Y-1.7987
X2.5372Y-1.902
X2.5372Y-1.9316
X2.5428Y-4.4074
X2.5461Y-3.683
X2.547Y-1.8725
X2.5728Y-2.5446
X2.5957Y-3.282
X2.6058Y-1.7024
X2.6107Y-1.9352
X2.6132Y-3.5204
X2.6135Y-4.4139
X2.6181Y-3.2595
X2.6207Y-4.7722
X2.6403Y-2.5193
X2.6458Y-1.9719
X2.663Y-2.0318
X2.6654Y-1.7598
X2.6851Y-2.0114
X2.6895Y-1.6679
X2.7071Y-2.0483
X2.7201Y-2.081
X2.7225Y-1.6676
X2.723Y-2.4884
X2.7251Y-3.2372
X2.748Y-1.8268
X2.7578Y-1.9918
X2.7622Y-2.3486
X2.7661Y-4.9573
X2.7727Y-4.2696
X2.7771Y-3.4863
X2.781Y-2.577
X2.8022Y-1.935
X2.8037Y-4.4213
X2.8112Y-5.2568
X2.8181Y-2.4884
X2.8253Y-4.5993
X2.8316Y-1.7062
X2.8388Y-1.9139
X2.8418Y-1.7373
X2.8501Y-5.3838
X2.8506Y-3.7106
X2.8625Y-3.8202
X2.8731Y-2.8751
X2.8733Y-1.9367
X2.8784Y-1.6065
X2.8859Y-4.5733
X2.8871Y-1.7815
X2.8958Y-1.713
X2.8984Y-2.6637
X2.9028Y-2.4884
X2.9092Y-4.4802
X2.9156Y-1.7954
X2.9315Y-2.2564
X2.939Y-2.0785
X2.9428Y-5.1267
X2.9472Y-3.7282
X2.9592Y-2.5846
X2.9595Y-1.7401
X2.9654Y-1.8453
X2.9691Y-2.9306
X2.9762Y-4.0019
X2.991Y-3.6946
X2.994Y-1.7396
X2.994Y-2.8885
X2.9957Y-4.56
X2.9971Y-2.0786
X3.009Y-5.3839
X3.0275Y-2.5848
X3.0277Y-3.6325
X3.0296Y-4.3637
X3.0304Y-2.2244
X3.0307Y-5.0747
X3.0474Y-2.8648
X3.0611Y-4.4273
X3.0627Y-5.0122
X3.0687Y-1.9785
X3.0775Y-4.3834
X3.0805Y-4.4703
X3.0819Y-5.14
X3.0821Y-5.0761
X3.0851Y-3.08
X3.0895Y-3.5902
X3.09Y-4.3195
X3.0906Y-1.7946
X3.097Y-4.2012
X3.0971Y-4.758
X3.1011Y-4.448
X3.1054Y-3.6815
X3.1107Y-5.2076
X3.118Y-1.9668
X3.1226Y-4.9292
X3.1227Y-1.8495
X3.1248Y-4.4964
X3.1263Y-5.2645
X3.1304Y-5.3792
X3.132Y-5.2292
X3.1392Y-3.8714
X3.1409Y-5.3133
X3.141Y-3.6658
X3.1415Y-2.4084
X3.1442Y-4.4178
X3.1481Y-3.6954
X3.1512Y-1.8168
X3.1551Y-5.1721
X3.1557Y-1.8877
X3.1562Y-3.4067
X3.1694Y-4.2828
X3.1699Y-5.3701
X3.1729Y-1.588
X3.174Y-3.8817
X3.1746Y-3.2115
X3.177Y-4.61
X3.18Y-1.7647
X3.1803Y-3.6736
X3.1804Y-4.2367
X3.1811Y-1.9375
X3.1811Y-1.9069
X3.1811Y-5.1135
X3.1923Y-1.8219
X3.1941Y-4.3147
X3.195Y-1.879
X3.1973Y-3.5827
X3.2003Y-5.0714
X3.2058Y-5.3956
X3.2106Y-1.9386
X3.212Y-3.9322
X3.2121Y-3.0595
X3.2121Y-2.7307
X3.2254Y-3.5449
X3.2268Y-4.4846
X3.2334Y-3.7428
X3.2343Y-4.9126
X3.2364Y-3.119
X3.2385Y-1.705
X3.2402Y-4.1512
X3.2421Y-4.2557
X3.2429Y-4.5733
X3.2433Y-5.028
X3.2455Y-5.3616
X3.2545Y-4.8837
X3.2575Y-3.1527
X3.2591Y-2.2913
X3.2594Y-4.5477
X3.2681Y-5.3814
X3.2723Y-4.6803
X3.2724Y-4.15
X3.2756Y-4.5733
X3.2777Y-4.5243
X3.28Y-3.8366
X3.281Y-3.7876
X3.2835Y-4.3465
X3.2966Y-5.3143
X3.3001Y-2.0445
X3.3065Y-3.9426
X3.3154Y-1.9985
X3.3189Y-1.8268
X3.326Y-3.8308
X3.3344Y-1.649
X3.3386Y-4.5733
X3.3424Y-4.6741
X3.3429Y-3.4984
X3.345Y-4.2438
X3.345Y-4.7088
X3.3452Y-2.0001
X3.3485Y-4.9783
X3.3562Y-2.0762
X3.3604Y-5.3124
X3.3605Y-3.4501
X3.362Y-3.9277
X3.3687Y-1.654
X3.3708Y-2.3533
X3.3736Y-4.9954
X3.3804Y-4.2139
X3.3834Y-3.4175
X3.3928Y-2.1884
X3.3976Y-1.7756
X3.3998Y-1.6596
X3.3999Y-4.1907
X3.4001Y-3.8343
X3.4009Y-3.9168
X3.4041Y-4.2346
X3.4055Y-5.185
X3.4059Y-3.4386
X3.4094Y-4.4331
X3.4109Y-5.3337
X3.413Y-3.7866
X3.4146Y-4.5358
X3.415Y-2.6465
X3.4152Y-2.0535
X3.4177Y-2.1319
X3.4186Y-4.1661
X3.4249Y-5.0124
X3.426Y-3.485
X3.4369Y-3.5181
X3.437Y-5.3539
X3.4375Y-4.9646
X3.4498Y-2.0036
X3.45Y-3.8564
X3.4541Y-1.9495
X3.4557Y-4.2448
X3.4584Y-3.4034
X3.4684Y-2.0448
X3.4732Y-5.2696
X3.4798Y-2.0047
X3.4847Y-4.9066
X3.4921Y-1.7269
X3.4981Y-4.5844
X3.5065Y-1.7555
X3.5084Y-4.9884
X3.5125Y-1.8631
X3.5174Y-3.4684
X3.5223Y-4.3989
X3.5232Y-3.768
X3.5266Y-1.9063
X3.5301Y-4.9675
X3.5395Y-1.7705
X3.5415Y-3.8404
X3.545Y-3.4834
X3.5454Y-4.5088
X3.5492Y-5.0574
X3.55Y-3.7243
X3.5562Y-1.919
X3.5602Y-1.7926
X3.5692Y-4.4846
X3.5717Y-3.7868
X3.5779Y-1.8985
X3.5803Y-4.3732
X3.6288Y-1.8976
X3.6295Y-2.7142
X3.6322Y-2.9683
X3.655Y-4.5344
X3.68Y-5.0528
T2
G00X3.0807Y-2.5571
M15
G01X3.0807Y-2.5295
M16
G05
G00X3.0807Y-2.7776
M15
G01X3.0807Y-2.75
M16
G05
G00X3.1654Y-2.6752
M15
G01X3.1654Y-2.6319
M16
G05
T0
M30
