%TF.GenerationSoftware,KiCad,Pcbnew,(5.1.8)-1*%
%TF.CreationDate,2021-07-31T20:08:40-05:00*%
%TF.ProjectId,DSKY_led_display,44534b59-5f6c-4656-945f-646973706c61,rev?*%
%TF.SameCoordinates,Original*%
%TF.FileFunction,Soldermask,Top*%
%TF.FilePolarity,Negative*%
%FSLAX46Y46*%
G04 Gerber Fmt 4.6, Leading zero omitted, Abs format (unit mm)*
G04 Created by KiCad (PCBNEW (5.1.8)-1) date 2021-07-31 20:08:40*
%MOMM*%
%LPD*%
G01*
G04 APERTURE LIST*
%ADD10C,0.010000*%
%ADD11O,1.100000X2.100000*%
%ADD12O,1.100000X1.700000*%
%ADD13R,1.500000X0.450000*%
%ADD14R,1.100000X1.100000*%
%ADD15R,0.650000X2.760000*%
%ADD16R,0.650000X2.750000*%
%ADD17R,0.550000X1.600000*%
%ADD18R,1.600000X0.550000*%
%ADD19R,1.060000X0.650000*%
G04 APERTURE END LIST*
D10*
%TO.C,J3*%
G36*
X83007020Y-79807000D02*
G01*
X83007020Y-78435000D01*
X86539019Y-78435000D01*
X86539019Y-79807000D01*
X83007020Y-79807000D01*
G37*
X83007020Y-79807000D02*
X83007020Y-78435000D01*
X86539019Y-78435000D01*
X86539019Y-79807000D01*
X83007020Y-79807000D01*
G36*
X85927006Y-77267000D02*
G01*
X85927006Y-75894997D01*
X89459000Y-75894997D01*
X89459000Y-77267000D01*
X85927006Y-77267000D01*
G37*
X85927006Y-77267000D02*
X85927006Y-75894997D01*
X89459000Y-75894997D01*
X89459000Y-77267000D01*
X85927006Y-77267000D01*
G36*
X83007020Y-74727003D02*
G01*
X83007020Y-73355000D01*
X86539019Y-73355000D01*
X86539019Y-74727003D01*
X83007020Y-74727003D01*
G37*
X83007020Y-74727003D02*
X83007020Y-73355000D01*
X86539019Y-73355000D01*
X86539019Y-74727003D01*
X83007020Y-74727003D01*
G36*
X85927006Y-72187000D02*
G01*
X85927006Y-70815000D01*
X89459000Y-70815000D01*
X89459000Y-72187000D01*
X85927006Y-72187000D01*
G37*
X85927006Y-72187000D02*
X85927006Y-70815000D01*
X89459000Y-70815000D01*
X89459000Y-72187000D01*
X85927006Y-72187000D01*
%TD*%
%TO.C,R23*%
G36*
G01*
X59575000Y-86175000D02*
X59025000Y-86175000D01*
G75*
G02*
X58825000Y-85975000I0J200000D01*
G01*
X58825000Y-85575000D01*
G75*
G02*
X59025000Y-85375000I200000J0D01*
G01*
X59575000Y-85375000D01*
G75*
G02*
X59775000Y-85575000I0J-200000D01*
G01*
X59775000Y-85975000D01*
G75*
G02*
X59575000Y-86175000I-200000J0D01*
G01*
G37*
G36*
G01*
X59575000Y-87825000D02*
X59025000Y-87825000D01*
G75*
G02*
X58825000Y-87625000I0J200000D01*
G01*
X58825000Y-87225000D01*
G75*
G02*
X59025000Y-87025000I200000J0D01*
G01*
X59575000Y-87025000D01*
G75*
G02*
X59775000Y-87225000I0J-200000D01*
G01*
X59775000Y-87625000D01*
G75*
G02*
X59575000Y-87825000I-200000J0D01*
G01*
G37*
%TD*%
%TO.C,R22*%
G36*
G01*
X43575000Y-81075000D02*
X43025000Y-81075000D01*
G75*
G02*
X42825000Y-80875000I0J200000D01*
G01*
X42825000Y-80475000D01*
G75*
G02*
X43025000Y-80275000I200000J0D01*
G01*
X43575000Y-80275000D01*
G75*
G02*
X43775000Y-80475000I0J-200000D01*
G01*
X43775000Y-80875000D01*
G75*
G02*
X43575000Y-81075000I-200000J0D01*
G01*
G37*
G36*
G01*
X43575000Y-82725000D02*
X43025000Y-82725000D01*
G75*
G02*
X42825000Y-82525000I0J200000D01*
G01*
X42825000Y-82125000D01*
G75*
G02*
X43025000Y-81925000I200000J0D01*
G01*
X43575000Y-81925000D01*
G75*
G02*
X43775000Y-82125000I0J-200000D01*
G01*
X43775000Y-82525000D01*
G75*
G02*
X43575000Y-82725000I-200000J0D01*
G01*
G37*
%TD*%
%TO.C,R21*%
G36*
G01*
X57525000Y-74425000D02*
X58075000Y-74425000D01*
G75*
G02*
X58275000Y-74625000I0J-200000D01*
G01*
X58275000Y-75025000D01*
G75*
G02*
X58075000Y-75225000I-200000J0D01*
G01*
X57525000Y-75225000D01*
G75*
G02*
X57325000Y-75025000I0J200000D01*
G01*
X57325000Y-74625000D01*
G75*
G02*
X57525000Y-74425000I200000J0D01*
G01*
G37*
G36*
G01*
X57525000Y-72775000D02*
X58075000Y-72775000D01*
G75*
G02*
X58275000Y-72975000I0J-200000D01*
G01*
X58275000Y-73375000D01*
G75*
G02*
X58075000Y-73575000I-200000J0D01*
G01*
X57525000Y-73575000D01*
G75*
G02*
X57325000Y-73375000I0J200000D01*
G01*
X57325000Y-72975000D01*
G75*
G02*
X57525000Y-72775000I200000J0D01*
G01*
G37*
%TD*%
%TO.C,R14*%
G36*
G01*
X59225000Y-74425000D02*
X59775000Y-74425000D01*
G75*
G02*
X59975000Y-74625000I0J-200000D01*
G01*
X59975000Y-75025000D01*
G75*
G02*
X59775000Y-75225000I-200000J0D01*
G01*
X59225000Y-75225000D01*
G75*
G02*
X59025000Y-75025000I0J200000D01*
G01*
X59025000Y-74625000D01*
G75*
G02*
X59225000Y-74425000I200000J0D01*
G01*
G37*
G36*
G01*
X59225000Y-72775000D02*
X59775000Y-72775000D01*
G75*
G02*
X59975000Y-72975000I0J-200000D01*
G01*
X59975000Y-73375000D01*
G75*
G02*
X59775000Y-73575000I-200000J0D01*
G01*
X59225000Y-73575000D01*
G75*
G02*
X59025000Y-73375000I0J200000D01*
G01*
X59025000Y-72975000D01*
G75*
G02*
X59225000Y-72775000I200000J0D01*
G01*
G37*
%TD*%
%TO.C,R13*%
G36*
G01*
X58925000Y-66925000D02*
X59475000Y-66925000D01*
G75*
G02*
X59675000Y-67125000I0J-200000D01*
G01*
X59675000Y-67525000D01*
G75*
G02*
X59475000Y-67725000I-200000J0D01*
G01*
X58925000Y-67725000D01*
G75*
G02*
X58725000Y-67525000I0J200000D01*
G01*
X58725000Y-67125000D01*
G75*
G02*
X58925000Y-66925000I200000J0D01*
G01*
G37*
G36*
G01*
X58925000Y-65275000D02*
X59475000Y-65275000D01*
G75*
G02*
X59675000Y-65475000I0J-200000D01*
G01*
X59675000Y-65875000D01*
G75*
G02*
X59475000Y-66075000I-200000J0D01*
G01*
X58925000Y-66075000D01*
G75*
G02*
X58725000Y-65875000I0J200000D01*
G01*
X58725000Y-65475000D01*
G75*
G02*
X58925000Y-65275000I200000J0D01*
G01*
G37*
%TD*%
%TO.C,U9*%
G36*
G01*
X53875000Y-77380000D02*
X53875000Y-77080000D01*
G75*
G02*
X54025000Y-76930000I150000J0D01*
G01*
X55675000Y-76930000D01*
G75*
G02*
X55825000Y-77080000I0J-150000D01*
G01*
X55825000Y-77380000D01*
G75*
G02*
X55675000Y-77530000I-150000J0D01*
G01*
X54025000Y-77530000D01*
G75*
G02*
X53875000Y-77380000I0J150000D01*
G01*
G37*
G36*
G01*
X53875000Y-78650000D02*
X53875000Y-78350000D01*
G75*
G02*
X54025000Y-78200000I150000J0D01*
G01*
X55675000Y-78200000D01*
G75*
G02*
X55825000Y-78350000I0J-150000D01*
G01*
X55825000Y-78650000D01*
G75*
G02*
X55675000Y-78800000I-150000J0D01*
G01*
X54025000Y-78800000D01*
G75*
G02*
X53875000Y-78650000I0J150000D01*
G01*
G37*
G36*
G01*
X53875000Y-79920000D02*
X53875000Y-79620000D01*
G75*
G02*
X54025000Y-79470000I150000J0D01*
G01*
X55675000Y-79470000D01*
G75*
G02*
X55825000Y-79620000I0J-150000D01*
G01*
X55825000Y-79920000D01*
G75*
G02*
X55675000Y-80070000I-150000J0D01*
G01*
X54025000Y-80070000D01*
G75*
G02*
X53875000Y-79920000I0J150000D01*
G01*
G37*
G36*
G01*
X53875000Y-81190000D02*
X53875000Y-80890000D01*
G75*
G02*
X54025000Y-80740000I150000J0D01*
G01*
X55675000Y-80740000D01*
G75*
G02*
X55825000Y-80890000I0J-150000D01*
G01*
X55825000Y-81190000D01*
G75*
G02*
X55675000Y-81340000I-150000J0D01*
G01*
X54025000Y-81340000D01*
G75*
G02*
X53875000Y-81190000I0J150000D01*
G01*
G37*
G36*
G01*
X53875000Y-82460000D02*
X53875000Y-82160000D01*
G75*
G02*
X54025000Y-82010000I150000J0D01*
G01*
X55675000Y-82010000D01*
G75*
G02*
X55825000Y-82160000I0J-150000D01*
G01*
X55825000Y-82460000D01*
G75*
G02*
X55675000Y-82610000I-150000J0D01*
G01*
X54025000Y-82610000D01*
G75*
G02*
X53875000Y-82460000I0J150000D01*
G01*
G37*
G36*
G01*
X53875000Y-83730000D02*
X53875000Y-83430000D01*
G75*
G02*
X54025000Y-83280000I150000J0D01*
G01*
X55675000Y-83280000D01*
G75*
G02*
X55825000Y-83430000I0J-150000D01*
G01*
X55825000Y-83730000D01*
G75*
G02*
X55675000Y-83880000I-150000J0D01*
G01*
X54025000Y-83880000D01*
G75*
G02*
X53875000Y-83730000I0J150000D01*
G01*
G37*
G36*
G01*
X53875000Y-85000000D02*
X53875000Y-84700000D01*
G75*
G02*
X54025000Y-84550000I150000J0D01*
G01*
X55675000Y-84550000D01*
G75*
G02*
X55825000Y-84700000I0J-150000D01*
G01*
X55825000Y-85000000D01*
G75*
G02*
X55675000Y-85150000I-150000J0D01*
G01*
X54025000Y-85150000D01*
G75*
G02*
X53875000Y-85000000I0J150000D01*
G01*
G37*
G36*
G01*
X48925000Y-85000000D02*
X48925000Y-84700000D01*
G75*
G02*
X49075000Y-84550000I150000J0D01*
G01*
X50725000Y-84550000D01*
G75*
G02*
X50875000Y-84700000I0J-150000D01*
G01*
X50875000Y-85000000D01*
G75*
G02*
X50725000Y-85150000I-150000J0D01*
G01*
X49075000Y-85150000D01*
G75*
G02*
X48925000Y-85000000I0J150000D01*
G01*
G37*
G36*
G01*
X48925000Y-83730000D02*
X48925000Y-83430000D01*
G75*
G02*
X49075000Y-83280000I150000J0D01*
G01*
X50725000Y-83280000D01*
G75*
G02*
X50875000Y-83430000I0J-150000D01*
G01*
X50875000Y-83730000D01*
G75*
G02*
X50725000Y-83880000I-150000J0D01*
G01*
X49075000Y-83880000D01*
G75*
G02*
X48925000Y-83730000I0J150000D01*
G01*
G37*
G36*
G01*
X48925000Y-82460000D02*
X48925000Y-82160000D01*
G75*
G02*
X49075000Y-82010000I150000J0D01*
G01*
X50725000Y-82010000D01*
G75*
G02*
X50875000Y-82160000I0J-150000D01*
G01*
X50875000Y-82460000D01*
G75*
G02*
X50725000Y-82610000I-150000J0D01*
G01*
X49075000Y-82610000D01*
G75*
G02*
X48925000Y-82460000I0J150000D01*
G01*
G37*
G36*
G01*
X48925000Y-81190000D02*
X48925000Y-80890000D01*
G75*
G02*
X49075000Y-80740000I150000J0D01*
G01*
X50725000Y-80740000D01*
G75*
G02*
X50875000Y-80890000I0J-150000D01*
G01*
X50875000Y-81190000D01*
G75*
G02*
X50725000Y-81340000I-150000J0D01*
G01*
X49075000Y-81340000D01*
G75*
G02*
X48925000Y-81190000I0J150000D01*
G01*
G37*
G36*
G01*
X48925000Y-79920000D02*
X48925000Y-79620000D01*
G75*
G02*
X49075000Y-79470000I150000J0D01*
G01*
X50725000Y-79470000D01*
G75*
G02*
X50875000Y-79620000I0J-150000D01*
G01*
X50875000Y-79920000D01*
G75*
G02*
X50725000Y-80070000I-150000J0D01*
G01*
X49075000Y-80070000D01*
G75*
G02*
X48925000Y-79920000I0J150000D01*
G01*
G37*
G36*
G01*
X48925000Y-78650000D02*
X48925000Y-78350000D01*
G75*
G02*
X49075000Y-78200000I150000J0D01*
G01*
X50725000Y-78200000D01*
G75*
G02*
X50875000Y-78350000I0J-150000D01*
G01*
X50875000Y-78650000D01*
G75*
G02*
X50725000Y-78800000I-150000J0D01*
G01*
X49075000Y-78800000D01*
G75*
G02*
X48925000Y-78650000I0J150000D01*
G01*
G37*
G36*
G01*
X48925000Y-77380000D02*
X48925000Y-77080000D01*
G75*
G02*
X49075000Y-76930000I150000J0D01*
G01*
X50725000Y-76930000D01*
G75*
G02*
X50875000Y-77080000I0J-150000D01*
G01*
X50875000Y-77380000D01*
G75*
G02*
X50725000Y-77530000I-150000J0D01*
G01*
X49075000Y-77530000D01*
G75*
G02*
X48925000Y-77380000I0J150000D01*
G01*
G37*
%TD*%
%TO.C,R10*%
G36*
G01*
X59025000Y-83525000D02*
X59575000Y-83525000D01*
G75*
G02*
X59775000Y-83725000I0J-200000D01*
G01*
X59775000Y-84125000D01*
G75*
G02*
X59575000Y-84325000I-200000J0D01*
G01*
X59025000Y-84325000D01*
G75*
G02*
X58825000Y-84125000I0J200000D01*
G01*
X58825000Y-83725000D01*
G75*
G02*
X59025000Y-83525000I200000J0D01*
G01*
G37*
G36*
G01*
X59025000Y-81875000D02*
X59575000Y-81875000D01*
G75*
G02*
X59775000Y-82075000I0J-200000D01*
G01*
X59775000Y-82475000D01*
G75*
G02*
X59575000Y-82675000I-200000J0D01*
G01*
X59025000Y-82675000D01*
G75*
G02*
X58825000Y-82475000I0J200000D01*
G01*
X58825000Y-82075000D01*
G75*
G02*
X59025000Y-81875000I200000J0D01*
G01*
G37*
%TD*%
%TO.C,R9*%
G36*
G01*
X57425000Y-81925000D02*
X57975000Y-81925000D01*
G75*
G02*
X58175000Y-82125000I0J-200000D01*
G01*
X58175000Y-82525000D01*
G75*
G02*
X57975000Y-82725000I-200000J0D01*
G01*
X57425000Y-82725000D01*
G75*
G02*
X57225000Y-82525000I0J200000D01*
G01*
X57225000Y-82125000D01*
G75*
G02*
X57425000Y-81925000I200000J0D01*
G01*
G37*
G36*
G01*
X57425000Y-80275000D02*
X57975000Y-80275000D01*
G75*
G02*
X58175000Y-80475000I0J-200000D01*
G01*
X58175000Y-80875000D01*
G75*
G02*
X57975000Y-81075000I-200000J0D01*
G01*
X57425000Y-81075000D01*
G75*
G02*
X57225000Y-80875000I0J200000D01*
G01*
X57225000Y-80475000D01*
G75*
G02*
X57425000Y-80275000I200000J0D01*
G01*
G37*
%TD*%
%TO.C,R8*%
G36*
G01*
X46425000Y-81925000D02*
X46975000Y-81925000D01*
G75*
G02*
X47175000Y-82125000I0J-200000D01*
G01*
X47175000Y-82525000D01*
G75*
G02*
X46975000Y-82725000I-200000J0D01*
G01*
X46425000Y-82725000D01*
G75*
G02*
X46225000Y-82525000I0J200000D01*
G01*
X46225000Y-82125000D01*
G75*
G02*
X46425000Y-81925000I200000J0D01*
G01*
G37*
G36*
G01*
X46425000Y-80275000D02*
X46975000Y-80275000D01*
G75*
G02*
X47175000Y-80475000I0J-200000D01*
G01*
X47175000Y-80875000D01*
G75*
G02*
X46975000Y-81075000I-200000J0D01*
G01*
X46425000Y-81075000D01*
G75*
G02*
X46225000Y-80875000I0J200000D01*
G01*
X46225000Y-80475000D01*
G75*
G02*
X46425000Y-80275000I200000J0D01*
G01*
G37*
%TD*%
%TO.C,R7*%
G36*
G01*
X44725000Y-81925000D02*
X45275000Y-81925000D01*
G75*
G02*
X45475000Y-82125000I0J-200000D01*
G01*
X45475000Y-82525000D01*
G75*
G02*
X45275000Y-82725000I-200000J0D01*
G01*
X44725000Y-82725000D01*
G75*
G02*
X44525000Y-82525000I0J200000D01*
G01*
X44525000Y-82125000D01*
G75*
G02*
X44725000Y-81925000I200000J0D01*
G01*
G37*
G36*
G01*
X44725000Y-80275000D02*
X45275000Y-80275000D01*
G75*
G02*
X45475000Y-80475000I0J-200000D01*
G01*
X45475000Y-80875000D01*
G75*
G02*
X45275000Y-81075000I-200000J0D01*
G01*
X44725000Y-81075000D01*
G75*
G02*
X44525000Y-80875000I0J200000D01*
G01*
X44525000Y-80475000D01*
G75*
G02*
X44725000Y-80275000I200000J0D01*
G01*
G37*
%TD*%
%TO.C,C15*%
G36*
G01*
X51875000Y-75450000D02*
X51875000Y-75950000D01*
G75*
G02*
X51650000Y-76175000I-225000J0D01*
G01*
X51200000Y-76175000D01*
G75*
G02*
X50975000Y-75950000I0J225000D01*
G01*
X50975000Y-75450000D01*
G75*
G02*
X51200000Y-75225000I225000J0D01*
G01*
X51650000Y-75225000D01*
G75*
G02*
X51875000Y-75450000I0J-225000D01*
G01*
G37*
G36*
G01*
X53425000Y-75450000D02*
X53425000Y-75950000D01*
G75*
G02*
X53200000Y-76175000I-225000J0D01*
G01*
X52750000Y-76175000D01*
G75*
G02*
X52525000Y-75950000I0J225000D01*
G01*
X52525000Y-75450000D01*
G75*
G02*
X52750000Y-75225000I225000J0D01*
G01*
X53200000Y-75225000D01*
G75*
G02*
X53425000Y-75450000I0J-225000D01*
G01*
G37*
%TD*%
%TO.C,C14*%
G36*
G01*
X81975000Y-41550000D02*
X81975000Y-42050000D01*
G75*
G02*
X81750000Y-42275000I-225000J0D01*
G01*
X81300000Y-42275000D01*
G75*
G02*
X81075000Y-42050000I0J225000D01*
G01*
X81075000Y-41550000D01*
G75*
G02*
X81300000Y-41325000I225000J0D01*
G01*
X81750000Y-41325000D01*
G75*
G02*
X81975000Y-41550000I0J-225000D01*
G01*
G37*
G36*
G01*
X83525000Y-41550000D02*
X83525000Y-42050000D01*
G75*
G02*
X83300000Y-42275000I-225000J0D01*
G01*
X82850000Y-42275000D01*
G75*
G02*
X82625000Y-42050000I0J225000D01*
G01*
X82625000Y-41550000D01*
G75*
G02*
X82850000Y-41325000I225000J0D01*
G01*
X83300000Y-41325000D01*
G75*
G02*
X83525000Y-41550000I0J-225000D01*
G01*
G37*
%TD*%
%TO.C,C13*%
G36*
G01*
X48975000Y-41450000D02*
X48975000Y-41950000D01*
G75*
G02*
X48750000Y-42175000I-225000J0D01*
G01*
X48300000Y-42175000D01*
G75*
G02*
X48075000Y-41950000I0J225000D01*
G01*
X48075000Y-41450000D01*
G75*
G02*
X48300000Y-41225000I225000J0D01*
G01*
X48750000Y-41225000D01*
G75*
G02*
X48975000Y-41450000I0J-225000D01*
G01*
G37*
G36*
G01*
X50525000Y-41450000D02*
X50525000Y-41950000D01*
G75*
G02*
X50300000Y-42175000I-225000J0D01*
G01*
X49850000Y-42175000D01*
G75*
G02*
X49625000Y-41950000I0J225000D01*
G01*
X49625000Y-41450000D01*
G75*
G02*
X49850000Y-41225000I225000J0D01*
G01*
X50300000Y-41225000D01*
G75*
G02*
X50525000Y-41450000I0J-225000D01*
G01*
G37*
%TD*%
%TO.C,C12*%
G36*
G01*
X89658000Y-108641000D02*
X89158000Y-108641000D01*
G75*
G02*
X88933000Y-108416000I0J225000D01*
G01*
X88933000Y-107966000D01*
G75*
G02*
X89158000Y-107741000I225000J0D01*
G01*
X89658000Y-107741000D01*
G75*
G02*
X89883000Y-107966000I0J-225000D01*
G01*
X89883000Y-108416000D01*
G75*
G02*
X89658000Y-108641000I-225000J0D01*
G01*
G37*
G36*
G01*
X89658000Y-110191000D02*
X89158000Y-110191000D01*
G75*
G02*
X88933000Y-109966000I0J225000D01*
G01*
X88933000Y-109516000D01*
G75*
G02*
X89158000Y-109291000I225000J0D01*
G01*
X89658000Y-109291000D01*
G75*
G02*
X89883000Y-109516000I0J-225000D01*
G01*
X89883000Y-109966000D01*
G75*
G02*
X89658000Y-110191000I-225000J0D01*
G01*
G37*
%TD*%
%TO.C,C11*%
G36*
G01*
X65675000Y-41450000D02*
X65675000Y-41950000D01*
G75*
G02*
X65450000Y-42175000I-225000J0D01*
G01*
X65000000Y-42175000D01*
G75*
G02*
X64775000Y-41950000I0J225000D01*
G01*
X64775000Y-41450000D01*
G75*
G02*
X65000000Y-41225000I225000J0D01*
G01*
X65450000Y-41225000D01*
G75*
G02*
X65675000Y-41450000I0J-225000D01*
G01*
G37*
G36*
G01*
X67225000Y-41450000D02*
X67225000Y-41950000D01*
G75*
G02*
X67000000Y-42175000I-225000J0D01*
G01*
X66550000Y-42175000D01*
G75*
G02*
X66325000Y-41950000I0J225000D01*
G01*
X66325000Y-41450000D01*
G75*
G02*
X66550000Y-41225000I225000J0D01*
G01*
X67000000Y-41225000D01*
G75*
G02*
X67225000Y-41450000I0J-225000D01*
G01*
G37*
%TD*%
%TO.C,C10*%
G36*
G01*
X89658000Y-128059000D02*
X89158000Y-128059000D01*
G75*
G02*
X88933000Y-127834000I0J225000D01*
G01*
X88933000Y-127384000D01*
G75*
G02*
X89158000Y-127159000I225000J0D01*
G01*
X89658000Y-127159000D01*
G75*
G02*
X89883000Y-127384000I0J-225000D01*
G01*
X89883000Y-127834000D01*
G75*
G02*
X89658000Y-128059000I-225000J0D01*
G01*
G37*
G36*
G01*
X89658000Y-129609000D02*
X89158000Y-129609000D01*
G75*
G02*
X88933000Y-129384000I0J225000D01*
G01*
X88933000Y-128934000D01*
G75*
G02*
X89158000Y-128709000I225000J0D01*
G01*
X89658000Y-128709000D01*
G75*
G02*
X89883000Y-128934000I0J-225000D01*
G01*
X89883000Y-129384000D01*
G75*
G02*
X89658000Y-129609000I-225000J0D01*
G01*
G37*
%TD*%
%TO.C,C9*%
G36*
G01*
X89785000Y-89832000D02*
X89285000Y-89832000D01*
G75*
G02*
X89060000Y-89607000I0J225000D01*
G01*
X89060000Y-89157000D01*
G75*
G02*
X89285000Y-88932000I225000J0D01*
G01*
X89785000Y-88932000D01*
G75*
G02*
X90010000Y-89157000I0J-225000D01*
G01*
X90010000Y-89607000D01*
G75*
G02*
X89785000Y-89832000I-225000J0D01*
G01*
G37*
G36*
G01*
X89785000Y-91382000D02*
X89285000Y-91382000D01*
G75*
G02*
X89060000Y-91157000I0J225000D01*
G01*
X89060000Y-90707000D01*
G75*
G02*
X89285000Y-90482000I225000J0D01*
G01*
X89785000Y-90482000D01*
G75*
G02*
X90010000Y-90707000I0J-225000D01*
G01*
X90010000Y-91157000D01*
G75*
G02*
X89785000Y-91382000I-225000J0D01*
G01*
G37*
%TD*%
D11*
%TO.C,J1*%
X80400000Y-67400000D03*
D12*
X78250000Y-64600000D03*
X78250000Y-70200000D03*
D13*
X78500000Y-66100000D03*
X78500000Y-66750000D03*
X78500000Y-67400000D03*
X78500000Y-68050000D03*
X78500000Y-68700000D03*
%TD*%
%TO.C,C8*%
G36*
G01*
X70263600Y-62429200D02*
X70263600Y-61929200D01*
G75*
G02*
X70488600Y-61704200I225000J0D01*
G01*
X70938600Y-61704200D01*
G75*
G02*
X71163600Y-61929200I0J-225000D01*
G01*
X71163600Y-62429200D01*
G75*
G02*
X70938600Y-62654200I-225000J0D01*
G01*
X70488600Y-62654200D01*
G75*
G02*
X70263600Y-62429200I0J225000D01*
G01*
G37*
G36*
G01*
X68713600Y-62429200D02*
X68713600Y-61929200D01*
G75*
G02*
X68938600Y-61704200I225000J0D01*
G01*
X69388600Y-61704200D01*
G75*
G02*
X69613600Y-61929200I0J-225000D01*
G01*
X69613600Y-62429200D01*
G75*
G02*
X69388600Y-62654200I-225000J0D01*
G01*
X68938600Y-62654200D01*
G75*
G02*
X68713600Y-62429200I0J225000D01*
G01*
G37*
%TD*%
D14*
%TO.C,D192*%
X79784400Y-76504800D03*
X76984400Y-76504800D03*
%TD*%
%TO.C,D191*%
X79784400Y-78943200D03*
X76984400Y-78943200D03*
%TD*%
D15*
%TO.C,J2*%
X63240000Y-54970000D03*
X63240000Y-59030000D03*
X61970000Y-54970000D03*
X61970000Y-59030000D03*
X60700000Y-54970000D03*
X60700000Y-59030000D03*
D16*
X59430000Y-54970000D03*
D15*
X59430000Y-59030000D03*
X58160000Y-54970000D03*
X58160000Y-59030000D03*
%TD*%
%TO.C,SW1*%
G36*
G01*
X67379200Y-61054400D02*
X66479200Y-61054400D01*
G75*
G02*
X66428400Y-61003600I0J50800D01*
G01*
X66428400Y-60103600D01*
G75*
G02*
X66479200Y-60052800I50800J0D01*
G01*
X67379200Y-60052800D01*
G75*
G02*
X67430000Y-60103600I0J-50800D01*
G01*
X67430000Y-61003600D01*
G75*
G02*
X67379200Y-61054400I-50800J0D01*
G01*
G37*
G36*
G01*
X68979200Y-61054400D02*
X68079200Y-61054400D01*
G75*
G02*
X68028400Y-61003600I0J50800D01*
G01*
X68028400Y-60103600D01*
G75*
G02*
X68079200Y-60052800I50800J0D01*
G01*
X68979200Y-60052800D01*
G75*
G02*
X69030000Y-60103600I0J-50800D01*
G01*
X69030000Y-61003600D01*
G75*
G02*
X68979200Y-61054400I-50800J0D01*
G01*
G37*
G36*
G01*
X68979200Y-56954400D02*
X68079200Y-56954400D01*
G75*
G02*
X68028400Y-56903600I0J50800D01*
G01*
X68028400Y-56003600D01*
G75*
G02*
X68079200Y-55952800I50800J0D01*
G01*
X68979200Y-55952800D01*
G75*
G02*
X69030000Y-56003600I0J-50800D01*
G01*
X69030000Y-56903600D01*
G75*
G02*
X68979200Y-56954400I-50800J0D01*
G01*
G37*
G36*
G01*
X67379200Y-56954400D02*
X66479200Y-56954400D01*
G75*
G02*
X66428400Y-56903600I0J50800D01*
G01*
X66428400Y-56003600D01*
G75*
G02*
X66479200Y-55952800I50800J0D01*
G01*
X67379200Y-55952800D01*
G75*
G02*
X67430000Y-56003600I0J-50800D01*
G01*
X67430000Y-56903600D01*
G75*
G02*
X67379200Y-56954400I-50800J0D01*
G01*
G37*
%TD*%
%TO.C,R20*%
G36*
G01*
X81875000Y-39925000D02*
X81875000Y-40475000D01*
G75*
G02*
X81675000Y-40675000I-200000J0D01*
G01*
X81275000Y-40675000D01*
G75*
G02*
X81075000Y-40475000I0J200000D01*
G01*
X81075000Y-39925000D01*
G75*
G02*
X81275000Y-39725000I200000J0D01*
G01*
X81675000Y-39725000D01*
G75*
G02*
X81875000Y-39925000I0J-200000D01*
G01*
G37*
G36*
G01*
X83525000Y-39925000D02*
X83525000Y-40475000D01*
G75*
G02*
X83325000Y-40675000I-200000J0D01*
G01*
X82925000Y-40675000D01*
G75*
G02*
X82725000Y-40475000I0J200000D01*
G01*
X82725000Y-39925000D01*
G75*
G02*
X82925000Y-39725000I200000J0D01*
G01*
X83325000Y-39725000D01*
G75*
G02*
X83525000Y-39925000I0J-200000D01*
G01*
G37*
%TD*%
%TO.C,R19*%
G36*
G01*
X48875000Y-39825000D02*
X48875000Y-40375000D01*
G75*
G02*
X48675000Y-40575000I-200000J0D01*
G01*
X48275000Y-40575000D01*
G75*
G02*
X48075000Y-40375000I0J200000D01*
G01*
X48075000Y-39825000D01*
G75*
G02*
X48275000Y-39625000I200000J0D01*
G01*
X48675000Y-39625000D01*
G75*
G02*
X48875000Y-39825000I0J-200000D01*
G01*
G37*
G36*
G01*
X50525000Y-39825000D02*
X50525000Y-40375000D01*
G75*
G02*
X50325000Y-40575000I-200000J0D01*
G01*
X49925000Y-40575000D01*
G75*
G02*
X49725000Y-40375000I0J200000D01*
G01*
X49725000Y-39825000D01*
G75*
G02*
X49925000Y-39625000I200000J0D01*
G01*
X50325000Y-39625000D01*
G75*
G02*
X50525000Y-39825000I0J-200000D01*
G01*
G37*
%TD*%
%TO.C,R18*%
G36*
G01*
X65575000Y-39725000D02*
X65575000Y-40275000D01*
G75*
G02*
X65375000Y-40475000I-200000J0D01*
G01*
X64975000Y-40475000D01*
G75*
G02*
X64775000Y-40275000I0J200000D01*
G01*
X64775000Y-39725000D01*
G75*
G02*
X64975000Y-39525000I200000J0D01*
G01*
X65375000Y-39525000D01*
G75*
G02*
X65575000Y-39725000I0J-200000D01*
G01*
G37*
G36*
G01*
X67225000Y-39725000D02*
X67225000Y-40275000D01*
G75*
G02*
X67025000Y-40475000I-200000J0D01*
G01*
X66625000Y-40475000D01*
G75*
G02*
X66425000Y-40275000I0J200000D01*
G01*
X66425000Y-39725000D01*
G75*
G02*
X66625000Y-39525000I200000J0D01*
G01*
X67025000Y-39525000D01*
G75*
G02*
X67225000Y-39725000I0J-200000D01*
G01*
G37*
%TD*%
%TO.C,R17*%
G36*
G01*
X91275000Y-108575000D02*
X90725000Y-108575000D01*
G75*
G02*
X90525000Y-108375000I0J200000D01*
G01*
X90525000Y-107975000D01*
G75*
G02*
X90725000Y-107775000I200000J0D01*
G01*
X91275000Y-107775000D01*
G75*
G02*
X91475000Y-107975000I0J-200000D01*
G01*
X91475000Y-108375000D01*
G75*
G02*
X91275000Y-108575000I-200000J0D01*
G01*
G37*
G36*
G01*
X91275000Y-110225000D02*
X90725000Y-110225000D01*
G75*
G02*
X90525000Y-110025000I0J200000D01*
G01*
X90525000Y-109625000D01*
G75*
G02*
X90725000Y-109425000I200000J0D01*
G01*
X91275000Y-109425000D01*
G75*
G02*
X91475000Y-109625000I0J-200000D01*
G01*
X91475000Y-110025000D01*
G75*
G02*
X91275000Y-110225000I-200000J0D01*
G01*
G37*
%TD*%
%TO.C,R16*%
G36*
G01*
X91275000Y-127975000D02*
X90725000Y-127975000D01*
G75*
G02*
X90525000Y-127775000I0J200000D01*
G01*
X90525000Y-127375000D01*
G75*
G02*
X90725000Y-127175000I200000J0D01*
G01*
X91275000Y-127175000D01*
G75*
G02*
X91475000Y-127375000I0J-200000D01*
G01*
X91475000Y-127775000D01*
G75*
G02*
X91275000Y-127975000I-200000J0D01*
G01*
G37*
G36*
G01*
X91275000Y-129625000D02*
X90725000Y-129625000D01*
G75*
G02*
X90525000Y-129425000I0J200000D01*
G01*
X90525000Y-129025000D01*
G75*
G02*
X90725000Y-128825000I200000J0D01*
G01*
X91275000Y-128825000D01*
G75*
G02*
X91475000Y-129025000I0J-200000D01*
G01*
X91475000Y-129425000D01*
G75*
G02*
X91275000Y-129625000I-200000J0D01*
G01*
G37*
%TD*%
%TO.C,R15*%
G36*
G01*
X91375000Y-89775000D02*
X90825000Y-89775000D01*
G75*
G02*
X90625000Y-89575000I0J200000D01*
G01*
X90625000Y-89175000D01*
G75*
G02*
X90825000Y-88975000I200000J0D01*
G01*
X91375000Y-88975000D01*
G75*
G02*
X91575000Y-89175000I0J-200000D01*
G01*
X91575000Y-89575000D01*
G75*
G02*
X91375000Y-89775000I-200000J0D01*
G01*
G37*
G36*
G01*
X91375000Y-91425000D02*
X90825000Y-91425000D01*
G75*
G02*
X90625000Y-91225000I0J200000D01*
G01*
X90625000Y-90825000D01*
G75*
G02*
X90825000Y-90625000I200000J0D01*
G01*
X91375000Y-90625000D01*
G75*
G02*
X91575000Y-90825000I0J-200000D01*
G01*
X91575000Y-91225000D01*
G75*
G02*
X91375000Y-91425000I-200000J0D01*
G01*
G37*
%TD*%
D17*
%TO.C,U6*%
X63748000Y-65904800D03*
X64548000Y-65904800D03*
X65348000Y-65904800D03*
X66148000Y-65904800D03*
X66948000Y-65904800D03*
X67748000Y-65904800D03*
X68548000Y-65904800D03*
X69348000Y-65904800D03*
D18*
X70798000Y-67354800D03*
X70798000Y-68154800D03*
X70798000Y-68954800D03*
X70798000Y-69754800D03*
X70798000Y-70554800D03*
X70798000Y-71354800D03*
X70798000Y-72154800D03*
X70798000Y-72954800D03*
D17*
X69348000Y-74404800D03*
X68548000Y-74404800D03*
X67748000Y-74404800D03*
X66948000Y-74404800D03*
X66148000Y-74404800D03*
X65348000Y-74404800D03*
X64548000Y-74404800D03*
X63748000Y-74404800D03*
D18*
X62298000Y-72954800D03*
X62298000Y-72154800D03*
X62298000Y-71354800D03*
X62298000Y-70554800D03*
X62298000Y-69754800D03*
X62298000Y-68954800D03*
X62298000Y-68154800D03*
X62298000Y-67354800D03*
%TD*%
%TO.C,C7*%
G36*
G01*
X87225000Y-37350000D02*
X87225000Y-36850000D01*
G75*
G02*
X87450000Y-36625000I225000J0D01*
G01*
X87900000Y-36625000D01*
G75*
G02*
X88125000Y-36850000I0J-225000D01*
G01*
X88125000Y-37350000D01*
G75*
G02*
X87900000Y-37575000I-225000J0D01*
G01*
X87450000Y-37575000D01*
G75*
G02*
X87225000Y-37350000I0J225000D01*
G01*
G37*
G36*
G01*
X85675000Y-37350000D02*
X85675000Y-36850000D01*
G75*
G02*
X85900000Y-36625000I225000J0D01*
G01*
X86350000Y-36625000D01*
G75*
G02*
X86575000Y-36850000I0J-225000D01*
G01*
X86575000Y-37350000D01*
G75*
G02*
X86350000Y-37575000I-225000J0D01*
G01*
X85900000Y-37575000D01*
G75*
G02*
X85675000Y-37350000I0J225000D01*
G01*
G37*
%TD*%
%TO.C,C6*%
G36*
G01*
X54050000Y-37975000D02*
X53550000Y-37975000D01*
G75*
G02*
X53325000Y-37750000I0J225000D01*
G01*
X53325000Y-37300000D01*
G75*
G02*
X53550000Y-37075000I225000J0D01*
G01*
X54050000Y-37075000D01*
G75*
G02*
X54275000Y-37300000I0J-225000D01*
G01*
X54275000Y-37750000D01*
G75*
G02*
X54050000Y-37975000I-225000J0D01*
G01*
G37*
G36*
G01*
X54050000Y-39525000D02*
X53550000Y-39525000D01*
G75*
G02*
X53325000Y-39300000I0J225000D01*
G01*
X53325000Y-38850000D01*
G75*
G02*
X53550000Y-38625000I225000J0D01*
G01*
X54050000Y-38625000D01*
G75*
G02*
X54275000Y-38850000I0J-225000D01*
G01*
X54275000Y-39300000D01*
G75*
G02*
X54050000Y-39525000I-225000J0D01*
G01*
G37*
%TD*%
%TO.C,C5*%
G36*
G01*
X66453600Y-62429200D02*
X66453600Y-61929200D01*
G75*
G02*
X66678600Y-61704200I225000J0D01*
G01*
X67128600Y-61704200D01*
G75*
G02*
X67353600Y-61929200I0J-225000D01*
G01*
X67353600Y-62429200D01*
G75*
G02*
X67128600Y-62654200I-225000J0D01*
G01*
X66678600Y-62654200D01*
G75*
G02*
X66453600Y-62429200I0J225000D01*
G01*
G37*
G36*
G01*
X64903600Y-62429200D02*
X64903600Y-61929200D01*
G75*
G02*
X65128600Y-61704200I225000J0D01*
G01*
X65578600Y-61704200D01*
G75*
G02*
X65803600Y-61929200I0J-225000D01*
G01*
X65803600Y-62429200D01*
G75*
G02*
X65578600Y-62654200I-225000J0D01*
G01*
X65128600Y-62654200D01*
G75*
G02*
X64903600Y-62429200I0J225000D01*
G01*
G37*
%TD*%
%TO.C,C4*%
G36*
G01*
X90625000Y-94050000D02*
X90625000Y-93550000D01*
G75*
G02*
X90850000Y-93325000I225000J0D01*
G01*
X91300000Y-93325000D01*
G75*
G02*
X91525000Y-93550000I0J-225000D01*
G01*
X91525000Y-94050000D01*
G75*
G02*
X91300000Y-94275000I-225000J0D01*
G01*
X90850000Y-94275000D01*
G75*
G02*
X90625000Y-94050000I0J225000D01*
G01*
G37*
G36*
G01*
X89075000Y-94050000D02*
X89075000Y-93550000D01*
G75*
G02*
X89300000Y-93325000I225000J0D01*
G01*
X89750000Y-93325000D01*
G75*
G02*
X89975000Y-93550000I0J-225000D01*
G01*
X89975000Y-94050000D01*
G75*
G02*
X89750000Y-94275000I-225000J0D01*
G01*
X89300000Y-94275000D01*
G75*
G02*
X89075000Y-94050000I0J225000D01*
G01*
G37*
%TD*%
%TO.C,C3*%
G36*
G01*
X91025000Y-113050000D02*
X91025000Y-112550000D01*
G75*
G02*
X91250000Y-112325000I225000J0D01*
G01*
X91700000Y-112325000D01*
G75*
G02*
X91925000Y-112550000I0J-225000D01*
G01*
X91925000Y-113050000D01*
G75*
G02*
X91700000Y-113275000I-225000J0D01*
G01*
X91250000Y-113275000D01*
G75*
G02*
X91025000Y-113050000I0J225000D01*
G01*
G37*
G36*
G01*
X89475000Y-113050000D02*
X89475000Y-112550000D01*
G75*
G02*
X89700000Y-112325000I225000J0D01*
G01*
X90150000Y-112325000D01*
G75*
G02*
X90375000Y-112550000I0J-225000D01*
G01*
X90375000Y-113050000D01*
G75*
G02*
X90150000Y-113275000I-225000J0D01*
G01*
X89700000Y-113275000D01*
G75*
G02*
X89475000Y-113050000I0J225000D01*
G01*
G37*
%TD*%
%TO.C,U8*%
G36*
G01*
X83465000Y-43588800D02*
X83465000Y-42863800D01*
G75*
G02*
X83515000Y-42813800I50000J0D01*
G01*
X83615000Y-42813800D01*
G75*
G02*
X83665000Y-42863800I0J-50000D01*
G01*
X83665000Y-43588800D01*
G75*
G02*
X83615000Y-43638800I-50000J0D01*
G01*
X83515000Y-43638800D01*
G75*
G02*
X83465000Y-43588800I0J50000D01*
G01*
G37*
G36*
G01*
X83865000Y-43588800D02*
X83865000Y-42863800D01*
G75*
G02*
X83915000Y-42813800I50000J0D01*
G01*
X84015000Y-42813800D01*
G75*
G02*
X84065000Y-42863800I0J-50000D01*
G01*
X84065000Y-43588800D01*
G75*
G02*
X84015000Y-43638800I-50000J0D01*
G01*
X83915000Y-43638800D01*
G75*
G02*
X83865000Y-43588800I0J50000D01*
G01*
G37*
G36*
G01*
X84265000Y-43588800D02*
X84265000Y-42863800D01*
G75*
G02*
X84315000Y-42813800I50000J0D01*
G01*
X84415000Y-42813800D01*
G75*
G02*
X84465000Y-42863800I0J-50000D01*
G01*
X84465000Y-43588800D01*
G75*
G02*
X84415000Y-43638800I-50000J0D01*
G01*
X84315000Y-43638800D01*
G75*
G02*
X84265000Y-43588800I0J50000D01*
G01*
G37*
G36*
G01*
X84665000Y-43588800D02*
X84665000Y-42863800D01*
G75*
G02*
X84715000Y-42813800I50000J0D01*
G01*
X84815000Y-42813800D01*
G75*
G02*
X84865000Y-42863800I0J-50000D01*
G01*
X84865000Y-43588800D01*
G75*
G02*
X84815000Y-43638800I-50000J0D01*
G01*
X84715000Y-43638800D01*
G75*
G02*
X84665000Y-43588800I0J50000D01*
G01*
G37*
G36*
G01*
X85065000Y-43588800D02*
X85065000Y-42863800D01*
G75*
G02*
X85115000Y-42813800I50000J0D01*
G01*
X85215000Y-42813800D01*
G75*
G02*
X85265000Y-42863800I0J-50000D01*
G01*
X85265000Y-43588800D01*
G75*
G02*
X85215000Y-43638800I-50000J0D01*
G01*
X85115000Y-43638800D01*
G75*
G02*
X85065000Y-43588800I0J50000D01*
G01*
G37*
G36*
G01*
X85465000Y-43588800D02*
X85465000Y-42863800D01*
G75*
G02*
X85515000Y-42813800I50000J0D01*
G01*
X85615000Y-42813800D01*
G75*
G02*
X85665000Y-42863800I0J-50000D01*
G01*
X85665000Y-43588800D01*
G75*
G02*
X85615000Y-43638800I-50000J0D01*
G01*
X85515000Y-43638800D01*
G75*
G02*
X85465000Y-43588800I0J50000D01*
G01*
G37*
G36*
G01*
X85865000Y-43588800D02*
X85865000Y-42863800D01*
G75*
G02*
X85915000Y-42813800I50000J0D01*
G01*
X86015000Y-42813800D01*
G75*
G02*
X86065000Y-42863800I0J-50000D01*
G01*
X86065000Y-43588800D01*
G75*
G02*
X86015000Y-43638800I-50000J0D01*
G01*
X85915000Y-43638800D01*
G75*
G02*
X85865000Y-43588800I0J50000D01*
G01*
G37*
G36*
G01*
X86265000Y-43588800D02*
X86265000Y-42863800D01*
G75*
G02*
X86315000Y-42813800I50000J0D01*
G01*
X86415000Y-42813800D01*
G75*
G02*
X86465000Y-42863800I0J-50000D01*
G01*
X86465000Y-43588800D01*
G75*
G02*
X86415000Y-43638800I-50000J0D01*
G01*
X86315000Y-43638800D01*
G75*
G02*
X86265000Y-43588800I0J50000D01*
G01*
G37*
G36*
G01*
X86665000Y-43588800D02*
X86665000Y-42863800D01*
G75*
G02*
X86715000Y-42813800I50000J0D01*
G01*
X86815000Y-42813800D01*
G75*
G02*
X86865000Y-42863800I0J-50000D01*
G01*
X86865000Y-43588800D01*
G75*
G02*
X86815000Y-43638800I-50000J0D01*
G01*
X86715000Y-43638800D01*
G75*
G02*
X86665000Y-43588800I0J50000D01*
G01*
G37*
G36*
G01*
X87065000Y-43588800D02*
X87065000Y-42863800D01*
G75*
G02*
X87115000Y-42813800I50000J0D01*
G01*
X87215000Y-42813800D01*
G75*
G02*
X87265000Y-42863800I0J-50000D01*
G01*
X87265000Y-43588800D01*
G75*
G02*
X87215000Y-43638800I-50000J0D01*
G01*
X87115000Y-43638800D01*
G75*
G02*
X87065000Y-43588800I0J50000D01*
G01*
G37*
G36*
G01*
X87415000Y-43838800D02*
X87415000Y-43738800D01*
G75*
G02*
X87465000Y-43688800I50000J0D01*
G01*
X88190000Y-43688800D01*
G75*
G02*
X88240000Y-43738800I0J-50000D01*
G01*
X88240000Y-43838800D01*
G75*
G02*
X88190000Y-43888800I-50000J0D01*
G01*
X87465000Y-43888800D01*
G75*
G02*
X87415000Y-43838800I0J50000D01*
G01*
G37*
G36*
G01*
X87415000Y-44238800D02*
X87415000Y-44138800D01*
G75*
G02*
X87465000Y-44088800I50000J0D01*
G01*
X88190000Y-44088800D01*
G75*
G02*
X88240000Y-44138800I0J-50000D01*
G01*
X88240000Y-44238800D01*
G75*
G02*
X88190000Y-44288800I-50000J0D01*
G01*
X87465000Y-44288800D01*
G75*
G02*
X87415000Y-44238800I0J50000D01*
G01*
G37*
G36*
G01*
X87415000Y-44638800D02*
X87415000Y-44538800D01*
G75*
G02*
X87465000Y-44488800I50000J0D01*
G01*
X88190000Y-44488800D01*
G75*
G02*
X88240000Y-44538800I0J-50000D01*
G01*
X88240000Y-44638800D01*
G75*
G02*
X88190000Y-44688800I-50000J0D01*
G01*
X87465000Y-44688800D01*
G75*
G02*
X87415000Y-44638800I0J50000D01*
G01*
G37*
G36*
G01*
X87415000Y-45038800D02*
X87415000Y-44938800D01*
G75*
G02*
X87465000Y-44888800I50000J0D01*
G01*
X88190000Y-44888800D01*
G75*
G02*
X88240000Y-44938800I0J-50000D01*
G01*
X88240000Y-45038800D01*
G75*
G02*
X88190000Y-45088800I-50000J0D01*
G01*
X87465000Y-45088800D01*
G75*
G02*
X87415000Y-45038800I0J50000D01*
G01*
G37*
G36*
G01*
X87415000Y-45438800D02*
X87415000Y-45338800D01*
G75*
G02*
X87465000Y-45288800I50000J0D01*
G01*
X88190000Y-45288800D01*
G75*
G02*
X88240000Y-45338800I0J-50000D01*
G01*
X88240000Y-45438800D01*
G75*
G02*
X88190000Y-45488800I-50000J0D01*
G01*
X87465000Y-45488800D01*
G75*
G02*
X87415000Y-45438800I0J50000D01*
G01*
G37*
G36*
G01*
X87415000Y-45838800D02*
X87415000Y-45738800D01*
G75*
G02*
X87465000Y-45688800I50000J0D01*
G01*
X88190000Y-45688800D01*
G75*
G02*
X88240000Y-45738800I0J-50000D01*
G01*
X88240000Y-45838800D01*
G75*
G02*
X88190000Y-45888800I-50000J0D01*
G01*
X87465000Y-45888800D01*
G75*
G02*
X87415000Y-45838800I0J50000D01*
G01*
G37*
G36*
G01*
X87415000Y-46238800D02*
X87415000Y-46138800D01*
G75*
G02*
X87465000Y-46088800I50000J0D01*
G01*
X88190000Y-46088800D01*
G75*
G02*
X88240000Y-46138800I0J-50000D01*
G01*
X88240000Y-46238800D01*
G75*
G02*
X88190000Y-46288800I-50000J0D01*
G01*
X87465000Y-46288800D01*
G75*
G02*
X87415000Y-46238800I0J50000D01*
G01*
G37*
G36*
G01*
X87415000Y-46638800D02*
X87415000Y-46538800D01*
G75*
G02*
X87465000Y-46488800I50000J0D01*
G01*
X88190000Y-46488800D01*
G75*
G02*
X88240000Y-46538800I0J-50000D01*
G01*
X88240000Y-46638800D01*
G75*
G02*
X88190000Y-46688800I-50000J0D01*
G01*
X87465000Y-46688800D01*
G75*
G02*
X87415000Y-46638800I0J50000D01*
G01*
G37*
G36*
G01*
X87415000Y-47038800D02*
X87415000Y-46938800D01*
G75*
G02*
X87465000Y-46888800I50000J0D01*
G01*
X88190000Y-46888800D01*
G75*
G02*
X88240000Y-46938800I0J-50000D01*
G01*
X88240000Y-47038800D01*
G75*
G02*
X88190000Y-47088800I-50000J0D01*
G01*
X87465000Y-47088800D01*
G75*
G02*
X87415000Y-47038800I0J50000D01*
G01*
G37*
G36*
G01*
X87415000Y-47438800D02*
X87415000Y-47338800D01*
G75*
G02*
X87465000Y-47288800I50000J0D01*
G01*
X88190000Y-47288800D01*
G75*
G02*
X88240000Y-47338800I0J-50000D01*
G01*
X88240000Y-47438800D01*
G75*
G02*
X88190000Y-47488800I-50000J0D01*
G01*
X87465000Y-47488800D01*
G75*
G02*
X87415000Y-47438800I0J50000D01*
G01*
G37*
G36*
G01*
X87415000Y-47838800D02*
X87415000Y-47738800D01*
G75*
G02*
X87465000Y-47688800I50000J0D01*
G01*
X88190000Y-47688800D01*
G75*
G02*
X88240000Y-47738800I0J-50000D01*
G01*
X88240000Y-47838800D01*
G75*
G02*
X88190000Y-47888800I-50000J0D01*
G01*
X87465000Y-47888800D01*
G75*
G02*
X87415000Y-47838800I0J50000D01*
G01*
G37*
G36*
G01*
X87415000Y-48238800D02*
X87415000Y-48138800D01*
G75*
G02*
X87465000Y-48088800I50000J0D01*
G01*
X88190000Y-48088800D01*
G75*
G02*
X88240000Y-48138800I0J-50000D01*
G01*
X88240000Y-48238800D01*
G75*
G02*
X88190000Y-48288800I-50000J0D01*
G01*
X87465000Y-48288800D01*
G75*
G02*
X87415000Y-48238800I0J50000D01*
G01*
G37*
G36*
G01*
X87415000Y-48638800D02*
X87415000Y-48538800D01*
G75*
G02*
X87465000Y-48488800I50000J0D01*
G01*
X88190000Y-48488800D01*
G75*
G02*
X88240000Y-48538800I0J-50000D01*
G01*
X88240000Y-48638800D01*
G75*
G02*
X88190000Y-48688800I-50000J0D01*
G01*
X87465000Y-48688800D01*
G75*
G02*
X87415000Y-48638800I0J50000D01*
G01*
G37*
G36*
G01*
X87065000Y-49513800D02*
X87065000Y-48788800D01*
G75*
G02*
X87115000Y-48738800I50000J0D01*
G01*
X87215000Y-48738800D01*
G75*
G02*
X87265000Y-48788800I0J-50000D01*
G01*
X87265000Y-49513800D01*
G75*
G02*
X87215000Y-49563800I-50000J0D01*
G01*
X87115000Y-49563800D01*
G75*
G02*
X87065000Y-49513800I0J50000D01*
G01*
G37*
G36*
G01*
X86665000Y-49513800D02*
X86665000Y-48788800D01*
G75*
G02*
X86715000Y-48738800I50000J0D01*
G01*
X86815000Y-48738800D01*
G75*
G02*
X86865000Y-48788800I0J-50000D01*
G01*
X86865000Y-49513800D01*
G75*
G02*
X86815000Y-49563800I-50000J0D01*
G01*
X86715000Y-49563800D01*
G75*
G02*
X86665000Y-49513800I0J50000D01*
G01*
G37*
G36*
G01*
X86265000Y-49513800D02*
X86265000Y-48788800D01*
G75*
G02*
X86315000Y-48738800I50000J0D01*
G01*
X86415000Y-48738800D01*
G75*
G02*
X86465000Y-48788800I0J-50000D01*
G01*
X86465000Y-49513800D01*
G75*
G02*
X86415000Y-49563800I-50000J0D01*
G01*
X86315000Y-49563800D01*
G75*
G02*
X86265000Y-49513800I0J50000D01*
G01*
G37*
G36*
G01*
X85865000Y-49513800D02*
X85865000Y-48788800D01*
G75*
G02*
X85915000Y-48738800I50000J0D01*
G01*
X86015000Y-48738800D01*
G75*
G02*
X86065000Y-48788800I0J-50000D01*
G01*
X86065000Y-49513800D01*
G75*
G02*
X86015000Y-49563800I-50000J0D01*
G01*
X85915000Y-49563800D01*
G75*
G02*
X85865000Y-49513800I0J50000D01*
G01*
G37*
G36*
G01*
X85465000Y-49513800D02*
X85465000Y-48788800D01*
G75*
G02*
X85515000Y-48738800I50000J0D01*
G01*
X85615000Y-48738800D01*
G75*
G02*
X85665000Y-48788800I0J-50000D01*
G01*
X85665000Y-49513800D01*
G75*
G02*
X85615000Y-49563800I-50000J0D01*
G01*
X85515000Y-49563800D01*
G75*
G02*
X85465000Y-49513800I0J50000D01*
G01*
G37*
G36*
G01*
X85065000Y-49513800D02*
X85065000Y-48788800D01*
G75*
G02*
X85115000Y-48738800I50000J0D01*
G01*
X85215000Y-48738800D01*
G75*
G02*
X85265000Y-48788800I0J-50000D01*
G01*
X85265000Y-49513800D01*
G75*
G02*
X85215000Y-49563800I-50000J0D01*
G01*
X85115000Y-49563800D01*
G75*
G02*
X85065000Y-49513800I0J50000D01*
G01*
G37*
G36*
G01*
X84665000Y-49513800D02*
X84665000Y-48788800D01*
G75*
G02*
X84715000Y-48738800I50000J0D01*
G01*
X84815000Y-48738800D01*
G75*
G02*
X84865000Y-48788800I0J-50000D01*
G01*
X84865000Y-49513800D01*
G75*
G02*
X84815000Y-49563800I-50000J0D01*
G01*
X84715000Y-49563800D01*
G75*
G02*
X84665000Y-49513800I0J50000D01*
G01*
G37*
G36*
G01*
X84265000Y-49513800D02*
X84265000Y-48788800D01*
G75*
G02*
X84315000Y-48738800I50000J0D01*
G01*
X84415000Y-48738800D01*
G75*
G02*
X84465000Y-48788800I0J-50000D01*
G01*
X84465000Y-49513800D01*
G75*
G02*
X84415000Y-49563800I-50000J0D01*
G01*
X84315000Y-49563800D01*
G75*
G02*
X84265000Y-49513800I0J50000D01*
G01*
G37*
G36*
G01*
X83865000Y-49513800D02*
X83865000Y-48788800D01*
G75*
G02*
X83915000Y-48738800I50000J0D01*
G01*
X84015000Y-48738800D01*
G75*
G02*
X84065000Y-48788800I0J-50000D01*
G01*
X84065000Y-49513800D01*
G75*
G02*
X84015000Y-49563800I-50000J0D01*
G01*
X83915000Y-49563800D01*
G75*
G02*
X83865000Y-49513800I0J50000D01*
G01*
G37*
G36*
G01*
X83465000Y-49513800D02*
X83465000Y-48788800D01*
G75*
G02*
X83515000Y-48738800I50000J0D01*
G01*
X83615000Y-48738800D01*
G75*
G02*
X83665000Y-48788800I0J-50000D01*
G01*
X83665000Y-49513800D01*
G75*
G02*
X83615000Y-49563800I-50000J0D01*
G01*
X83515000Y-49563800D01*
G75*
G02*
X83465000Y-49513800I0J50000D01*
G01*
G37*
G36*
G01*
X82490000Y-48638800D02*
X82490000Y-48538800D01*
G75*
G02*
X82540000Y-48488800I50000J0D01*
G01*
X83265000Y-48488800D01*
G75*
G02*
X83315000Y-48538800I0J-50000D01*
G01*
X83315000Y-48638800D01*
G75*
G02*
X83265000Y-48688800I-50000J0D01*
G01*
X82540000Y-48688800D01*
G75*
G02*
X82490000Y-48638800I0J50000D01*
G01*
G37*
G36*
G01*
X82490000Y-48238800D02*
X82490000Y-48138800D01*
G75*
G02*
X82540000Y-48088800I50000J0D01*
G01*
X83265000Y-48088800D01*
G75*
G02*
X83315000Y-48138800I0J-50000D01*
G01*
X83315000Y-48238800D01*
G75*
G02*
X83265000Y-48288800I-50000J0D01*
G01*
X82540000Y-48288800D01*
G75*
G02*
X82490000Y-48238800I0J50000D01*
G01*
G37*
G36*
G01*
X82490000Y-47838800D02*
X82490000Y-47738800D01*
G75*
G02*
X82540000Y-47688800I50000J0D01*
G01*
X83265000Y-47688800D01*
G75*
G02*
X83315000Y-47738800I0J-50000D01*
G01*
X83315000Y-47838800D01*
G75*
G02*
X83265000Y-47888800I-50000J0D01*
G01*
X82540000Y-47888800D01*
G75*
G02*
X82490000Y-47838800I0J50000D01*
G01*
G37*
G36*
G01*
X82490000Y-47438800D02*
X82490000Y-47338800D01*
G75*
G02*
X82540000Y-47288800I50000J0D01*
G01*
X83265000Y-47288800D01*
G75*
G02*
X83315000Y-47338800I0J-50000D01*
G01*
X83315000Y-47438800D01*
G75*
G02*
X83265000Y-47488800I-50000J0D01*
G01*
X82540000Y-47488800D01*
G75*
G02*
X82490000Y-47438800I0J50000D01*
G01*
G37*
G36*
G01*
X82490000Y-47038800D02*
X82490000Y-46938800D01*
G75*
G02*
X82540000Y-46888800I50000J0D01*
G01*
X83265000Y-46888800D01*
G75*
G02*
X83315000Y-46938800I0J-50000D01*
G01*
X83315000Y-47038800D01*
G75*
G02*
X83265000Y-47088800I-50000J0D01*
G01*
X82540000Y-47088800D01*
G75*
G02*
X82490000Y-47038800I0J50000D01*
G01*
G37*
G36*
G01*
X82490000Y-46638800D02*
X82490000Y-46538800D01*
G75*
G02*
X82540000Y-46488800I50000J0D01*
G01*
X83265000Y-46488800D01*
G75*
G02*
X83315000Y-46538800I0J-50000D01*
G01*
X83315000Y-46638800D01*
G75*
G02*
X83265000Y-46688800I-50000J0D01*
G01*
X82540000Y-46688800D01*
G75*
G02*
X82490000Y-46638800I0J50000D01*
G01*
G37*
G36*
G01*
X82490000Y-46238800D02*
X82490000Y-46138800D01*
G75*
G02*
X82540000Y-46088800I50000J0D01*
G01*
X83265000Y-46088800D01*
G75*
G02*
X83315000Y-46138800I0J-50000D01*
G01*
X83315000Y-46238800D01*
G75*
G02*
X83265000Y-46288800I-50000J0D01*
G01*
X82540000Y-46288800D01*
G75*
G02*
X82490000Y-46238800I0J50000D01*
G01*
G37*
G36*
G01*
X82490000Y-45838800D02*
X82490000Y-45738800D01*
G75*
G02*
X82540000Y-45688800I50000J0D01*
G01*
X83265000Y-45688800D01*
G75*
G02*
X83315000Y-45738800I0J-50000D01*
G01*
X83315000Y-45838800D01*
G75*
G02*
X83265000Y-45888800I-50000J0D01*
G01*
X82540000Y-45888800D01*
G75*
G02*
X82490000Y-45838800I0J50000D01*
G01*
G37*
G36*
G01*
X82490000Y-45438800D02*
X82490000Y-45338800D01*
G75*
G02*
X82540000Y-45288800I50000J0D01*
G01*
X83265000Y-45288800D01*
G75*
G02*
X83315000Y-45338800I0J-50000D01*
G01*
X83315000Y-45438800D01*
G75*
G02*
X83265000Y-45488800I-50000J0D01*
G01*
X82540000Y-45488800D01*
G75*
G02*
X82490000Y-45438800I0J50000D01*
G01*
G37*
G36*
G01*
X82490000Y-45038800D02*
X82490000Y-44938800D01*
G75*
G02*
X82540000Y-44888800I50000J0D01*
G01*
X83265000Y-44888800D01*
G75*
G02*
X83315000Y-44938800I0J-50000D01*
G01*
X83315000Y-45038800D01*
G75*
G02*
X83265000Y-45088800I-50000J0D01*
G01*
X82540000Y-45088800D01*
G75*
G02*
X82490000Y-45038800I0J50000D01*
G01*
G37*
G36*
G01*
X82490000Y-44638800D02*
X82490000Y-44538800D01*
G75*
G02*
X82540000Y-44488800I50000J0D01*
G01*
X83265000Y-44488800D01*
G75*
G02*
X83315000Y-44538800I0J-50000D01*
G01*
X83315000Y-44638800D01*
G75*
G02*
X83265000Y-44688800I-50000J0D01*
G01*
X82540000Y-44688800D01*
G75*
G02*
X82490000Y-44638800I0J50000D01*
G01*
G37*
G36*
G01*
X82490000Y-44238800D02*
X82490000Y-44138800D01*
G75*
G02*
X82540000Y-44088800I50000J0D01*
G01*
X83265000Y-44088800D01*
G75*
G02*
X83315000Y-44138800I0J-50000D01*
G01*
X83315000Y-44238800D01*
G75*
G02*
X83265000Y-44288800I-50000J0D01*
G01*
X82540000Y-44288800D01*
G75*
G02*
X82490000Y-44238800I0J50000D01*
G01*
G37*
G36*
G01*
X82490000Y-43838800D02*
X82490000Y-43738800D01*
G75*
G02*
X82540000Y-43688800I50000J0D01*
G01*
X83265000Y-43688800D01*
G75*
G02*
X83315000Y-43738800I0J-50000D01*
G01*
X83315000Y-43838800D01*
G75*
G02*
X83265000Y-43888800I-50000J0D01*
G01*
X82540000Y-43888800D01*
G75*
G02*
X82490000Y-43838800I0J50000D01*
G01*
G37*
G36*
G01*
X83965000Y-47838800D02*
X83965000Y-44538800D01*
G75*
G02*
X84215000Y-44288800I250000J0D01*
G01*
X86515000Y-44288800D01*
G75*
G02*
X86765000Y-44538800I0J-250000D01*
G01*
X86765000Y-47838800D01*
G75*
G02*
X86515000Y-48088800I-250000J0D01*
G01*
X84215000Y-48088800D01*
G75*
G02*
X83965000Y-47838800I0J250000D01*
G01*
G37*
%TD*%
D19*
%TO.C,U1*%
X72356800Y-78470800D03*
X72356800Y-76570800D03*
X74556800Y-76570800D03*
X74556800Y-77520800D03*
X74556800Y-78470800D03*
%TD*%
%TO.C,R5*%
G36*
G01*
X66628600Y-78301400D02*
X67178600Y-78301400D01*
G75*
G02*
X67378600Y-78501400I0J-200000D01*
G01*
X67378600Y-78901400D01*
G75*
G02*
X67178600Y-79101400I-200000J0D01*
G01*
X66628600Y-79101400D01*
G75*
G02*
X66428600Y-78901400I0J200000D01*
G01*
X66428600Y-78501400D01*
G75*
G02*
X66628600Y-78301400I200000J0D01*
G01*
G37*
G36*
G01*
X66628600Y-76651400D02*
X67178600Y-76651400D01*
G75*
G02*
X67378600Y-76851400I0J-200000D01*
G01*
X67378600Y-77251400D01*
G75*
G02*
X67178600Y-77451400I-200000J0D01*
G01*
X66628600Y-77451400D01*
G75*
G02*
X66428600Y-77251400I0J200000D01*
G01*
X66428600Y-76851400D01*
G75*
G02*
X66628600Y-76651400I200000J0D01*
G01*
G37*
%TD*%
%TO.C,R4*%
G36*
G01*
X73944800Y-80589800D02*
X73944800Y-80039800D01*
G75*
G02*
X74144800Y-79839800I200000J0D01*
G01*
X74544800Y-79839800D01*
G75*
G02*
X74744800Y-80039800I0J-200000D01*
G01*
X74744800Y-80589800D01*
G75*
G02*
X74544800Y-80789800I-200000J0D01*
G01*
X74144800Y-80789800D01*
G75*
G02*
X73944800Y-80589800I0J200000D01*
G01*
G37*
G36*
G01*
X72294800Y-80589800D02*
X72294800Y-80039800D01*
G75*
G02*
X72494800Y-79839800I200000J0D01*
G01*
X72894800Y-79839800D01*
G75*
G02*
X73094800Y-80039800I0J-200000D01*
G01*
X73094800Y-80589800D01*
G75*
G02*
X72894800Y-80789800I-200000J0D01*
G01*
X72494800Y-80789800D01*
G75*
G02*
X72294800Y-80589800I0J200000D01*
G01*
G37*
%TD*%
%TO.C,D2*%
G36*
G01*
X64458000Y-80212250D02*
X64458000Y-79299750D01*
G75*
G02*
X64701750Y-79056000I243750J0D01*
G01*
X65189250Y-79056000D01*
G75*
G02*
X65433000Y-79299750I0J-243750D01*
G01*
X65433000Y-80212250D01*
G75*
G02*
X65189250Y-80456000I-243750J0D01*
G01*
X64701750Y-80456000D01*
G75*
G02*
X64458000Y-80212250I0J243750D01*
G01*
G37*
G36*
G01*
X62583000Y-80212250D02*
X62583000Y-79299750D01*
G75*
G02*
X62826750Y-79056000I243750J0D01*
G01*
X63314250Y-79056000D01*
G75*
G02*
X63558000Y-79299750I0J-243750D01*
G01*
X63558000Y-80212250D01*
G75*
G02*
X63314250Y-80456000I-243750J0D01*
G01*
X62826750Y-80456000D01*
G75*
G02*
X62583000Y-80212250I0J243750D01*
G01*
G37*
%TD*%
%TO.C,D1*%
G36*
G01*
X74886400Y-81738150D02*
X74886400Y-82650650D01*
G75*
G02*
X74642650Y-82894400I-243750J0D01*
G01*
X74155150Y-82894400D01*
G75*
G02*
X73911400Y-82650650I0J243750D01*
G01*
X73911400Y-81738150D01*
G75*
G02*
X74155150Y-81494400I243750J0D01*
G01*
X74642650Y-81494400D01*
G75*
G02*
X74886400Y-81738150I0J-243750D01*
G01*
G37*
G36*
G01*
X76761400Y-81738150D02*
X76761400Y-82650650D01*
G75*
G02*
X76517650Y-82894400I-243750J0D01*
G01*
X76030150Y-82894400D01*
G75*
G02*
X75786400Y-82650650I0J243750D01*
G01*
X75786400Y-81738150D01*
G75*
G02*
X76030150Y-81494400I243750J0D01*
G01*
X76517650Y-81494400D01*
G75*
G02*
X76761400Y-81738150I0J-243750D01*
G01*
G37*
%TD*%
%TO.C,C2*%
G36*
G01*
X71950000Y-37950000D02*
X71950000Y-37450000D01*
G75*
G02*
X72175000Y-37225000I225000J0D01*
G01*
X72625000Y-37225000D01*
G75*
G02*
X72850000Y-37450000I0J-225000D01*
G01*
X72850000Y-37950000D01*
G75*
G02*
X72625000Y-38175000I-225000J0D01*
G01*
X72175000Y-38175000D01*
G75*
G02*
X71950000Y-37950000I0J225000D01*
G01*
G37*
G36*
G01*
X70400000Y-37950000D02*
X70400000Y-37450000D01*
G75*
G02*
X70625000Y-37225000I225000J0D01*
G01*
X71075000Y-37225000D01*
G75*
G02*
X71300000Y-37450000I0J-225000D01*
G01*
X71300000Y-37950000D01*
G75*
G02*
X71075000Y-38175000I-225000J0D01*
G01*
X70625000Y-38175000D01*
G75*
G02*
X70400000Y-37950000I0J225000D01*
G01*
G37*
%TD*%
%TO.C,C1*%
G36*
G01*
X91025000Y-132650000D02*
X91025000Y-132150000D01*
G75*
G02*
X91250000Y-131925000I225000J0D01*
G01*
X91700000Y-131925000D01*
G75*
G02*
X91925000Y-132150000I0J-225000D01*
G01*
X91925000Y-132650000D01*
G75*
G02*
X91700000Y-132875000I-225000J0D01*
G01*
X91250000Y-132875000D01*
G75*
G02*
X91025000Y-132650000I0J225000D01*
G01*
G37*
G36*
G01*
X89475000Y-132650000D02*
X89475000Y-132150000D01*
G75*
G02*
X89700000Y-131925000I225000J0D01*
G01*
X90150000Y-131925000D01*
G75*
G02*
X90375000Y-132150000I0J-225000D01*
G01*
X90375000Y-132650000D01*
G75*
G02*
X90150000Y-132875000I-225000J0D01*
G01*
X89700000Y-132875000D01*
G75*
G02*
X89475000Y-132650000I0J225000D01*
G01*
G37*
%TD*%
%TO.C,U7*%
G36*
G01*
X49875000Y-43587700D02*
X49875000Y-42862700D01*
G75*
G02*
X49925000Y-42812700I50000J0D01*
G01*
X50025000Y-42812700D01*
G75*
G02*
X50075000Y-42862700I0J-50000D01*
G01*
X50075000Y-43587700D01*
G75*
G02*
X50025000Y-43637700I-50000J0D01*
G01*
X49925000Y-43637700D01*
G75*
G02*
X49875000Y-43587700I0J50000D01*
G01*
G37*
G36*
G01*
X50275000Y-43587700D02*
X50275000Y-42862700D01*
G75*
G02*
X50325000Y-42812700I50000J0D01*
G01*
X50425000Y-42812700D01*
G75*
G02*
X50475000Y-42862700I0J-50000D01*
G01*
X50475000Y-43587700D01*
G75*
G02*
X50425000Y-43637700I-50000J0D01*
G01*
X50325000Y-43637700D01*
G75*
G02*
X50275000Y-43587700I0J50000D01*
G01*
G37*
G36*
G01*
X50675000Y-43587700D02*
X50675000Y-42862700D01*
G75*
G02*
X50725000Y-42812700I50000J0D01*
G01*
X50825000Y-42812700D01*
G75*
G02*
X50875000Y-42862700I0J-50000D01*
G01*
X50875000Y-43587700D01*
G75*
G02*
X50825000Y-43637700I-50000J0D01*
G01*
X50725000Y-43637700D01*
G75*
G02*
X50675000Y-43587700I0J50000D01*
G01*
G37*
G36*
G01*
X51075000Y-43587700D02*
X51075000Y-42862700D01*
G75*
G02*
X51125000Y-42812700I50000J0D01*
G01*
X51225000Y-42812700D01*
G75*
G02*
X51275000Y-42862700I0J-50000D01*
G01*
X51275000Y-43587700D01*
G75*
G02*
X51225000Y-43637700I-50000J0D01*
G01*
X51125000Y-43637700D01*
G75*
G02*
X51075000Y-43587700I0J50000D01*
G01*
G37*
G36*
G01*
X51475000Y-43587700D02*
X51475000Y-42862700D01*
G75*
G02*
X51525000Y-42812700I50000J0D01*
G01*
X51625000Y-42812700D01*
G75*
G02*
X51675000Y-42862700I0J-50000D01*
G01*
X51675000Y-43587700D01*
G75*
G02*
X51625000Y-43637700I-50000J0D01*
G01*
X51525000Y-43637700D01*
G75*
G02*
X51475000Y-43587700I0J50000D01*
G01*
G37*
G36*
G01*
X51875000Y-43587700D02*
X51875000Y-42862700D01*
G75*
G02*
X51925000Y-42812700I50000J0D01*
G01*
X52025000Y-42812700D01*
G75*
G02*
X52075000Y-42862700I0J-50000D01*
G01*
X52075000Y-43587700D01*
G75*
G02*
X52025000Y-43637700I-50000J0D01*
G01*
X51925000Y-43637700D01*
G75*
G02*
X51875000Y-43587700I0J50000D01*
G01*
G37*
G36*
G01*
X52275000Y-43587700D02*
X52275000Y-42862700D01*
G75*
G02*
X52325000Y-42812700I50000J0D01*
G01*
X52425000Y-42812700D01*
G75*
G02*
X52475000Y-42862700I0J-50000D01*
G01*
X52475000Y-43587700D01*
G75*
G02*
X52425000Y-43637700I-50000J0D01*
G01*
X52325000Y-43637700D01*
G75*
G02*
X52275000Y-43587700I0J50000D01*
G01*
G37*
G36*
G01*
X52675000Y-43587700D02*
X52675000Y-42862700D01*
G75*
G02*
X52725000Y-42812700I50000J0D01*
G01*
X52825000Y-42812700D01*
G75*
G02*
X52875000Y-42862700I0J-50000D01*
G01*
X52875000Y-43587700D01*
G75*
G02*
X52825000Y-43637700I-50000J0D01*
G01*
X52725000Y-43637700D01*
G75*
G02*
X52675000Y-43587700I0J50000D01*
G01*
G37*
G36*
G01*
X53075000Y-43587700D02*
X53075000Y-42862700D01*
G75*
G02*
X53125000Y-42812700I50000J0D01*
G01*
X53225000Y-42812700D01*
G75*
G02*
X53275000Y-42862700I0J-50000D01*
G01*
X53275000Y-43587700D01*
G75*
G02*
X53225000Y-43637700I-50000J0D01*
G01*
X53125000Y-43637700D01*
G75*
G02*
X53075000Y-43587700I0J50000D01*
G01*
G37*
G36*
G01*
X53475000Y-43587700D02*
X53475000Y-42862700D01*
G75*
G02*
X53525000Y-42812700I50000J0D01*
G01*
X53625000Y-42812700D01*
G75*
G02*
X53675000Y-42862700I0J-50000D01*
G01*
X53675000Y-43587700D01*
G75*
G02*
X53625000Y-43637700I-50000J0D01*
G01*
X53525000Y-43637700D01*
G75*
G02*
X53475000Y-43587700I0J50000D01*
G01*
G37*
G36*
G01*
X53825000Y-43837700D02*
X53825000Y-43737700D01*
G75*
G02*
X53875000Y-43687700I50000J0D01*
G01*
X54600000Y-43687700D01*
G75*
G02*
X54650000Y-43737700I0J-50000D01*
G01*
X54650000Y-43837700D01*
G75*
G02*
X54600000Y-43887700I-50000J0D01*
G01*
X53875000Y-43887700D01*
G75*
G02*
X53825000Y-43837700I0J50000D01*
G01*
G37*
G36*
G01*
X53825000Y-44237700D02*
X53825000Y-44137700D01*
G75*
G02*
X53875000Y-44087700I50000J0D01*
G01*
X54600000Y-44087700D01*
G75*
G02*
X54650000Y-44137700I0J-50000D01*
G01*
X54650000Y-44237700D01*
G75*
G02*
X54600000Y-44287700I-50000J0D01*
G01*
X53875000Y-44287700D01*
G75*
G02*
X53825000Y-44237700I0J50000D01*
G01*
G37*
G36*
G01*
X53825000Y-44637700D02*
X53825000Y-44537700D01*
G75*
G02*
X53875000Y-44487700I50000J0D01*
G01*
X54600000Y-44487700D01*
G75*
G02*
X54650000Y-44537700I0J-50000D01*
G01*
X54650000Y-44637700D01*
G75*
G02*
X54600000Y-44687700I-50000J0D01*
G01*
X53875000Y-44687700D01*
G75*
G02*
X53825000Y-44637700I0J50000D01*
G01*
G37*
G36*
G01*
X53825000Y-45037700D02*
X53825000Y-44937700D01*
G75*
G02*
X53875000Y-44887700I50000J0D01*
G01*
X54600000Y-44887700D01*
G75*
G02*
X54650000Y-44937700I0J-50000D01*
G01*
X54650000Y-45037700D01*
G75*
G02*
X54600000Y-45087700I-50000J0D01*
G01*
X53875000Y-45087700D01*
G75*
G02*
X53825000Y-45037700I0J50000D01*
G01*
G37*
G36*
G01*
X53825000Y-45437700D02*
X53825000Y-45337700D01*
G75*
G02*
X53875000Y-45287700I50000J0D01*
G01*
X54600000Y-45287700D01*
G75*
G02*
X54650000Y-45337700I0J-50000D01*
G01*
X54650000Y-45437700D01*
G75*
G02*
X54600000Y-45487700I-50000J0D01*
G01*
X53875000Y-45487700D01*
G75*
G02*
X53825000Y-45437700I0J50000D01*
G01*
G37*
G36*
G01*
X53825000Y-45837700D02*
X53825000Y-45737700D01*
G75*
G02*
X53875000Y-45687700I50000J0D01*
G01*
X54600000Y-45687700D01*
G75*
G02*
X54650000Y-45737700I0J-50000D01*
G01*
X54650000Y-45837700D01*
G75*
G02*
X54600000Y-45887700I-50000J0D01*
G01*
X53875000Y-45887700D01*
G75*
G02*
X53825000Y-45837700I0J50000D01*
G01*
G37*
G36*
G01*
X53825000Y-46237700D02*
X53825000Y-46137700D01*
G75*
G02*
X53875000Y-46087700I50000J0D01*
G01*
X54600000Y-46087700D01*
G75*
G02*
X54650000Y-46137700I0J-50000D01*
G01*
X54650000Y-46237700D01*
G75*
G02*
X54600000Y-46287700I-50000J0D01*
G01*
X53875000Y-46287700D01*
G75*
G02*
X53825000Y-46237700I0J50000D01*
G01*
G37*
G36*
G01*
X53825000Y-46637700D02*
X53825000Y-46537700D01*
G75*
G02*
X53875000Y-46487700I50000J0D01*
G01*
X54600000Y-46487700D01*
G75*
G02*
X54650000Y-46537700I0J-50000D01*
G01*
X54650000Y-46637700D01*
G75*
G02*
X54600000Y-46687700I-50000J0D01*
G01*
X53875000Y-46687700D01*
G75*
G02*
X53825000Y-46637700I0J50000D01*
G01*
G37*
G36*
G01*
X53825000Y-47037700D02*
X53825000Y-46937700D01*
G75*
G02*
X53875000Y-46887700I50000J0D01*
G01*
X54600000Y-46887700D01*
G75*
G02*
X54650000Y-46937700I0J-50000D01*
G01*
X54650000Y-47037700D01*
G75*
G02*
X54600000Y-47087700I-50000J0D01*
G01*
X53875000Y-47087700D01*
G75*
G02*
X53825000Y-47037700I0J50000D01*
G01*
G37*
G36*
G01*
X53825000Y-47437700D02*
X53825000Y-47337700D01*
G75*
G02*
X53875000Y-47287700I50000J0D01*
G01*
X54600000Y-47287700D01*
G75*
G02*
X54650000Y-47337700I0J-50000D01*
G01*
X54650000Y-47437700D01*
G75*
G02*
X54600000Y-47487700I-50000J0D01*
G01*
X53875000Y-47487700D01*
G75*
G02*
X53825000Y-47437700I0J50000D01*
G01*
G37*
G36*
G01*
X53825000Y-47837700D02*
X53825000Y-47737700D01*
G75*
G02*
X53875000Y-47687700I50000J0D01*
G01*
X54600000Y-47687700D01*
G75*
G02*
X54650000Y-47737700I0J-50000D01*
G01*
X54650000Y-47837700D01*
G75*
G02*
X54600000Y-47887700I-50000J0D01*
G01*
X53875000Y-47887700D01*
G75*
G02*
X53825000Y-47837700I0J50000D01*
G01*
G37*
G36*
G01*
X53825000Y-48237700D02*
X53825000Y-48137700D01*
G75*
G02*
X53875000Y-48087700I50000J0D01*
G01*
X54600000Y-48087700D01*
G75*
G02*
X54650000Y-48137700I0J-50000D01*
G01*
X54650000Y-48237700D01*
G75*
G02*
X54600000Y-48287700I-50000J0D01*
G01*
X53875000Y-48287700D01*
G75*
G02*
X53825000Y-48237700I0J50000D01*
G01*
G37*
G36*
G01*
X53825000Y-48637700D02*
X53825000Y-48537700D01*
G75*
G02*
X53875000Y-48487700I50000J0D01*
G01*
X54600000Y-48487700D01*
G75*
G02*
X54650000Y-48537700I0J-50000D01*
G01*
X54650000Y-48637700D01*
G75*
G02*
X54600000Y-48687700I-50000J0D01*
G01*
X53875000Y-48687700D01*
G75*
G02*
X53825000Y-48637700I0J50000D01*
G01*
G37*
G36*
G01*
X53475000Y-49512700D02*
X53475000Y-48787700D01*
G75*
G02*
X53525000Y-48737700I50000J0D01*
G01*
X53625000Y-48737700D01*
G75*
G02*
X53675000Y-48787700I0J-50000D01*
G01*
X53675000Y-49512700D01*
G75*
G02*
X53625000Y-49562700I-50000J0D01*
G01*
X53525000Y-49562700D01*
G75*
G02*
X53475000Y-49512700I0J50000D01*
G01*
G37*
G36*
G01*
X53075000Y-49512700D02*
X53075000Y-48787700D01*
G75*
G02*
X53125000Y-48737700I50000J0D01*
G01*
X53225000Y-48737700D01*
G75*
G02*
X53275000Y-48787700I0J-50000D01*
G01*
X53275000Y-49512700D01*
G75*
G02*
X53225000Y-49562700I-50000J0D01*
G01*
X53125000Y-49562700D01*
G75*
G02*
X53075000Y-49512700I0J50000D01*
G01*
G37*
G36*
G01*
X52675000Y-49512700D02*
X52675000Y-48787700D01*
G75*
G02*
X52725000Y-48737700I50000J0D01*
G01*
X52825000Y-48737700D01*
G75*
G02*
X52875000Y-48787700I0J-50000D01*
G01*
X52875000Y-49512700D01*
G75*
G02*
X52825000Y-49562700I-50000J0D01*
G01*
X52725000Y-49562700D01*
G75*
G02*
X52675000Y-49512700I0J50000D01*
G01*
G37*
G36*
G01*
X52275000Y-49512700D02*
X52275000Y-48787700D01*
G75*
G02*
X52325000Y-48737700I50000J0D01*
G01*
X52425000Y-48737700D01*
G75*
G02*
X52475000Y-48787700I0J-50000D01*
G01*
X52475000Y-49512700D01*
G75*
G02*
X52425000Y-49562700I-50000J0D01*
G01*
X52325000Y-49562700D01*
G75*
G02*
X52275000Y-49512700I0J50000D01*
G01*
G37*
G36*
G01*
X51875000Y-49512700D02*
X51875000Y-48787700D01*
G75*
G02*
X51925000Y-48737700I50000J0D01*
G01*
X52025000Y-48737700D01*
G75*
G02*
X52075000Y-48787700I0J-50000D01*
G01*
X52075000Y-49512700D01*
G75*
G02*
X52025000Y-49562700I-50000J0D01*
G01*
X51925000Y-49562700D01*
G75*
G02*
X51875000Y-49512700I0J50000D01*
G01*
G37*
G36*
G01*
X51475000Y-49512700D02*
X51475000Y-48787700D01*
G75*
G02*
X51525000Y-48737700I50000J0D01*
G01*
X51625000Y-48737700D01*
G75*
G02*
X51675000Y-48787700I0J-50000D01*
G01*
X51675000Y-49512700D01*
G75*
G02*
X51625000Y-49562700I-50000J0D01*
G01*
X51525000Y-49562700D01*
G75*
G02*
X51475000Y-49512700I0J50000D01*
G01*
G37*
G36*
G01*
X51075000Y-49512700D02*
X51075000Y-48787700D01*
G75*
G02*
X51125000Y-48737700I50000J0D01*
G01*
X51225000Y-48737700D01*
G75*
G02*
X51275000Y-48787700I0J-50000D01*
G01*
X51275000Y-49512700D01*
G75*
G02*
X51225000Y-49562700I-50000J0D01*
G01*
X51125000Y-49562700D01*
G75*
G02*
X51075000Y-49512700I0J50000D01*
G01*
G37*
G36*
G01*
X50675000Y-49512700D02*
X50675000Y-48787700D01*
G75*
G02*
X50725000Y-48737700I50000J0D01*
G01*
X50825000Y-48737700D01*
G75*
G02*
X50875000Y-48787700I0J-50000D01*
G01*
X50875000Y-49512700D01*
G75*
G02*
X50825000Y-49562700I-50000J0D01*
G01*
X50725000Y-49562700D01*
G75*
G02*
X50675000Y-49512700I0J50000D01*
G01*
G37*
G36*
G01*
X50275000Y-49512700D02*
X50275000Y-48787700D01*
G75*
G02*
X50325000Y-48737700I50000J0D01*
G01*
X50425000Y-48737700D01*
G75*
G02*
X50475000Y-48787700I0J-50000D01*
G01*
X50475000Y-49512700D01*
G75*
G02*
X50425000Y-49562700I-50000J0D01*
G01*
X50325000Y-49562700D01*
G75*
G02*
X50275000Y-49512700I0J50000D01*
G01*
G37*
G36*
G01*
X49875000Y-49512700D02*
X49875000Y-48787700D01*
G75*
G02*
X49925000Y-48737700I50000J0D01*
G01*
X50025000Y-48737700D01*
G75*
G02*
X50075000Y-48787700I0J-50000D01*
G01*
X50075000Y-49512700D01*
G75*
G02*
X50025000Y-49562700I-50000J0D01*
G01*
X49925000Y-49562700D01*
G75*
G02*
X49875000Y-49512700I0J50000D01*
G01*
G37*
G36*
G01*
X48900000Y-48637700D02*
X48900000Y-48537700D01*
G75*
G02*
X48950000Y-48487700I50000J0D01*
G01*
X49675000Y-48487700D01*
G75*
G02*
X49725000Y-48537700I0J-50000D01*
G01*
X49725000Y-48637700D01*
G75*
G02*
X49675000Y-48687700I-50000J0D01*
G01*
X48950000Y-48687700D01*
G75*
G02*
X48900000Y-48637700I0J50000D01*
G01*
G37*
G36*
G01*
X48900000Y-48237700D02*
X48900000Y-48137700D01*
G75*
G02*
X48950000Y-48087700I50000J0D01*
G01*
X49675000Y-48087700D01*
G75*
G02*
X49725000Y-48137700I0J-50000D01*
G01*
X49725000Y-48237700D01*
G75*
G02*
X49675000Y-48287700I-50000J0D01*
G01*
X48950000Y-48287700D01*
G75*
G02*
X48900000Y-48237700I0J50000D01*
G01*
G37*
G36*
G01*
X48900000Y-47837700D02*
X48900000Y-47737700D01*
G75*
G02*
X48950000Y-47687700I50000J0D01*
G01*
X49675000Y-47687700D01*
G75*
G02*
X49725000Y-47737700I0J-50000D01*
G01*
X49725000Y-47837700D01*
G75*
G02*
X49675000Y-47887700I-50000J0D01*
G01*
X48950000Y-47887700D01*
G75*
G02*
X48900000Y-47837700I0J50000D01*
G01*
G37*
G36*
G01*
X48900000Y-47437700D02*
X48900000Y-47337700D01*
G75*
G02*
X48950000Y-47287700I50000J0D01*
G01*
X49675000Y-47287700D01*
G75*
G02*
X49725000Y-47337700I0J-50000D01*
G01*
X49725000Y-47437700D01*
G75*
G02*
X49675000Y-47487700I-50000J0D01*
G01*
X48950000Y-47487700D01*
G75*
G02*
X48900000Y-47437700I0J50000D01*
G01*
G37*
G36*
G01*
X48900000Y-47037700D02*
X48900000Y-46937700D01*
G75*
G02*
X48950000Y-46887700I50000J0D01*
G01*
X49675000Y-46887700D01*
G75*
G02*
X49725000Y-46937700I0J-50000D01*
G01*
X49725000Y-47037700D01*
G75*
G02*
X49675000Y-47087700I-50000J0D01*
G01*
X48950000Y-47087700D01*
G75*
G02*
X48900000Y-47037700I0J50000D01*
G01*
G37*
G36*
G01*
X48900000Y-46637700D02*
X48900000Y-46537700D01*
G75*
G02*
X48950000Y-46487700I50000J0D01*
G01*
X49675000Y-46487700D01*
G75*
G02*
X49725000Y-46537700I0J-50000D01*
G01*
X49725000Y-46637700D01*
G75*
G02*
X49675000Y-46687700I-50000J0D01*
G01*
X48950000Y-46687700D01*
G75*
G02*
X48900000Y-46637700I0J50000D01*
G01*
G37*
G36*
G01*
X48900000Y-46237700D02*
X48900000Y-46137700D01*
G75*
G02*
X48950000Y-46087700I50000J0D01*
G01*
X49675000Y-46087700D01*
G75*
G02*
X49725000Y-46137700I0J-50000D01*
G01*
X49725000Y-46237700D01*
G75*
G02*
X49675000Y-46287700I-50000J0D01*
G01*
X48950000Y-46287700D01*
G75*
G02*
X48900000Y-46237700I0J50000D01*
G01*
G37*
G36*
G01*
X48900000Y-45837700D02*
X48900000Y-45737700D01*
G75*
G02*
X48950000Y-45687700I50000J0D01*
G01*
X49675000Y-45687700D01*
G75*
G02*
X49725000Y-45737700I0J-50000D01*
G01*
X49725000Y-45837700D01*
G75*
G02*
X49675000Y-45887700I-50000J0D01*
G01*
X48950000Y-45887700D01*
G75*
G02*
X48900000Y-45837700I0J50000D01*
G01*
G37*
G36*
G01*
X48900000Y-45437700D02*
X48900000Y-45337700D01*
G75*
G02*
X48950000Y-45287700I50000J0D01*
G01*
X49675000Y-45287700D01*
G75*
G02*
X49725000Y-45337700I0J-50000D01*
G01*
X49725000Y-45437700D01*
G75*
G02*
X49675000Y-45487700I-50000J0D01*
G01*
X48950000Y-45487700D01*
G75*
G02*
X48900000Y-45437700I0J50000D01*
G01*
G37*
G36*
G01*
X48900000Y-45037700D02*
X48900000Y-44937700D01*
G75*
G02*
X48950000Y-44887700I50000J0D01*
G01*
X49675000Y-44887700D01*
G75*
G02*
X49725000Y-44937700I0J-50000D01*
G01*
X49725000Y-45037700D01*
G75*
G02*
X49675000Y-45087700I-50000J0D01*
G01*
X48950000Y-45087700D01*
G75*
G02*
X48900000Y-45037700I0J50000D01*
G01*
G37*
G36*
G01*
X48900000Y-44637700D02*
X48900000Y-44537700D01*
G75*
G02*
X48950000Y-44487700I50000J0D01*
G01*
X49675000Y-44487700D01*
G75*
G02*
X49725000Y-44537700I0J-50000D01*
G01*
X49725000Y-44637700D01*
G75*
G02*
X49675000Y-44687700I-50000J0D01*
G01*
X48950000Y-44687700D01*
G75*
G02*
X48900000Y-44637700I0J50000D01*
G01*
G37*
G36*
G01*
X48900000Y-44237700D02*
X48900000Y-44137700D01*
G75*
G02*
X48950000Y-44087700I50000J0D01*
G01*
X49675000Y-44087700D01*
G75*
G02*
X49725000Y-44137700I0J-50000D01*
G01*
X49725000Y-44237700D01*
G75*
G02*
X49675000Y-44287700I-50000J0D01*
G01*
X48950000Y-44287700D01*
G75*
G02*
X48900000Y-44237700I0J50000D01*
G01*
G37*
G36*
G01*
X48900000Y-43837700D02*
X48900000Y-43737700D01*
G75*
G02*
X48950000Y-43687700I50000J0D01*
G01*
X49675000Y-43687700D01*
G75*
G02*
X49725000Y-43737700I0J-50000D01*
G01*
X49725000Y-43837700D01*
G75*
G02*
X49675000Y-43887700I-50000J0D01*
G01*
X48950000Y-43887700D01*
G75*
G02*
X48900000Y-43837700I0J50000D01*
G01*
G37*
G36*
G01*
X50375000Y-47837700D02*
X50375000Y-44537700D01*
G75*
G02*
X50625000Y-44287700I250000J0D01*
G01*
X52925000Y-44287700D01*
G75*
G02*
X53175000Y-44537700I0J-250000D01*
G01*
X53175000Y-47837700D01*
G75*
G02*
X52925000Y-48087700I-250000J0D01*
G01*
X50625000Y-48087700D01*
G75*
G02*
X50375000Y-47837700I0J250000D01*
G01*
G37*
%TD*%
%TO.C,U5*%
G36*
G01*
X66875000Y-43593000D02*
X66875000Y-42868000D01*
G75*
G02*
X66925000Y-42818000I50000J0D01*
G01*
X67025000Y-42818000D01*
G75*
G02*
X67075000Y-42868000I0J-50000D01*
G01*
X67075000Y-43593000D01*
G75*
G02*
X67025000Y-43643000I-50000J0D01*
G01*
X66925000Y-43643000D01*
G75*
G02*
X66875000Y-43593000I0J50000D01*
G01*
G37*
G36*
G01*
X67275000Y-43593000D02*
X67275000Y-42868000D01*
G75*
G02*
X67325000Y-42818000I50000J0D01*
G01*
X67425000Y-42818000D01*
G75*
G02*
X67475000Y-42868000I0J-50000D01*
G01*
X67475000Y-43593000D01*
G75*
G02*
X67425000Y-43643000I-50000J0D01*
G01*
X67325000Y-43643000D01*
G75*
G02*
X67275000Y-43593000I0J50000D01*
G01*
G37*
G36*
G01*
X67675000Y-43593000D02*
X67675000Y-42868000D01*
G75*
G02*
X67725000Y-42818000I50000J0D01*
G01*
X67825000Y-42818000D01*
G75*
G02*
X67875000Y-42868000I0J-50000D01*
G01*
X67875000Y-43593000D01*
G75*
G02*
X67825000Y-43643000I-50000J0D01*
G01*
X67725000Y-43643000D01*
G75*
G02*
X67675000Y-43593000I0J50000D01*
G01*
G37*
G36*
G01*
X68075000Y-43593000D02*
X68075000Y-42868000D01*
G75*
G02*
X68125000Y-42818000I50000J0D01*
G01*
X68225000Y-42818000D01*
G75*
G02*
X68275000Y-42868000I0J-50000D01*
G01*
X68275000Y-43593000D01*
G75*
G02*
X68225000Y-43643000I-50000J0D01*
G01*
X68125000Y-43643000D01*
G75*
G02*
X68075000Y-43593000I0J50000D01*
G01*
G37*
G36*
G01*
X68475000Y-43593000D02*
X68475000Y-42868000D01*
G75*
G02*
X68525000Y-42818000I50000J0D01*
G01*
X68625000Y-42818000D01*
G75*
G02*
X68675000Y-42868000I0J-50000D01*
G01*
X68675000Y-43593000D01*
G75*
G02*
X68625000Y-43643000I-50000J0D01*
G01*
X68525000Y-43643000D01*
G75*
G02*
X68475000Y-43593000I0J50000D01*
G01*
G37*
G36*
G01*
X68875000Y-43593000D02*
X68875000Y-42868000D01*
G75*
G02*
X68925000Y-42818000I50000J0D01*
G01*
X69025000Y-42818000D01*
G75*
G02*
X69075000Y-42868000I0J-50000D01*
G01*
X69075000Y-43593000D01*
G75*
G02*
X69025000Y-43643000I-50000J0D01*
G01*
X68925000Y-43643000D01*
G75*
G02*
X68875000Y-43593000I0J50000D01*
G01*
G37*
G36*
G01*
X69275000Y-43593000D02*
X69275000Y-42868000D01*
G75*
G02*
X69325000Y-42818000I50000J0D01*
G01*
X69425000Y-42818000D01*
G75*
G02*
X69475000Y-42868000I0J-50000D01*
G01*
X69475000Y-43593000D01*
G75*
G02*
X69425000Y-43643000I-50000J0D01*
G01*
X69325000Y-43643000D01*
G75*
G02*
X69275000Y-43593000I0J50000D01*
G01*
G37*
G36*
G01*
X69675000Y-43593000D02*
X69675000Y-42868000D01*
G75*
G02*
X69725000Y-42818000I50000J0D01*
G01*
X69825000Y-42818000D01*
G75*
G02*
X69875000Y-42868000I0J-50000D01*
G01*
X69875000Y-43593000D01*
G75*
G02*
X69825000Y-43643000I-50000J0D01*
G01*
X69725000Y-43643000D01*
G75*
G02*
X69675000Y-43593000I0J50000D01*
G01*
G37*
G36*
G01*
X70075000Y-43593000D02*
X70075000Y-42868000D01*
G75*
G02*
X70125000Y-42818000I50000J0D01*
G01*
X70225000Y-42818000D01*
G75*
G02*
X70275000Y-42868000I0J-50000D01*
G01*
X70275000Y-43593000D01*
G75*
G02*
X70225000Y-43643000I-50000J0D01*
G01*
X70125000Y-43643000D01*
G75*
G02*
X70075000Y-43593000I0J50000D01*
G01*
G37*
G36*
G01*
X70475000Y-43593000D02*
X70475000Y-42868000D01*
G75*
G02*
X70525000Y-42818000I50000J0D01*
G01*
X70625000Y-42818000D01*
G75*
G02*
X70675000Y-42868000I0J-50000D01*
G01*
X70675000Y-43593000D01*
G75*
G02*
X70625000Y-43643000I-50000J0D01*
G01*
X70525000Y-43643000D01*
G75*
G02*
X70475000Y-43593000I0J50000D01*
G01*
G37*
G36*
G01*
X70825000Y-43843000D02*
X70825000Y-43743000D01*
G75*
G02*
X70875000Y-43693000I50000J0D01*
G01*
X71600000Y-43693000D01*
G75*
G02*
X71650000Y-43743000I0J-50000D01*
G01*
X71650000Y-43843000D01*
G75*
G02*
X71600000Y-43893000I-50000J0D01*
G01*
X70875000Y-43893000D01*
G75*
G02*
X70825000Y-43843000I0J50000D01*
G01*
G37*
G36*
G01*
X70825000Y-44243000D02*
X70825000Y-44143000D01*
G75*
G02*
X70875000Y-44093000I50000J0D01*
G01*
X71600000Y-44093000D01*
G75*
G02*
X71650000Y-44143000I0J-50000D01*
G01*
X71650000Y-44243000D01*
G75*
G02*
X71600000Y-44293000I-50000J0D01*
G01*
X70875000Y-44293000D01*
G75*
G02*
X70825000Y-44243000I0J50000D01*
G01*
G37*
G36*
G01*
X70825000Y-44643000D02*
X70825000Y-44543000D01*
G75*
G02*
X70875000Y-44493000I50000J0D01*
G01*
X71600000Y-44493000D01*
G75*
G02*
X71650000Y-44543000I0J-50000D01*
G01*
X71650000Y-44643000D01*
G75*
G02*
X71600000Y-44693000I-50000J0D01*
G01*
X70875000Y-44693000D01*
G75*
G02*
X70825000Y-44643000I0J50000D01*
G01*
G37*
G36*
G01*
X70825000Y-45043000D02*
X70825000Y-44943000D01*
G75*
G02*
X70875000Y-44893000I50000J0D01*
G01*
X71600000Y-44893000D01*
G75*
G02*
X71650000Y-44943000I0J-50000D01*
G01*
X71650000Y-45043000D01*
G75*
G02*
X71600000Y-45093000I-50000J0D01*
G01*
X70875000Y-45093000D01*
G75*
G02*
X70825000Y-45043000I0J50000D01*
G01*
G37*
G36*
G01*
X70825000Y-45443000D02*
X70825000Y-45343000D01*
G75*
G02*
X70875000Y-45293000I50000J0D01*
G01*
X71600000Y-45293000D01*
G75*
G02*
X71650000Y-45343000I0J-50000D01*
G01*
X71650000Y-45443000D01*
G75*
G02*
X71600000Y-45493000I-50000J0D01*
G01*
X70875000Y-45493000D01*
G75*
G02*
X70825000Y-45443000I0J50000D01*
G01*
G37*
G36*
G01*
X70825000Y-45843000D02*
X70825000Y-45743000D01*
G75*
G02*
X70875000Y-45693000I50000J0D01*
G01*
X71600000Y-45693000D01*
G75*
G02*
X71650000Y-45743000I0J-50000D01*
G01*
X71650000Y-45843000D01*
G75*
G02*
X71600000Y-45893000I-50000J0D01*
G01*
X70875000Y-45893000D01*
G75*
G02*
X70825000Y-45843000I0J50000D01*
G01*
G37*
G36*
G01*
X70825000Y-46243000D02*
X70825000Y-46143000D01*
G75*
G02*
X70875000Y-46093000I50000J0D01*
G01*
X71600000Y-46093000D01*
G75*
G02*
X71650000Y-46143000I0J-50000D01*
G01*
X71650000Y-46243000D01*
G75*
G02*
X71600000Y-46293000I-50000J0D01*
G01*
X70875000Y-46293000D01*
G75*
G02*
X70825000Y-46243000I0J50000D01*
G01*
G37*
G36*
G01*
X70825000Y-46643000D02*
X70825000Y-46543000D01*
G75*
G02*
X70875000Y-46493000I50000J0D01*
G01*
X71600000Y-46493000D01*
G75*
G02*
X71650000Y-46543000I0J-50000D01*
G01*
X71650000Y-46643000D01*
G75*
G02*
X71600000Y-46693000I-50000J0D01*
G01*
X70875000Y-46693000D01*
G75*
G02*
X70825000Y-46643000I0J50000D01*
G01*
G37*
G36*
G01*
X70825000Y-47043000D02*
X70825000Y-46943000D01*
G75*
G02*
X70875000Y-46893000I50000J0D01*
G01*
X71600000Y-46893000D01*
G75*
G02*
X71650000Y-46943000I0J-50000D01*
G01*
X71650000Y-47043000D01*
G75*
G02*
X71600000Y-47093000I-50000J0D01*
G01*
X70875000Y-47093000D01*
G75*
G02*
X70825000Y-47043000I0J50000D01*
G01*
G37*
G36*
G01*
X70825000Y-47443000D02*
X70825000Y-47343000D01*
G75*
G02*
X70875000Y-47293000I50000J0D01*
G01*
X71600000Y-47293000D01*
G75*
G02*
X71650000Y-47343000I0J-50000D01*
G01*
X71650000Y-47443000D01*
G75*
G02*
X71600000Y-47493000I-50000J0D01*
G01*
X70875000Y-47493000D01*
G75*
G02*
X70825000Y-47443000I0J50000D01*
G01*
G37*
G36*
G01*
X70825000Y-47843000D02*
X70825000Y-47743000D01*
G75*
G02*
X70875000Y-47693000I50000J0D01*
G01*
X71600000Y-47693000D01*
G75*
G02*
X71650000Y-47743000I0J-50000D01*
G01*
X71650000Y-47843000D01*
G75*
G02*
X71600000Y-47893000I-50000J0D01*
G01*
X70875000Y-47893000D01*
G75*
G02*
X70825000Y-47843000I0J50000D01*
G01*
G37*
G36*
G01*
X70825000Y-48243000D02*
X70825000Y-48143000D01*
G75*
G02*
X70875000Y-48093000I50000J0D01*
G01*
X71600000Y-48093000D01*
G75*
G02*
X71650000Y-48143000I0J-50000D01*
G01*
X71650000Y-48243000D01*
G75*
G02*
X71600000Y-48293000I-50000J0D01*
G01*
X70875000Y-48293000D01*
G75*
G02*
X70825000Y-48243000I0J50000D01*
G01*
G37*
G36*
G01*
X70825000Y-48643000D02*
X70825000Y-48543000D01*
G75*
G02*
X70875000Y-48493000I50000J0D01*
G01*
X71600000Y-48493000D01*
G75*
G02*
X71650000Y-48543000I0J-50000D01*
G01*
X71650000Y-48643000D01*
G75*
G02*
X71600000Y-48693000I-50000J0D01*
G01*
X70875000Y-48693000D01*
G75*
G02*
X70825000Y-48643000I0J50000D01*
G01*
G37*
G36*
G01*
X70475000Y-49518000D02*
X70475000Y-48793000D01*
G75*
G02*
X70525000Y-48743000I50000J0D01*
G01*
X70625000Y-48743000D01*
G75*
G02*
X70675000Y-48793000I0J-50000D01*
G01*
X70675000Y-49518000D01*
G75*
G02*
X70625000Y-49568000I-50000J0D01*
G01*
X70525000Y-49568000D01*
G75*
G02*
X70475000Y-49518000I0J50000D01*
G01*
G37*
G36*
G01*
X70075000Y-49518000D02*
X70075000Y-48793000D01*
G75*
G02*
X70125000Y-48743000I50000J0D01*
G01*
X70225000Y-48743000D01*
G75*
G02*
X70275000Y-48793000I0J-50000D01*
G01*
X70275000Y-49518000D01*
G75*
G02*
X70225000Y-49568000I-50000J0D01*
G01*
X70125000Y-49568000D01*
G75*
G02*
X70075000Y-49518000I0J50000D01*
G01*
G37*
G36*
G01*
X69675000Y-49518000D02*
X69675000Y-48793000D01*
G75*
G02*
X69725000Y-48743000I50000J0D01*
G01*
X69825000Y-48743000D01*
G75*
G02*
X69875000Y-48793000I0J-50000D01*
G01*
X69875000Y-49518000D01*
G75*
G02*
X69825000Y-49568000I-50000J0D01*
G01*
X69725000Y-49568000D01*
G75*
G02*
X69675000Y-49518000I0J50000D01*
G01*
G37*
G36*
G01*
X69275000Y-49518000D02*
X69275000Y-48793000D01*
G75*
G02*
X69325000Y-48743000I50000J0D01*
G01*
X69425000Y-48743000D01*
G75*
G02*
X69475000Y-48793000I0J-50000D01*
G01*
X69475000Y-49518000D01*
G75*
G02*
X69425000Y-49568000I-50000J0D01*
G01*
X69325000Y-49568000D01*
G75*
G02*
X69275000Y-49518000I0J50000D01*
G01*
G37*
G36*
G01*
X68875000Y-49518000D02*
X68875000Y-48793000D01*
G75*
G02*
X68925000Y-48743000I50000J0D01*
G01*
X69025000Y-48743000D01*
G75*
G02*
X69075000Y-48793000I0J-50000D01*
G01*
X69075000Y-49518000D01*
G75*
G02*
X69025000Y-49568000I-50000J0D01*
G01*
X68925000Y-49568000D01*
G75*
G02*
X68875000Y-49518000I0J50000D01*
G01*
G37*
G36*
G01*
X68475000Y-49518000D02*
X68475000Y-48793000D01*
G75*
G02*
X68525000Y-48743000I50000J0D01*
G01*
X68625000Y-48743000D01*
G75*
G02*
X68675000Y-48793000I0J-50000D01*
G01*
X68675000Y-49518000D01*
G75*
G02*
X68625000Y-49568000I-50000J0D01*
G01*
X68525000Y-49568000D01*
G75*
G02*
X68475000Y-49518000I0J50000D01*
G01*
G37*
G36*
G01*
X68075000Y-49518000D02*
X68075000Y-48793000D01*
G75*
G02*
X68125000Y-48743000I50000J0D01*
G01*
X68225000Y-48743000D01*
G75*
G02*
X68275000Y-48793000I0J-50000D01*
G01*
X68275000Y-49518000D01*
G75*
G02*
X68225000Y-49568000I-50000J0D01*
G01*
X68125000Y-49568000D01*
G75*
G02*
X68075000Y-49518000I0J50000D01*
G01*
G37*
G36*
G01*
X67675000Y-49518000D02*
X67675000Y-48793000D01*
G75*
G02*
X67725000Y-48743000I50000J0D01*
G01*
X67825000Y-48743000D01*
G75*
G02*
X67875000Y-48793000I0J-50000D01*
G01*
X67875000Y-49518000D01*
G75*
G02*
X67825000Y-49568000I-50000J0D01*
G01*
X67725000Y-49568000D01*
G75*
G02*
X67675000Y-49518000I0J50000D01*
G01*
G37*
G36*
G01*
X67275000Y-49518000D02*
X67275000Y-48793000D01*
G75*
G02*
X67325000Y-48743000I50000J0D01*
G01*
X67425000Y-48743000D01*
G75*
G02*
X67475000Y-48793000I0J-50000D01*
G01*
X67475000Y-49518000D01*
G75*
G02*
X67425000Y-49568000I-50000J0D01*
G01*
X67325000Y-49568000D01*
G75*
G02*
X67275000Y-49518000I0J50000D01*
G01*
G37*
G36*
G01*
X66875000Y-49518000D02*
X66875000Y-48793000D01*
G75*
G02*
X66925000Y-48743000I50000J0D01*
G01*
X67025000Y-48743000D01*
G75*
G02*
X67075000Y-48793000I0J-50000D01*
G01*
X67075000Y-49518000D01*
G75*
G02*
X67025000Y-49568000I-50000J0D01*
G01*
X66925000Y-49568000D01*
G75*
G02*
X66875000Y-49518000I0J50000D01*
G01*
G37*
G36*
G01*
X65900000Y-48643000D02*
X65900000Y-48543000D01*
G75*
G02*
X65950000Y-48493000I50000J0D01*
G01*
X66675000Y-48493000D01*
G75*
G02*
X66725000Y-48543000I0J-50000D01*
G01*
X66725000Y-48643000D01*
G75*
G02*
X66675000Y-48693000I-50000J0D01*
G01*
X65950000Y-48693000D01*
G75*
G02*
X65900000Y-48643000I0J50000D01*
G01*
G37*
G36*
G01*
X65900000Y-48243000D02*
X65900000Y-48143000D01*
G75*
G02*
X65950000Y-48093000I50000J0D01*
G01*
X66675000Y-48093000D01*
G75*
G02*
X66725000Y-48143000I0J-50000D01*
G01*
X66725000Y-48243000D01*
G75*
G02*
X66675000Y-48293000I-50000J0D01*
G01*
X65950000Y-48293000D01*
G75*
G02*
X65900000Y-48243000I0J50000D01*
G01*
G37*
G36*
G01*
X65900000Y-47843000D02*
X65900000Y-47743000D01*
G75*
G02*
X65950000Y-47693000I50000J0D01*
G01*
X66675000Y-47693000D01*
G75*
G02*
X66725000Y-47743000I0J-50000D01*
G01*
X66725000Y-47843000D01*
G75*
G02*
X66675000Y-47893000I-50000J0D01*
G01*
X65950000Y-47893000D01*
G75*
G02*
X65900000Y-47843000I0J50000D01*
G01*
G37*
G36*
G01*
X65900000Y-47443000D02*
X65900000Y-47343000D01*
G75*
G02*
X65950000Y-47293000I50000J0D01*
G01*
X66675000Y-47293000D01*
G75*
G02*
X66725000Y-47343000I0J-50000D01*
G01*
X66725000Y-47443000D01*
G75*
G02*
X66675000Y-47493000I-50000J0D01*
G01*
X65950000Y-47493000D01*
G75*
G02*
X65900000Y-47443000I0J50000D01*
G01*
G37*
G36*
G01*
X65900000Y-47043000D02*
X65900000Y-46943000D01*
G75*
G02*
X65950000Y-46893000I50000J0D01*
G01*
X66675000Y-46893000D01*
G75*
G02*
X66725000Y-46943000I0J-50000D01*
G01*
X66725000Y-47043000D01*
G75*
G02*
X66675000Y-47093000I-50000J0D01*
G01*
X65950000Y-47093000D01*
G75*
G02*
X65900000Y-47043000I0J50000D01*
G01*
G37*
G36*
G01*
X65900000Y-46643000D02*
X65900000Y-46543000D01*
G75*
G02*
X65950000Y-46493000I50000J0D01*
G01*
X66675000Y-46493000D01*
G75*
G02*
X66725000Y-46543000I0J-50000D01*
G01*
X66725000Y-46643000D01*
G75*
G02*
X66675000Y-46693000I-50000J0D01*
G01*
X65950000Y-46693000D01*
G75*
G02*
X65900000Y-46643000I0J50000D01*
G01*
G37*
G36*
G01*
X65900000Y-46243000D02*
X65900000Y-46143000D01*
G75*
G02*
X65950000Y-46093000I50000J0D01*
G01*
X66675000Y-46093000D01*
G75*
G02*
X66725000Y-46143000I0J-50000D01*
G01*
X66725000Y-46243000D01*
G75*
G02*
X66675000Y-46293000I-50000J0D01*
G01*
X65950000Y-46293000D01*
G75*
G02*
X65900000Y-46243000I0J50000D01*
G01*
G37*
G36*
G01*
X65900000Y-45843000D02*
X65900000Y-45743000D01*
G75*
G02*
X65950000Y-45693000I50000J0D01*
G01*
X66675000Y-45693000D01*
G75*
G02*
X66725000Y-45743000I0J-50000D01*
G01*
X66725000Y-45843000D01*
G75*
G02*
X66675000Y-45893000I-50000J0D01*
G01*
X65950000Y-45893000D01*
G75*
G02*
X65900000Y-45843000I0J50000D01*
G01*
G37*
G36*
G01*
X65900000Y-45443000D02*
X65900000Y-45343000D01*
G75*
G02*
X65950000Y-45293000I50000J0D01*
G01*
X66675000Y-45293000D01*
G75*
G02*
X66725000Y-45343000I0J-50000D01*
G01*
X66725000Y-45443000D01*
G75*
G02*
X66675000Y-45493000I-50000J0D01*
G01*
X65950000Y-45493000D01*
G75*
G02*
X65900000Y-45443000I0J50000D01*
G01*
G37*
G36*
G01*
X65900000Y-45043000D02*
X65900000Y-44943000D01*
G75*
G02*
X65950000Y-44893000I50000J0D01*
G01*
X66675000Y-44893000D01*
G75*
G02*
X66725000Y-44943000I0J-50000D01*
G01*
X66725000Y-45043000D01*
G75*
G02*
X66675000Y-45093000I-50000J0D01*
G01*
X65950000Y-45093000D01*
G75*
G02*
X65900000Y-45043000I0J50000D01*
G01*
G37*
G36*
G01*
X65900000Y-44643000D02*
X65900000Y-44543000D01*
G75*
G02*
X65950000Y-44493000I50000J0D01*
G01*
X66675000Y-44493000D01*
G75*
G02*
X66725000Y-44543000I0J-50000D01*
G01*
X66725000Y-44643000D01*
G75*
G02*
X66675000Y-44693000I-50000J0D01*
G01*
X65950000Y-44693000D01*
G75*
G02*
X65900000Y-44643000I0J50000D01*
G01*
G37*
G36*
G01*
X65900000Y-44243000D02*
X65900000Y-44143000D01*
G75*
G02*
X65950000Y-44093000I50000J0D01*
G01*
X66675000Y-44093000D01*
G75*
G02*
X66725000Y-44143000I0J-50000D01*
G01*
X66725000Y-44243000D01*
G75*
G02*
X66675000Y-44293000I-50000J0D01*
G01*
X65950000Y-44293000D01*
G75*
G02*
X65900000Y-44243000I0J50000D01*
G01*
G37*
G36*
G01*
X65900000Y-43843000D02*
X65900000Y-43743000D01*
G75*
G02*
X65950000Y-43693000I50000J0D01*
G01*
X66675000Y-43693000D01*
G75*
G02*
X66725000Y-43743000I0J-50000D01*
G01*
X66725000Y-43843000D01*
G75*
G02*
X66675000Y-43893000I-50000J0D01*
G01*
X65950000Y-43893000D01*
G75*
G02*
X65900000Y-43843000I0J50000D01*
G01*
G37*
G36*
G01*
X67375000Y-47843000D02*
X67375000Y-44543000D01*
G75*
G02*
X67625000Y-44293000I250000J0D01*
G01*
X69925000Y-44293000D01*
G75*
G02*
X70175000Y-44543000I0J-250000D01*
G01*
X70175000Y-47843000D01*
G75*
G02*
X69925000Y-48093000I-250000J0D01*
G01*
X67625000Y-48093000D01*
G75*
G02*
X67375000Y-47843000I0J250000D01*
G01*
G37*
%TD*%
%TO.C,U4*%
G36*
G01*
X87563000Y-109631000D02*
X88288000Y-109631000D01*
G75*
G02*
X88338000Y-109681000I0J-50000D01*
G01*
X88338000Y-109781000D01*
G75*
G02*
X88288000Y-109831000I-50000J0D01*
G01*
X87563000Y-109831000D01*
G75*
G02*
X87513000Y-109781000I0J50000D01*
G01*
X87513000Y-109681000D01*
G75*
G02*
X87563000Y-109631000I50000J0D01*
G01*
G37*
G36*
G01*
X87563000Y-110031000D02*
X88288000Y-110031000D01*
G75*
G02*
X88338000Y-110081000I0J-50000D01*
G01*
X88338000Y-110181000D01*
G75*
G02*
X88288000Y-110231000I-50000J0D01*
G01*
X87563000Y-110231000D01*
G75*
G02*
X87513000Y-110181000I0J50000D01*
G01*
X87513000Y-110081000D01*
G75*
G02*
X87563000Y-110031000I50000J0D01*
G01*
G37*
G36*
G01*
X87563000Y-110431000D02*
X88288000Y-110431000D01*
G75*
G02*
X88338000Y-110481000I0J-50000D01*
G01*
X88338000Y-110581000D01*
G75*
G02*
X88288000Y-110631000I-50000J0D01*
G01*
X87563000Y-110631000D01*
G75*
G02*
X87513000Y-110581000I0J50000D01*
G01*
X87513000Y-110481000D01*
G75*
G02*
X87563000Y-110431000I50000J0D01*
G01*
G37*
G36*
G01*
X87563000Y-110831000D02*
X88288000Y-110831000D01*
G75*
G02*
X88338000Y-110881000I0J-50000D01*
G01*
X88338000Y-110981000D01*
G75*
G02*
X88288000Y-111031000I-50000J0D01*
G01*
X87563000Y-111031000D01*
G75*
G02*
X87513000Y-110981000I0J50000D01*
G01*
X87513000Y-110881000D01*
G75*
G02*
X87563000Y-110831000I50000J0D01*
G01*
G37*
G36*
G01*
X87563000Y-111231000D02*
X88288000Y-111231000D01*
G75*
G02*
X88338000Y-111281000I0J-50000D01*
G01*
X88338000Y-111381000D01*
G75*
G02*
X88288000Y-111431000I-50000J0D01*
G01*
X87563000Y-111431000D01*
G75*
G02*
X87513000Y-111381000I0J50000D01*
G01*
X87513000Y-111281000D01*
G75*
G02*
X87563000Y-111231000I50000J0D01*
G01*
G37*
G36*
G01*
X87563000Y-111631000D02*
X88288000Y-111631000D01*
G75*
G02*
X88338000Y-111681000I0J-50000D01*
G01*
X88338000Y-111781000D01*
G75*
G02*
X88288000Y-111831000I-50000J0D01*
G01*
X87563000Y-111831000D01*
G75*
G02*
X87513000Y-111781000I0J50000D01*
G01*
X87513000Y-111681000D01*
G75*
G02*
X87563000Y-111631000I50000J0D01*
G01*
G37*
G36*
G01*
X87563000Y-112031000D02*
X88288000Y-112031000D01*
G75*
G02*
X88338000Y-112081000I0J-50000D01*
G01*
X88338000Y-112181000D01*
G75*
G02*
X88288000Y-112231000I-50000J0D01*
G01*
X87563000Y-112231000D01*
G75*
G02*
X87513000Y-112181000I0J50000D01*
G01*
X87513000Y-112081000D01*
G75*
G02*
X87563000Y-112031000I50000J0D01*
G01*
G37*
G36*
G01*
X87563000Y-112431000D02*
X88288000Y-112431000D01*
G75*
G02*
X88338000Y-112481000I0J-50000D01*
G01*
X88338000Y-112581000D01*
G75*
G02*
X88288000Y-112631000I-50000J0D01*
G01*
X87563000Y-112631000D01*
G75*
G02*
X87513000Y-112581000I0J50000D01*
G01*
X87513000Y-112481000D01*
G75*
G02*
X87563000Y-112431000I50000J0D01*
G01*
G37*
G36*
G01*
X87563000Y-112831000D02*
X88288000Y-112831000D01*
G75*
G02*
X88338000Y-112881000I0J-50000D01*
G01*
X88338000Y-112981000D01*
G75*
G02*
X88288000Y-113031000I-50000J0D01*
G01*
X87563000Y-113031000D01*
G75*
G02*
X87513000Y-112981000I0J50000D01*
G01*
X87513000Y-112881000D01*
G75*
G02*
X87563000Y-112831000I50000J0D01*
G01*
G37*
G36*
G01*
X87563000Y-113231000D02*
X88288000Y-113231000D01*
G75*
G02*
X88338000Y-113281000I0J-50000D01*
G01*
X88338000Y-113381000D01*
G75*
G02*
X88288000Y-113431000I-50000J0D01*
G01*
X87563000Y-113431000D01*
G75*
G02*
X87513000Y-113381000I0J50000D01*
G01*
X87513000Y-113281000D01*
G75*
G02*
X87563000Y-113231000I50000J0D01*
G01*
G37*
G36*
G01*
X87313000Y-113581000D02*
X87413000Y-113581000D01*
G75*
G02*
X87463000Y-113631000I0J-50000D01*
G01*
X87463000Y-114356000D01*
G75*
G02*
X87413000Y-114406000I-50000J0D01*
G01*
X87313000Y-114406000D01*
G75*
G02*
X87263000Y-114356000I0J50000D01*
G01*
X87263000Y-113631000D01*
G75*
G02*
X87313000Y-113581000I50000J0D01*
G01*
G37*
G36*
G01*
X86913000Y-113581000D02*
X87013000Y-113581000D01*
G75*
G02*
X87063000Y-113631000I0J-50000D01*
G01*
X87063000Y-114356000D01*
G75*
G02*
X87013000Y-114406000I-50000J0D01*
G01*
X86913000Y-114406000D01*
G75*
G02*
X86863000Y-114356000I0J50000D01*
G01*
X86863000Y-113631000D01*
G75*
G02*
X86913000Y-113581000I50000J0D01*
G01*
G37*
G36*
G01*
X86513000Y-113581000D02*
X86613000Y-113581000D01*
G75*
G02*
X86663000Y-113631000I0J-50000D01*
G01*
X86663000Y-114356000D01*
G75*
G02*
X86613000Y-114406000I-50000J0D01*
G01*
X86513000Y-114406000D01*
G75*
G02*
X86463000Y-114356000I0J50000D01*
G01*
X86463000Y-113631000D01*
G75*
G02*
X86513000Y-113581000I50000J0D01*
G01*
G37*
G36*
G01*
X86113000Y-113581000D02*
X86213000Y-113581000D01*
G75*
G02*
X86263000Y-113631000I0J-50000D01*
G01*
X86263000Y-114356000D01*
G75*
G02*
X86213000Y-114406000I-50000J0D01*
G01*
X86113000Y-114406000D01*
G75*
G02*
X86063000Y-114356000I0J50000D01*
G01*
X86063000Y-113631000D01*
G75*
G02*
X86113000Y-113581000I50000J0D01*
G01*
G37*
G36*
G01*
X85713000Y-113581000D02*
X85813000Y-113581000D01*
G75*
G02*
X85863000Y-113631000I0J-50000D01*
G01*
X85863000Y-114356000D01*
G75*
G02*
X85813000Y-114406000I-50000J0D01*
G01*
X85713000Y-114406000D01*
G75*
G02*
X85663000Y-114356000I0J50000D01*
G01*
X85663000Y-113631000D01*
G75*
G02*
X85713000Y-113581000I50000J0D01*
G01*
G37*
G36*
G01*
X85313000Y-113581000D02*
X85413000Y-113581000D01*
G75*
G02*
X85463000Y-113631000I0J-50000D01*
G01*
X85463000Y-114356000D01*
G75*
G02*
X85413000Y-114406000I-50000J0D01*
G01*
X85313000Y-114406000D01*
G75*
G02*
X85263000Y-114356000I0J50000D01*
G01*
X85263000Y-113631000D01*
G75*
G02*
X85313000Y-113581000I50000J0D01*
G01*
G37*
G36*
G01*
X84913000Y-113581000D02*
X85013000Y-113581000D01*
G75*
G02*
X85063000Y-113631000I0J-50000D01*
G01*
X85063000Y-114356000D01*
G75*
G02*
X85013000Y-114406000I-50000J0D01*
G01*
X84913000Y-114406000D01*
G75*
G02*
X84863000Y-114356000I0J50000D01*
G01*
X84863000Y-113631000D01*
G75*
G02*
X84913000Y-113581000I50000J0D01*
G01*
G37*
G36*
G01*
X84513000Y-113581000D02*
X84613000Y-113581000D01*
G75*
G02*
X84663000Y-113631000I0J-50000D01*
G01*
X84663000Y-114356000D01*
G75*
G02*
X84613000Y-114406000I-50000J0D01*
G01*
X84513000Y-114406000D01*
G75*
G02*
X84463000Y-114356000I0J50000D01*
G01*
X84463000Y-113631000D01*
G75*
G02*
X84513000Y-113581000I50000J0D01*
G01*
G37*
G36*
G01*
X84113000Y-113581000D02*
X84213000Y-113581000D01*
G75*
G02*
X84263000Y-113631000I0J-50000D01*
G01*
X84263000Y-114356000D01*
G75*
G02*
X84213000Y-114406000I-50000J0D01*
G01*
X84113000Y-114406000D01*
G75*
G02*
X84063000Y-114356000I0J50000D01*
G01*
X84063000Y-113631000D01*
G75*
G02*
X84113000Y-113581000I50000J0D01*
G01*
G37*
G36*
G01*
X83713000Y-113581000D02*
X83813000Y-113581000D01*
G75*
G02*
X83863000Y-113631000I0J-50000D01*
G01*
X83863000Y-114356000D01*
G75*
G02*
X83813000Y-114406000I-50000J0D01*
G01*
X83713000Y-114406000D01*
G75*
G02*
X83663000Y-114356000I0J50000D01*
G01*
X83663000Y-113631000D01*
G75*
G02*
X83713000Y-113581000I50000J0D01*
G01*
G37*
G36*
G01*
X83313000Y-113581000D02*
X83413000Y-113581000D01*
G75*
G02*
X83463000Y-113631000I0J-50000D01*
G01*
X83463000Y-114356000D01*
G75*
G02*
X83413000Y-114406000I-50000J0D01*
G01*
X83313000Y-114406000D01*
G75*
G02*
X83263000Y-114356000I0J50000D01*
G01*
X83263000Y-113631000D01*
G75*
G02*
X83313000Y-113581000I50000J0D01*
G01*
G37*
G36*
G01*
X82913000Y-113581000D02*
X83013000Y-113581000D01*
G75*
G02*
X83063000Y-113631000I0J-50000D01*
G01*
X83063000Y-114356000D01*
G75*
G02*
X83013000Y-114406000I-50000J0D01*
G01*
X82913000Y-114406000D01*
G75*
G02*
X82863000Y-114356000I0J50000D01*
G01*
X82863000Y-113631000D01*
G75*
G02*
X82913000Y-113581000I50000J0D01*
G01*
G37*
G36*
G01*
X82513000Y-113581000D02*
X82613000Y-113581000D01*
G75*
G02*
X82663000Y-113631000I0J-50000D01*
G01*
X82663000Y-114356000D01*
G75*
G02*
X82613000Y-114406000I-50000J0D01*
G01*
X82513000Y-114406000D01*
G75*
G02*
X82463000Y-114356000I0J50000D01*
G01*
X82463000Y-113631000D01*
G75*
G02*
X82513000Y-113581000I50000J0D01*
G01*
G37*
G36*
G01*
X81638000Y-113231000D02*
X82363000Y-113231000D01*
G75*
G02*
X82413000Y-113281000I0J-50000D01*
G01*
X82413000Y-113381000D01*
G75*
G02*
X82363000Y-113431000I-50000J0D01*
G01*
X81638000Y-113431000D01*
G75*
G02*
X81588000Y-113381000I0J50000D01*
G01*
X81588000Y-113281000D01*
G75*
G02*
X81638000Y-113231000I50000J0D01*
G01*
G37*
G36*
G01*
X81638000Y-112831000D02*
X82363000Y-112831000D01*
G75*
G02*
X82413000Y-112881000I0J-50000D01*
G01*
X82413000Y-112981000D01*
G75*
G02*
X82363000Y-113031000I-50000J0D01*
G01*
X81638000Y-113031000D01*
G75*
G02*
X81588000Y-112981000I0J50000D01*
G01*
X81588000Y-112881000D01*
G75*
G02*
X81638000Y-112831000I50000J0D01*
G01*
G37*
G36*
G01*
X81638000Y-112431000D02*
X82363000Y-112431000D01*
G75*
G02*
X82413000Y-112481000I0J-50000D01*
G01*
X82413000Y-112581000D01*
G75*
G02*
X82363000Y-112631000I-50000J0D01*
G01*
X81638000Y-112631000D01*
G75*
G02*
X81588000Y-112581000I0J50000D01*
G01*
X81588000Y-112481000D01*
G75*
G02*
X81638000Y-112431000I50000J0D01*
G01*
G37*
G36*
G01*
X81638000Y-112031000D02*
X82363000Y-112031000D01*
G75*
G02*
X82413000Y-112081000I0J-50000D01*
G01*
X82413000Y-112181000D01*
G75*
G02*
X82363000Y-112231000I-50000J0D01*
G01*
X81638000Y-112231000D01*
G75*
G02*
X81588000Y-112181000I0J50000D01*
G01*
X81588000Y-112081000D01*
G75*
G02*
X81638000Y-112031000I50000J0D01*
G01*
G37*
G36*
G01*
X81638000Y-111631000D02*
X82363000Y-111631000D01*
G75*
G02*
X82413000Y-111681000I0J-50000D01*
G01*
X82413000Y-111781000D01*
G75*
G02*
X82363000Y-111831000I-50000J0D01*
G01*
X81638000Y-111831000D01*
G75*
G02*
X81588000Y-111781000I0J50000D01*
G01*
X81588000Y-111681000D01*
G75*
G02*
X81638000Y-111631000I50000J0D01*
G01*
G37*
G36*
G01*
X81638000Y-111231000D02*
X82363000Y-111231000D01*
G75*
G02*
X82413000Y-111281000I0J-50000D01*
G01*
X82413000Y-111381000D01*
G75*
G02*
X82363000Y-111431000I-50000J0D01*
G01*
X81638000Y-111431000D01*
G75*
G02*
X81588000Y-111381000I0J50000D01*
G01*
X81588000Y-111281000D01*
G75*
G02*
X81638000Y-111231000I50000J0D01*
G01*
G37*
G36*
G01*
X81638000Y-110831000D02*
X82363000Y-110831000D01*
G75*
G02*
X82413000Y-110881000I0J-50000D01*
G01*
X82413000Y-110981000D01*
G75*
G02*
X82363000Y-111031000I-50000J0D01*
G01*
X81638000Y-111031000D01*
G75*
G02*
X81588000Y-110981000I0J50000D01*
G01*
X81588000Y-110881000D01*
G75*
G02*
X81638000Y-110831000I50000J0D01*
G01*
G37*
G36*
G01*
X81638000Y-110431000D02*
X82363000Y-110431000D01*
G75*
G02*
X82413000Y-110481000I0J-50000D01*
G01*
X82413000Y-110581000D01*
G75*
G02*
X82363000Y-110631000I-50000J0D01*
G01*
X81638000Y-110631000D01*
G75*
G02*
X81588000Y-110581000I0J50000D01*
G01*
X81588000Y-110481000D01*
G75*
G02*
X81638000Y-110431000I50000J0D01*
G01*
G37*
G36*
G01*
X81638000Y-110031000D02*
X82363000Y-110031000D01*
G75*
G02*
X82413000Y-110081000I0J-50000D01*
G01*
X82413000Y-110181000D01*
G75*
G02*
X82363000Y-110231000I-50000J0D01*
G01*
X81638000Y-110231000D01*
G75*
G02*
X81588000Y-110181000I0J50000D01*
G01*
X81588000Y-110081000D01*
G75*
G02*
X81638000Y-110031000I50000J0D01*
G01*
G37*
G36*
G01*
X81638000Y-109631000D02*
X82363000Y-109631000D01*
G75*
G02*
X82413000Y-109681000I0J-50000D01*
G01*
X82413000Y-109781000D01*
G75*
G02*
X82363000Y-109831000I-50000J0D01*
G01*
X81638000Y-109831000D01*
G75*
G02*
X81588000Y-109781000I0J50000D01*
G01*
X81588000Y-109681000D01*
G75*
G02*
X81638000Y-109631000I50000J0D01*
G01*
G37*
G36*
G01*
X82513000Y-108656000D02*
X82613000Y-108656000D01*
G75*
G02*
X82663000Y-108706000I0J-50000D01*
G01*
X82663000Y-109431000D01*
G75*
G02*
X82613000Y-109481000I-50000J0D01*
G01*
X82513000Y-109481000D01*
G75*
G02*
X82463000Y-109431000I0J50000D01*
G01*
X82463000Y-108706000D01*
G75*
G02*
X82513000Y-108656000I50000J0D01*
G01*
G37*
G36*
G01*
X82913000Y-108656000D02*
X83013000Y-108656000D01*
G75*
G02*
X83063000Y-108706000I0J-50000D01*
G01*
X83063000Y-109431000D01*
G75*
G02*
X83013000Y-109481000I-50000J0D01*
G01*
X82913000Y-109481000D01*
G75*
G02*
X82863000Y-109431000I0J50000D01*
G01*
X82863000Y-108706000D01*
G75*
G02*
X82913000Y-108656000I50000J0D01*
G01*
G37*
G36*
G01*
X83313000Y-108656000D02*
X83413000Y-108656000D01*
G75*
G02*
X83463000Y-108706000I0J-50000D01*
G01*
X83463000Y-109431000D01*
G75*
G02*
X83413000Y-109481000I-50000J0D01*
G01*
X83313000Y-109481000D01*
G75*
G02*
X83263000Y-109431000I0J50000D01*
G01*
X83263000Y-108706000D01*
G75*
G02*
X83313000Y-108656000I50000J0D01*
G01*
G37*
G36*
G01*
X83713000Y-108656000D02*
X83813000Y-108656000D01*
G75*
G02*
X83863000Y-108706000I0J-50000D01*
G01*
X83863000Y-109431000D01*
G75*
G02*
X83813000Y-109481000I-50000J0D01*
G01*
X83713000Y-109481000D01*
G75*
G02*
X83663000Y-109431000I0J50000D01*
G01*
X83663000Y-108706000D01*
G75*
G02*
X83713000Y-108656000I50000J0D01*
G01*
G37*
G36*
G01*
X84113000Y-108656000D02*
X84213000Y-108656000D01*
G75*
G02*
X84263000Y-108706000I0J-50000D01*
G01*
X84263000Y-109431000D01*
G75*
G02*
X84213000Y-109481000I-50000J0D01*
G01*
X84113000Y-109481000D01*
G75*
G02*
X84063000Y-109431000I0J50000D01*
G01*
X84063000Y-108706000D01*
G75*
G02*
X84113000Y-108656000I50000J0D01*
G01*
G37*
G36*
G01*
X84513000Y-108656000D02*
X84613000Y-108656000D01*
G75*
G02*
X84663000Y-108706000I0J-50000D01*
G01*
X84663000Y-109431000D01*
G75*
G02*
X84613000Y-109481000I-50000J0D01*
G01*
X84513000Y-109481000D01*
G75*
G02*
X84463000Y-109431000I0J50000D01*
G01*
X84463000Y-108706000D01*
G75*
G02*
X84513000Y-108656000I50000J0D01*
G01*
G37*
G36*
G01*
X84913000Y-108656000D02*
X85013000Y-108656000D01*
G75*
G02*
X85063000Y-108706000I0J-50000D01*
G01*
X85063000Y-109431000D01*
G75*
G02*
X85013000Y-109481000I-50000J0D01*
G01*
X84913000Y-109481000D01*
G75*
G02*
X84863000Y-109431000I0J50000D01*
G01*
X84863000Y-108706000D01*
G75*
G02*
X84913000Y-108656000I50000J0D01*
G01*
G37*
G36*
G01*
X85313000Y-108656000D02*
X85413000Y-108656000D01*
G75*
G02*
X85463000Y-108706000I0J-50000D01*
G01*
X85463000Y-109431000D01*
G75*
G02*
X85413000Y-109481000I-50000J0D01*
G01*
X85313000Y-109481000D01*
G75*
G02*
X85263000Y-109431000I0J50000D01*
G01*
X85263000Y-108706000D01*
G75*
G02*
X85313000Y-108656000I50000J0D01*
G01*
G37*
G36*
G01*
X85713000Y-108656000D02*
X85813000Y-108656000D01*
G75*
G02*
X85863000Y-108706000I0J-50000D01*
G01*
X85863000Y-109431000D01*
G75*
G02*
X85813000Y-109481000I-50000J0D01*
G01*
X85713000Y-109481000D01*
G75*
G02*
X85663000Y-109431000I0J50000D01*
G01*
X85663000Y-108706000D01*
G75*
G02*
X85713000Y-108656000I50000J0D01*
G01*
G37*
G36*
G01*
X86113000Y-108656000D02*
X86213000Y-108656000D01*
G75*
G02*
X86263000Y-108706000I0J-50000D01*
G01*
X86263000Y-109431000D01*
G75*
G02*
X86213000Y-109481000I-50000J0D01*
G01*
X86113000Y-109481000D01*
G75*
G02*
X86063000Y-109431000I0J50000D01*
G01*
X86063000Y-108706000D01*
G75*
G02*
X86113000Y-108656000I50000J0D01*
G01*
G37*
G36*
G01*
X86513000Y-108656000D02*
X86613000Y-108656000D01*
G75*
G02*
X86663000Y-108706000I0J-50000D01*
G01*
X86663000Y-109431000D01*
G75*
G02*
X86613000Y-109481000I-50000J0D01*
G01*
X86513000Y-109481000D01*
G75*
G02*
X86463000Y-109431000I0J50000D01*
G01*
X86463000Y-108706000D01*
G75*
G02*
X86513000Y-108656000I50000J0D01*
G01*
G37*
G36*
G01*
X86913000Y-108656000D02*
X87013000Y-108656000D01*
G75*
G02*
X87063000Y-108706000I0J-50000D01*
G01*
X87063000Y-109431000D01*
G75*
G02*
X87013000Y-109481000I-50000J0D01*
G01*
X86913000Y-109481000D01*
G75*
G02*
X86863000Y-109431000I0J50000D01*
G01*
X86863000Y-108706000D01*
G75*
G02*
X86913000Y-108656000I50000J0D01*
G01*
G37*
G36*
G01*
X87313000Y-108656000D02*
X87413000Y-108656000D01*
G75*
G02*
X87463000Y-108706000I0J-50000D01*
G01*
X87463000Y-109431000D01*
G75*
G02*
X87413000Y-109481000I-50000J0D01*
G01*
X87313000Y-109481000D01*
G75*
G02*
X87263000Y-109431000I0J50000D01*
G01*
X87263000Y-108706000D01*
G75*
G02*
X87313000Y-108656000I50000J0D01*
G01*
G37*
G36*
G01*
X83313000Y-110131000D02*
X86613000Y-110131000D01*
G75*
G02*
X86863000Y-110381000I0J-250000D01*
G01*
X86863000Y-112681000D01*
G75*
G02*
X86613000Y-112931000I-250000J0D01*
G01*
X83313000Y-112931000D01*
G75*
G02*
X83063000Y-112681000I0J250000D01*
G01*
X83063000Y-110381000D01*
G75*
G02*
X83313000Y-110131000I250000J0D01*
G01*
G37*
%TD*%
%TO.C,U3*%
G36*
G01*
X87563000Y-129143400D02*
X88288000Y-129143400D01*
G75*
G02*
X88338000Y-129193400I0J-50000D01*
G01*
X88338000Y-129293400D01*
G75*
G02*
X88288000Y-129343400I-50000J0D01*
G01*
X87563000Y-129343400D01*
G75*
G02*
X87513000Y-129293400I0J50000D01*
G01*
X87513000Y-129193400D01*
G75*
G02*
X87563000Y-129143400I50000J0D01*
G01*
G37*
G36*
G01*
X87563000Y-129543400D02*
X88288000Y-129543400D01*
G75*
G02*
X88338000Y-129593400I0J-50000D01*
G01*
X88338000Y-129693400D01*
G75*
G02*
X88288000Y-129743400I-50000J0D01*
G01*
X87563000Y-129743400D01*
G75*
G02*
X87513000Y-129693400I0J50000D01*
G01*
X87513000Y-129593400D01*
G75*
G02*
X87563000Y-129543400I50000J0D01*
G01*
G37*
G36*
G01*
X87563000Y-129943400D02*
X88288000Y-129943400D01*
G75*
G02*
X88338000Y-129993400I0J-50000D01*
G01*
X88338000Y-130093400D01*
G75*
G02*
X88288000Y-130143400I-50000J0D01*
G01*
X87563000Y-130143400D01*
G75*
G02*
X87513000Y-130093400I0J50000D01*
G01*
X87513000Y-129993400D01*
G75*
G02*
X87563000Y-129943400I50000J0D01*
G01*
G37*
G36*
G01*
X87563000Y-130343400D02*
X88288000Y-130343400D01*
G75*
G02*
X88338000Y-130393400I0J-50000D01*
G01*
X88338000Y-130493400D01*
G75*
G02*
X88288000Y-130543400I-50000J0D01*
G01*
X87563000Y-130543400D01*
G75*
G02*
X87513000Y-130493400I0J50000D01*
G01*
X87513000Y-130393400D01*
G75*
G02*
X87563000Y-130343400I50000J0D01*
G01*
G37*
G36*
G01*
X87563000Y-130743400D02*
X88288000Y-130743400D01*
G75*
G02*
X88338000Y-130793400I0J-50000D01*
G01*
X88338000Y-130893400D01*
G75*
G02*
X88288000Y-130943400I-50000J0D01*
G01*
X87563000Y-130943400D01*
G75*
G02*
X87513000Y-130893400I0J50000D01*
G01*
X87513000Y-130793400D01*
G75*
G02*
X87563000Y-130743400I50000J0D01*
G01*
G37*
G36*
G01*
X87563000Y-131143400D02*
X88288000Y-131143400D01*
G75*
G02*
X88338000Y-131193400I0J-50000D01*
G01*
X88338000Y-131293400D01*
G75*
G02*
X88288000Y-131343400I-50000J0D01*
G01*
X87563000Y-131343400D01*
G75*
G02*
X87513000Y-131293400I0J50000D01*
G01*
X87513000Y-131193400D01*
G75*
G02*
X87563000Y-131143400I50000J0D01*
G01*
G37*
G36*
G01*
X87563000Y-131543400D02*
X88288000Y-131543400D01*
G75*
G02*
X88338000Y-131593400I0J-50000D01*
G01*
X88338000Y-131693400D01*
G75*
G02*
X88288000Y-131743400I-50000J0D01*
G01*
X87563000Y-131743400D01*
G75*
G02*
X87513000Y-131693400I0J50000D01*
G01*
X87513000Y-131593400D01*
G75*
G02*
X87563000Y-131543400I50000J0D01*
G01*
G37*
G36*
G01*
X87563000Y-131943400D02*
X88288000Y-131943400D01*
G75*
G02*
X88338000Y-131993400I0J-50000D01*
G01*
X88338000Y-132093400D01*
G75*
G02*
X88288000Y-132143400I-50000J0D01*
G01*
X87563000Y-132143400D01*
G75*
G02*
X87513000Y-132093400I0J50000D01*
G01*
X87513000Y-131993400D01*
G75*
G02*
X87563000Y-131943400I50000J0D01*
G01*
G37*
G36*
G01*
X87563000Y-132343400D02*
X88288000Y-132343400D01*
G75*
G02*
X88338000Y-132393400I0J-50000D01*
G01*
X88338000Y-132493400D01*
G75*
G02*
X88288000Y-132543400I-50000J0D01*
G01*
X87563000Y-132543400D01*
G75*
G02*
X87513000Y-132493400I0J50000D01*
G01*
X87513000Y-132393400D01*
G75*
G02*
X87563000Y-132343400I50000J0D01*
G01*
G37*
G36*
G01*
X87563000Y-132743400D02*
X88288000Y-132743400D01*
G75*
G02*
X88338000Y-132793400I0J-50000D01*
G01*
X88338000Y-132893400D01*
G75*
G02*
X88288000Y-132943400I-50000J0D01*
G01*
X87563000Y-132943400D01*
G75*
G02*
X87513000Y-132893400I0J50000D01*
G01*
X87513000Y-132793400D01*
G75*
G02*
X87563000Y-132743400I50000J0D01*
G01*
G37*
G36*
G01*
X87313000Y-133093400D02*
X87413000Y-133093400D01*
G75*
G02*
X87463000Y-133143400I0J-50000D01*
G01*
X87463000Y-133868400D01*
G75*
G02*
X87413000Y-133918400I-50000J0D01*
G01*
X87313000Y-133918400D01*
G75*
G02*
X87263000Y-133868400I0J50000D01*
G01*
X87263000Y-133143400D01*
G75*
G02*
X87313000Y-133093400I50000J0D01*
G01*
G37*
G36*
G01*
X86913000Y-133093400D02*
X87013000Y-133093400D01*
G75*
G02*
X87063000Y-133143400I0J-50000D01*
G01*
X87063000Y-133868400D01*
G75*
G02*
X87013000Y-133918400I-50000J0D01*
G01*
X86913000Y-133918400D01*
G75*
G02*
X86863000Y-133868400I0J50000D01*
G01*
X86863000Y-133143400D01*
G75*
G02*
X86913000Y-133093400I50000J0D01*
G01*
G37*
G36*
G01*
X86513000Y-133093400D02*
X86613000Y-133093400D01*
G75*
G02*
X86663000Y-133143400I0J-50000D01*
G01*
X86663000Y-133868400D01*
G75*
G02*
X86613000Y-133918400I-50000J0D01*
G01*
X86513000Y-133918400D01*
G75*
G02*
X86463000Y-133868400I0J50000D01*
G01*
X86463000Y-133143400D01*
G75*
G02*
X86513000Y-133093400I50000J0D01*
G01*
G37*
G36*
G01*
X86113000Y-133093400D02*
X86213000Y-133093400D01*
G75*
G02*
X86263000Y-133143400I0J-50000D01*
G01*
X86263000Y-133868400D01*
G75*
G02*
X86213000Y-133918400I-50000J0D01*
G01*
X86113000Y-133918400D01*
G75*
G02*
X86063000Y-133868400I0J50000D01*
G01*
X86063000Y-133143400D01*
G75*
G02*
X86113000Y-133093400I50000J0D01*
G01*
G37*
G36*
G01*
X85713000Y-133093400D02*
X85813000Y-133093400D01*
G75*
G02*
X85863000Y-133143400I0J-50000D01*
G01*
X85863000Y-133868400D01*
G75*
G02*
X85813000Y-133918400I-50000J0D01*
G01*
X85713000Y-133918400D01*
G75*
G02*
X85663000Y-133868400I0J50000D01*
G01*
X85663000Y-133143400D01*
G75*
G02*
X85713000Y-133093400I50000J0D01*
G01*
G37*
G36*
G01*
X85313000Y-133093400D02*
X85413000Y-133093400D01*
G75*
G02*
X85463000Y-133143400I0J-50000D01*
G01*
X85463000Y-133868400D01*
G75*
G02*
X85413000Y-133918400I-50000J0D01*
G01*
X85313000Y-133918400D01*
G75*
G02*
X85263000Y-133868400I0J50000D01*
G01*
X85263000Y-133143400D01*
G75*
G02*
X85313000Y-133093400I50000J0D01*
G01*
G37*
G36*
G01*
X84913000Y-133093400D02*
X85013000Y-133093400D01*
G75*
G02*
X85063000Y-133143400I0J-50000D01*
G01*
X85063000Y-133868400D01*
G75*
G02*
X85013000Y-133918400I-50000J0D01*
G01*
X84913000Y-133918400D01*
G75*
G02*
X84863000Y-133868400I0J50000D01*
G01*
X84863000Y-133143400D01*
G75*
G02*
X84913000Y-133093400I50000J0D01*
G01*
G37*
G36*
G01*
X84513000Y-133093400D02*
X84613000Y-133093400D01*
G75*
G02*
X84663000Y-133143400I0J-50000D01*
G01*
X84663000Y-133868400D01*
G75*
G02*
X84613000Y-133918400I-50000J0D01*
G01*
X84513000Y-133918400D01*
G75*
G02*
X84463000Y-133868400I0J50000D01*
G01*
X84463000Y-133143400D01*
G75*
G02*
X84513000Y-133093400I50000J0D01*
G01*
G37*
G36*
G01*
X84113000Y-133093400D02*
X84213000Y-133093400D01*
G75*
G02*
X84263000Y-133143400I0J-50000D01*
G01*
X84263000Y-133868400D01*
G75*
G02*
X84213000Y-133918400I-50000J0D01*
G01*
X84113000Y-133918400D01*
G75*
G02*
X84063000Y-133868400I0J50000D01*
G01*
X84063000Y-133143400D01*
G75*
G02*
X84113000Y-133093400I50000J0D01*
G01*
G37*
G36*
G01*
X83713000Y-133093400D02*
X83813000Y-133093400D01*
G75*
G02*
X83863000Y-133143400I0J-50000D01*
G01*
X83863000Y-133868400D01*
G75*
G02*
X83813000Y-133918400I-50000J0D01*
G01*
X83713000Y-133918400D01*
G75*
G02*
X83663000Y-133868400I0J50000D01*
G01*
X83663000Y-133143400D01*
G75*
G02*
X83713000Y-133093400I50000J0D01*
G01*
G37*
G36*
G01*
X83313000Y-133093400D02*
X83413000Y-133093400D01*
G75*
G02*
X83463000Y-133143400I0J-50000D01*
G01*
X83463000Y-133868400D01*
G75*
G02*
X83413000Y-133918400I-50000J0D01*
G01*
X83313000Y-133918400D01*
G75*
G02*
X83263000Y-133868400I0J50000D01*
G01*
X83263000Y-133143400D01*
G75*
G02*
X83313000Y-133093400I50000J0D01*
G01*
G37*
G36*
G01*
X82913000Y-133093400D02*
X83013000Y-133093400D01*
G75*
G02*
X83063000Y-133143400I0J-50000D01*
G01*
X83063000Y-133868400D01*
G75*
G02*
X83013000Y-133918400I-50000J0D01*
G01*
X82913000Y-133918400D01*
G75*
G02*
X82863000Y-133868400I0J50000D01*
G01*
X82863000Y-133143400D01*
G75*
G02*
X82913000Y-133093400I50000J0D01*
G01*
G37*
G36*
G01*
X82513000Y-133093400D02*
X82613000Y-133093400D01*
G75*
G02*
X82663000Y-133143400I0J-50000D01*
G01*
X82663000Y-133868400D01*
G75*
G02*
X82613000Y-133918400I-50000J0D01*
G01*
X82513000Y-133918400D01*
G75*
G02*
X82463000Y-133868400I0J50000D01*
G01*
X82463000Y-133143400D01*
G75*
G02*
X82513000Y-133093400I50000J0D01*
G01*
G37*
G36*
G01*
X81638000Y-132743400D02*
X82363000Y-132743400D01*
G75*
G02*
X82413000Y-132793400I0J-50000D01*
G01*
X82413000Y-132893400D01*
G75*
G02*
X82363000Y-132943400I-50000J0D01*
G01*
X81638000Y-132943400D01*
G75*
G02*
X81588000Y-132893400I0J50000D01*
G01*
X81588000Y-132793400D01*
G75*
G02*
X81638000Y-132743400I50000J0D01*
G01*
G37*
G36*
G01*
X81638000Y-132343400D02*
X82363000Y-132343400D01*
G75*
G02*
X82413000Y-132393400I0J-50000D01*
G01*
X82413000Y-132493400D01*
G75*
G02*
X82363000Y-132543400I-50000J0D01*
G01*
X81638000Y-132543400D01*
G75*
G02*
X81588000Y-132493400I0J50000D01*
G01*
X81588000Y-132393400D01*
G75*
G02*
X81638000Y-132343400I50000J0D01*
G01*
G37*
G36*
G01*
X81638000Y-131943400D02*
X82363000Y-131943400D01*
G75*
G02*
X82413000Y-131993400I0J-50000D01*
G01*
X82413000Y-132093400D01*
G75*
G02*
X82363000Y-132143400I-50000J0D01*
G01*
X81638000Y-132143400D01*
G75*
G02*
X81588000Y-132093400I0J50000D01*
G01*
X81588000Y-131993400D01*
G75*
G02*
X81638000Y-131943400I50000J0D01*
G01*
G37*
G36*
G01*
X81638000Y-131543400D02*
X82363000Y-131543400D01*
G75*
G02*
X82413000Y-131593400I0J-50000D01*
G01*
X82413000Y-131693400D01*
G75*
G02*
X82363000Y-131743400I-50000J0D01*
G01*
X81638000Y-131743400D01*
G75*
G02*
X81588000Y-131693400I0J50000D01*
G01*
X81588000Y-131593400D01*
G75*
G02*
X81638000Y-131543400I50000J0D01*
G01*
G37*
G36*
G01*
X81638000Y-131143400D02*
X82363000Y-131143400D01*
G75*
G02*
X82413000Y-131193400I0J-50000D01*
G01*
X82413000Y-131293400D01*
G75*
G02*
X82363000Y-131343400I-50000J0D01*
G01*
X81638000Y-131343400D01*
G75*
G02*
X81588000Y-131293400I0J50000D01*
G01*
X81588000Y-131193400D01*
G75*
G02*
X81638000Y-131143400I50000J0D01*
G01*
G37*
G36*
G01*
X81638000Y-130743400D02*
X82363000Y-130743400D01*
G75*
G02*
X82413000Y-130793400I0J-50000D01*
G01*
X82413000Y-130893400D01*
G75*
G02*
X82363000Y-130943400I-50000J0D01*
G01*
X81638000Y-130943400D01*
G75*
G02*
X81588000Y-130893400I0J50000D01*
G01*
X81588000Y-130793400D01*
G75*
G02*
X81638000Y-130743400I50000J0D01*
G01*
G37*
G36*
G01*
X81638000Y-130343400D02*
X82363000Y-130343400D01*
G75*
G02*
X82413000Y-130393400I0J-50000D01*
G01*
X82413000Y-130493400D01*
G75*
G02*
X82363000Y-130543400I-50000J0D01*
G01*
X81638000Y-130543400D01*
G75*
G02*
X81588000Y-130493400I0J50000D01*
G01*
X81588000Y-130393400D01*
G75*
G02*
X81638000Y-130343400I50000J0D01*
G01*
G37*
G36*
G01*
X81638000Y-129943400D02*
X82363000Y-129943400D01*
G75*
G02*
X82413000Y-129993400I0J-50000D01*
G01*
X82413000Y-130093400D01*
G75*
G02*
X82363000Y-130143400I-50000J0D01*
G01*
X81638000Y-130143400D01*
G75*
G02*
X81588000Y-130093400I0J50000D01*
G01*
X81588000Y-129993400D01*
G75*
G02*
X81638000Y-129943400I50000J0D01*
G01*
G37*
G36*
G01*
X81638000Y-129543400D02*
X82363000Y-129543400D01*
G75*
G02*
X82413000Y-129593400I0J-50000D01*
G01*
X82413000Y-129693400D01*
G75*
G02*
X82363000Y-129743400I-50000J0D01*
G01*
X81638000Y-129743400D01*
G75*
G02*
X81588000Y-129693400I0J50000D01*
G01*
X81588000Y-129593400D01*
G75*
G02*
X81638000Y-129543400I50000J0D01*
G01*
G37*
G36*
G01*
X81638000Y-129143400D02*
X82363000Y-129143400D01*
G75*
G02*
X82413000Y-129193400I0J-50000D01*
G01*
X82413000Y-129293400D01*
G75*
G02*
X82363000Y-129343400I-50000J0D01*
G01*
X81638000Y-129343400D01*
G75*
G02*
X81588000Y-129293400I0J50000D01*
G01*
X81588000Y-129193400D01*
G75*
G02*
X81638000Y-129143400I50000J0D01*
G01*
G37*
G36*
G01*
X82513000Y-128168400D02*
X82613000Y-128168400D01*
G75*
G02*
X82663000Y-128218400I0J-50000D01*
G01*
X82663000Y-128943400D01*
G75*
G02*
X82613000Y-128993400I-50000J0D01*
G01*
X82513000Y-128993400D01*
G75*
G02*
X82463000Y-128943400I0J50000D01*
G01*
X82463000Y-128218400D01*
G75*
G02*
X82513000Y-128168400I50000J0D01*
G01*
G37*
G36*
G01*
X82913000Y-128168400D02*
X83013000Y-128168400D01*
G75*
G02*
X83063000Y-128218400I0J-50000D01*
G01*
X83063000Y-128943400D01*
G75*
G02*
X83013000Y-128993400I-50000J0D01*
G01*
X82913000Y-128993400D01*
G75*
G02*
X82863000Y-128943400I0J50000D01*
G01*
X82863000Y-128218400D01*
G75*
G02*
X82913000Y-128168400I50000J0D01*
G01*
G37*
G36*
G01*
X83313000Y-128168400D02*
X83413000Y-128168400D01*
G75*
G02*
X83463000Y-128218400I0J-50000D01*
G01*
X83463000Y-128943400D01*
G75*
G02*
X83413000Y-128993400I-50000J0D01*
G01*
X83313000Y-128993400D01*
G75*
G02*
X83263000Y-128943400I0J50000D01*
G01*
X83263000Y-128218400D01*
G75*
G02*
X83313000Y-128168400I50000J0D01*
G01*
G37*
G36*
G01*
X83713000Y-128168400D02*
X83813000Y-128168400D01*
G75*
G02*
X83863000Y-128218400I0J-50000D01*
G01*
X83863000Y-128943400D01*
G75*
G02*
X83813000Y-128993400I-50000J0D01*
G01*
X83713000Y-128993400D01*
G75*
G02*
X83663000Y-128943400I0J50000D01*
G01*
X83663000Y-128218400D01*
G75*
G02*
X83713000Y-128168400I50000J0D01*
G01*
G37*
G36*
G01*
X84113000Y-128168400D02*
X84213000Y-128168400D01*
G75*
G02*
X84263000Y-128218400I0J-50000D01*
G01*
X84263000Y-128943400D01*
G75*
G02*
X84213000Y-128993400I-50000J0D01*
G01*
X84113000Y-128993400D01*
G75*
G02*
X84063000Y-128943400I0J50000D01*
G01*
X84063000Y-128218400D01*
G75*
G02*
X84113000Y-128168400I50000J0D01*
G01*
G37*
G36*
G01*
X84513000Y-128168400D02*
X84613000Y-128168400D01*
G75*
G02*
X84663000Y-128218400I0J-50000D01*
G01*
X84663000Y-128943400D01*
G75*
G02*
X84613000Y-128993400I-50000J0D01*
G01*
X84513000Y-128993400D01*
G75*
G02*
X84463000Y-128943400I0J50000D01*
G01*
X84463000Y-128218400D01*
G75*
G02*
X84513000Y-128168400I50000J0D01*
G01*
G37*
G36*
G01*
X84913000Y-128168400D02*
X85013000Y-128168400D01*
G75*
G02*
X85063000Y-128218400I0J-50000D01*
G01*
X85063000Y-128943400D01*
G75*
G02*
X85013000Y-128993400I-50000J0D01*
G01*
X84913000Y-128993400D01*
G75*
G02*
X84863000Y-128943400I0J50000D01*
G01*
X84863000Y-128218400D01*
G75*
G02*
X84913000Y-128168400I50000J0D01*
G01*
G37*
G36*
G01*
X85313000Y-128168400D02*
X85413000Y-128168400D01*
G75*
G02*
X85463000Y-128218400I0J-50000D01*
G01*
X85463000Y-128943400D01*
G75*
G02*
X85413000Y-128993400I-50000J0D01*
G01*
X85313000Y-128993400D01*
G75*
G02*
X85263000Y-128943400I0J50000D01*
G01*
X85263000Y-128218400D01*
G75*
G02*
X85313000Y-128168400I50000J0D01*
G01*
G37*
G36*
G01*
X85713000Y-128168400D02*
X85813000Y-128168400D01*
G75*
G02*
X85863000Y-128218400I0J-50000D01*
G01*
X85863000Y-128943400D01*
G75*
G02*
X85813000Y-128993400I-50000J0D01*
G01*
X85713000Y-128993400D01*
G75*
G02*
X85663000Y-128943400I0J50000D01*
G01*
X85663000Y-128218400D01*
G75*
G02*
X85713000Y-128168400I50000J0D01*
G01*
G37*
G36*
G01*
X86113000Y-128168400D02*
X86213000Y-128168400D01*
G75*
G02*
X86263000Y-128218400I0J-50000D01*
G01*
X86263000Y-128943400D01*
G75*
G02*
X86213000Y-128993400I-50000J0D01*
G01*
X86113000Y-128993400D01*
G75*
G02*
X86063000Y-128943400I0J50000D01*
G01*
X86063000Y-128218400D01*
G75*
G02*
X86113000Y-128168400I50000J0D01*
G01*
G37*
G36*
G01*
X86513000Y-128168400D02*
X86613000Y-128168400D01*
G75*
G02*
X86663000Y-128218400I0J-50000D01*
G01*
X86663000Y-128943400D01*
G75*
G02*
X86613000Y-128993400I-50000J0D01*
G01*
X86513000Y-128993400D01*
G75*
G02*
X86463000Y-128943400I0J50000D01*
G01*
X86463000Y-128218400D01*
G75*
G02*
X86513000Y-128168400I50000J0D01*
G01*
G37*
G36*
G01*
X86913000Y-128168400D02*
X87013000Y-128168400D01*
G75*
G02*
X87063000Y-128218400I0J-50000D01*
G01*
X87063000Y-128943400D01*
G75*
G02*
X87013000Y-128993400I-50000J0D01*
G01*
X86913000Y-128993400D01*
G75*
G02*
X86863000Y-128943400I0J50000D01*
G01*
X86863000Y-128218400D01*
G75*
G02*
X86913000Y-128168400I50000J0D01*
G01*
G37*
G36*
G01*
X87313000Y-128168400D02*
X87413000Y-128168400D01*
G75*
G02*
X87463000Y-128218400I0J-50000D01*
G01*
X87463000Y-128943400D01*
G75*
G02*
X87413000Y-128993400I-50000J0D01*
G01*
X87313000Y-128993400D01*
G75*
G02*
X87263000Y-128943400I0J50000D01*
G01*
X87263000Y-128218400D01*
G75*
G02*
X87313000Y-128168400I50000J0D01*
G01*
G37*
G36*
G01*
X83313000Y-129643400D02*
X86613000Y-129643400D01*
G75*
G02*
X86863000Y-129893400I0J-250000D01*
G01*
X86863000Y-132193400D01*
G75*
G02*
X86613000Y-132443400I-250000J0D01*
G01*
X83313000Y-132443400D01*
G75*
G02*
X83063000Y-132193400I0J250000D01*
G01*
X83063000Y-129893400D01*
G75*
G02*
X83313000Y-129643400I250000J0D01*
G01*
G37*
%TD*%
%TO.C,U2*%
G36*
G01*
X87690000Y-90810000D02*
X88415000Y-90810000D01*
G75*
G02*
X88465000Y-90860000I0J-50000D01*
G01*
X88465000Y-90960000D01*
G75*
G02*
X88415000Y-91010000I-50000J0D01*
G01*
X87690000Y-91010000D01*
G75*
G02*
X87640000Y-90960000I0J50000D01*
G01*
X87640000Y-90860000D01*
G75*
G02*
X87690000Y-90810000I50000J0D01*
G01*
G37*
G36*
G01*
X87690000Y-91210000D02*
X88415000Y-91210000D01*
G75*
G02*
X88465000Y-91260000I0J-50000D01*
G01*
X88465000Y-91360000D01*
G75*
G02*
X88415000Y-91410000I-50000J0D01*
G01*
X87690000Y-91410000D01*
G75*
G02*
X87640000Y-91360000I0J50000D01*
G01*
X87640000Y-91260000D01*
G75*
G02*
X87690000Y-91210000I50000J0D01*
G01*
G37*
G36*
G01*
X87690000Y-91610000D02*
X88415000Y-91610000D01*
G75*
G02*
X88465000Y-91660000I0J-50000D01*
G01*
X88465000Y-91760000D01*
G75*
G02*
X88415000Y-91810000I-50000J0D01*
G01*
X87690000Y-91810000D01*
G75*
G02*
X87640000Y-91760000I0J50000D01*
G01*
X87640000Y-91660000D01*
G75*
G02*
X87690000Y-91610000I50000J0D01*
G01*
G37*
G36*
G01*
X87690000Y-92010000D02*
X88415000Y-92010000D01*
G75*
G02*
X88465000Y-92060000I0J-50000D01*
G01*
X88465000Y-92160000D01*
G75*
G02*
X88415000Y-92210000I-50000J0D01*
G01*
X87690000Y-92210000D01*
G75*
G02*
X87640000Y-92160000I0J50000D01*
G01*
X87640000Y-92060000D01*
G75*
G02*
X87690000Y-92010000I50000J0D01*
G01*
G37*
G36*
G01*
X87690000Y-92410000D02*
X88415000Y-92410000D01*
G75*
G02*
X88465000Y-92460000I0J-50000D01*
G01*
X88465000Y-92560000D01*
G75*
G02*
X88415000Y-92610000I-50000J0D01*
G01*
X87690000Y-92610000D01*
G75*
G02*
X87640000Y-92560000I0J50000D01*
G01*
X87640000Y-92460000D01*
G75*
G02*
X87690000Y-92410000I50000J0D01*
G01*
G37*
G36*
G01*
X87690000Y-92810000D02*
X88415000Y-92810000D01*
G75*
G02*
X88465000Y-92860000I0J-50000D01*
G01*
X88465000Y-92960000D01*
G75*
G02*
X88415000Y-93010000I-50000J0D01*
G01*
X87690000Y-93010000D01*
G75*
G02*
X87640000Y-92960000I0J50000D01*
G01*
X87640000Y-92860000D01*
G75*
G02*
X87690000Y-92810000I50000J0D01*
G01*
G37*
G36*
G01*
X87690000Y-93210000D02*
X88415000Y-93210000D01*
G75*
G02*
X88465000Y-93260000I0J-50000D01*
G01*
X88465000Y-93360000D01*
G75*
G02*
X88415000Y-93410000I-50000J0D01*
G01*
X87690000Y-93410000D01*
G75*
G02*
X87640000Y-93360000I0J50000D01*
G01*
X87640000Y-93260000D01*
G75*
G02*
X87690000Y-93210000I50000J0D01*
G01*
G37*
G36*
G01*
X87690000Y-93610000D02*
X88415000Y-93610000D01*
G75*
G02*
X88465000Y-93660000I0J-50000D01*
G01*
X88465000Y-93760000D01*
G75*
G02*
X88415000Y-93810000I-50000J0D01*
G01*
X87690000Y-93810000D01*
G75*
G02*
X87640000Y-93760000I0J50000D01*
G01*
X87640000Y-93660000D01*
G75*
G02*
X87690000Y-93610000I50000J0D01*
G01*
G37*
G36*
G01*
X87690000Y-94010000D02*
X88415000Y-94010000D01*
G75*
G02*
X88465000Y-94060000I0J-50000D01*
G01*
X88465000Y-94160000D01*
G75*
G02*
X88415000Y-94210000I-50000J0D01*
G01*
X87690000Y-94210000D01*
G75*
G02*
X87640000Y-94160000I0J50000D01*
G01*
X87640000Y-94060000D01*
G75*
G02*
X87690000Y-94010000I50000J0D01*
G01*
G37*
G36*
G01*
X87690000Y-94410000D02*
X88415000Y-94410000D01*
G75*
G02*
X88465000Y-94460000I0J-50000D01*
G01*
X88465000Y-94560000D01*
G75*
G02*
X88415000Y-94610000I-50000J0D01*
G01*
X87690000Y-94610000D01*
G75*
G02*
X87640000Y-94560000I0J50000D01*
G01*
X87640000Y-94460000D01*
G75*
G02*
X87690000Y-94410000I50000J0D01*
G01*
G37*
G36*
G01*
X87440000Y-94760000D02*
X87540000Y-94760000D01*
G75*
G02*
X87590000Y-94810000I0J-50000D01*
G01*
X87590000Y-95535000D01*
G75*
G02*
X87540000Y-95585000I-50000J0D01*
G01*
X87440000Y-95585000D01*
G75*
G02*
X87390000Y-95535000I0J50000D01*
G01*
X87390000Y-94810000D01*
G75*
G02*
X87440000Y-94760000I50000J0D01*
G01*
G37*
G36*
G01*
X87040000Y-94760000D02*
X87140000Y-94760000D01*
G75*
G02*
X87190000Y-94810000I0J-50000D01*
G01*
X87190000Y-95535000D01*
G75*
G02*
X87140000Y-95585000I-50000J0D01*
G01*
X87040000Y-95585000D01*
G75*
G02*
X86990000Y-95535000I0J50000D01*
G01*
X86990000Y-94810000D01*
G75*
G02*
X87040000Y-94760000I50000J0D01*
G01*
G37*
G36*
G01*
X86640000Y-94760000D02*
X86740000Y-94760000D01*
G75*
G02*
X86790000Y-94810000I0J-50000D01*
G01*
X86790000Y-95535000D01*
G75*
G02*
X86740000Y-95585000I-50000J0D01*
G01*
X86640000Y-95585000D01*
G75*
G02*
X86590000Y-95535000I0J50000D01*
G01*
X86590000Y-94810000D01*
G75*
G02*
X86640000Y-94760000I50000J0D01*
G01*
G37*
G36*
G01*
X86240000Y-94760000D02*
X86340000Y-94760000D01*
G75*
G02*
X86390000Y-94810000I0J-50000D01*
G01*
X86390000Y-95535000D01*
G75*
G02*
X86340000Y-95585000I-50000J0D01*
G01*
X86240000Y-95585000D01*
G75*
G02*
X86190000Y-95535000I0J50000D01*
G01*
X86190000Y-94810000D01*
G75*
G02*
X86240000Y-94760000I50000J0D01*
G01*
G37*
G36*
G01*
X85840000Y-94760000D02*
X85940000Y-94760000D01*
G75*
G02*
X85990000Y-94810000I0J-50000D01*
G01*
X85990000Y-95535000D01*
G75*
G02*
X85940000Y-95585000I-50000J0D01*
G01*
X85840000Y-95585000D01*
G75*
G02*
X85790000Y-95535000I0J50000D01*
G01*
X85790000Y-94810000D01*
G75*
G02*
X85840000Y-94760000I50000J0D01*
G01*
G37*
G36*
G01*
X85440000Y-94760000D02*
X85540000Y-94760000D01*
G75*
G02*
X85590000Y-94810000I0J-50000D01*
G01*
X85590000Y-95535000D01*
G75*
G02*
X85540000Y-95585000I-50000J0D01*
G01*
X85440000Y-95585000D01*
G75*
G02*
X85390000Y-95535000I0J50000D01*
G01*
X85390000Y-94810000D01*
G75*
G02*
X85440000Y-94760000I50000J0D01*
G01*
G37*
G36*
G01*
X85040000Y-94760000D02*
X85140000Y-94760000D01*
G75*
G02*
X85190000Y-94810000I0J-50000D01*
G01*
X85190000Y-95535000D01*
G75*
G02*
X85140000Y-95585000I-50000J0D01*
G01*
X85040000Y-95585000D01*
G75*
G02*
X84990000Y-95535000I0J50000D01*
G01*
X84990000Y-94810000D01*
G75*
G02*
X85040000Y-94760000I50000J0D01*
G01*
G37*
G36*
G01*
X84640000Y-94760000D02*
X84740000Y-94760000D01*
G75*
G02*
X84790000Y-94810000I0J-50000D01*
G01*
X84790000Y-95535000D01*
G75*
G02*
X84740000Y-95585000I-50000J0D01*
G01*
X84640000Y-95585000D01*
G75*
G02*
X84590000Y-95535000I0J50000D01*
G01*
X84590000Y-94810000D01*
G75*
G02*
X84640000Y-94760000I50000J0D01*
G01*
G37*
G36*
G01*
X84240000Y-94760000D02*
X84340000Y-94760000D01*
G75*
G02*
X84390000Y-94810000I0J-50000D01*
G01*
X84390000Y-95535000D01*
G75*
G02*
X84340000Y-95585000I-50000J0D01*
G01*
X84240000Y-95585000D01*
G75*
G02*
X84190000Y-95535000I0J50000D01*
G01*
X84190000Y-94810000D01*
G75*
G02*
X84240000Y-94760000I50000J0D01*
G01*
G37*
G36*
G01*
X83840000Y-94760000D02*
X83940000Y-94760000D01*
G75*
G02*
X83990000Y-94810000I0J-50000D01*
G01*
X83990000Y-95535000D01*
G75*
G02*
X83940000Y-95585000I-50000J0D01*
G01*
X83840000Y-95585000D01*
G75*
G02*
X83790000Y-95535000I0J50000D01*
G01*
X83790000Y-94810000D01*
G75*
G02*
X83840000Y-94760000I50000J0D01*
G01*
G37*
G36*
G01*
X83440000Y-94760000D02*
X83540000Y-94760000D01*
G75*
G02*
X83590000Y-94810000I0J-50000D01*
G01*
X83590000Y-95535000D01*
G75*
G02*
X83540000Y-95585000I-50000J0D01*
G01*
X83440000Y-95585000D01*
G75*
G02*
X83390000Y-95535000I0J50000D01*
G01*
X83390000Y-94810000D01*
G75*
G02*
X83440000Y-94760000I50000J0D01*
G01*
G37*
G36*
G01*
X83040000Y-94760000D02*
X83140000Y-94760000D01*
G75*
G02*
X83190000Y-94810000I0J-50000D01*
G01*
X83190000Y-95535000D01*
G75*
G02*
X83140000Y-95585000I-50000J0D01*
G01*
X83040000Y-95585000D01*
G75*
G02*
X82990000Y-95535000I0J50000D01*
G01*
X82990000Y-94810000D01*
G75*
G02*
X83040000Y-94760000I50000J0D01*
G01*
G37*
G36*
G01*
X82640000Y-94760000D02*
X82740000Y-94760000D01*
G75*
G02*
X82790000Y-94810000I0J-50000D01*
G01*
X82790000Y-95535000D01*
G75*
G02*
X82740000Y-95585000I-50000J0D01*
G01*
X82640000Y-95585000D01*
G75*
G02*
X82590000Y-95535000I0J50000D01*
G01*
X82590000Y-94810000D01*
G75*
G02*
X82640000Y-94760000I50000J0D01*
G01*
G37*
G36*
G01*
X81765000Y-94410000D02*
X82490000Y-94410000D01*
G75*
G02*
X82540000Y-94460000I0J-50000D01*
G01*
X82540000Y-94560000D01*
G75*
G02*
X82490000Y-94610000I-50000J0D01*
G01*
X81765000Y-94610000D01*
G75*
G02*
X81715000Y-94560000I0J50000D01*
G01*
X81715000Y-94460000D01*
G75*
G02*
X81765000Y-94410000I50000J0D01*
G01*
G37*
G36*
G01*
X81765000Y-94010000D02*
X82490000Y-94010000D01*
G75*
G02*
X82540000Y-94060000I0J-50000D01*
G01*
X82540000Y-94160000D01*
G75*
G02*
X82490000Y-94210000I-50000J0D01*
G01*
X81765000Y-94210000D01*
G75*
G02*
X81715000Y-94160000I0J50000D01*
G01*
X81715000Y-94060000D01*
G75*
G02*
X81765000Y-94010000I50000J0D01*
G01*
G37*
G36*
G01*
X81765000Y-93610000D02*
X82490000Y-93610000D01*
G75*
G02*
X82540000Y-93660000I0J-50000D01*
G01*
X82540000Y-93760000D01*
G75*
G02*
X82490000Y-93810000I-50000J0D01*
G01*
X81765000Y-93810000D01*
G75*
G02*
X81715000Y-93760000I0J50000D01*
G01*
X81715000Y-93660000D01*
G75*
G02*
X81765000Y-93610000I50000J0D01*
G01*
G37*
G36*
G01*
X81765000Y-93210000D02*
X82490000Y-93210000D01*
G75*
G02*
X82540000Y-93260000I0J-50000D01*
G01*
X82540000Y-93360000D01*
G75*
G02*
X82490000Y-93410000I-50000J0D01*
G01*
X81765000Y-93410000D01*
G75*
G02*
X81715000Y-93360000I0J50000D01*
G01*
X81715000Y-93260000D01*
G75*
G02*
X81765000Y-93210000I50000J0D01*
G01*
G37*
G36*
G01*
X81765000Y-92810000D02*
X82490000Y-92810000D01*
G75*
G02*
X82540000Y-92860000I0J-50000D01*
G01*
X82540000Y-92960000D01*
G75*
G02*
X82490000Y-93010000I-50000J0D01*
G01*
X81765000Y-93010000D01*
G75*
G02*
X81715000Y-92960000I0J50000D01*
G01*
X81715000Y-92860000D01*
G75*
G02*
X81765000Y-92810000I50000J0D01*
G01*
G37*
G36*
G01*
X81765000Y-92410000D02*
X82490000Y-92410000D01*
G75*
G02*
X82540000Y-92460000I0J-50000D01*
G01*
X82540000Y-92560000D01*
G75*
G02*
X82490000Y-92610000I-50000J0D01*
G01*
X81765000Y-92610000D01*
G75*
G02*
X81715000Y-92560000I0J50000D01*
G01*
X81715000Y-92460000D01*
G75*
G02*
X81765000Y-92410000I50000J0D01*
G01*
G37*
G36*
G01*
X81765000Y-92010000D02*
X82490000Y-92010000D01*
G75*
G02*
X82540000Y-92060000I0J-50000D01*
G01*
X82540000Y-92160000D01*
G75*
G02*
X82490000Y-92210000I-50000J0D01*
G01*
X81765000Y-92210000D01*
G75*
G02*
X81715000Y-92160000I0J50000D01*
G01*
X81715000Y-92060000D01*
G75*
G02*
X81765000Y-92010000I50000J0D01*
G01*
G37*
G36*
G01*
X81765000Y-91610000D02*
X82490000Y-91610000D01*
G75*
G02*
X82540000Y-91660000I0J-50000D01*
G01*
X82540000Y-91760000D01*
G75*
G02*
X82490000Y-91810000I-50000J0D01*
G01*
X81765000Y-91810000D01*
G75*
G02*
X81715000Y-91760000I0J50000D01*
G01*
X81715000Y-91660000D01*
G75*
G02*
X81765000Y-91610000I50000J0D01*
G01*
G37*
G36*
G01*
X81765000Y-91210000D02*
X82490000Y-91210000D01*
G75*
G02*
X82540000Y-91260000I0J-50000D01*
G01*
X82540000Y-91360000D01*
G75*
G02*
X82490000Y-91410000I-50000J0D01*
G01*
X81765000Y-91410000D01*
G75*
G02*
X81715000Y-91360000I0J50000D01*
G01*
X81715000Y-91260000D01*
G75*
G02*
X81765000Y-91210000I50000J0D01*
G01*
G37*
G36*
G01*
X81765000Y-90810000D02*
X82490000Y-90810000D01*
G75*
G02*
X82540000Y-90860000I0J-50000D01*
G01*
X82540000Y-90960000D01*
G75*
G02*
X82490000Y-91010000I-50000J0D01*
G01*
X81765000Y-91010000D01*
G75*
G02*
X81715000Y-90960000I0J50000D01*
G01*
X81715000Y-90860000D01*
G75*
G02*
X81765000Y-90810000I50000J0D01*
G01*
G37*
G36*
G01*
X82640000Y-89835000D02*
X82740000Y-89835000D01*
G75*
G02*
X82790000Y-89885000I0J-50000D01*
G01*
X82790000Y-90610000D01*
G75*
G02*
X82740000Y-90660000I-50000J0D01*
G01*
X82640000Y-90660000D01*
G75*
G02*
X82590000Y-90610000I0J50000D01*
G01*
X82590000Y-89885000D01*
G75*
G02*
X82640000Y-89835000I50000J0D01*
G01*
G37*
G36*
G01*
X83040000Y-89835000D02*
X83140000Y-89835000D01*
G75*
G02*
X83190000Y-89885000I0J-50000D01*
G01*
X83190000Y-90610000D01*
G75*
G02*
X83140000Y-90660000I-50000J0D01*
G01*
X83040000Y-90660000D01*
G75*
G02*
X82990000Y-90610000I0J50000D01*
G01*
X82990000Y-89885000D01*
G75*
G02*
X83040000Y-89835000I50000J0D01*
G01*
G37*
G36*
G01*
X83440000Y-89835000D02*
X83540000Y-89835000D01*
G75*
G02*
X83590000Y-89885000I0J-50000D01*
G01*
X83590000Y-90610000D01*
G75*
G02*
X83540000Y-90660000I-50000J0D01*
G01*
X83440000Y-90660000D01*
G75*
G02*
X83390000Y-90610000I0J50000D01*
G01*
X83390000Y-89885000D01*
G75*
G02*
X83440000Y-89835000I50000J0D01*
G01*
G37*
G36*
G01*
X83840000Y-89835000D02*
X83940000Y-89835000D01*
G75*
G02*
X83990000Y-89885000I0J-50000D01*
G01*
X83990000Y-90610000D01*
G75*
G02*
X83940000Y-90660000I-50000J0D01*
G01*
X83840000Y-90660000D01*
G75*
G02*
X83790000Y-90610000I0J50000D01*
G01*
X83790000Y-89885000D01*
G75*
G02*
X83840000Y-89835000I50000J0D01*
G01*
G37*
G36*
G01*
X84240000Y-89835000D02*
X84340000Y-89835000D01*
G75*
G02*
X84390000Y-89885000I0J-50000D01*
G01*
X84390000Y-90610000D01*
G75*
G02*
X84340000Y-90660000I-50000J0D01*
G01*
X84240000Y-90660000D01*
G75*
G02*
X84190000Y-90610000I0J50000D01*
G01*
X84190000Y-89885000D01*
G75*
G02*
X84240000Y-89835000I50000J0D01*
G01*
G37*
G36*
G01*
X84640000Y-89835000D02*
X84740000Y-89835000D01*
G75*
G02*
X84790000Y-89885000I0J-50000D01*
G01*
X84790000Y-90610000D01*
G75*
G02*
X84740000Y-90660000I-50000J0D01*
G01*
X84640000Y-90660000D01*
G75*
G02*
X84590000Y-90610000I0J50000D01*
G01*
X84590000Y-89885000D01*
G75*
G02*
X84640000Y-89835000I50000J0D01*
G01*
G37*
G36*
G01*
X85040000Y-89835000D02*
X85140000Y-89835000D01*
G75*
G02*
X85190000Y-89885000I0J-50000D01*
G01*
X85190000Y-90610000D01*
G75*
G02*
X85140000Y-90660000I-50000J0D01*
G01*
X85040000Y-90660000D01*
G75*
G02*
X84990000Y-90610000I0J50000D01*
G01*
X84990000Y-89885000D01*
G75*
G02*
X85040000Y-89835000I50000J0D01*
G01*
G37*
G36*
G01*
X85440000Y-89835000D02*
X85540000Y-89835000D01*
G75*
G02*
X85590000Y-89885000I0J-50000D01*
G01*
X85590000Y-90610000D01*
G75*
G02*
X85540000Y-90660000I-50000J0D01*
G01*
X85440000Y-90660000D01*
G75*
G02*
X85390000Y-90610000I0J50000D01*
G01*
X85390000Y-89885000D01*
G75*
G02*
X85440000Y-89835000I50000J0D01*
G01*
G37*
G36*
G01*
X85840000Y-89835000D02*
X85940000Y-89835000D01*
G75*
G02*
X85990000Y-89885000I0J-50000D01*
G01*
X85990000Y-90610000D01*
G75*
G02*
X85940000Y-90660000I-50000J0D01*
G01*
X85840000Y-90660000D01*
G75*
G02*
X85790000Y-90610000I0J50000D01*
G01*
X85790000Y-89885000D01*
G75*
G02*
X85840000Y-89835000I50000J0D01*
G01*
G37*
G36*
G01*
X86240000Y-89835000D02*
X86340000Y-89835000D01*
G75*
G02*
X86390000Y-89885000I0J-50000D01*
G01*
X86390000Y-90610000D01*
G75*
G02*
X86340000Y-90660000I-50000J0D01*
G01*
X86240000Y-90660000D01*
G75*
G02*
X86190000Y-90610000I0J50000D01*
G01*
X86190000Y-89885000D01*
G75*
G02*
X86240000Y-89835000I50000J0D01*
G01*
G37*
G36*
G01*
X86640000Y-89835000D02*
X86740000Y-89835000D01*
G75*
G02*
X86790000Y-89885000I0J-50000D01*
G01*
X86790000Y-90610000D01*
G75*
G02*
X86740000Y-90660000I-50000J0D01*
G01*
X86640000Y-90660000D01*
G75*
G02*
X86590000Y-90610000I0J50000D01*
G01*
X86590000Y-89885000D01*
G75*
G02*
X86640000Y-89835000I50000J0D01*
G01*
G37*
G36*
G01*
X87040000Y-89835000D02*
X87140000Y-89835000D01*
G75*
G02*
X87190000Y-89885000I0J-50000D01*
G01*
X87190000Y-90610000D01*
G75*
G02*
X87140000Y-90660000I-50000J0D01*
G01*
X87040000Y-90660000D01*
G75*
G02*
X86990000Y-90610000I0J50000D01*
G01*
X86990000Y-89885000D01*
G75*
G02*
X87040000Y-89835000I50000J0D01*
G01*
G37*
G36*
G01*
X87440000Y-89835000D02*
X87540000Y-89835000D01*
G75*
G02*
X87590000Y-89885000I0J-50000D01*
G01*
X87590000Y-90610000D01*
G75*
G02*
X87540000Y-90660000I-50000J0D01*
G01*
X87440000Y-90660000D01*
G75*
G02*
X87390000Y-90610000I0J50000D01*
G01*
X87390000Y-89885000D01*
G75*
G02*
X87440000Y-89835000I50000J0D01*
G01*
G37*
G36*
G01*
X83440000Y-91310000D02*
X86740000Y-91310000D01*
G75*
G02*
X86990000Y-91560000I0J-250000D01*
G01*
X86990000Y-93860000D01*
G75*
G02*
X86740000Y-94110000I-250000J0D01*
G01*
X83440000Y-94110000D01*
G75*
G02*
X83190000Y-93860000I0J250000D01*
G01*
X83190000Y-91560000D01*
G75*
G02*
X83440000Y-91310000I250000J0D01*
G01*
G37*
%TD*%
M02*
