%TF.GenerationSoftware,KiCad,Pcbnew,(5.1.8)-1*%
%TF.CreationDate,2021-07-31T20:08:40-05:00*%
%TF.ProjectId,DSKY_led_display,44534b59-5f6c-4656-945f-646973706c61,rev?*%
%TF.SameCoordinates,Original*%
%TF.FileFunction,Legend,Top*%
%TF.FilePolarity,Positive*%
%FSLAX46Y46*%
G04 Gerber Fmt 4.6, Leading zero omitted, Abs format (unit mm)*
G04 Created by KiCad (PCBNEW (5.1.8)-1) date 2021-07-31 20:08:40*
%MOMM*%
%LPD*%
G01*
G04 APERTURE LIST*
%ADD10C,0.150000*%
%ADD11C,0.300000*%
%ADD12C,0.200000*%
%ADD13C,0.120000*%
%ADD14C,0.010000*%
%ADD15C,0.127000*%
%ADD16C,0.130000*%
%ADD17C,0.100000*%
%ADD18C,0.203200*%
%ADD19C,0.015000*%
%ADD20C,0.138988*%
G04 APERTURE END LIST*
D10*
X37709523Y-121952380D02*
X37709523Y-120952380D01*
X38138095Y-121952380D02*
X38138095Y-121428571D01*
X38090476Y-121333333D01*
X37995238Y-121285714D01*
X37852380Y-121285714D01*
X37757142Y-121333333D01*
X37709523Y-121380952D01*
X38471428Y-121285714D02*
X38852380Y-121285714D01*
X38614285Y-120952380D02*
X38614285Y-121809523D01*
X38661904Y-121904761D01*
X38757142Y-121952380D01*
X38852380Y-121952380D01*
X39042857Y-121285714D02*
X39423809Y-121285714D01*
X39185714Y-120952380D02*
X39185714Y-121809523D01*
X39233333Y-121904761D01*
X39328571Y-121952380D01*
X39423809Y-121952380D01*
X39757142Y-121285714D02*
X39757142Y-122285714D01*
X39757142Y-121333333D02*
X39852380Y-121285714D01*
X40042857Y-121285714D01*
X40138095Y-121333333D01*
X40185714Y-121380952D01*
X40233333Y-121476190D01*
X40233333Y-121761904D01*
X40185714Y-121857142D01*
X40138095Y-121904761D01*
X40042857Y-121952380D01*
X39852380Y-121952380D01*
X39757142Y-121904761D01*
X40614285Y-121904761D02*
X40709523Y-121952380D01*
X40900000Y-121952380D01*
X40995238Y-121904761D01*
X41042857Y-121809523D01*
X41042857Y-121761904D01*
X40995238Y-121666666D01*
X40900000Y-121619047D01*
X40757142Y-121619047D01*
X40661904Y-121571428D01*
X40614285Y-121476190D01*
X40614285Y-121428571D01*
X40661904Y-121333333D01*
X40757142Y-121285714D01*
X40900000Y-121285714D01*
X40995238Y-121333333D01*
X41471428Y-121857142D02*
X41519047Y-121904761D01*
X41471428Y-121952380D01*
X41423809Y-121904761D01*
X41471428Y-121857142D01*
X41471428Y-121952380D01*
X41471428Y-121333333D02*
X41519047Y-121380952D01*
X41471428Y-121428571D01*
X41423809Y-121380952D01*
X41471428Y-121333333D01*
X41471428Y-121428571D01*
X42661904Y-120904761D02*
X41804761Y-122190476D01*
X43709523Y-120904761D02*
X42852380Y-122190476D01*
X44471428Y-121285714D02*
X44471428Y-122095238D01*
X44423809Y-122190476D01*
X44376190Y-122238095D01*
X44280952Y-122285714D01*
X44138095Y-122285714D01*
X44042857Y-122238095D01*
X44471428Y-121904761D02*
X44376190Y-121952380D01*
X44185714Y-121952380D01*
X44090476Y-121904761D01*
X44042857Y-121857142D01*
X43995238Y-121761904D01*
X43995238Y-121476190D01*
X44042857Y-121380952D01*
X44090476Y-121333333D01*
X44185714Y-121285714D01*
X44376190Y-121285714D01*
X44471428Y-121333333D01*
X44947619Y-121952380D02*
X44947619Y-121285714D01*
X44947619Y-120952380D02*
X44900000Y-121000000D01*
X44947619Y-121047619D01*
X44995238Y-121000000D01*
X44947619Y-120952380D01*
X44947619Y-121047619D01*
X45280952Y-121285714D02*
X45661904Y-121285714D01*
X45423809Y-120952380D02*
X45423809Y-121809523D01*
X45471428Y-121904761D01*
X45566666Y-121952380D01*
X45661904Y-121952380D01*
X45995238Y-121952380D02*
X45995238Y-120952380D01*
X46423809Y-121952380D02*
X46423809Y-121428571D01*
X46376190Y-121333333D01*
X46280952Y-121285714D01*
X46138095Y-121285714D01*
X46042857Y-121333333D01*
X45995238Y-121380952D01*
X47328571Y-121285714D02*
X47328571Y-121952380D01*
X46900000Y-121285714D02*
X46900000Y-121809523D01*
X46947619Y-121904761D01*
X47042857Y-121952380D01*
X47185714Y-121952380D01*
X47280952Y-121904761D01*
X47328571Y-121857142D01*
X47804761Y-121952380D02*
X47804761Y-120952380D01*
X47804761Y-121333333D02*
X47900000Y-121285714D01*
X48090476Y-121285714D01*
X48185714Y-121333333D01*
X48233333Y-121380952D01*
X48280952Y-121476190D01*
X48280952Y-121761904D01*
X48233333Y-121857142D01*
X48185714Y-121904761D01*
X48090476Y-121952380D01*
X47900000Y-121952380D01*
X47804761Y-121904761D01*
X48709523Y-121857142D02*
X48757142Y-121904761D01*
X48709523Y-121952380D01*
X48661904Y-121904761D01*
X48709523Y-121857142D01*
X48709523Y-121952380D01*
X49614285Y-121904761D02*
X49519047Y-121952380D01*
X49328571Y-121952380D01*
X49233333Y-121904761D01*
X49185714Y-121857142D01*
X49138095Y-121761904D01*
X49138095Y-121476190D01*
X49185714Y-121380952D01*
X49233333Y-121333333D01*
X49328571Y-121285714D01*
X49519047Y-121285714D01*
X49614285Y-121333333D01*
X50185714Y-121952380D02*
X50090476Y-121904761D01*
X50042857Y-121857142D01*
X49995238Y-121761904D01*
X49995238Y-121476190D01*
X50042857Y-121380952D01*
X50090476Y-121333333D01*
X50185714Y-121285714D01*
X50328571Y-121285714D01*
X50423809Y-121333333D01*
X50471428Y-121380952D01*
X50519047Y-121476190D01*
X50519047Y-121761904D01*
X50471428Y-121857142D01*
X50423809Y-121904761D01*
X50328571Y-121952380D01*
X50185714Y-121952380D01*
X50947619Y-121952380D02*
X50947619Y-121285714D01*
X50947619Y-121380952D02*
X50995238Y-121333333D01*
X51090476Y-121285714D01*
X51233333Y-121285714D01*
X51328571Y-121333333D01*
X51376190Y-121428571D01*
X51376190Y-121952380D01*
X51376190Y-121428571D02*
X51423809Y-121333333D01*
X51519047Y-121285714D01*
X51661904Y-121285714D01*
X51757142Y-121333333D01*
X51804761Y-121428571D01*
X51804761Y-121952380D01*
X52995238Y-120904761D02*
X52138095Y-122190476D01*
X53328571Y-121952380D02*
X53328571Y-121285714D01*
X53328571Y-121476190D02*
X53376190Y-121380952D01*
X53423809Y-121333333D01*
X53519047Y-121285714D01*
X53614285Y-121285714D01*
X53947619Y-121952380D02*
X53947619Y-121285714D01*
X53947619Y-121476190D02*
X53995238Y-121380952D01*
X54042857Y-121333333D01*
X54138095Y-121285714D01*
X54233333Y-121285714D01*
X54995238Y-121952380D02*
X54995238Y-121428571D01*
X54947619Y-121333333D01*
X54852380Y-121285714D01*
X54661904Y-121285714D01*
X54566666Y-121333333D01*
X54995238Y-121904761D02*
X54900000Y-121952380D01*
X54661904Y-121952380D01*
X54566666Y-121904761D01*
X54519047Y-121809523D01*
X54519047Y-121714285D01*
X54566666Y-121619047D01*
X54661904Y-121571428D01*
X54900000Y-121571428D01*
X54995238Y-121523809D01*
X55471428Y-121952380D02*
X55471428Y-121285714D01*
X55471428Y-120952380D02*
X55423809Y-121000000D01*
X55471428Y-121047619D01*
X55519047Y-121000000D01*
X55471428Y-120952380D01*
X55471428Y-121047619D01*
X55947619Y-121285714D02*
X55947619Y-121952380D01*
X55947619Y-121380952D02*
X55995238Y-121333333D01*
X56090476Y-121285714D01*
X56233333Y-121285714D01*
X56328571Y-121333333D01*
X56376190Y-121428571D01*
X56376190Y-121952380D01*
X57233333Y-121904761D02*
X57138095Y-121952380D01*
X56947619Y-121952380D01*
X56852380Y-121904761D01*
X56804761Y-121809523D01*
X56804761Y-121428571D01*
X56852380Y-121333333D01*
X56947619Y-121285714D01*
X57138095Y-121285714D01*
X57233333Y-121333333D01*
X57280952Y-121428571D01*
X57280952Y-121523809D01*
X56804761Y-121619047D01*
X57614285Y-121285714D02*
X57852380Y-121952380D01*
X58090476Y-121285714D02*
X57852380Y-121952380D01*
X57757142Y-122190476D01*
X57709523Y-122238095D01*
X57614285Y-122285714D01*
X59185714Y-120904761D02*
X58328571Y-122190476D01*
X59519047Y-121952380D02*
X59519047Y-120952380D01*
X59757142Y-120952380D01*
X59900000Y-121000000D01*
X59995238Y-121095238D01*
X60042857Y-121190476D01*
X60090476Y-121380952D01*
X60090476Y-121523809D01*
X60042857Y-121714285D01*
X59995238Y-121809523D01*
X59900000Y-121904761D01*
X59757142Y-121952380D01*
X59519047Y-121952380D01*
X60471428Y-121904761D02*
X60614285Y-121952380D01*
X60852380Y-121952380D01*
X60947619Y-121904761D01*
X60995238Y-121857142D01*
X61042857Y-121761904D01*
X61042857Y-121666666D01*
X60995238Y-121571428D01*
X60947619Y-121523809D01*
X60852380Y-121476190D01*
X60661904Y-121428571D01*
X60566666Y-121380952D01*
X60519047Y-121333333D01*
X60471428Y-121238095D01*
X60471428Y-121142857D01*
X60519047Y-121047619D01*
X60566666Y-121000000D01*
X60661904Y-120952380D01*
X60900000Y-120952380D01*
X61042857Y-121000000D01*
X61471428Y-121952380D02*
X61471428Y-120952380D01*
X62042857Y-121952380D02*
X61614285Y-121380952D01*
X62042857Y-120952380D02*
X61471428Y-121523809D01*
X62661904Y-121476190D02*
X62661904Y-121952380D01*
X62328571Y-120952380D02*
X62661904Y-121476190D01*
X62995238Y-120952380D01*
X63328571Y-121571428D02*
X64090476Y-121571428D01*
X64995238Y-121952380D02*
X64995238Y-120952380D01*
X64995238Y-121904761D02*
X64900000Y-121952380D01*
X64709523Y-121952380D01*
X64614285Y-121904761D01*
X64566666Y-121857142D01*
X64519047Y-121761904D01*
X64519047Y-121476190D01*
X64566666Y-121380952D01*
X64614285Y-121333333D01*
X64709523Y-121285714D01*
X64900000Y-121285714D01*
X64995238Y-121333333D01*
X65471428Y-121952380D02*
X65471428Y-121285714D01*
X65471428Y-120952380D02*
X65423809Y-121000000D01*
X65471428Y-121047619D01*
X65519047Y-121000000D01*
X65471428Y-120952380D01*
X65471428Y-121047619D01*
X66376190Y-121285714D02*
X66376190Y-122095238D01*
X66328571Y-122190476D01*
X66280952Y-122238095D01*
X66185714Y-122285714D01*
X66042857Y-122285714D01*
X65947619Y-122238095D01*
X66376190Y-121904761D02*
X66280952Y-121952380D01*
X66090476Y-121952380D01*
X65995238Y-121904761D01*
X65947619Y-121857142D01*
X65900000Y-121761904D01*
X65900000Y-121476190D01*
X65947619Y-121380952D01*
X65995238Y-121333333D01*
X66090476Y-121285714D01*
X66280952Y-121285714D01*
X66376190Y-121333333D01*
X66852380Y-121952380D02*
X66852380Y-121285714D01*
X66852380Y-120952380D02*
X66804761Y-121000000D01*
X66852380Y-121047619D01*
X66900000Y-121000000D01*
X66852380Y-120952380D01*
X66852380Y-121047619D01*
X67185714Y-121285714D02*
X67566666Y-121285714D01*
X67328571Y-120952380D02*
X67328571Y-121809523D01*
X67376190Y-121904761D01*
X67471428Y-121952380D01*
X67566666Y-121952380D01*
X68328571Y-121952380D02*
X68328571Y-121428571D01*
X68280952Y-121333333D01*
X68185714Y-121285714D01*
X67995238Y-121285714D01*
X67900000Y-121333333D01*
X68328571Y-121904761D02*
X68233333Y-121952380D01*
X67995238Y-121952380D01*
X67900000Y-121904761D01*
X67852380Y-121809523D01*
X67852380Y-121714285D01*
X67900000Y-121619047D01*
X67995238Y-121571428D01*
X68233333Y-121571428D01*
X68328571Y-121523809D01*
X68947619Y-121952380D02*
X68852380Y-121904761D01*
X68804761Y-121809523D01*
X68804761Y-120952380D01*
X69328571Y-121571428D02*
X70090476Y-121571428D01*
X70566666Y-121952380D02*
X70566666Y-121285714D01*
X70566666Y-120952380D02*
X70519047Y-121000000D01*
X70566666Y-121047619D01*
X70614285Y-121000000D01*
X70566666Y-120952380D01*
X70566666Y-121047619D01*
X71042857Y-121285714D02*
X71042857Y-121952380D01*
X71042857Y-121380952D02*
X71090476Y-121333333D01*
X71185714Y-121285714D01*
X71328571Y-121285714D01*
X71423809Y-121333333D01*
X71471428Y-121428571D01*
X71471428Y-121952380D01*
X72376190Y-121952380D02*
X72376190Y-120952380D01*
X72376190Y-121904761D02*
X72280952Y-121952380D01*
X72090476Y-121952380D01*
X71995238Y-121904761D01*
X71947619Y-121857142D01*
X71900000Y-121761904D01*
X71900000Y-121476190D01*
X71947619Y-121380952D01*
X71995238Y-121333333D01*
X72090476Y-121285714D01*
X72280952Y-121285714D01*
X72376190Y-121333333D01*
X72852380Y-121952380D02*
X72852380Y-121285714D01*
X72852380Y-120952380D02*
X72804761Y-121000000D01*
X72852380Y-121047619D01*
X72900000Y-121000000D01*
X72852380Y-120952380D01*
X72852380Y-121047619D01*
X73757142Y-121904761D02*
X73661904Y-121952380D01*
X73471428Y-121952380D01*
X73376190Y-121904761D01*
X73328571Y-121857142D01*
X73280952Y-121761904D01*
X73280952Y-121476190D01*
X73328571Y-121380952D01*
X73376190Y-121333333D01*
X73471428Y-121285714D01*
X73661904Y-121285714D01*
X73757142Y-121333333D01*
X74614285Y-121952380D02*
X74614285Y-121428571D01*
X74566666Y-121333333D01*
X74471428Y-121285714D01*
X74280952Y-121285714D01*
X74185714Y-121333333D01*
X74614285Y-121904761D02*
X74519047Y-121952380D01*
X74280952Y-121952380D01*
X74185714Y-121904761D01*
X74138095Y-121809523D01*
X74138095Y-121714285D01*
X74185714Y-121619047D01*
X74280952Y-121571428D01*
X74519047Y-121571428D01*
X74614285Y-121523809D01*
X74947619Y-121285714D02*
X75328571Y-121285714D01*
X75090476Y-120952380D02*
X75090476Y-121809523D01*
X75138095Y-121904761D01*
X75233333Y-121952380D01*
X75328571Y-121952380D01*
X75804761Y-121952380D02*
X75709523Y-121904761D01*
X75661904Y-121857142D01*
X75614285Y-121761904D01*
X75614285Y-121476190D01*
X75661904Y-121380952D01*
X75709523Y-121333333D01*
X75804761Y-121285714D01*
X75947619Y-121285714D01*
X76042857Y-121333333D01*
X76090476Y-121380952D01*
X76138095Y-121476190D01*
X76138095Y-121761904D01*
X76090476Y-121857142D01*
X76042857Y-121904761D01*
X75947619Y-121952380D01*
X75804761Y-121952380D01*
X76566666Y-121952380D02*
X76566666Y-121285714D01*
X76566666Y-121476190D02*
X76614285Y-121380952D01*
X76661904Y-121333333D01*
X76757142Y-121285714D01*
X76852380Y-121285714D01*
X77185714Y-121571428D02*
X77947619Y-121571428D01*
X78423809Y-121952380D02*
X78423809Y-121285714D01*
X78423809Y-121476190D02*
X78471428Y-121380952D01*
X78519047Y-121333333D01*
X78614285Y-121285714D01*
X78709523Y-121285714D01*
X79423809Y-121904761D02*
X79328571Y-121952380D01*
X79138095Y-121952380D01*
X79042857Y-121904761D01*
X78995238Y-121809523D01*
X78995238Y-121428571D01*
X79042857Y-121333333D01*
X79138095Y-121285714D01*
X79328571Y-121285714D01*
X79423809Y-121333333D01*
X79471428Y-121428571D01*
X79471428Y-121523809D01*
X78995238Y-121619047D01*
X79900000Y-121285714D02*
X79900000Y-122285714D01*
X79900000Y-121333333D02*
X79995238Y-121285714D01*
X80185714Y-121285714D01*
X80280952Y-121333333D01*
X80328571Y-121380952D01*
X80376190Y-121476190D01*
X80376190Y-121761904D01*
X80328571Y-121857142D01*
X80280952Y-121904761D01*
X80185714Y-121952380D01*
X79995238Y-121952380D01*
X79900000Y-121904761D01*
X80947619Y-121952380D02*
X80852380Y-121904761D01*
X80804761Y-121809523D01*
X80804761Y-120952380D01*
X81328571Y-121952380D02*
X81328571Y-121285714D01*
X81328571Y-120952380D02*
X81280952Y-121000000D01*
X81328571Y-121047619D01*
X81376190Y-121000000D01*
X81328571Y-120952380D01*
X81328571Y-121047619D01*
X82233333Y-121904761D02*
X82138095Y-121952380D01*
X81947619Y-121952380D01*
X81852380Y-121904761D01*
X81804761Y-121857142D01*
X81757142Y-121761904D01*
X81757142Y-121476190D01*
X81804761Y-121380952D01*
X81852380Y-121333333D01*
X81947619Y-121285714D01*
X82138095Y-121285714D01*
X82233333Y-121333333D01*
X83090476Y-121952380D02*
X83090476Y-121428571D01*
X83042857Y-121333333D01*
X82947619Y-121285714D01*
X82757142Y-121285714D01*
X82661904Y-121333333D01*
X83090476Y-121904761D02*
X82995238Y-121952380D01*
X82757142Y-121952380D01*
X82661904Y-121904761D01*
X82614285Y-121809523D01*
X82614285Y-121714285D01*
X82661904Y-121619047D01*
X82757142Y-121571428D01*
X82995238Y-121571428D01*
X83090476Y-121523809D01*
D11*
X90341142Y-72306571D02*
X90341142Y-70806571D01*
X91198285Y-72306571D01*
X91198285Y-70806571D01*
X92984000Y-70735142D02*
X91698285Y-72663714D01*
X94341142Y-72163714D02*
X94269714Y-72235142D01*
X94055428Y-72306571D01*
X93912571Y-72306571D01*
X93698285Y-72235142D01*
X93555428Y-72092285D01*
X93484000Y-71949428D01*
X93412571Y-71663714D01*
X93412571Y-71449428D01*
X93484000Y-71163714D01*
X93555428Y-71020857D01*
X93698285Y-70878000D01*
X93912571Y-70806571D01*
X94055428Y-70806571D01*
X94269714Y-70878000D01*
X94341142Y-70949428D01*
X90341142Y-77386571D02*
X90341142Y-75886571D01*
X91198285Y-77386571D01*
X91198285Y-75886571D01*
X92984000Y-75815142D02*
X91698285Y-77743714D01*
X94341142Y-77243714D02*
X94269714Y-77315142D01*
X94055428Y-77386571D01*
X93912571Y-77386571D01*
X93698285Y-77315142D01*
X93555428Y-77172285D01*
X93484000Y-77029428D01*
X93412571Y-76743714D01*
X93412571Y-76529428D01*
X93484000Y-76243714D01*
X93555428Y-76100857D01*
X93698285Y-75958000D01*
X93912571Y-75886571D01*
X94055428Y-75886571D01*
X94269714Y-75958000D01*
X94341142Y-76029428D01*
X91126857Y-73545000D02*
X90984000Y-73473571D01*
X90769714Y-73473571D01*
X90555428Y-73545000D01*
X90412571Y-73687857D01*
X90341142Y-73830714D01*
X90269714Y-74116428D01*
X90269714Y-74330714D01*
X90341142Y-74616428D01*
X90412571Y-74759285D01*
X90555428Y-74902142D01*
X90769714Y-74973571D01*
X90912571Y-74973571D01*
X91126857Y-74902142D01*
X91198285Y-74830714D01*
X91198285Y-74330714D01*
X90912571Y-74330714D01*
X91841142Y-74973571D02*
X91841142Y-73473571D01*
X92698285Y-74973571D01*
X92698285Y-73473571D01*
X93412571Y-74973571D02*
X93412571Y-73473571D01*
X93769714Y-73473571D01*
X93984000Y-73545000D01*
X94126857Y-73687857D01*
X94198285Y-73830714D01*
X94269714Y-74116428D01*
X94269714Y-74330714D01*
X94198285Y-74616428D01*
X94126857Y-74759285D01*
X93984000Y-74902142D01*
X93769714Y-74973571D01*
X93412571Y-74973571D01*
X90152142Y-79355142D02*
X91295000Y-79355142D01*
X90723571Y-79926571D02*
X90723571Y-78783714D01*
X91866428Y-78426571D02*
X92795000Y-78426571D01*
X92295000Y-78998000D01*
X92509285Y-78998000D01*
X92652142Y-79069428D01*
X92723571Y-79140857D01*
X92795000Y-79283714D01*
X92795000Y-79640857D01*
X92723571Y-79783714D01*
X92652142Y-79855142D01*
X92509285Y-79926571D01*
X92080714Y-79926571D01*
X91937857Y-79855142D01*
X91866428Y-79783714D01*
X93437857Y-79783714D02*
X93509285Y-79855142D01*
X93437857Y-79926571D01*
X93366428Y-79855142D01*
X93437857Y-79783714D01*
X93437857Y-79926571D01*
X94009285Y-78426571D02*
X94937857Y-78426571D01*
X94437857Y-78998000D01*
X94652142Y-78998000D01*
X94795000Y-79069428D01*
X94866428Y-79140857D01*
X94937857Y-79283714D01*
X94937857Y-79640857D01*
X94866428Y-79783714D01*
X94795000Y-79855142D01*
X94652142Y-79926571D01*
X94223571Y-79926571D01*
X94080714Y-79855142D01*
X94009285Y-79783714D01*
X95366428Y-78426571D02*
X95866428Y-79926571D01*
X96366428Y-78426571D01*
D12*
X41087142Y-94028571D02*
X41087142Y-92528571D01*
X41444285Y-92528571D01*
X41658571Y-92600000D01*
X41801428Y-92742857D01*
X41872857Y-92885714D01*
X41944285Y-93171428D01*
X41944285Y-93385714D01*
X41872857Y-93671428D01*
X41801428Y-93814285D01*
X41658571Y-93957142D01*
X41444285Y-94028571D01*
X41087142Y-94028571D01*
X42515714Y-93957142D02*
X42730000Y-94028571D01*
X43087142Y-94028571D01*
X43230000Y-93957142D01*
X43301428Y-93885714D01*
X43372857Y-93742857D01*
X43372857Y-93600000D01*
X43301428Y-93457142D01*
X43230000Y-93385714D01*
X43087142Y-93314285D01*
X42801428Y-93242857D01*
X42658571Y-93171428D01*
X42587142Y-93100000D01*
X42515714Y-92957142D01*
X42515714Y-92814285D01*
X42587142Y-92671428D01*
X42658571Y-92600000D01*
X42801428Y-92528571D01*
X43158571Y-92528571D01*
X43372857Y-92600000D01*
X44015714Y-94028571D02*
X44015714Y-92528571D01*
X44872857Y-94028571D02*
X44230000Y-93171428D01*
X44872857Y-92528571D02*
X44015714Y-93385714D01*
X45801428Y-93314285D02*
X45801428Y-94028571D01*
X45301428Y-92528571D02*
X45801428Y-93314285D01*
X46301428Y-92528571D01*
X48658571Y-94028571D02*
X47944285Y-94028571D01*
X47944285Y-92528571D01*
X49158571Y-93242857D02*
X49658571Y-93242857D01*
X49872857Y-94028571D02*
X49158571Y-94028571D01*
X49158571Y-92528571D01*
X49872857Y-92528571D01*
X50515714Y-94028571D02*
X50515714Y-92528571D01*
X50872857Y-92528571D01*
X51087142Y-92600000D01*
X51230000Y-92742857D01*
X51301428Y-92885714D01*
X51372857Y-93171428D01*
X51372857Y-93385714D01*
X51301428Y-93671428D01*
X51230000Y-93814285D01*
X51087142Y-93957142D01*
X50872857Y-94028571D01*
X50515714Y-94028571D01*
X53158571Y-94028571D02*
X53158571Y-92528571D01*
X53515714Y-92528571D01*
X53730000Y-92600000D01*
X53872857Y-92742857D01*
X53944285Y-92885714D01*
X54015714Y-93171428D01*
X54015714Y-93385714D01*
X53944285Y-93671428D01*
X53872857Y-93814285D01*
X53730000Y-93957142D01*
X53515714Y-94028571D01*
X53158571Y-94028571D01*
X54658571Y-94028571D02*
X54658571Y-93028571D01*
X54658571Y-92528571D02*
X54587142Y-92600000D01*
X54658571Y-92671428D01*
X54730000Y-92600000D01*
X54658571Y-92528571D01*
X54658571Y-92671428D01*
X55301428Y-93957142D02*
X55444285Y-94028571D01*
X55730000Y-94028571D01*
X55872857Y-93957142D01*
X55944285Y-93814285D01*
X55944285Y-93742857D01*
X55872857Y-93600000D01*
X55730000Y-93528571D01*
X55515714Y-93528571D01*
X55372857Y-93457142D01*
X55301428Y-93314285D01*
X55301428Y-93242857D01*
X55372857Y-93100000D01*
X55515714Y-93028571D01*
X55730000Y-93028571D01*
X55872857Y-93100000D01*
X56587142Y-93028571D02*
X56587142Y-94528571D01*
X56587142Y-93100000D02*
X56730000Y-93028571D01*
X57015714Y-93028571D01*
X57158571Y-93100000D01*
X57230000Y-93171428D01*
X57301428Y-93314285D01*
X57301428Y-93742857D01*
X57230000Y-93885714D01*
X57158571Y-93957142D01*
X57015714Y-94028571D01*
X56730000Y-94028571D01*
X56587142Y-93957142D01*
X58158571Y-94028571D02*
X58015714Y-93957142D01*
X57944285Y-93814285D01*
X57944285Y-92528571D01*
X59372857Y-94028571D02*
X59372857Y-93242857D01*
X59301428Y-93100000D01*
X59158571Y-93028571D01*
X58872857Y-93028571D01*
X58730000Y-93100000D01*
X59372857Y-93957142D02*
X59230000Y-94028571D01*
X58872857Y-94028571D01*
X58730000Y-93957142D01*
X58658571Y-93814285D01*
X58658571Y-93671428D01*
X58730000Y-93528571D01*
X58872857Y-93457142D01*
X59230000Y-93457142D01*
X59372857Y-93385714D01*
X59944285Y-93028571D02*
X60301428Y-94028571D01*
X60658571Y-93028571D02*
X60301428Y-94028571D01*
X60158571Y-94385714D01*
X60087142Y-94457142D01*
X59944285Y-94528571D01*
X62158571Y-92528571D02*
X62658571Y-94028571D01*
X63158571Y-92528571D01*
X64301428Y-93028571D02*
X64301428Y-94028571D01*
X63944285Y-92457142D02*
X63587142Y-93528571D01*
X64515714Y-93528571D01*
X41944285Y-96478571D02*
X41444285Y-95764285D01*
X41087142Y-96478571D02*
X41087142Y-94978571D01*
X41658571Y-94978571D01*
X41801428Y-95050000D01*
X41872857Y-95121428D01*
X41944285Y-95264285D01*
X41944285Y-95478571D01*
X41872857Y-95621428D01*
X41801428Y-95692857D01*
X41658571Y-95764285D01*
X41087142Y-95764285D01*
X42587142Y-96478571D02*
X42587142Y-95478571D01*
X42587142Y-94978571D02*
X42515714Y-95050000D01*
X42587142Y-95121428D01*
X42658571Y-95050000D01*
X42587142Y-94978571D01*
X42587142Y-95121428D01*
X43515714Y-96478571D02*
X43372857Y-96407142D01*
X43301428Y-96264285D01*
X43301428Y-94978571D01*
X44658571Y-96407142D02*
X44515714Y-96478571D01*
X44230000Y-96478571D01*
X44087142Y-96407142D01*
X44015714Y-96264285D01*
X44015714Y-95692857D01*
X44087142Y-95550000D01*
X44230000Y-95478571D01*
X44515714Y-95478571D01*
X44658571Y-95550000D01*
X44730000Y-95692857D01*
X44730000Y-95835714D01*
X44015714Y-95978571D01*
X45230000Y-95478571D02*
X45587142Y-96478571D01*
X45944285Y-95478571D02*
X45587142Y-96478571D01*
X45444285Y-96835714D01*
X45372857Y-96907142D01*
X45230000Y-96978571D01*
X48515714Y-96478571D02*
X48015714Y-95764285D01*
X47658571Y-96478571D02*
X47658571Y-94978571D01*
X48230000Y-94978571D01*
X48372857Y-95050000D01*
X48444285Y-95121428D01*
X48515714Y-95264285D01*
X48515714Y-95478571D01*
X48444285Y-95621428D01*
X48372857Y-95692857D01*
X48230000Y-95764285D01*
X47658571Y-95764285D01*
X49801428Y-96478571D02*
X49801428Y-95692857D01*
X49730000Y-95550000D01*
X49587142Y-95478571D01*
X49301428Y-95478571D01*
X49158571Y-95550000D01*
X49801428Y-96407142D02*
X49658571Y-96478571D01*
X49301428Y-96478571D01*
X49158571Y-96407142D01*
X49087142Y-96264285D01*
X49087142Y-96121428D01*
X49158571Y-95978571D01*
X49301428Y-95907142D01*
X49658571Y-95907142D01*
X49801428Y-95835714D01*
X50515714Y-96478571D02*
X50515714Y-95478571D01*
X50515714Y-94978571D02*
X50444285Y-95050000D01*
X50515714Y-95121428D01*
X50587142Y-95050000D01*
X50515714Y-94978571D01*
X50515714Y-95121428D01*
X51230000Y-95478571D02*
X51230000Y-96478571D01*
X51230000Y-95621428D02*
X51301428Y-95550000D01*
X51444285Y-95478571D01*
X51658571Y-95478571D01*
X51801428Y-95550000D01*
X51872857Y-95692857D01*
X51872857Y-96478571D01*
X53158571Y-96407142D02*
X53015714Y-96478571D01*
X52730000Y-96478571D01*
X52587142Y-96407142D01*
X52515714Y-96264285D01*
X52515714Y-95692857D01*
X52587142Y-95550000D01*
X52730000Y-95478571D01*
X53015714Y-95478571D01*
X53158571Y-95550000D01*
X53230000Y-95692857D01*
X53230000Y-95835714D01*
X52515714Y-95978571D01*
X53730000Y-95478571D02*
X54087142Y-96478571D01*
X54444285Y-95478571D02*
X54087142Y-96478571D01*
X53944285Y-96835714D01*
X53872857Y-96907142D01*
X53730000Y-96978571D01*
X41015714Y-97571428D02*
X41087142Y-97500000D01*
X41230000Y-97428571D01*
X41587142Y-97428571D01*
X41730000Y-97500000D01*
X41801428Y-97571428D01*
X41872857Y-97714285D01*
X41872857Y-97857142D01*
X41801428Y-98071428D01*
X40944285Y-98928571D01*
X41872857Y-98928571D01*
X42801428Y-97428571D02*
X42944285Y-97428571D01*
X43087142Y-97500000D01*
X43158571Y-97571428D01*
X43230000Y-97714285D01*
X43301428Y-98000000D01*
X43301428Y-98357142D01*
X43230000Y-98642857D01*
X43158571Y-98785714D01*
X43087142Y-98857142D01*
X42944285Y-98928571D01*
X42801428Y-98928571D01*
X42658571Y-98857142D01*
X42587142Y-98785714D01*
X42515714Y-98642857D01*
X42444285Y-98357142D01*
X42444285Y-98000000D01*
X42515714Y-97714285D01*
X42587142Y-97571428D01*
X42658571Y-97500000D01*
X42801428Y-97428571D01*
X43872857Y-97571428D02*
X43944285Y-97500000D01*
X44087142Y-97428571D01*
X44444285Y-97428571D01*
X44587142Y-97500000D01*
X44658571Y-97571428D01*
X44730000Y-97714285D01*
X44730000Y-97857142D01*
X44658571Y-98071428D01*
X43801428Y-98928571D01*
X44730000Y-98928571D01*
X46158571Y-98928571D02*
X45301428Y-98928571D01*
X45730000Y-98928571D02*
X45730000Y-97428571D01*
X45587142Y-97642857D01*
X45444285Y-97785714D01*
X45301428Y-97857142D01*
X46801428Y-98357142D02*
X47944285Y-98357142D01*
X48944285Y-97428571D02*
X49087142Y-97428571D01*
X49230000Y-97500000D01*
X49301428Y-97571428D01*
X49372857Y-97714285D01*
X49444285Y-98000000D01*
X49444285Y-98357142D01*
X49372857Y-98642857D01*
X49301428Y-98785714D01*
X49230000Y-98857142D01*
X49087142Y-98928571D01*
X48944285Y-98928571D01*
X48801428Y-98857142D01*
X48730000Y-98785714D01*
X48658571Y-98642857D01*
X48587142Y-98357142D01*
X48587142Y-98000000D01*
X48658571Y-97714285D01*
X48730000Y-97571428D01*
X48801428Y-97500000D01*
X48944285Y-97428571D01*
X50301428Y-98071428D02*
X50158571Y-98000000D01*
X50087142Y-97928571D01*
X50015714Y-97785714D01*
X50015714Y-97714285D01*
X50087142Y-97571428D01*
X50158571Y-97500000D01*
X50301428Y-97428571D01*
X50587142Y-97428571D01*
X50730000Y-97500000D01*
X50801428Y-97571428D01*
X50872857Y-97714285D01*
X50872857Y-97785714D01*
X50801428Y-97928571D01*
X50730000Y-98000000D01*
X50587142Y-98071428D01*
X50301428Y-98071428D01*
X50158571Y-98142857D01*
X50087142Y-98214285D01*
X50015714Y-98357142D01*
X50015714Y-98642857D01*
X50087142Y-98785714D01*
X50158571Y-98857142D01*
X50301428Y-98928571D01*
X50587142Y-98928571D01*
X50730000Y-98857142D01*
X50801428Y-98785714D01*
X50872857Y-98642857D01*
X50872857Y-98357142D01*
X50801428Y-98214285D01*
X50730000Y-98142857D01*
X50587142Y-98071428D01*
X51515714Y-98357142D02*
X52658571Y-98357142D01*
X53658571Y-97428571D02*
X53801428Y-97428571D01*
X53944285Y-97500000D01*
X54015714Y-97571428D01*
X54087142Y-97714285D01*
X54158571Y-98000000D01*
X54158571Y-98357142D01*
X54087142Y-98642857D01*
X54015714Y-98785714D01*
X53944285Y-98857142D01*
X53801428Y-98928571D01*
X53658571Y-98928571D01*
X53515714Y-98857142D01*
X53444285Y-98785714D01*
X53372857Y-98642857D01*
X53301428Y-98357142D01*
X53301428Y-98000000D01*
X53372857Y-97714285D01*
X53444285Y-97571428D01*
X53515714Y-97500000D01*
X53658571Y-97428571D01*
X55587142Y-98928571D02*
X54730000Y-98928571D01*
X55158571Y-98928571D02*
X55158571Y-97428571D01*
X55015714Y-97642857D01*
X54872857Y-97785714D01*
X54730000Y-97857142D01*
D13*
%TO.C,R23*%
X59822500Y-86837258D02*
X59822500Y-86362742D01*
X58777500Y-86837258D02*
X58777500Y-86362742D01*
%TO.C,R22*%
X43822500Y-81737258D02*
X43822500Y-81262742D01*
X42777500Y-81737258D02*
X42777500Y-81262742D01*
%TO.C,R21*%
X58322500Y-73762742D02*
X58322500Y-74237258D01*
X57277500Y-73762742D02*
X57277500Y-74237258D01*
%TO.C,R14*%
X60022500Y-73762742D02*
X60022500Y-74237258D01*
X58977500Y-73762742D02*
X58977500Y-74237258D01*
%TO.C,R13*%
X59722500Y-66262742D02*
X59722500Y-66737258D01*
X58677500Y-66262742D02*
X58677500Y-66737258D01*
%TO.C,U9*%
X52375000Y-76605000D02*
X48925000Y-76605000D01*
X52375000Y-76605000D02*
X54325000Y-76605000D01*
X52375000Y-85475000D02*
X50425000Y-85475000D01*
X52375000Y-85475000D02*
X54325000Y-85475000D01*
D14*
%TO.C,REF\u002A\u002A*%
G36*
X40653166Y-117036506D02*
G01*
X40839084Y-117129204D01*
X41003180Y-117299885D01*
X41048372Y-117363107D01*
X41097604Y-117445834D01*
X41129547Y-117535687D01*
X41147822Y-117655608D01*
X41156048Y-117828537D01*
X41157855Y-118056835D01*
X41149697Y-118369693D01*
X41121341Y-118604598D01*
X41066962Y-118779847D01*
X40980737Y-118913738D01*
X40856841Y-119024569D01*
X40847737Y-119031131D01*
X40725634Y-119098256D01*
X40578600Y-119131467D01*
X40391604Y-119139655D01*
X40087613Y-119139655D01*
X40087485Y-119434762D01*
X40084656Y-119599117D01*
X40067418Y-119695523D01*
X40022370Y-119753343D01*
X39936114Y-119801941D01*
X39915399Y-119811869D01*
X39818462Y-119858398D01*
X39743407Y-119887786D01*
X39687598Y-119890324D01*
X39648397Y-119856302D01*
X39623168Y-119776012D01*
X39609272Y-119639743D01*
X39604073Y-119437787D01*
X39604934Y-119160434D01*
X39609216Y-118797976D01*
X39610553Y-118689560D01*
X39615371Y-118315837D01*
X39619687Y-118071369D01*
X40087357Y-118071369D01*
X40089985Y-118278877D01*
X40101667Y-118414645D01*
X40128097Y-118504192D01*
X40174969Y-118573039D01*
X40206793Y-118606618D01*
X40336892Y-118704869D01*
X40452079Y-118712866D01*
X40570934Y-118631730D01*
X40573947Y-118628736D01*
X40622305Y-118566030D01*
X40651722Y-118480808D01*
X40666560Y-118349564D01*
X40671181Y-118148793D01*
X40671265Y-118104314D01*
X40660098Y-117827639D01*
X40623747Y-117635842D01*
X40557941Y-117518757D01*
X40458407Y-117466215D01*
X40400881Y-117460920D01*
X40264351Y-117485767D01*
X40170702Y-117567581D01*
X40114330Y-117717270D01*
X40089633Y-117945743D01*
X40087357Y-118071369D01*
X39619687Y-118071369D01*
X39620478Y-118026587D01*
X39627078Y-117808970D01*
X39636377Y-117650146D01*
X39649577Y-117537274D01*
X39667885Y-117457513D01*
X39692503Y-117398023D01*
X39724637Y-117345963D01*
X39738415Y-117326373D01*
X39921188Y-117141328D01*
X40152276Y-117036412D01*
X40419590Y-117007163D01*
X40653166Y-117036506D01*
G37*
X40653166Y-117036506D02*
X40839084Y-117129204D01*
X41003180Y-117299885D01*
X41048372Y-117363107D01*
X41097604Y-117445834D01*
X41129547Y-117535687D01*
X41147822Y-117655608D01*
X41156048Y-117828537D01*
X41157855Y-118056835D01*
X41149697Y-118369693D01*
X41121341Y-118604598D01*
X41066962Y-118779847D01*
X40980737Y-118913738D01*
X40856841Y-119024569D01*
X40847737Y-119031131D01*
X40725634Y-119098256D01*
X40578600Y-119131467D01*
X40391604Y-119139655D01*
X40087613Y-119139655D01*
X40087485Y-119434762D01*
X40084656Y-119599117D01*
X40067418Y-119695523D01*
X40022370Y-119753343D01*
X39936114Y-119801941D01*
X39915399Y-119811869D01*
X39818462Y-119858398D01*
X39743407Y-119887786D01*
X39687598Y-119890324D01*
X39648397Y-119856302D01*
X39623168Y-119776012D01*
X39609272Y-119639743D01*
X39604073Y-119437787D01*
X39604934Y-119160434D01*
X39609216Y-118797976D01*
X39610553Y-118689560D01*
X39615371Y-118315837D01*
X39619687Y-118071369D01*
X40087357Y-118071369D01*
X40089985Y-118278877D01*
X40101667Y-118414645D01*
X40128097Y-118504192D01*
X40174969Y-118573039D01*
X40206793Y-118606618D01*
X40336892Y-118704869D01*
X40452079Y-118712866D01*
X40570934Y-118631730D01*
X40573947Y-118628736D01*
X40622305Y-118566030D01*
X40651722Y-118480808D01*
X40666560Y-118349564D01*
X40671181Y-118148793D01*
X40671265Y-118104314D01*
X40660098Y-117827639D01*
X40623747Y-117635842D01*
X40557941Y-117518757D01*
X40458407Y-117466215D01*
X40400881Y-117460920D01*
X40264351Y-117485767D01*
X40170702Y-117567581D01*
X40114330Y-117717270D01*
X40089633Y-117945743D01*
X40087357Y-118071369D01*
X39619687Y-118071369D01*
X39620478Y-118026587D01*
X39627078Y-117808970D01*
X39636377Y-117650146D01*
X39649577Y-117537274D01*
X39667885Y-117457513D01*
X39692503Y-117398023D01*
X39724637Y-117345963D01*
X39738415Y-117326373D01*
X39921188Y-117141328D01*
X40152276Y-117036412D01*
X40419590Y-117007163D01*
X40653166Y-117036506D01*
G36*
X44395716Y-117062865D02*
G01*
X44551872Y-117153190D01*
X44660441Y-117242845D01*
X44739845Y-117336776D01*
X44794546Y-117451646D01*
X44829010Y-117604114D01*
X44847701Y-117810844D01*
X44855081Y-118088496D01*
X44855939Y-118288086D01*
X44855939Y-119022766D01*
X44649138Y-119115472D01*
X44442338Y-119208179D01*
X44418008Y-118403492D01*
X44407955Y-118102966D01*
X44397409Y-117884835D01*
X44384343Y-117734186D01*
X44366729Y-117636107D01*
X44342539Y-117575688D01*
X44309746Y-117538016D01*
X44299225Y-117529862D01*
X44139813Y-117466178D01*
X43978679Y-117491378D01*
X43882759Y-117558238D01*
X43843741Y-117605616D01*
X43816733Y-117667787D01*
X43799568Y-117762039D01*
X43790082Y-117905657D01*
X43786107Y-118115931D01*
X43785441Y-118335070D01*
X43785310Y-118609999D01*
X43780603Y-118804602D01*
X43764846Y-118935851D01*
X43731567Y-119020718D01*
X43674293Y-119076177D01*
X43586553Y-119119201D01*
X43469362Y-119163907D01*
X43341368Y-119212571D01*
X43356604Y-118348910D01*
X43362739Y-118037565D01*
X43369918Y-117807483D01*
X43380205Y-117642614D01*
X43395670Y-117526909D01*
X43418379Y-117444316D01*
X43450399Y-117378788D01*
X43489003Y-117320974D01*
X43675253Y-117136283D01*
X43902521Y-117029481D01*
X44149709Y-117003898D01*
X44395716Y-117062865D01*
G37*
X44395716Y-117062865D02*
X44551872Y-117153190D01*
X44660441Y-117242845D01*
X44739845Y-117336776D01*
X44794546Y-117451646D01*
X44829010Y-117604114D01*
X44847701Y-117810844D01*
X44855081Y-118088496D01*
X44855939Y-118288086D01*
X44855939Y-119022766D01*
X44649138Y-119115472D01*
X44442338Y-119208179D01*
X44418008Y-118403492D01*
X44407955Y-118102966D01*
X44397409Y-117884835D01*
X44384343Y-117734186D01*
X44366729Y-117636107D01*
X44342539Y-117575688D01*
X44309746Y-117538016D01*
X44299225Y-117529862D01*
X44139813Y-117466178D01*
X43978679Y-117491378D01*
X43882759Y-117558238D01*
X43843741Y-117605616D01*
X43816733Y-117667787D01*
X43799568Y-117762039D01*
X43790082Y-117905657D01*
X43786107Y-118115931D01*
X43785441Y-118335070D01*
X43785310Y-118609999D01*
X43780603Y-118804602D01*
X43764846Y-118935851D01*
X43731567Y-119020718D01*
X43674293Y-119076177D01*
X43586553Y-119119201D01*
X43469362Y-119163907D01*
X43341368Y-119212571D01*
X43356604Y-118348910D01*
X43362739Y-118037565D01*
X43369918Y-117807483D01*
X43380205Y-117642614D01*
X43395670Y-117526909D01*
X43418379Y-117444316D01*
X43450399Y-117378788D01*
X43489003Y-117320974D01*
X43675253Y-117136283D01*
X43902521Y-117029481D01*
X44149709Y-117003898D01*
X44395716Y-117062865D01*
G36*
X38780368Y-117043358D02*
G01*
X39008436Y-117163280D01*
X39176752Y-117356278D01*
X39236541Y-117480355D01*
X39283066Y-117666653D01*
X39306882Y-117902045D01*
X39309140Y-118158952D01*
X39290992Y-118409799D01*
X39253589Y-118627009D01*
X39198084Y-118783005D01*
X39181025Y-118809871D01*
X38978970Y-119010415D01*
X38738978Y-119130529D01*
X38478566Y-119165680D01*
X38215247Y-119111337D01*
X38141967Y-119078756D01*
X37999261Y-118978353D01*
X37874014Y-118845225D01*
X37862177Y-118828341D01*
X37814065Y-118746969D01*
X37782262Y-118659984D01*
X37763474Y-118545475D01*
X37754408Y-118381530D01*
X37751771Y-118146240D01*
X37751725Y-118093487D01*
X37751846Y-118076699D01*
X38238315Y-118076699D01*
X38241146Y-118298761D01*
X38252288Y-118446123D01*
X38275709Y-118541308D01*
X38315381Y-118606837D01*
X38335633Y-118628736D01*
X38452060Y-118711953D01*
X38565098Y-118708158D01*
X38679391Y-118635973D01*
X38747559Y-118558911D01*
X38787930Y-118446429D01*
X38810602Y-118269055D01*
X38812157Y-118248367D01*
X38816027Y-117926911D01*
X38775583Y-117688167D01*
X38691374Y-117533600D01*
X38563947Y-117464678D01*
X38518460Y-117460920D01*
X38399019Y-117479821D01*
X38317317Y-117545306D01*
X38267363Y-117670544D01*
X38243166Y-117868704D01*
X38238315Y-118076699D01*
X37751846Y-118076699D01*
X37753537Y-117842765D01*
X37761147Y-117667582D01*
X37777814Y-117546191D01*
X37806799Y-117456847D01*
X37851360Y-117377803D01*
X37861207Y-117363107D01*
X38026720Y-117165011D01*
X38207070Y-117050014D01*
X38426635Y-117004365D01*
X38501195Y-117002135D01*
X38780368Y-117043358D01*
G37*
X38780368Y-117043358D02*
X39008436Y-117163280D01*
X39176752Y-117356278D01*
X39236541Y-117480355D01*
X39283066Y-117666653D01*
X39306882Y-117902045D01*
X39309140Y-118158952D01*
X39290992Y-118409799D01*
X39253589Y-118627009D01*
X39198084Y-118783005D01*
X39181025Y-118809871D01*
X38978970Y-119010415D01*
X38738978Y-119130529D01*
X38478566Y-119165680D01*
X38215247Y-119111337D01*
X38141967Y-119078756D01*
X37999261Y-118978353D01*
X37874014Y-118845225D01*
X37862177Y-118828341D01*
X37814065Y-118746969D01*
X37782262Y-118659984D01*
X37763474Y-118545475D01*
X37754408Y-118381530D01*
X37751771Y-118146240D01*
X37751725Y-118093487D01*
X37751846Y-118076699D01*
X38238315Y-118076699D01*
X38241146Y-118298761D01*
X38252288Y-118446123D01*
X38275709Y-118541308D01*
X38315381Y-118606837D01*
X38335633Y-118628736D01*
X38452060Y-118711953D01*
X38565098Y-118708158D01*
X38679391Y-118635973D01*
X38747559Y-118558911D01*
X38787930Y-118446429D01*
X38810602Y-118269055D01*
X38812157Y-118248367D01*
X38816027Y-117926911D01*
X38775583Y-117688167D01*
X38691374Y-117533600D01*
X38563947Y-117464678D01*
X38518460Y-117460920D01*
X38399019Y-117479821D01*
X38317317Y-117545306D01*
X38267363Y-117670544D01*
X38243166Y-117868704D01*
X38238315Y-118076699D01*
X37751846Y-118076699D01*
X37753537Y-117842765D01*
X37761147Y-117667582D01*
X37777814Y-117546191D01*
X37806799Y-117456847D01*
X37851360Y-117377803D01*
X37861207Y-117363107D01*
X38026720Y-117165011D01*
X38207070Y-117050014D01*
X38426635Y-117004365D01*
X38501195Y-117002135D01*
X38780368Y-117043358D01*
G36*
X42559253Y-117074461D02*
G01*
X42751097Y-117203519D01*
X42899352Y-117389915D01*
X42987916Y-117627109D01*
X43005828Y-117801691D01*
X43003794Y-117874544D01*
X42986760Y-117930324D01*
X42939936Y-117980298D01*
X42848527Y-118035733D01*
X42697742Y-118107896D01*
X42472787Y-118208055D01*
X42471648Y-118208558D01*
X42264585Y-118303396D01*
X42094788Y-118387609D01*
X41979612Y-118452133D01*
X41936410Y-118487900D01*
X41936399Y-118488188D01*
X41974475Y-118566074D01*
X42063516Y-118651924D01*
X42165737Y-118713769D01*
X42217526Y-118726054D01*
X42358816Y-118683564D01*
X42480488Y-118577152D01*
X42539855Y-118460156D01*
X42596967Y-118373905D01*
X42708839Y-118275681D01*
X42840346Y-118190827D01*
X42956368Y-118144681D01*
X42980629Y-118142146D01*
X43007938Y-118183868D01*
X43009584Y-118290519D01*
X42989514Y-118434321D01*
X42951678Y-118587501D01*
X42900023Y-118722283D01*
X42897414Y-118727516D01*
X42741969Y-118944557D01*
X42540507Y-119092185D01*
X42311712Y-119164644D01*
X42074267Y-119156177D01*
X41846854Y-119061027D01*
X41836743Y-119054337D01*
X41657850Y-118892211D01*
X41540220Y-118680682D01*
X41475123Y-118402543D01*
X41466387Y-118324398D01*
X41450914Y-117955549D01*
X41469463Y-117783541D01*
X41936399Y-117783541D01*
X41942466Y-117890838D01*
X41975649Y-117922152D01*
X42058377Y-117898725D01*
X42188779Y-117843348D01*
X42334543Y-117773932D01*
X42338166Y-117772094D01*
X42461717Y-117707108D01*
X42511303Y-117663740D01*
X42499075Y-117618275D01*
X42447588Y-117558536D01*
X42316601Y-117472085D01*
X42175538Y-117465733D01*
X42049005Y-117528649D01*
X41961608Y-117650003D01*
X41936399Y-117783541D01*
X41469463Y-117783541D01*
X41482740Y-117660435D01*
X41564391Y-117426382D01*
X41678061Y-117262413D01*
X41883225Y-117096716D01*
X42109214Y-117014519D01*
X42339925Y-117009281D01*
X42559253Y-117074461D01*
G37*
X42559253Y-117074461D02*
X42751097Y-117203519D01*
X42899352Y-117389915D01*
X42987916Y-117627109D01*
X43005828Y-117801691D01*
X43003794Y-117874544D01*
X42986760Y-117930324D01*
X42939936Y-117980298D01*
X42848527Y-118035733D01*
X42697742Y-118107896D01*
X42472787Y-118208055D01*
X42471648Y-118208558D01*
X42264585Y-118303396D01*
X42094788Y-118387609D01*
X41979612Y-118452133D01*
X41936410Y-118487900D01*
X41936399Y-118488188D01*
X41974475Y-118566074D01*
X42063516Y-118651924D01*
X42165737Y-118713769D01*
X42217526Y-118726054D01*
X42358816Y-118683564D01*
X42480488Y-118577152D01*
X42539855Y-118460156D01*
X42596967Y-118373905D01*
X42708839Y-118275681D01*
X42840346Y-118190827D01*
X42956368Y-118144681D01*
X42980629Y-118142146D01*
X43007938Y-118183868D01*
X43009584Y-118290519D01*
X42989514Y-118434321D01*
X42951678Y-118587501D01*
X42900023Y-118722283D01*
X42897414Y-118727516D01*
X42741969Y-118944557D01*
X42540507Y-119092185D01*
X42311712Y-119164644D01*
X42074267Y-119156177D01*
X41846854Y-119061027D01*
X41836743Y-119054337D01*
X41657850Y-118892211D01*
X41540220Y-118680682D01*
X41475123Y-118402543D01*
X41466387Y-118324398D01*
X41450914Y-117955549D01*
X41469463Y-117783541D01*
X41936399Y-117783541D01*
X41942466Y-117890838D01*
X41975649Y-117922152D01*
X42058377Y-117898725D01*
X42188779Y-117843348D01*
X42334543Y-117773932D01*
X42338166Y-117772094D01*
X42461717Y-117707108D01*
X42511303Y-117663740D01*
X42499075Y-117618275D01*
X42447588Y-117558536D01*
X42316601Y-117472085D01*
X42175538Y-117465733D01*
X42049005Y-117528649D01*
X41961608Y-117650003D01*
X41936399Y-117783541D01*
X41469463Y-117783541D01*
X41482740Y-117660435D01*
X41564391Y-117426382D01*
X41678061Y-117262413D01*
X41883225Y-117096716D01*
X42109214Y-117014519D01*
X42339925Y-117009281D01*
X42559253Y-117074461D01*
G36*
X46607663Y-116806429D02*
G01*
X46621923Y-117005313D01*
X46638302Y-117122511D01*
X46660998Y-117173632D01*
X46694212Y-117174286D01*
X46704981Y-117168183D01*
X46848233Y-117123997D01*
X47034575Y-117126577D01*
X47224024Y-117171999D01*
X47342517Y-117230759D01*
X47464009Y-117324631D01*
X47552823Y-117430865D01*
X47613792Y-117565850D01*
X47651750Y-117745976D01*
X47671532Y-117987633D01*
X47677970Y-118307211D01*
X47678086Y-118368516D01*
X47678161Y-119057147D01*
X47524923Y-119110566D01*
X47416087Y-119146908D01*
X47356374Y-119163828D01*
X47354617Y-119163985D01*
X47348736Y-119118100D01*
X47343732Y-118991539D01*
X47339984Y-118800941D01*
X47337873Y-118562948D01*
X47337548Y-118418252D01*
X47336871Y-118132955D01*
X47333386Y-117928480D01*
X47324912Y-117788334D01*
X47309266Y-117696023D01*
X47284269Y-117635053D01*
X47247738Y-117588931D01*
X47224929Y-117566720D01*
X47068249Y-117477214D01*
X46897274Y-117470511D01*
X46742150Y-117546208D01*
X46713463Y-117573539D01*
X46671387Y-117624929D01*
X46642201Y-117685886D01*
X46623571Y-117774025D01*
X46613161Y-117906961D01*
X46608637Y-118102309D01*
X46607663Y-118371652D01*
X46607663Y-119057147D01*
X46454425Y-119110566D01*
X46345589Y-119146908D01*
X46285876Y-119163828D01*
X46284119Y-119163985D01*
X46279625Y-119117414D01*
X46275575Y-118986051D01*
X46272130Y-118782422D01*
X46269453Y-118519054D01*
X46267706Y-118208471D01*
X46267051Y-117863201D01*
X46267050Y-117847843D01*
X46267050Y-116531701D01*
X46583334Y-116398289D01*
X46607663Y-116806429D01*
G37*
X46607663Y-116806429D02*
X46621923Y-117005313D01*
X46638302Y-117122511D01*
X46660998Y-117173632D01*
X46694212Y-117174286D01*
X46704981Y-117168183D01*
X46848233Y-117123997D01*
X47034575Y-117126577D01*
X47224024Y-117171999D01*
X47342517Y-117230759D01*
X47464009Y-117324631D01*
X47552823Y-117430865D01*
X47613792Y-117565850D01*
X47651750Y-117745976D01*
X47671532Y-117987633D01*
X47677970Y-118307211D01*
X47678086Y-118368516D01*
X47678161Y-119057147D01*
X47524923Y-119110566D01*
X47416087Y-119146908D01*
X47356374Y-119163828D01*
X47354617Y-119163985D01*
X47348736Y-119118100D01*
X47343732Y-118991539D01*
X47339984Y-118800941D01*
X47337873Y-118562948D01*
X47337548Y-118418252D01*
X47336871Y-118132955D01*
X47333386Y-117928480D01*
X47324912Y-117788334D01*
X47309266Y-117696023D01*
X47284269Y-117635053D01*
X47247738Y-117588931D01*
X47224929Y-117566720D01*
X47068249Y-117477214D01*
X46897274Y-117470511D01*
X46742150Y-117546208D01*
X46713463Y-117573539D01*
X46671387Y-117624929D01*
X46642201Y-117685886D01*
X46623571Y-117774025D01*
X46613161Y-117906961D01*
X46608637Y-118102309D01*
X46607663Y-118371652D01*
X46607663Y-119057147D01*
X46454425Y-119110566D01*
X46345589Y-119146908D01*
X46285876Y-119163828D01*
X46284119Y-119163985D01*
X46279625Y-119117414D01*
X46275575Y-118986051D01*
X46272130Y-118782422D01*
X46269453Y-118519054D01*
X46267706Y-118208471D01*
X46267051Y-117863201D01*
X46267050Y-117847843D01*
X46267050Y-116531701D01*
X46583334Y-116398289D01*
X46607663Y-116806429D01*
G36*
X48833241Y-117140601D02*
G01*
X49023905Y-117211403D01*
X49026086Y-117212764D01*
X49144006Y-117299550D01*
X49231060Y-117400973D01*
X49292286Y-117533145D01*
X49332723Y-117712182D01*
X49357409Y-117954195D01*
X49371382Y-118275299D01*
X49372607Y-118321048D01*
X49390200Y-119010869D01*
X49242152Y-119087427D01*
X49135030Y-119139163D01*
X49070351Y-119163678D01*
X49067359Y-119163985D01*
X49056166Y-119118751D01*
X49047275Y-118996736D01*
X49041806Y-118818468D01*
X49040613Y-118674116D01*
X49040586Y-118440271D01*
X49029896Y-118293419D01*
X48992633Y-118223376D01*
X48912888Y-118219958D01*
X48774749Y-118272983D01*
X48566188Y-118370454D01*
X48412829Y-118451409D01*
X48333952Y-118521644D01*
X48310764Y-118598194D01*
X48310728Y-118601982D01*
X48348993Y-118733852D01*
X48462283Y-118805091D01*
X48635664Y-118815410D01*
X48760550Y-118813620D01*
X48826399Y-118849589D01*
X48867464Y-118935985D01*
X48891099Y-119046054D01*
X48857039Y-119108508D01*
X48844214Y-119117446D01*
X48723472Y-119153343D01*
X48554388Y-119158426D01*
X48380261Y-119134631D01*
X48256876Y-119091147D01*
X48086287Y-118946309D01*
X47989319Y-118744694D01*
X47970115Y-118587180D01*
X47984770Y-118445104D01*
X48037801Y-118329127D01*
X48142806Y-118226121D01*
X48313386Y-118122954D01*
X48563138Y-118006496D01*
X48578353Y-117999914D01*
X48803329Y-117895981D01*
X48942157Y-117810743D01*
X49001662Y-117734147D01*
X48988672Y-117656139D01*
X48910012Y-117566664D01*
X48886490Y-117546073D01*
X48728933Y-117466236D01*
X48565677Y-117469597D01*
X48423495Y-117547874D01*
X48329160Y-117692781D01*
X48320395Y-117721224D01*
X48235038Y-117859174D01*
X48126729Y-117925620D01*
X47970115Y-117991471D01*
X47970115Y-117821097D01*
X48017756Y-117573454D01*
X48159159Y-117346307D01*
X48232742Y-117270318D01*
X48400009Y-117172790D01*
X48612726Y-117128640D01*
X48833241Y-117140601D01*
G37*
X48833241Y-117140601D02*
X49023905Y-117211403D01*
X49026086Y-117212764D01*
X49144006Y-117299550D01*
X49231060Y-117400973D01*
X49292286Y-117533145D01*
X49332723Y-117712182D01*
X49357409Y-117954195D01*
X49371382Y-118275299D01*
X49372607Y-118321048D01*
X49390200Y-119010869D01*
X49242152Y-119087427D01*
X49135030Y-119139163D01*
X49070351Y-119163678D01*
X49067359Y-119163985D01*
X49056166Y-119118751D01*
X49047275Y-118996736D01*
X49041806Y-118818468D01*
X49040613Y-118674116D01*
X49040586Y-118440271D01*
X49029896Y-118293419D01*
X48992633Y-118223376D01*
X48912888Y-118219958D01*
X48774749Y-118272983D01*
X48566188Y-118370454D01*
X48412829Y-118451409D01*
X48333952Y-118521644D01*
X48310764Y-118598194D01*
X48310728Y-118601982D01*
X48348993Y-118733852D01*
X48462283Y-118805091D01*
X48635664Y-118815410D01*
X48760550Y-118813620D01*
X48826399Y-118849589D01*
X48867464Y-118935985D01*
X48891099Y-119046054D01*
X48857039Y-119108508D01*
X48844214Y-119117446D01*
X48723472Y-119153343D01*
X48554388Y-119158426D01*
X48380261Y-119134631D01*
X48256876Y-119091147D01*
X48086287Y-118946309D01*
X47989319Y-118744694D01*
X47970115Y-118587180D01*
X47984770Y-118445104D01*
X48037801Y-118329127D01*
X48142806Y-118226121D01*
X48313386Y-118122954D01*
X48563138Y-118006496D01*
X48578353Y-117999914D01*
X48803329Y-117895981D01*
X48942157Y-117810743D01*
X49001662Y-117734147D01*
X48988672Y-117656139D01*
X48910012Y-117566664D01*
X48886490Y-117546073D01*
X48728933Y-117466236D01*
X48565677Y-117469597D01*
X48423495Y-117547874D01*
X48329160Y-117692781D01*
X48320395Y-117721224D01*
X48235038Y-117859174D01*
X48126729Y-117925620D01*
X47970115Y-117991471D01*
X47970115Y-117821097D01*
X48017756Y-117573454D01*
X48159159Y-117346307D01*
X48232742Y-117270318D01*
X48400009Y-117172790D01*
X48612726Y-117128640D01*
X48833241Y-117140601D01*
G36*
X50476572Y-117136534D02*
G01*
X50697609Y-117218099D01*
X50876683Y-117362366D01*
X50946720Y-117463920D01*
X51023071Y-117650268D01*
X51021485Y-117785010D01*
X50941347Y-117875631D01*
X50911696Y-117891040D01*
X50783674Y-117939084D01*
X50718294Y-117926776D01*
X50696148Y-117846098D01*
X50695020Y-117801533D01*
X50654477Y-117637581D01*
X50548802Y-117522891D01*
X50401924Y-117467497D01*
X50237773Y-117481435D01*
X50104337Y-117553827D01*
X50059269Y-117595120D01*
X50027323Y-117645216D01*
X50005744Y-117720942D01*
X49991773Y-117839128D01*
X49982655Y-118016600D01*
X49975631Y-118270186D01*
X49973812Y-118350479D01*
X49967178Y-118625158D01*
X49959636Y-118818481D01*
X49948325Y-118946388D01*
X49930385Y-119024822D01*
X49902955Y-119069725D01*
X49863177Y-119097038D01*
X49837710Y-119109105D01*
X49729556Y-119150367D01*
X49665890Y-119163985D01*
X49644854Y-119118505D01*
X49632013Y-118981006D01*
X49627300Y-118749902D01*
X49630644Y-118423604D01*
X49631686Y-118373276D01*
X49639035Y-118075581D01*
X49647726Y-117858205D01*
X49660092Y-117704153D01*
X49678470Y-117596430D01*
X49705195Y-117518042D01*
X49742602Y-117451994D01*
X49762170Y-117423691D01*
X49874366Y-117298467D01*
X49999850Y-117201063D01*
X50015213Y-117192561D01*
X50240223Y-117125433D01*
X50476572Y-117136534D01*
G37*
X50476572Y-117136534D02*
X50697609Y-117218099D01*
X50876683Y-117362366D01*
X50946720Y-117463920D01*
X51023071Y-117650268D01*
X51021485Y-117785010D01*
X50941347Y-117875631D01*
X50911696Y-117891040D01*
X50783674Y-117939084D01*
X50718294Y-117926776D01*
X50696148Y-117846098D01*
X50695020Y-117801533D01*
X50654477Y-117637581D01*
X50548802Y-117522891D01*
X50401924Y-117467497D01*
X50237773Y-117481435D01*
X50104337Y-117553827D01*
X50059269Y-117595120D01*
X50027323Y-117645216D01*
X50005744Y-117720942D01*
X49991773Y-117839128D01*
X49982655Y-118016600D01*
X49975631Y-118270186D01*
X49973812Y-118350479D01*
X49967178Y-118625158D01*
X49959636Y-118818481D01*
X49948325Y-118946388D01*
X49930385Y-119024822D01*
X49902955Y-119069725D01*
X49863177Y-119097038D01*
X49837710Y-119109105D01*
X49729556Y-119150367D01*
X49665890Y-119163985D01*
X49644854Y-119118505D01*
X49632013Y-118981006D01*
X49627300Y-118749902D01*
X49630644Y-118423604D01*
X49631686Y-118373276D01*
X49639035Y-118075581D01*
X49647726Y-117858205D01*
X49660092Y-117704153D01*
X49678470Y-117596430D01*
X49705195Y-117518042D01*
X49742602Y-117451994D01*
X49762170Y-117423691D01*
X49874366Y-117298467D01*
X49999850Y-117201063D01*
X50015213Y-117192561D01*
X50240223Y-117125433D01*
X50476572Y-117136534D01*
G36*
X52689857Y-117524093D02*
G01*
X52689239Y-117887769D01*
X52686847Y-118167532D01*
X52681671Y-118376784D01*
X52672704Y-118528926D01*
X52658936Y-118637359D01*
X52639361Y-118715485D01*
X52612968Y-118776707D01*
X52592984Y-118811652D01*
X52427483Y-119001157D01*
X52217648Y-119119942D01*
X51985486Y-119162564D01*
X51753008Y-119123583D01*
X51614572Y-119053532D01*
X51469242Y-118932353D01*
X51370195Y-118784354D01*
X51310435Y-118590534D01*
X51282969Y-118331892D01*
X51279079Y-118142146D01*
X51279603Y-118128510D01*
X51619541Y-118128510D01*
X51621617Y-118346096D01*
X51631130Y-118490134D01*
X51653008Y-118584364D01*
X51692176Y-118652523D01*
X51738976Y-118703936D01*
X51896146Y-118803175D01*
X52064900Y-118811653D01*
X52224393Y-118728799D01*
X52236807Y-118717572D01*
X52289791Y-118659171D01*
X52323014Y-118589686D01*
X52341000Y-118486270D01*
X52348275Y-118326073D01*
X52349426Y-118148965D01*
X52346932Y-117926467D01*
X52336608Y-117778037D01*
X52314191Y-117680489D01*
X52275418Y-117610637D01*
X52243626Y-117573539D01*
X52095939Y-117479975D01*
X51925846Y-117468725D01*
X51763492Y-117540190D01*
X51732160Y-117566720D01*
X51678822Y-117625636D01*
X51645531Y-117695837D01*
X51627656Y-117800418D01*
X51620566Y-117962479D01*
X51619541Y-118128510D01*
X51279603Y-118128510D01*
X51290840Y-117836579D01*
X51330787Y-117606993D01*
X51405913Y-117434387D01*
X51523214Y-117299760D01*
X51614572Y-117230759D01*
X51780627Y-117156214D01*
X51973092Y-117121613D01*
X52151999Y-117130875D01*
X52252108Y-117168238D01*
X52291393Y-117178872D01*
X52317461Y-117139225D01*
X52335658Y-117032981D01*
X52349426Y-116871145D01*
X52364499Y-116690902D01*
X52385436Y-116582458D01*
X52423532Y-116520446D01*
X52490085Y-116479499D01*
X52531897Y-116461366D01*
X52690039Y-116395120D01*
X52689857Y-117524093D01*
G37*
X52689857Y-117524093D02*
X52689239Y-117887769D01*
X52686847Y-118167532D01*
X52681671Y-118376784D01*
X52672704Y-118528926D01*
X52658936Y-118637359D01*
X52639361Y-118715485D01*
X52612968Y-118776707D01*
X52592984Y-118811652D01*
X52427483Y-119001157D01*
X52217648Y-119119942D01*
X51985486Y-119162564D01*
X51753008Y-119123583D01*
X51614572Y-119053532D01*
X51469242Y-118932353D01*
X51370195Y-118784354D01*
X51310435Y-118590534D01*
X51282969Y-118331892D01*
X51279079Y-118142146D01*
X51279603Y-118128510D01*
X51619541Y-118128510D01*
X51621617Y-118346096D01*
X51631130Y-118490134D01*
X51653008Y-118584364D01*
X51692176Y-118652523D01*
X51738976Y-118703936D01*
X51896146Y-118803175D01*
X52064900Y-118811653D01*
X52224393Y-118728799D01*
X52236807Y-118717572D01*
X52289791Y-118659171D01*
X52323014Y-118589686D01*
X52341000Y-118486270D01*
X52348275Y-118326073D01*
X52349426Y-118148965D01*
X52346932Y-117926467D01*
X52336608Y-117778037D01*
X52314191Y-117680489D01*
X52275418Y-117610637D01*
X52243626Y-117573539D01*
X52095939Y-117479975D01*
X51925846Y-117468725D01*
X51763492Y-117540190D01*
X51732160Y-117566720D01*
X51678822Y-117625636D01*
X51645531Y-117695837D01*
X51627656Y-117800418D01*
X51620566Y-117962479D01*
X51619541Y-118128510D01*
X51279603Y-118128510D01*
X51290840Y-117836579D01*
X51330787Y-117606993D01*
X51405913Y-117434387D01*
X51523214Y-117299760D01*
X51614572Y-117230759D01*
X51780627Y-117156214D01*
X51973092Y-117121613D01*
X52151999Y-117130875D01*
X52252108Y-117168238D01*
X52291393Y-117178872D01*
X52317461Y-117139225D01*
X52335658Y-117032981D01*
X52349426Y-116871145D01*
X52364499Y-116690902D01*
X52385436Y-116582458D01*
X52423532Y-116520446D01*
X52490085Y-116479499D01*
X52531897Y-116461366D01*
X52690039Y-116395120D01*
X52689857Y-117524093D01*
G36*
X54666873Y-117166400D02*
G01*
X54674299Y-117294422D01*
X54680118Y-117488985D01*
X54683859Y-117734702D01*
X54685058Y-117992426D01*
X54685058Y-118864545D01*
X54531075Y-119018528D01*
X54424963Y-119113412D01*
X54331816Y-119151845D01*
X54204504Y-119149413D01*
X54153968Y-119143223D01*
X53996017Y-119125210D01*
X53865371Y-119114888D01*
X53833525Y-119113935D01*
X53726166Y-119120171D01*
X53572619Y-119135824D01*
X53513083Y-119143223D01*
X53366857Y-119154668D01*
X53268589Y-119129808D01*
X53171150Y-119053058D01*
X53135976Y-119018528D01*
X52981993Y-118864545D01*
X52981993Y-117233246D01*
X53105930Y-117176776D01*
X53212650Y-117134950D01*
X53275087Y-117120307D01*
X53291096Y-117166583D01*
X53306058Y-117295884D01*
X53318978Y-117493914D01*
X53328857Y-117746380D01*
X53333622Y-117959675D01*
X53346935Y-118799042D01*
X53463080Y-118815464D01*
X53568716Y-118803982D01*
X53620477Y-118766805D01*
X53634945Y-118697298D01*
X53647298Y-118549240D01*
X53656552Y-118341391D01*
X53661728Y-118092512D01*
X53662474Y-117964435D01*
X53663219Y-117227145D01*
X53816457Y-117173726D01*
X53924916Y-117137406D01*
X53983913Y-117120468D01*
X53985614Y-117120307D01*
X53991533Y-117166349D01*
X53998039Y-117294018D01*
X54004586Y-117487632D01*
X54010627Y-117731507D01*
X54014848Y-117959675D01*
X54028161Y-118799042D01*
X54320115Y-118799042D01*
X54333513Y-118033275D01*
X54346910Y-117267508D01*
X54489238Y-117193908D01*
X54594322Y-117143366D01*
X54656517Y-117120431D01*
X54658312Y-117120307D01*
X54666873Y-117166400D01*
G37*
X54666873Y-117166400D02*
X54674299Y-117294422D01*
X54680118Y-117488985D01*
X54683859Y-117734702D01*
X54685058Y-117992426D01*
X54685058Y-118864545D01*
X54531075Y-119018528D01*
X54424963Y-119113412D01*
X54331816Y-119151845D01*
X54204504Y-119149413D01*
X54153968Y-119143223D01*
X53996017Y-119125210D01*
X53865371Y-119114888D01*
X53833525Y-119113935D01*
X53726166Y-119120171D01*
X53572619Y-119135824D01*
X53513083Y-119143223D01*
X53366857Y-119154668D01*
X53268589Y-119129808D01*
X53171150Y-119053058D01*
X53135976Y-119018528D01*
X52981993Y-118864545D01*
X52981993Y-117233246D01*
X53105930Y-117176776D01*
X53212650Y-117134950D01*
X53275087Y-117120307D01*
X53291096Y-117166583D01*
X53306058Y-117295884D01*
X53318978Y-117493914D01*
X53328857Y-117746380D01*
X53333622Y-117959675D01*
X53346935Y-118799042D01*
X53463080Y-118815464D01*
X53568716Y-118803982D01*
X53620477Y-118766805D01*
X53634945Y-118697298D01*
X53647298Y-118549240D01*
X53656552Y-118341391D01*
X53661728Y-118092512D01*
X53662474Y-117964435D01*
X53663219Y-117227145D01*
X53816457Y-117173726D01*
X53924916Y-117137406D01*
X53983913Y-117120468D01*
X53985614Y-117120307D01*
X53991533Y-117166349D01*
X53998039Y-117294018D01*
X54004586Y-117487632D01*
X54010627Y-117731507D01*
X54014848Y-117959675D01*
X54028161Y-118799042D01*
X54320115Y-118799042D01*
X54333513Y-118033275D01*
X54346910Y-117267508D01*
X54489238Y-117193908D01*
X54594322Y-117143366D01*
X54656517Y-117120431D01*
X54658312Y-117120307D01*
X54666873Y-117166400D01*
G36*
X55890678Y-117158594D02*
G01*
X56030782Y-117222323D01*
X56140750Y-117299543D01*
X56221324Y-117385887D01*
X56276954Y-117497272D01*
X56312089Y-117649616D01*
X56331179Y-117858835D01*
X56338672Y-118140846D01*
X56339464Y-118326555D01*
X56339464Y-119051046D01*
X56215527Y-119107515D01*
X56117910Y-119148787D01*
X56069550Y-119163985D01*
X56060298Y-119118762D01*
X56052958Y-118996824D01*
X56048464Y-118818772D01*
X56047510Y-118677395D01*
X56043410Y-118473146D01*
X56032354Y-118311113D01*
X56016211Y-118211891D01*
X56003387Y-118190805D01*
X55917186Y-118212338D01*
X55781862Y-118267566D01*
X55625170Y-118342436D01*
X55474863Y-118422892D01*
X55358693Y-118494880D01*
X55304413Y-118544346D01*
X55304198Y-118544881D01*
X55308867Y-118636428D01*
X55350732Y-118723820D01*
X55424235Y-118794802D01*
X55531516Y-118818543D01*
X55623202Y-118815777D01*
X55753058Y-118813741D01*
X55821221Y-118844164D01*
X55862159Y-118924543D01*
X55867321Y-118939700D01*
X55885067Y-119054331D01*
X55837609Y-119123934D01*
X55713907Y-119157105D01*
X55580281Y-119163240D01*
X55339817Y-119117763D01*
X55215338Y-119052817D01*
X55061605Y-118900246D01*
X54980073Y-118712971D01*
X54972756Y-118515085D01*
X55041669Y-118330685D01*
X55145328Y-118215134D01*
X55248823Y-118150442D01*
X55411492Y-118068542D01*
X55601054Y-117985486D01*
X55632650Y-117972795D01*
X55840869Y-117880908D01*
X55960898Y-117799923D01*
X55999501Y-117719413D01*
X55963440Y-117628950D01*
X55901533Y-117558238D01*
X55755213Y-117471170D01*
X55594217Y-117464640D01*
X55446573Y-117531735D01*
X55340310Y-117665544D01*
X55326362Y-117700067D01*
X55245160Y-117827042D01*
X55126608Y-117921309D01*
X54977012Y-117998668D01*
X54977012Y-117779307D01*
X54985817Y-117645280D01*
X55023570Y-117539644D01*
X55107279Y-117426939D01*
X55187636Y-117340127D01*
X55312591Y-117217204D01*
X55409677Y-117151171D01*
X55513954Y-117124684D01*
X55631989Y-117120307D01*
X55890678Y-117158594D01*
G37*
X55890678Y-117158594D02*
X56030782Y-117222323D01*
X56140750Y-117299543D01*
X56221324Y-117385887D01*
X56276954Y-117497272D01*
X56312089Y-117649616D01*
X56331179Y-117858835D01*
X56338672Y-118140846D01*
X56339464Y-118326555D01*
X56339464Y-119051046D01*
X56215527Y-119107515D01*
X56117910Y-119148787D01*
X56069550Y-119163985D01*
X56060298Y-119118762D01*
X56052958Y-118996824D01*
X56048464Y-118818772D01*
X56047510Y-118677395D01*
X56043410Y-118473146D01*
X56032354Y-118311113D01*
X56016211Y-118211891D01*
X56003387Y-118190805D01*
X55917186Y-118212338D01*
X55781862Y-118267566D01*
X55625170Y-118342436D01*
X55474863Y-118422892D01*
X55358693Y-118494880D01*
X55304413Y-118544346D01*
X55304198Y-118544881D01*
X55308867Y-118636428D01*
X55350732Y-118723820D01*
X55424235Y-118794802D01*
X55531516Y-118818543D01*
X55623202Y-118815777D01*
X55753058Y-118813741D01*
X55821221Y-118844164D01*
X55862159Y-118924543D01*
X55867321Y-118939700D01*
X55885067Y-119054331D01*
X55837609Y-119123934D01*
X55713907Y-119157105D01*
X55580281Y-119163240D01*
X55339817Y-119117763D01*
X55215338Y-119052817D01*
X55061605Y-118900246D01*
X54980073Y-118712971D01*
X54972756Y-118515085D01*
X55041669Y-118330685D01*
X55145328Y-118215134D01*
X55248823Y-118150442D01*
X55411492Y-118068542D01*
X55601054Y-117985486D01*
X55632650Y-117972795D01*
X55840869Y-117880908D01*
X55960898Y-117799923D01*
X55999501Y-117719413D01*
X55963440Y-117628950D01*
X55901533Y-117558238D01*
X55755213Y-117471170D01*
X55594217Y-117464640D01*
X55446573Y-117531735D01*
X55340310Y-117665544D01*
X55326362Y-117700067D01*
X55245160Y-117827042D01*
X55126608Y-117921309D01*
X54977012Y-117998668D01*
X54977012Y-117779307D01*
X54985817Y-117645280D01*
X55023570Y-117539644D01*
X55107279Y-117426939D01*
X55187636Y-117340127D01*
X55312591Y-117217204D01*
X55409677Y-117151171D01*
X55513954Y-117124684D01*
X55631989Y-117120307D01*
X55890678Y-117158594D01*
G36*
X57592816Y-117166697D02*
G01*
X57650976Y-117192116D01*
X57789795Y-117302059D01*
X57908505Y-117461030D01*
X57981921Y-117630677D01*
X57993870Y-117714313D01*
X57953809Y-117831078D01*
X57865935Y-117892862D01*
X57771718Y-117930273D01*
X57728577Y-117937167D01*
X57707571Y-117887138D01*
X57666090Y-117778269D01*
X57647892Y-117729076D01*
X57545848Y-117558913D01*
X57398103Y-117474038D01*
X57208655Y-117476648D01*
X57194623Y-117479991D01*
X57093481Y-117527945D01*
X57019124Y-117621432D01*
X56968338Y-117771939D01*
X56937908Y-117990951D01*
X56924618Y-118289956D01*
X56923372Y-118449056D01*
X56922754Y-118699855D01*
X56918705Y-118870825D01*
X56907933Y-118979454D01*
X56887147Y-119043230D01*
X56853055Y-119079643D01*
X56802365Y-119106179D01*
X56799435Y-119107515D01*
X56701818Y-119148787D01*
X56653458Y-119163985D01*
X56646027Y-119118037D01*
X56639666Y-118991034D01*
X56634832Y-118799235D01*
X56631985Y-118558902D01*
X56631418Y-118383024D01*
X56634313Y-118042688D01*
X56645637Y-117784495D01*
X56669346Y-117593374D01*
X56709397Y-117454253D01*
X56769747Y-117352060D01*
X56854353Y-117271724D01*
X56937899Y-117215655D01*
X57138791Y-117141032D01*
X57372596Y-117124202D01*
X57592816Y-117166697D01*
G37*
X57592816Y-117166697D02*
X57650976Y-117192116D01*
X57789795Y-117302059D01*
X57908505Y-117461030D01*
X57981921Y-117630677D01*
X57993870Y-117714313D01*
X57953809Y-117831078D01*
X57865935Y-117892862D01*
X57771718Y-117930273D01*
X57728577Y-117937167D01*
X57707571Y-117887138D01*
X57666090Y-117778269D01*
X57647892Y-117729076D01*
X57545848Y-117558913D01*
X57398103Y-117474038D01*
X57208655Y-117476648D01*
X57194623Y-117479991D01*
X57093481Y-117527945D01*
X57019124Y-117621432D01*
X56968338Y-117771939D01*
X56937908Y-117990951D01*
X56924618Y-118289956D01*
X56923372Y-118449056D01*
X56922754Y-118699855D01*
X56918705Y-118870825D01*
X56907933Y-118979454D01*
X56887147Y-119043230D01*
X56853055Y-119079643D01*
X56802365Y-119106179D01*
X56799435Y-119107515D01*
X56701818Y-119148787D01*
X56653458Y-119163985D01*
X56646027Y-119118037D01*
X56639666Y-118991034D01*
X56634832Y-118799235D01*
X56631985Y-118558902D01*
X56631418Y-118383024D01*
X56634313Y-118042688D01*
X56645637Y-117784495D01*
X56669346Y-117593374D01*
X56709397Y-117454253D01*
X56769747Y-117352060D01*
X56854353Y-117271724D01*
X56937899Y-117215655D01*
X57138791Y-117141032D01*
X57372596Y-117124202D01*
X57592816Y-117166697D01*
G36*
X59272399Y-117194233D02*
G01*
X59464917Y-117320057D01*
X59557774Y-117432696D01*
X59631340Y-117637092D01*
X59637183Y-117798830D01*
X59623947Y-118015094D01*
X59125192Y-118233398D01*
X58882685Y-118344930D01*
X58724229Y-118434650D01*
X58641836Y-118512361D01*
X58627518Y-118587867D01*
X58673287Y-118670971D01*
X58723755Y-118726054D01*
X58870605Y-118814389D01*
X59030328Y-118820579D01*
X59177020Y-118751735D01*
X59284781Y-118614972D01*
X59304055Y-118566680D01*
X59396376Y-118415848D01*
X59502588Y-118351567D01*
X59648276Y-118296576D01*
X59648276Y-118505057D01*
X59635396Y-118646926D01*
X59584943Y-118766563D01*
X59479197Y-118903927D01*
X59463480Y-118921777D01*
X59345855Y-119043986D01*
X59244746Y-119109570D01*
X59118250Y-119139742D01*
X59013384Y-119149623D01*
X58825811Y-119152085D01*
X58692284Y-119120892D01*
X58608983Y-119074579D01*
X58478063Y-118972735D01*
X58387439Y-118862591D01*
X58330087Y-118724069D01*
X58298980Y-118537090D01*
X58287094Y-118281577D01*
X58286145Y-118151894D01*
X58289371Y-117996421D01*
X58583166Y-117996421D01*
X58586573Y-118079827D01*
X58595066Y-118093487D01*
X58651110Y-118074931D01*
X58771718Y-118025822D01*
X58932913Y-117956002D01*
X58966622Y-117940995D01*
X59170339Y-117837404D01*
X59282579Y-117746359D01*
X59307247Y-117661081D01*
X59248245Y-117574794D01*
X59199518Y-117536667D01*
X59023694Y-117460417D01*
X58859127Y-117473014D01*
X58721354Y-117566086D01*
X58625913Y-117731256D01*
X58595314Y-117862357D01*
X58583166Y-117996421D01*
X58289371Y-117996421D01*
X58292432Y-117848919D01*
X58315599Y-117624756D01*
X58361490Y-117461526D01*
X58435954Y-117341352D01*
X58544836Y-117246355D01*
X58592305Y-117215655D01*
X58807938Y-117135703D01*
X59044021Y-117130672D01*
X59272399Y-117194233D01*
G37*
X59272399Y-117194233D02*
X59464917Y-117320057D01*
X59557774Y-117432696D01*
X59631340Y-117637092D01*
X59637183Y-117798830D01*
X59623947Y-118015094D01*
X59125192Y-118233398D01*
X58882685Y-118344930D01*
X58724229Y-118434650D01*
X58641836Y-118512361D01*
X58627518Y-118587867D01*
X58673287Y-118670971D01*
X58723755Y-118726054D01*
X58870605Y-118814389D01*
X59030328Y-118820579D01*
X59177020Y-118751735D01*
X59284781Y-118614972D01*
X59304055Y-118566680D01*
X59396376Y-118415848D01*
X59502588Y-118351567D01*
X59648276Y-118296576D01*
X59648276Y-118505057D01*
X59635396Y-118646926D01*
X59584943Y-118766563D01*
X59479197Y-118903927D01*
X59463480Y-118921777D01*
X59345855Y-119043986D01*
X59244746Y-119109570D01*
X59118250Y-119139742D01*
X59013384Y-119149623D01*
X58825811Y-119152085D01*
X58692284Y-119120892D01*
X58608983Y-119074579D01*
X58478063Y-118972735D01*
X58387439Y-118862591D01*
X58330087Y-118724069D01*
X58298980Y-118537090D01*
X58287094Y-118281577D01*
X58286145Y-118151894D01*
X58289371Y-117996421D01*
X58583166Y-117996421D01*
X58586573Y-118079827D01*
X58595066Y-118093487D01*
X58651110Y-118074931D01*
X58771718Y-118025822D01*
X58932913Y-117956002D01*
X58966622Y-117940995D01*
X59170339Y-117837404D01*
X59282579Y-117746359D01*
X59307247Y-117661081D01*
X59248245Y-117574794D01*
X59199518Y-117536667D01*
X59023694Y-117460417D01*
X58859127Y-117473014D01*
X58721354Y-117566086D01*
X58625913Y-117731256D01*
X58595314Y-117862357D01*
X58583166Y-117996421D01*
X58289371Y-117996421D01*
X58292432Y-117848919D01*
X58315599Y-117624756D01*
X58361490Y-117461526D01*
X58435954Y-117341352D01*
X58544836Y-117246355D01*
X58592305Y-117215655D01*
X58807938Y-117135703D01*
X59044021Y-117130672D01*
X59272399Y-117194233D01*
G36*
X49048357Y-101354997D02*
G01*
X49311677Y-101356439D01*
X49502246Y-101360342D01*
X49632345Y-101367937D01*
X49714257Y-101380450D01*
X49760266Y-101399111D01*
X49782653Y-101425148D01*
X49793702Y-101459788D01*
X49794776Y-101464272D01*
X49811559Y-101545189D01*
X49842625Y-101704842D01*
X49884742Y-101926238D01*
X49934679Y-102192385D01*
X49989203Y-102486290D01*
X49991107Y-102496612D01*
X50045723Y-102784636D01*
X50096822Y-103039115D01*
X50141106Y-103244785D01*
X50175279Y-103386385D01*
X50196043Y-103448650D01*
X50197033Y-103449753D01*
X50258199Y-103480159D01*
X50384310Y-103530828D01*
X50548131Y-103590822D01*
X50549043Y-103591142D01*
X50755388Y-103668704D01*
X50998660Y-103767507D01*
X51227969Y-103866848D01*
X51238822Y-103871760D01*
X51612317Y-104041276D01*
X52439365Y-103476495D01*
X52693077Y-103304320D01*
X52922902Y-103150395D01*
X53115525Y-103023474D01*
X53257632Y-102932309D01*
X53335907Y-102885655D01*
X53343340Y-102882195D01*
X53400224Y-102897600D01*
X53506469Y-102971927D01*
X53666219Y-103108681D01*
X53883616Y-103311368D01*
X54105548Y-103527008D01*
X54319491Y-103739503D01*
X54510969Y-103933410D01*
X54668455Y-104096754D01*
X54780422Y-104217561D01*
X54835343Y-104283855D01*
X54837386Y-104287268D01*
X54843458Y-104332761D01*
X54820584Y-104407056D01*
X54763115Y-104520186D01*
X54665399Y-104682185D01*
X54521784Y-104903086D01*
X54330333Y-105187460D01*
X54160423Y-105437759D01*
X54008538Y-105662250D01*
X53883455Y-105847900D01*
X53793949Y-105981675D01*
X53748800Y-106050542D01*
X53745958Y-106055218D01*
X53751470Y-106121201D01*
X53793255Y-106249448D01*
X53862997Y-106415720D01*
X53887854Y-106468819D01*
X53996311Y-106705377D01*
X54112020Y-106973789D01*
X54206015Y-107206035D01*
X54273745Y-107378407D01*
X54327543Y-107509403D01*
X54358631Y-107577867D01*
X54362496Y-107583142D01*
X54419671Y-107591880D01*
X54554448Y-107615823D01*
X54748906Y-107651562D01*
X54985125Y-107695689D01*
X55245184Y-107744795D01*
X55511163Y-107795472D01*
X55765143Y-107844313D01*
X55989201Y-107887909D01*
X56165420Y-107922851D01*
X56275877Y-107945732D01*
X56302970Y-107952201D01*
X56330956Y-107968167D01*
X56352081Y-108004227D01*
X56367297Y-108072552D01*
X56377553Y-108185315D01*
X56383800Y-108354686D01*
X56386988Y-108592838D01*
X56388067Y-108911942D01*
X56388123Y-109042741D01*
X56388123Y-110106511D01*
X56132663Y-110156933D01*
X55990537Y-110184273D01*
X55778450Y-110224182D01*
X55522193Y-110271845D01*
X55247558Y-110322446D01*
X55171648Y-110336344D01*
X54918221Y-110385617D01*
X54697447Y-110434070D01*
X54527857Y-110477215D01*
X54427980Y-110510563D01*
X54411343Y-110520502D01*
X54370489Y-110590891D01*
X54311913Y-110727283D01*
X54246955Y-110902805D01*
X54234071Y-110940613D01*
X54148934Y-111175030D01*
X54043256Y-111439524D01*
X53939840Y-111677041D01*
X53939330Y-111678144D01*
X53767112Y-112050733D01*
X54333524Y-112883893D01*
X54899935Y-113717053D01*
X54172702Y-114445500D01*
X53952748Y-114662302D01*
X53752132Y-114853414D01*
X53582122Y-115008636D01*
X53453985Y-115117764D01*
X53378989Y-115170595D01*
X53368231Y-115173947D01*
X53305067Y-115147549D01*
X53176180Y-115074160D01*
X52995649Y-114962484D01*
X52777554Y-114821224D01*
X52541754Y-114663027D01*
X52302436Y-114501664D01*
X52089059Y-114361252D01*
X51915175Y-114250431D01*
X51794334Y-114177838D01*
X51740263Y-114152108D01*
X51674294Y-114173880D01*
X51549198Y-114231251D01*
X51390780Y-114312300D01*
X51373987Y-114321309D01*
X51160652Y-114428300D01*
X51014364Y-114480772D01*
X50923380Y-114481330D01*
X50875959Y-114432580D01*
X50875683Y-114431897D01*
X50851980Y-114374164D01*
X50795449Y-114237115D01*
X50710474Y-114031357D01*
X50601438Y-113767498D01*
X50472724Y-113456144D01*
X50328715Y-113107904D01*
X50189251Y-112770744D01*
X50035980Y-112398666D01*
X49895251Y-112053987D01*
X49771282Y-111747271D01*
X49668291Y-111489085D01*
X49590496Y-111289994D01*
X49542114Y-111160565D01*
X49527204Y-111112261D01*
X49564594Y-111056850D01*
X49662398Y-110968538D01*
X49792815Y-110871174D01*
X50164223Y-110563253D01*
X50454530Y-110210304D01*
X50660256Y-109819761D01*
X50777923Y-109399057D01*
X50804051Y-108955629D01*
X50785060Y-108750958D01*
X50681583Y-108326323D01*
X50503373Y-107951336D01*
X50261482Y-107629696D01*
X49966963Y-107365101D01*
X49630871Y-107161250D01*
X49264258Y-107021842D01*
X48878177Y-106950574D01*
X48483681Y-106951145D01*
X48091825Y-107027254D01*
X47713660Y-107182599D01*
X47360240Y-107420879D01*
X47212727Y-107555639D01*
X46929816Y-107901679D01*
X46732832Y-108279826D01*
X46620464Y-108679055D01*
X46591401Y-109088345D01*
X46644331Y-109496672D01*
X46777943Y-109893013D01*
X46990925Y-110266345D01*
X47281966Y-110605645D01*
X47607186Y-110871174D01*
X47742652Y-110972671D01*
X47838349Y-111060025D01*
X47872797Y-111112343D01*
X47854760Y-111169398D01*
X47803462Y-111305698D01*
X47723124Y-111510678D01*
X47617964Y-111773772D01*
X47492204Y-112084416D01*
X47350063Y-112432043D01*
X47210365Y-112770826D01*
X47056241Y-113143222D01*
X46913482Y-113488307D01*
X46786471Y-113795477D01*
X46679589Y-114054125D01*
X46597220Y-114253647D01*
X46543747Y-114383435D01*
X46523933Y-114431897D01*
X46477124Y-114481129D01*
X46386583Y-114480985D01*
X46240658Y-114428877D01*
X46027698Y-114322216D01*
X46026014Y-114321309D01*
X45865670Y-114238536D01*
X45736052Y-114178242D01*
X45662963Y-114152346D01*
X45659737Y-114152108D01*
X45604716Y-114178374D01*
X45483243Y-114251416D01*
X45308871Y-114362595D01*
X45095150Y-114503273D01*
X44858247Y-114663027D01*
X44617055Y-114824779D01*
X44399674Y-114965450D01*
X44220184Y-115076335D01*
X44092664Y-115148730D01*
X44031770Y-115173947D01*
X43975697Y-115140803D01*
X43862960Y-115048173D01*
X43704823Y-114906257D01*
X43512551Y-114725255D01*
X43297409Y-114515369D01*
X43227048Y-114445249D01*
X42499566Y-113716552D01*
X43053295Y-112903900D01*
X43221577Y-112654342D01*
X43369271Y-112430366D01*
X43488090Y-112244949D01*
X43569750Y-112111065D01*
X43605964Y-112041690D01*
X43607025Y-112036755D01*
X43587933Y-111971364D01*
X43536582Y-111839825D01*
X43461860Y-111664181D01*
X43409412Y-111546591D01*
X43311346Y-111321461D01*
X43218993Y-111094015D01*
X43147394Y-110901839D01*
X43127944Y-110843295D01*
X43072686Y-110686956D01*
X43018669Y-110566158D01*
X42988999Y-110520502D01*
X42923524Y-110492561D01*
X42780624Y-110452951D01*
X42578839Y-110406162D01*
X42336712Y-110356683D01*
X42228353Y-110336344D01*
X41953189Y-110285781D01*
X41689254Y-110236822D01*
X41462341Y-110194281D01*
X41298239Y-110162975D01*
X41267338Y-110156933D01*
X41011878Y-110106511D01*
X41011878Y-109042741D01*
X41012452Y-108692950D01*
X41014807Y-108428300D01*
X41019893Y-108236622D01*
X41028661Y-108105744D01*
X41042062Y-108023493D01*
X41061046Y-107977698D01*
X41086562Y-107956188D01*
X41097031Y-107952201D01*
X41160174Y-107938056D01*
X41299675Y-107909834D01*
X41497611Y-107870943D01*
X41736065Y-107824792D01*
X41997114Y-107774788D01*
X42262839Y-107724341D01*
X42515319Y-107676858D01*
X42736635Y-107635748D01*
X42908866Y-107604419D01*
X43014092Y-107586278D01*
X43037505Y-107583142D01*
X43058716Y-107541173D01*
X43105668Y-107429370D01*
X43169581Y-107268888D01*
X43193986Y-107206035D01*
X43292420Y-106963203D01*
X43408334Y-106694918D01*
X43512147Y-106468819D01*
X43588535Y-106295935D01*
X43639356Y-106153877D01*
X43656321Y-106066878D01*
X43653616Y-106055218D01*
X43617761Y-106000170D01*
X43535892Y-105877739D01*
X43416795Y-105700962D01*
X43269258Y-105482877D01*
X43102069Y-105236520D01*
X43069010Y-105187891D01*
X42875020Y-104899773D01*
X42732421Y-104680377D01*
X42635527Y-104519602D01*
X42578654Y-104407346D01*
X42556116Y-104333510D01*
X42562228Y-104287990D01*
X42562384Y-104287700D01*
X42610489Y-104227910D01*
X42716889Y-104112319D01*
X42870052Y-103952909D01*
X43058445Y-103761665D01*
X43270535Y-103550568D01*
X43294453Y-103527008D01*
X43561738Y-103268172D01*
X43768008Y-103078117D01*
X43917408Y-102953337D01*
X44014080Y-102890327D01*
X44056661Y-102882195D01*
X44118804Y-102917672D01*
X44247763Y-102999623D01*
X44430222Y-103119292D01*
X44652867Y-103267926D01*
X44902384Y-103436772D01*
X44960636Y-103476495D01*
X45787684Y-104041276D01*
X46161179Y-103871760D01*
X46388316Y-103772971D01*
X46632128Y-103673617D01*
X46841725Y-103594401D01*
X46850958Y-103591142D01*
X47014905Y-103531129D01*
X47141285Y-103480382D01*
X47202863Y-103449841D01*
X47202968Y-103449753D01*
X47222507Y-103394548D01*
X47255721Y-103258779D01*
X47299313Y-103057709D01*
X47349984Y-102806599D01*
X47404439Y-102520713D01*
X47408894Y-102496612D01*
X47463518Y-102202059D01*
X47513664Y-101934684D01*
X47556102Y-101711480D01*
X47587598Y-101549439D01*
X47604923Y-101465553D01*
X47605225Y-101464272D01*
X47615768Y-101428588D01*
X47636269Y-101401646D01*
X47679011Y-101382218D01*
X47756276Y-101369075D01*
X47880348Y-101360989D01*
X48063509Y-101356732D01*
X48318042Y-101355075D01*
X48656231Y-101354790D01*
X48700000Y-101354790D01*
X49048357Y-101354997D01*
G37*
X49048357Y-101354997D02*
X49311677Y-101356439D01*
X49502246Y-101360342D01*
X49632345Y-101367937D01*
X49714257Y-101380450D01*
X49760266Y-101399111D01*
X49782653Y-101425148D01*
X49793702Y-101459788D01*
X49794776Y-101464272D01*
X49811559Y-101545189D01*
X49842625Y-101704842D01*
X49884742Y-101926238D01*
X49934679Y-102192385D01*
X49989203Y-102486290D01*
X49991107Y-102496612D01*
X50045723Y-102784636D01*
X50096822Y-103039115D01*
X50141106Y-103244785D01*
X50175279Y-103386385D01*
X50196043Y-103448650D01*
X50197033Y-103449753D01*
X50258199Y-103480159D01*
X50384310Y-103530828D01*
X50548131Y-103590822D01*
X50549043Y-103591142D01*
X50755388Y-103668704D01*
X50998660Y-103767507D01*
X51227969Y-103866848D01*
X51238822Y-103871760D01*
X51612317Y-104041276D01*
X52439365Y-103476495D01*
X52693077Y-103304320D01*
X52922902Y-103150395D01*
X53115525Y-103023474D01*
X53257632Y-102932309D01*
X53335907Y-102885655D01*
X53343340Y-102882195D01*
X53400224Y-102897600D01*
X53506469Y-102971927D01*
X53666219Y-103108681D01*
X53883616Y-103311368D01*
X54105548Y-103527008D01*
X54319491Y-103739503D01*
X54510969Y-103933410D01*
X54668455Y-104096754D01*
X54780422Y-104217561D01*
X54835343Y-104283855D01*
X54837386Y-104287268D01*
X54843458Y-104332761D01*
X54820584Y-104407056D01*
X54763115Y-104520186D01*
X54665399Y-104682185D01*
X54521784Y-104903086D01*
X54330333Y-105187460D01*
X54160423Y-105437759D01*
X54008538Y-105662250D01*
X53883455Y-105847900D01*
X53793949Y-105981675D01*
X53748800Y-106050542D01*
X53745958Y-106055218D01*
X53751470Y-106121201D01*
X53793255Y-106249448D01*
X53862997Y-106415720D01*
X53887854Y-106468819D01*
X53996311Y-106705377D01*
X54112020Y-106973789D01*
X54206015Y-107206035D01*
X54273745Y-107378407D01*
X54327543Y-107509403D01*
X54358631Y-107577867D01*
X54362496Y-107583142D01*
X54419671Y-107591880D01*
X54554448Y-107615823D01*
X54748906Y-107651562D01*
X54985125Y-107695689D01*
X55245184Y-107744795D01*
X55511163Y-107795472D01*
X55765143Y-107844313D01*
X55989201Y-107887909D01*
X56165420Y-107922851D01*
X56275877Y-107945732D01*
X56302970Y-107952201D01*
X56330956Y-107968167D01*
X56352081Y-108004227D01*
X56367297Y-108072552D01*
X56377553Y-108185315D01*
X56383800Y-108354686D01*
X56386988Y-108592838D01*
X56388067Y-108911942D01*
X56388123Y-109042741D01*
X56388123Y-110106511D01*
X56132663Y-110156933D01*
X55990537Y-110184273D01*
X55778450Y-110224182D01*
X55522193Y-110271845D01*
X55247558Y-110322446D01*
X55171648Y-110336344D01*
X54918221Y-110385617D01*
X54697447Y-110434070D01*
X54527857Y-110477215D01*
X54427980Y-110510563D01*
X54411343Y-110520502D01*
X54370489Y-110590891D01*
X54311913Y-110727283D01*
X54246955Y-110902805D01*
X54234071Y-110940613D01*
X54148934Y-111175030D01*
X54043256Y-111439524D01*
X53939840Y-111677041D01*
X53939330Y-111678144D01*
X53767112Y-112050733D01*
X54333524Y-112883893D01*
X54899935Y-113717053D01*
X54172702Y-114445500D01*
X53952748Y-114662302D01*
X53752132Y-114853414D01*
X53582122Y-115008636D01*
X53453985Y-115117764D01*
X53378989Y-115170595D01*
X53368231Y-115173947D01*
X53305067Y-115147549D01*
X53176180Y-115074160D01*
X52995649Y-114962484D01*
X52777554Y-114821224D01*
X52541754Y-114663027D01*
X52302436Y-114501664D01*
X52089059Y-114361252D01*
X51915175Y-114250431D01*
X51794334Y-114177838D01*
X51740263Y-114152108D01*
X51674294Y-114173880D01*
X51549198Y-114231251D01*
X51390780Y-114312300D01*
X51373987Y-114321309D01*
X51160652Y-114428300D01*
X51014364Y-114480772D01*
X50923380Y-114481330D01*
X50875959Y-114432580D01*
X50875683Y-114431897D01*
X50851980Y-114374164D01*
X50795449Y-114237115D01*
X50710474Y-114031357D01*
X50601438Y-113767498D01*
X50472724Y-113456144D01*
X50328715Y-113107904D01*
X50189251Y-112770744D01*
X50035980Y-112398666D01*
X49895251Y-112053987D01*
X49771282Y-111747271D01*
X49668291Y-111489085D01*
X49590496Y-111289994D01*
X49542114Y-111160565D01*
X49527204Y-111112261D01*
X49564594Y-111056850D01*
X49662398Y-110968538D01*
X49792815Y-110871174D01*
X50164223Y-110563253D01*
X50454530Y-110210304D01*
X50660256Y-109819761D01*
X50777923Y-109399057D01*
X50804051Y-108955629D01*
X50785060Y-108750958D01*
X50681583Y-108326323D01*
X50503373Y-107951336D01*
X50261482Y-107629696D01*
X49966963Y-107365101D01*
X49630871Y-107161250D01*
X49264258Y-107021842D01*
X48878177Y-106950574D01*
X48483681Y-106951145D01*
X48091825Y-107027254D01*
X47713660Y-107182599D01*
X47360240Y-107420879D01*
X47212727Y-107555639D01*
X46929816Y-107901679D01*
X46732832Y-108279826D01*
X46620464Y-108679055D01*
X46591401Y-109088345D01*
X46644331Y-109496672D01*
X46777943Y-109893013D01*
X46990925Y-110266345D01*
X47281966Y-110605645D01*
X47607186Y-110871174D01*
X47742652Y-110972671D01*
X47838349Y-111060025D01*
X47872797Y-111112343D01*
X47854760Y-111169398D01*
X47803462Y-111305698D01*
X47723124Y-111510678D01*
X47617964Y-111773772D01*
X47492204Y-112084416D01*
X47350063Y-112432043D01*
X47210365Y-112770826D01*
X47056241Y-113143222D01*
X46913482Y-113488307D01*
X46786471Y-113795477D01*
X46679589Y-114054125D01*
X46597220Y-114253647D01*
X46543747Y-114383435D01*
X46523933Y-114431897D01*
X46477124Y-114481129D01*
X46386583Y-114480985D01*
X46240658Y-114428877D01*
X46027698Y-114322216D01*
X46026014Y-114321309D01*
X45865670Y-114238536D01*
X45736052Y-114178242D01*
X45662963Y-114152346D01*
X45659737Y-114152108D01*
X45604716Y-114178374D01*
X45483243Y-114251416D01*
X45308871Y-114362595D01*
X45095150Y-114503273D01*
X44858247Y-114663027D01*
X44617055Y-114824779D01*
X44399674Y-114965450D01*
X44220184Y-115076335D01*
X44092664Y-115148730D01*
X44031770Y-115173947D01*
X43975697Y-115140803D01*
X43862960Y-115048173D01*
X43704823Y-114906257D01*
X43512551Y-114725255D01*
X43297409Y-114515369D01*
X43227048Y-114445249D01*
X42499566Y-113716552D01*
X43053295Y-112903900D01*
X43221577Y-112654342D01*
X43369271Y-112430366D01*
X43488090Y-112244949D01*
X43569750Y-112111065D01*
X43605964Y-112041690D01*
X43607025Y-112036755D01*
X43587933Y-111971364D01*
X43536582Y-111839825D01*
X43461860Y-111664181D01*
X43409412Y-111546591D01*
X43311346Y-111321461D01*
X43218993Y-111094015D01*
X43147394Y-110901839D01*
X43127944Y-110843295D01*
X43072686Y-110686956D01*
X43018669Y-110566158D01*
X42988999Y-110520502D01*
X42923524Y-110492561D01*
X42780624Y-110452951D01*
X42578839Y-110406162D01*
X42336712Y-110356683D01*
X42228353Y-110336344D01*
X41953189Y-110285781D01*
X41689254Y-110236822D01*
X41462341Y-110194281D01*
X41298239Y-110162975D01*
X41267338Y-110156933D01*
X41011878Y-110106511D01*
X41011878Y-109042741D01*
X41012452Y-108692950D01*
X41014807Y-108428300D01*
X41019893Y-108236622D01*
X41028661Y-108105744D01*
X41042062Y-108023493D01*
X41061046Y-107977698D01*
X41086562Y-107956188D01*
X41097031Y-107952201D01*
X41160174Y-107938056D01*
X41299675Y-107909834D01*
X41497611Y-107870943D01*
X41736065Y-107824792D01*
X41997114Y-107774788D01*
X42262839Y-107724341D01*
X42515319Y-107676858D01*
X42736635Y-107635748D01*
X42908866Y-107604419D01*
X43014092Y-107586278D01*
X43037505Y-107583142D01*
X43058716Y-107541173D01*
X43105668Y-107429370D01*
X43169581Y-107268888D01*
X43193986Y-107206035D01*
X43292420Y-106963203D01*
X43408334Y-106694918D01*
X43512147Y-106468819D01*
X43588535Y-106295935D01*
X43639356Y-106153877D01*
X43656321Y-106066878D01*
X43653616Y-106055218D01*
X43617761Y-106000170D01*
X43535892Y-105877739D01*
X43416795Y-105700962D01*
X43269258Y-105482877D01*
X43102069Y-105236520D01*
X43069010Y-105187891D01*
X42875020Y-104899773D01*
X42732421Y-104680377D01*
X42635527Y-104519602D01*
X42578654Y-104407346D01*
X42556116Y-104333510D01*
X42562228Y-104287990D01*
X42562384Y-104287700D01*
X42610489Y-104227910D01*
X42716889Y-104112319D01*
X42870052Y-103952909D01*
X43058445Y-103761665D01*
X43270535Y-103550568D01*
X43294453Y-103527008D01*
X43561738Y-103268172D01*
X43768008Y-103078117D01*
X43917408Y-102953337D01*
X44014080Y-102890327D01*
X44056661Y-102882195D01*
X44118804Y-102917672D01*
X44247763Y-102999623D01*
X44430222Y-103119292D01*
X44652867Y-103267926D01*
X44902384Y-103436772D01*
X44960636Y-103476495D01*
X45787684Y-104041276D01*
X46161179Y-103871760D01*
X46388316Y-103772971D01*
X46632128Y-103673617D01*
X46841725Y-103594401D01*
X46850958Y-103591142D01*
X47014905Y-103531129D01*
X47141285Y-103480382D01*
X47202863Y-103449841D01*
X47202968Y-103449753D01*
X47222507Y-103394548D01*
X47255721Y-103258779D01*
X47299313Y-103057709D01*
X47349984Y-102806599D01*
X47404439Y-102520713D01*
X47408894Y-102496612D01*
X47463518Y-102202059D01*
X47513664Y-101934684D01*
X47556102Y-101711480D01*
X47587598Y-101549439D01*
X47604923Y-101465553D01*
X47605225Y-101464272D01*
X47615768Y-101428588D01*
X47636269Y-101401646D01*
X47679011Y-101382218D01*
X47756276Y-101369075D01*
X47880348Y-101360989D01*
X48063509Y-101356732D01*
X48318042Y-101355075D01*
X48656231Y-101354790D01*
X48700000Y-101354790D01*
X49048357Y-101354997D01*
D13*
%TO.C,R10*%
X59822500Y-82862742D02*
X59822500Y-83337258D01*
X58777500Y-82862742D02*
X58777500Y-83337258D01*
%TO.C,R9*%
X58222500Y-81262742D02*
X58222500Y-81737258D01*
X57177500Y-81262742D02*
X57177500Y-81737258D01*
%TO.C,R8*%
X47222500Y-81262742D02*
X47222500Y-81737258D01*
X46177500Y-81262742D02*
X46177500Y-81737258D01*
%TO.C,R7*%
X45522500Y-81262742D02*
X45522500Y-81737258D01*
X44477500Y-81262742D02*
X44477500Y-81737258D01*
%TO.C,C15*%
X52340580Y-76210000D02*
X52059420Y-76210000D01*
X52340580Y-75190000D02*
X52059420Y-75190000D01*
%TO.C,C14*%
X82440580Y-42310000D02*
X82159420Y-42310000D01*
X82440580Y-41290000D02*
X82159420Y-41290000D01*
%TO.C,C13*%
X49440580Y-42210000D02*
X49159420Y-42210000D01*
X49440580Y-41190000D02*
X49159420Y-41190000D01*
%TO.C,C12*%
X88898000Y-109106580D02*
X88898000Y-108825420D01*
X89918000Y-109106580D02*
X89918000Y-108825420D01*
%TO.C,C11*%
X66140580Y-42210000D02*
X65859420Y-42210000D01*
X66140580Y-41190000D02*
X65859420Y-41190000D01*
%TO.C,C10*%
X88898000Y-128524580D02*
X88898000Y-128243420D01*
X89918000Y-128524580D02*
X89918000Y-128243420D01*
%TO.C,C9*%
X89025000Y-90297580D02*
X89025000Y-90016420D01*
X90045000Y-90297580D02*
X90045000Y-90016420D01*
D15*
%TO.C,J1*%
X76910000Y-71400000D02*
X81350000Y-71400000D01*
X81350000Y-71400000D02*
X81350000Y-63400000D01*
X81350000Y-63400000D02*
X76900000Y-63400000D01*
X76900000Y-63400000D02*
X76900000Y-71400000D01*
D16*
X77370000Y-68730000D02*
G75*
G03*
X77370000Y-68730000I-100000J0D01*
G01*
D13*
%TO.C,C8*%
X69798020Y-61669200D02*
X70079180Y-61669200D01*
X69798020Y-62689200D02*
X70079180Y-62689200D01*
%TO.C,D192*%
X76184400Y-75504800D02*
X76184400Y-77504800D01*
X76184400Y-77504800D02*
X80034400Y-77504800D01*
X76184400Y-75504800D02*
X80034400Y-75504800D01*
%TO.C,D191*%
X76184400Y-77943200D02*
X76184400Y-79943200D01*
X76184400Y-79943200D02*
X80034400Y-79943200D01*
X76184400Y-77943200D02*
X80034400Y-77943200D01*
D12*
%TO.C,J3*%
X82607000Y-80841010D02*
X89859990Y-80841010D01*
X89859990Y-80841010D02*
X89859990Y-69780990D01*
X89859990Y-69780990D02*
X82607000Y-69780990D01*
X82607000Y-69780990D02*
X82607000Y-80841010D01*
D17*
%TO.C,J2*%
X63875000Y-58650000D02*
X64195000Y-58650000D01*
X57205000Y-58650000D02*
X57525000Y-58650000D01*
X64195000Y-55350000D02*
X63875000Y-55350000D01*
X57525000Y-55350000D02*
X57205000Y-55350000D01*
X57525000Y-54350000D02*
X55935000Y-54350000D01*
X64195000Y-58650000D02*
X64195000Y-55350000D01*
X57205000Y-55350000D02*
X57205000Y-58650000D01*
X55935000Y-54350000D02*
X55935000Y-59650000D01*
D18*
%TO.C,SW1*%
X66203800Y-60603600D02*
X66203800Y-56403600D01*
X69254600Y-56403600D02*
X69254600Y-60603600D01*
D13*
%TO.C,R20*%
X82537258Y-40722500D02*
X82062742Y-40722500D01*
X82537258Y-39677500D02*
X82062742Y-39677500D01*
%TO.C,R19*%
X49537258Y-40622500D02*
X49062742Y-40622500D01*
X49537258Y-39577500D02*
X49062742Y-39577500D01*
%TO.C,R18*%
X66237258Y-40522500D02*
X65762742Y-40522500D01*
X66237258Y-39477500D02*
X65762742Y-39477500D01*
%TO.C,R17*%
X90477500Y-109237258D02*
X90477500Y-108762742D01*
X91522500Y-109237258D02*
X91522500Y-108762742D01*
%TO.C,R16*%
X90477500Y-128637258D02*
X90477500Y-128162742D01*
X91522500Y-128637258D02*
X91522500Y-128162742D01*
%TO.C,R15*%
X90577500Y-90437258D02*
X90577500Y-89962742D01*
X91622500Y-90437258D02*
X91622500Y-89962742D01*
D10*
%TO.C,U6*%
X62923000Y-66529800D02*
X62923000Y-66754800D01*
X70173000Y-66529800D02*
X70173000Y-66854800D01*
X70173000Y-73779800D02*
X70173000Y-73454800D01*
X62923000Y-73779800D02*
X62923000Y-73454800D01*
X62923000Y-66529800D02*
X63248000Y-66529800D01*
X62923000Y-73779800D02*
X63248000Y-73779800D01*
X70173000Y-73779800D02*
X69848000Y-73779800D01*
X70173000Y-66529800D02*
X69848000Y-66529800D01*
X62923000Y-66754800D02*
X61498000Y-66754800D01*
D13*
%TO.C,C7*%
X86759420Y-36590000D02*
X87040580Y-36590000D01*
X86759420Y-37610000D02*
X87040580Y-37610000D01*
%TO.C,C6*%
X53290000Y-38440580D02*
X53290000Y-38159420D01*
X54310000Y-38440580D02*
X54310000Y-38159420D01*
%TO.C,C5*%
X65988020Y-61669200D02*
X66269180Y-61669200D01*
X65988020Y-62689200D02*
X66269180Y-62689200D01*
%TO.C,C4*%
X90159420Y-93290000D02*
X90440580Y-93290000D01*
X90159420Y-94310000D02*
X90440580Y-94310000D01*
%TO.C,C3*%
X90559420Y-112290000D02*
X90840580Y-112290000D01*
X90559420Y-113310000D02*
X90840580Y-113310000D01*
%TO.C,U8*%
X87525000Y-43078800D02*
X87975000Y-43078800D01*
X87975000Y-43078800D02*
X87975000Y-43428800D01*
X83205000Y-49298800D02*
X82755000Y-49298800D01*
X82755000Y-49298800D02*
X82755000Y-48948800D01*
X87525000Y-49298800D02*
X87975000Y-49298800D01*
X87975000Y-49298800D02*
X87975000Y-48948800D01*
X83205000Y-43078800D02*
X82755000Y-43078800D01*
%TO.C,U1*%
X74356800Y-75910800D02*
X72556800Y-75910800D01*
X72556800Y-79130800D02*
X75006800Y-79130800D01*
%TO.C,R5*%
X67426100Y-77639142D02*
X67426100Y-78113658D01*
X66381100Y-77639142D02*
X66381100Y-78113658D01*
%TO.C,R4*%
X73282542Y-79792300D02*
X73757058Y-79792300D01*
X73282542Y-80837300D02*
X73757058Y-80837300D01*
%TO.C,D2*%
X65008000Y-78796000D02*
X62323000Y-78796000D01*
X62323000Y-78796000D02*
X62323000Y-80716000D01*
X62323000Y-80716000D02*
X65008000Y-80716000D01*
%TO.C,D1*%
X74336400Y-83154400D02*
X77021400Y-83154400D01*
X77021400Y-83154400D02*
X77021400Y-81234400D01*
X77021400Y-81234400D02*
X74336400Y-81234400D01*
%TO.C,C2*%
X71484420Y-37190000D02*
X71765580Y-37190000D01*
X71484420Y-38210000D02*
X71765580Y-38210000D01*
%TO.C,C1*%
X90559420Y-131890000D02*
X90840580Y-131890000D01*
X90559420Y-132910000D02*
X90840580Y-132910000D01*
%TO.C,U7*%
X53935000Y-43077700D02*
X54385000Y-43077700D01*
X54385000Y-43077700D02*
X54385000Y-43427700D01*
X49615000Y-49297700D02*
X49165000Y-49297700D01*
X49165000Y-49297700D02*
X49165000Y-48947700D01*
X53935000Y-49297700D02*
X54385000Y-49297700D01*
X54385000Y-49297700D02*
X54385000Y-48947700D01*
X49615000Y-43077700D02*
X49165000Y-43077700D01*
%TO.C,U5*%
X70935000Y-43083000D02*
X71385000Y-43083000D01*
X71385000Y-43083000D02*
X71385000Y-43433000D01*
X66615000Y-49303000D02*
X66165000Y-49303000D01*
X66165000Y-49303000D02*
X66165000Y-48953000D01*
X70935000Y-49303000D02*
X71385000Y-49303000D01*
X71385000Y-49303000D02*
X71385000Y-48953000D01*
X66615000Y-43083000D02*
X66165000Y-43083000D01*
%TO.C,U4*%
X88073000Y-113691000D02*
X88073000Y-114141000D01*
X88073000Y-114141000D02*
X87723000Y-114141000D01*
X81853000Y-109371000D02*
X81853000Y-108921000D01*
X81853000Y-108921000D02*
X82203000Y-108921000D01*
X81853000Y-113691000D02*
X81853000Y-114141000D01*
X81853000Y-114141000D02*
X82203000Y-114141000D01*
X88073000Y-109371000D02*
X88073000Y-108921000D01*
%TO.C,U3*%
X88073000Y-133203400D02*
X88073000Y-133653400D01*
X88073000Y-133653400D02*
X87723000Y-133653400D01*
X81853000Y-128883400D02*
X81853000Y-128433400D01*
X81853000Y-128433400D02*
X82203000Y-128433400D01*
X81853000Y-133203400D02*
X81853000Y-133653400D01*
X81853000Y-133653400D02*
X82203000Y-133653400D01*
X88073000Y-128883400D02*
X88073000Y-128433400D01*
%TO.C,U2*%
X88200000Y-94870000D02*
X88200000Y-95320000D01*
X88200000Y-95320000D02*
X87850000Y-95320000D01*
X81980000Y-90550000D02*
X81980000Y-90100000D01*
X81980000Y-90100000D02*
X82330000Y-90100000D01*
X81980000Y-94870000D02*
X81980000Y-95320000D01*
X81980000Y-95320000D02*
X82330000Y-95320000D01*
X88200000Y-90550000D02*
X88200000Y-90100000D01*
%TO.C,R23*%
D10*
X61552380Y-87242857D02*
X61076190Y-87576190D01*
X61552380Y-87814285D02*
X60552380Y-87814285D01*
X60552380Y-87433333D01*
X60600000Y-87338095D01*
X60647619Y-87290476D01*
X60742857Y-87242857D01*
X60885714Y-87242857D01*
X60980952Y-87290476D01*
X61028571Y-87338095D01*
X61076190Y-87433333D01*
X61076190Y-87814285D01*
X60647619Y-86861904D02*
X60600000Y-86814285D01*
X60552380Y-86719047D01*
X60552380Y-86480952D01*
X60600000Y-86385714D01*
X60647619Y-86338095D01*
X60742857Y-86290476D01*
X60838095Y-86290476D01*
X60980952Y-86338095D01*
X61552380Y-86909523D01*
X61552380Y-86290476D01*
X60552380Y-85957142D02*
X60552380Y-85338095D01*
X60933333Y-85671428D01*
X60933333Y-85528571D01*
X60980952Y-85433333D01*
X61028571Y-85385714D01*
X61123809Y-85338095D01*
X61361904Y-85338095D01*
X61457142Y-85385714D01*
X61504761Y-85433333D01*
X61552380Y-85528571D01*
X61552380Y-85814285D01*
X61504761Y-85909523D01*
X61457142Y-85957142D01*
%TO.C,R22*%
X43752380Y-79042857D02*
X43276190Y-79376190D01*
X43752380Y-79614285D02*
X42752380Y-79614285D01*
X42752380Y-79233333D01*
X42800000Y-79138095D01*
X42847619Y-79090476D01*
X42942857Y-79042857D01*
X43085714Y-79042857D01*
X43180952Y-79090476D01*
X43228571Y-79138095D01*
X43276190Y-79233333D01*
X43276190Y-79614285D01*
X42847619Y-78661904D02*
X42800000Y-78614285D01*
X42752380Y-78519047D01*
X42752380Y-78280952D01*
X42800000Y-78185714D01*
X42847619Y-78138095D01*
X42942857Y-78090476D01*
X43038095Y-78090476D01*
X43180952Y-78138095D01*
X43752380Y-78709523D01*
X43752380Y-78090476D01*
X42847619Y-77709523D02*
X42800000Y-77661904D01*
X42752380Y-77566666D01*
X42752380Y-77328571D01*
X42800000Y-77233333D01*
X42847619Y-77185714D01*
X42942857Y-77138095D01*
X43038095Y-77138095D01*
X43180952Y-77185714D01*
X43752380Y-77757142D01*
X43752380Y-77138095D01*
%TO.C,R21*%
X58252380Y-71652857D02*
X57776190Y-71986190D01*
X58252380Y-72224285D02*
X57252380Y-72224285D01*
X57252380Y-71843333D01*
X57300000Y-71748095D01*
X57347619Y-71700476D01*
X57442857Y-71652857D01*
X57585714Y-71652857D01*
X57680952Y-71700476D01*
X57728571Y-71748095D01*
X57776190Y-71843333D01*
X57776190Y-72224285D01*
X57347619Y-71271904D02*
X57300000Y-71224285D01*
X57252380Y-71129047D01*
X57252380Y-70890952D01*
X57300000Y-70795714D01*
X57347619Y-70748095D01*
X57442857Y-70700476D01*
X57538095Y-70700476D01*
X57680952Y-70748095D01*
X58252380Y-71319523D01*
X58252380Y-70700476D01*
X58252380Y-69748095D02*
X58252380Y-70319523D01*
X58252380Y-70033809D02*
X57252380Y-70033809D01*
X57395238Y-70129047D01*
X57490476Y-70224285D01*
X57538095Y-70319523D01*
%TO.C,R14*%
X59952380Y-71717857D02*
X59476190Y-72051190D01*
X59952380Y-72289285D02*
X58952380Y-72289285D01*
X58952380Y-71908333D01*
X59000000Y-71813095D01*
X59047619Y-71765476D01*
X59142857Y-71717857D01*
X59285714Y-71717857D01*
X59380952Y-71765476D01*
X59428571Y-71813095D01*
X59476190Y-71908333D01*
X59476190Y-72289285D01*
X59952380Y-70765476D02*
X59952380Y-71336904D01*
X59952380Y-71051190D02*
X58952380Y-71051190D01*
X59095238Y-71146428D01*
X59190476Y-71241666D01*
X59238095Y-71336904D01*
X59285714Y-69908333D02*
X59952380Y-69908333D01*
X58904761Y-70146428D02*
X59619047Y-70384523D01*
X59619047Y-69765476D01*
%TO.C,R13*%
X59652380Y-64142857D02*
X59176190Y-64476190D01*
X59652380Y-64714285D02*
X58652380Y-64714285D01*
X58652380Y-64333333D01*
X58700000Y-64238095D01*
X58747619Y-64190476D01*
X58842857Y-64142857D01*
X58985714Y-64142857D01*
X59080952Y-64190476D01*
X59128571Y-64238095D01*
X59176190Y-64333333D01*
X59176190Y-64714285D01*
X59652380Y-63190476D02*
X59652380Y-63761904D01*
X59652380Y-63476190D02*
X58652380Y-63476190D01*
X58795238Y-63571428D01*
X58890476Y-63666666D01*
X58938095Y-63761904D01*
X58652380Y-62857142D02*
X58652380Y-62238095D01*
X59033333Y-62571428D01*
X59033333Y-62428571D01*
X59080952Y-62333333D01*
X59128571Y-62285714D01*
X59223809Y-62238095D01*
X59461904Y-62238095D01*
X59557142Y-62285714D01*
X59604761Y-62333333D01*
X59652380Y-62428571D01*
X59652380Y-62714285D01*
X59604761Y-62809523D01*
X59557142Y-62857142D01*
%TO.C,U9*%
X48838095Y-75252380D02*
X48838095Y-76061904D01*
X48885714Y-76157142D01*
X48933333Y-76204761D01*
X49028571Y-76252380D01*
X49219047Y-76252380D01*
X49314285Y-76204761D01*
X49361904Y-76157142D01*
X49409523Y-76061904D01*
X49409523Y-75252380D01*
X49933333Y-76252380D02*
X50123809Y-76252380D01*
X50219047Y-76204761D01*
X50266666Y-76157142D01*
X50361904Y-76014285D01*
X50409523Y-75823809D01*
X50409523Y-75442857D01*
X50361904Y-75347619D01*
X50314285Y-75300000D01*
X50219047Y-75252380D01*
X50028571Y-75252380D01*
X49933333Y-75300000D01*
X49885714Y-75347619D01*
X49838095Y-75442857D01*
X49838095Y-75680952D01*
X49885714Y-75776190D01*
X49933333Y-75823809D01*
X50028571Y-75871428D01*
X50219047Y-75871428D01*
X50314285Y-75823809D01*
X50361904Y-75776190D01*
X50409523Y-75680952D01*
%TO.C,R10*%
X59552380Y-80642857D02*
X59076190Y-80976190D01*
X59552380Y-81214285D02*
X58552380Y-81214285D01*
X58552380Y-80833333D01*
X58600000Y-80738095D01*
X58647619Y-80690476D01*
X58742857Y-80642857D01*
X58885714Y-80642857D01*
X58980952Y-80690476D01*
X59028571Y-80738095D01*
X59076190Y-80833333D01*
X59076190Y-81214285D01*
X59552380Y-79690476D02*
X59552380Y-80261904D01*
X59552380Y-79976190D02*
X58552380Y-79976190D01*
X58695238Y-80071428D01*
X58790476Y-80166666D01*
X58838095Y-80261904D01*
X58552380Y-79071428D02*
X58552380Y-78976190D01*
X58600000Y-78880952D01*
X58647619Y-78833333D01*
X58742857Y-78785714D01*
X58933333Y-78738095D01*
X59171428Y-78738095D01*
X59361904Y-78785714D01*
X59457142Y-78833333D01*
X59504761Y-78880952D01*
X59552380Y-78976190D01*
X59552380Y-79071428D01*
X59504761Y-79166666D01*
X59457142Y-79214285D01*
X59361904Y-79261904D01*
X59171428Y-79309523D01*
X58933333Y-79309523D01*
X58742857Y-79261904D01*
X58647619Y-79214285D01*
X58600000Y-79166666D01*
X58552380Y-79071428D01*
%TO.C,R9*%
X58052380Y-79241666D02*
X57576190Y-79575000D01*
X58052380Y-79813095D02*
X57052380Y-79813095D01*
X57052380Y-79432142D01*
X57100000Y-79336904D01*
X57147619Y-79289285D01*
X57242857Y-79241666D01*
X57385714Y-79241666D01*
X57480952Y-79289285D01*
X57528571Y-79336904D01*
X57576190Y-79432142D01*
X57576190Y-79813095D01*
X58052380Y-78765476D02*
X58052380Y-78575000D01*
X58004761Y-78479761D01*
X57957142Y-78432142D01*
X57814285Y-78336904D01*
X57623809Y-78289285D01*
X57242857Y-78289285D01*
X57147619Y-78336904D01*
X57100000Y-78384523D01*
X57052380Y-78479761D01*
X57052380Y-78670238D01*
X57100000Y-78765476D01*
X57147619Y-78813095D01*
X57242857Y-78860714D01*
X57480952Y-78860714D01*
X57576190Y-78813095D01*
X57623809Y-78765476D01*
X57671428Y-78670238D01*
X57671428Y-78479761D01*
X57623809Y-78384523D01*
X57576190Y-78336904D01*
X57480952Y-78289285D01*
%TO.C,R8*%
X47252380Y-79266666D02*
X46776190Y-79600000D01*
X47252380Y-79838095D02*
X46252380Y-79838095D01*
X46252380Y-79457142D01*
X46300000Y-79361904D01*
X46347619Y-79314285D01*
X46442857Y-79266666D01*
X46585714Y-79266666D01*
X46680952Y-79314285D01*
X46728571Y-79361904D01*
X46776190Y-79457142D01*
X46776190Y-79838095D01*
X46680952Y-78695238D02*
X46633333Y-78790476D01*
X46585714Y-78838095D01*
X46490476Y-78885714D01*
X46442857Y-78885714D01*
X46347619Y-78838095D01*
X46300000Y-78790476D01*
X46252380Y-78695238D01*
X46252380Y-78504761D01*
X46300000Y-78409523D01*
X46347619Y-78361904D01*
X46442857Y-78314285D01*
X46490476Y-78314285D01*
X46585714Y-78361904D01*
X46633333Y-78409523D01*
X46680952Y-78504761D01*
X46680952Y-78695238D01*
X46728571Y-78790476D01*
X46776190Y-78838095D01*
X46871428Y-78885714D01*
X47061904Y-78885714D01*
X47157142Y-78838095D01*
X47204761Y-78790476D01*
X47252380Y-78695238D01*
X47252380Y-78504761D01*
X47204761Y-78409523D01*
X47157142Y-78361904D01*
X47061904Y-78314285D01*
X46871428Y-78314285D01*
X46776190Y-78361904D01*
X46728571Y-78409523D01*
X46680952Y-78504761D01*
%TO.C,R7*%
X45352380Y-79166666D02*
X44876190Y-79500000D01*
X45352380Y-79738095D02*
X44352380Y-79738095D01*
X44352380Y-79357142D01*
X44400000Y-79261904D01*
X44447619Y-79214285D01*
X44542857Y-79166666D01*
X44685714Y-79166666D01*
X44780952Y-79214285D01*
X44828571Y-79261904D01*
X44876190Y-79357142D01*
X44876190Y-79738095D01*
X44352380Y-78833333D02*
X44352380Y-78166666D01*
X45352380Y-78595238D01*
%TO.C,C15*%
X51557142Y-74657142D02*
X51509523Y-74704761D01*
X51366666Y-74752380D01*
X51271428Y-74752380D01*
X51128571Y-74704761D01*
X51033333Y-74609523D01*
X50985714Y-74514285D01*
X50938095Y-74323809D01*
X50938095Y-74180952D01*
X50985714Y-73990476D01*
X51033333Y-73895238D01*
X51128571Y-73800000D01*
X51271428Y-73752380D01*
X51366666Y-73752380D01*
X51509523Y-73800000D01*
X51557142Y-73847619D01*
X52509523Y-74752380D02*
X51938095Y-74752380D01*
X52223809Y-74752380D02*
X52223809Y-73752380D01*
X52128571Y-73895238D01*
X52033333Y-73990476D01*
X51938095Y-74038095D01*
X53414285Y-73752380D02*
X52938095Y-73752380D01*
X52890476Y-74228571D01*
X52938095Y-74180952D01*
X53033333Y-74133333D01*
X53271428Y-74133333D01*
X53366666Y-74180952D01*
X53414285Y-74228571D01*
X53461904Y-74323809D01*
X53461904Y-74561904D01*
X53414285Y-74657142D01*
X53366666Y-74704761D01*
X53271428Y-74752380D01*
X53033333Y-74752380D01*
X52938095Y-74704761D01*
X52890476Y-74657142D01*
%TO.C,C14*%
X78482142Y-42284142D02*
X78434523Y-42331761D01*
X78291666Y-42379380D01*
X78196428Y-42379380D01*
X78053571Y-42331761D01*
X77958333Y-42236523D01*
X77910714Y-42141285D01*
X77863095Y-41950809D01*
X77863095Y-41807952D01*
X77910714Y-41617476D01*
X77958333Y-41522238D01*
X78053571Y-41427000D01*
X78196428Y-41379380D01*
X78291666Y-41379380D01*
X78434523Y-41427000D01*
X78482142Y-41474619D01*
X79434523Y-42379380D02*
X78863095Y-42379380D01*
X79148809Y-42379380D02*
X79148809Y-41379380D01*
X79053571Y-41522238D01*
X78958333Y-41617476D01*
X78863095Y-41665095D01*
X80291666Y-41712714D02*
X80291666Y-42379380D01*
X80053571Y-41331761D02*
X79815476Y-42046047D01*
X80434523Y-42046047D01*
%TO.C,C13*%
X45482142Y-42184142D02*
X45434523Y-42231761D01*
X45291666Y-42279380D01*
X45196428Y-42279380D01*
X45053571Y-42231761D01*
X44958333Y-42136523D01*
X44910714Y-42041285D01*
X44863095Y-41850809D01*
X44863095Y-41707952D01*
X44910714Y-41517476D01*
X44958333Y-41422238D01*
X45053571Y-41327000D01*
X45196428Y-41279380D01*
X45291666Y-41279380D01*
X45434523Y-41327000D01*
X45482142Y-41374619D01*
X46434523Y-42279380D02*
X45863095Y-42279380D01*
X46148809Y-42279380D02*
X46148809Y-41279380D01*
X46053571Y-41422238D01*
X45958333Y-41517476D01*
X45863095Y-41565095D01*
X46767857Y-41279380D02*
X47386904Y-41279380D01*
X47053571Y-41660333D01*
X47196428Y-41660333D01*
X47291666Y-41707952D01*
X47339285Y-41755571D01*
X47386904Y-41850809D01*
X47386904Y-42088904D01*
X47339285Y-42184142D01*
X47291666Y-42231761D01*
X47196428Y-42279380D01*
X46910714Y-42279380D01*
X46815476Y-42231761D01*
X46767857Y-42184142D01*
%TO.C,C12*%
X89892142Y-106433857D02*
X89939761Y-106481476D01*
X89987380Y-106624333D01*
X89987380Y-106719571D01*
X89939761Y-106862428D01*
X89844523Y-106957666D01*
X89749285Y-107005285D01*
X89558809Y-107052904D01*
X89415952Y-107052904D01*
X89225476Y-107005285D01*
X89130238Y-106957666D01*
X89035000Y-106862428D01*
X88987380Y-106719571D01*
X88987380Y-106624333D01*
X89035000Y-106481476D01*
X89082619Y-106433857D01*
X89987380Y-105481476D02*
X89987380Y-106052904D01*
X89987380Y-105767190D02*
X88987380Y-105767190D01*
X89130238Y-105862428D01*
X89225476Y-105957666D01*
X89273095Y-106052904D01*
X89082619Y-105100523D02*
X89035000Y-105052904D01*
X88987380Y-104957666D01*
X88987380Y-104719571D01*
X89035000Y-104624333D01*
X89082619Y-104576714D01*
X89177857Y-104529095D01*
X89273095Y-104529095D01*
X89415952Y-104576714D01*
X89987380Y-105148142D01*
X89987380Y-104529095D01*
%TO.C,C11*%
X62449142Y-42057142D02*
X62401523Y-42104761D01*
X62258666Y-42152380D01*
X62163428Y-42152380D01*
X62020571Y-42104761D01*
X61925333Y-42009523D01*
X61877714Y-41914285D01*
X61830095Y-41723809D01*
X61830095Y-41580952D01*
X61877714Y-41390476D01*
X61925333Y-41295238D01*
X62020571Y-41200000D01*
X62163428Y-41152380D01*
X62258666Y-41152380D01*
X62401523Y-41200000D01*
X62449142Y-41247619D01*
X63401523Y-42152380D02*
X62830095Y-42152380D01*
X63115809Y-42152380D02*
X63115809Y-41152380D01*
X63020571Y-41295238D01*
X62925333Y-41390476D01*
X62830095Y-41438095D01*
X64353904Y-42152380D02*
X63782476Y-42152380D01*
X64068190Y-42152380D02*
X64068190Y-41152380D01*
X63972952Y-41295238D01*
X63877714Y-41390476D01*
X63782476Y-41438095D01*
%TO.C,C10*%
X89892142Y-125978857D02*
X89939761Y-126026476D01*
X89987380Y-126169333D01*
X89987380Y-126264571D01*
X89939761Y-126407428D01*
X89844523Y-126502666D01*
X89749285Y-126550285D01*
X89558809Y-126597904D01*
X89415952Y-126597904D01*
X89225476Y-126550285D01*
X89130238Y-126502666D01*
X89035000Y-126407428D01*
X88987380Y-126264571D01*
X88987380Y-126169333D01*
X89035000Y-126026476D01*
X89082619Y-125978857D01*
X89987380Y-125026476D02*
X89987380Y-125597904D01*
X89987380Y-125312190D02*
X88987380Y-125312190D01*
X89130238Y-125407428D01*
X89225476Y-125502666D01*
X89273095Y-125597904D01*
X88987380Y-124407428D02*
X88987380Y-124312190D01*
X89035000Y-124216952D01*
X89082619Y-124169333D01*
X89177857Y-124121714D01*
X89368333Y-124074095D01*
X89606428Y-124074095D01*
X89796904Y-124121714D01*
X89892142Y-124169333D01*
X89939761Y-124216952D01*
X89987380Y-124312190D01*
X89987380Y-124407428D01*
X89939761Y-124502666D01*
X89892142Y-124550285D01*
X89796904Y-124597904D01*
X89606428Y-124645523D01*
X89368333Y-124645523D01*
X89177857Y-124597904D01*
X89082619Y-124550285D01*
X89035000Y-124502666D01*
X88987380Y-124407428D01*
%TO.C,C9*%
X89905142Y-87783666D02*
X89952761Y-87831285D01*
X90000380Y-87974142D01*
X90000380Y-88069380D01*
X89952761Y-88212238D01*
X89857523Y-88307476D01*
X89762285Y-88355095D01*
X89571809Y-88402714D01*
X89428952Y-88402714D01*
X89238476Y-88355095D01*
X89143238Y-88307476D01*
X89048000Y-88212238D01*
X89000380Y-88069380D01*
X89000380Y-87974142D01*
X89048000Y-87831285D01*
X89095619Y-87783666D01*
X90000380Y-87307476D02*
X90000380Y-87117000D01*
X89952761Y-87021761D01*
X89905142Y-86974142D01*
X89762285Y-86878904D01*
X89571809Y-86831285D01*
X89190857Y-86831285D01*
X89095619Y-86878904D01*
X89048000Y-86926523D01*
X89000380Y-87021761D01*
X89000380Y-87212238D01*
X89048000Y-87307476D01*
X89095619Y-87355095D01*
X89190857Y-87402714D01*
X89428952Y-87402714D01*
X89524190Y-87355095D01*
X89571809Y-87307476D01*
X89619428Y-87212238D01*
X89619428Y-87021761D01*
X89571809Y-86926523D01*
X89524190Y-86878904D01*
X89428952Y-86831285D01*
%TO.C,J1*%
X75252380Y-70833333D02*
X75966666Y-70833333D01*
X76109523Y-70880952D01*
X76204761Y-70976190D01*
X76252380Y-71119047D01*
X76252380Y-71214285D01*
X76252380Y-69833333D02*
X76252380Y-70404761D01*
X76252380Y-70119047D02*
X75252380Y-70119047D01*
X75395238Y-70214285D01*
X75490476Y-70309523D01*
X75538095Y-70404761D01*
%TO.C,C8*%
X72375733Y-62637942D02*
X72328114Y-62685561D01*
X72185257Y-62733180D01*
X72090019Y-62733180D01*
X71947161Y-62685561D01*
X71851923Y-62590323D01*
X71804304Y-62495085D01*
X71756685Y-62304609D01*
X71756685Y-62161752D01*
X71804304Y-61971276D01*
X71851923Y-61876038D01*
X71947161Y-61780800D01*
X72090019Y-61733180D01*
X72185257Y-61733180D01*
X72328114Y-61780800D01*
X72375733Y-61828419D01*
X72947161Y-62161752D02*
X72851923Y-62114133D01*
X72804304Y-62066514D01*
X72756685Y-61971276D01*
X72756685Y-61923657D01*
X72804304Y-61828419D01*
X72851923Y-61780800D01*
X72947161Y-61733180D01*
X73137638Y-61733180D01*
X73232876Y-61780800D01*
X73280495Y-61828419D01*
X73328114Y-61923657D01*
X73328114Y-61971276D01*
X73280495Y-62066514D01*
X73232876Y-62114133D01*
X73137638Y-62161752D01*
X72947161Y-62161752D01*
X72851923Y-62209371D01*
X72804304Y-62256990D01*
X72756685Y-62352228D01*
X72756685Y-62542704D01*
X72804304Y-62637942D01*
X72851923Y-62685561D01*
X72947161Y-62733180D01*
X73137638Y-62733180D01*
X73232876Y-62685561D01*
X73280495Y-62637942D01*
X73328114Y-62542704D01*
X73328114Y-62352228D01*
X73280495Y-62256990D01*
X73232876Y-62209371D01*
X73137638Y-62161752D01*
%TO.C,D192*%
X76566923Y-75052180D02*
X76566923Y-74052180D01*
X76805019Y-74052180D01*
X76947876Y-74099800D01*
X77043114Y-74195038D01*
X77090733Y-74290276D01*
X77138352Y-74480752D01*
X77138352Y-74623609D01*
X77090733Y-74814085D01*
X77043114Y-74909323D01*
X76947876Y-75004561D01*
X76805019Y-75052180D01*
X76566923Y-75052180D01*
X78090733Y-75052180D02*
X77519304Y-75052180D01*
X77805019Y-75052180D02*
X77805019Y-74052180D01*
X77709780Y-74195038D01*
X77614542Y-74290276D01*
X77519304Y-74337895D01*
X78566923Y-75052180D02*
X78757400Y-75052180D01*
X78852638Y-75004561D01*
X78900257Y-74956942D01*
X78995495Y-74814085D01*
X79043114Y-74623609D01*
X79043114Y-74242657D01*
X78995495Y-74147419D01*
X78947876Y-74099800D01*
X78852638Y-74052180D01*
X78662161Y-74052180D01*
X78566923Y-74099800D01*
X78519304Y-74147419D01*
X78471685Y-74242657D01*
X78471685Y-74480752D01*
X78519304Y-74575990D01*
X78566923Y-74623609D01*
X78662161Y-74671228D01*
X78852638Y-74671228D01*
X78947876Y-74623609D01*
X78995495Y-74575990D01*
X79043114Y-74480752D01*
X79424066Y-74147419D02*
X79471685Y-74099800D01*
X79566923Y-74052180D01*
X79805019Y-74052180D01*
X79900257Y-74099800D01*
X79947876Y-74147419D01*
X79995495Y-74242657D01*
X79995495Y-74337895D01*
X79947876Y-74480752D01*
X79376447Y-75052180D01*
X79995495Y-75052180D01*
%TO.C,D191*%
X77252723Y-81325980D02*
X77252723Y-80325980D01*
X77490819Y-80325980D01*
X77633676Y-80373600D01*
X77728914Y-80468838D01*
X77776533Y-80564076D01*
X77824152Y-80754552D01*
X77824152Y-80897409D01*
X77776533Y-81087885D01*
X77728914Y-81183123D01*
X77633676Y-81278361D01*
X77490819Y-81325980D01*
X77252723Y-81325980D01*
X78776533Y-81325980D02*
X78205104Y-81325980D01*
X78490819Y-81325980D02*
X78490819Y-80325980D01*
X78395580Y-80468838D01*
X78300342Y-80564076D01*
X78205104Y-80611695D01*
X79252723Y-81325980D02*
X79443200Y-81325980D01*
X79538438Y-81278361D01*
X79586057Y-81230742D01*
X79681295Y-81087885D01*
X79728914Y-80897409D01*
X79728914Y-80516457D01*
X79681295Y-80421219D01*
X79633676Y-80373600D01*
X79538438Y-80325980D01*
X79347961Y-80325980D01*
X79252723Y-80373600D01*
X79205104Y-80421219D01*
X79157485Y-80516457D01*
X79157485Y-80754552D01*
X79205104Y-80849790D01*
X79252723Y-80897409D01*
X79347961Y-80945028D01*
X79538438Y-80945028D01*
X79633676Y-80897409D01*
X79681295Y-80849790D01*
X79728914Y-80754552D01*
X80681295Y-81325980D02*
X80109866Y-81325980D01*
X80395580Y-81325980D02*
X80395580Y-80325980D01*
X80300342Y-80468838D01*
X80205104Y-80564076D01*
X80109866Y-80611695D01*
%TO.C,J3*%
X81852380Y-83233333D02*
X82566666Y-83233333D01*
X82709523Y-83280952D01*
X82804761Y-83376190D01*
X82852380Y-83519047D01*
X82852380Y-83614285D01*
X81852380Y-82852380D02*
X81852380Y-82233333D01*
X82233333Y-82566666D01*
X82233333Y-82423809D01*
X82280952Y-82328571D01*
X82328571Y-82280952D01*
X82423809Y-82233333D01*
X82661904Y-82233333D01*
X82757142Y-82280952D01*
X82804761Y-82328571D01*
X82852380Y-82423809D01*
X82852380Y-82709523D01*
X82804761Y-82804761D01*
X82757142Y-82852380D01*
D19*
X88114724Y-69249513D02*
X88781390Y-69249513D01*
X87733771Y-69487609D02*
X88448057Y-69725704D01*
X88448057Y-69106656D01*
X85859372Y-81925295D02*
X85859372Y-82496724D01*
X85859372Y-82211010D02*
X84859372Y-82211010D01*
X85002230Y-82306248D01*
X85097468Y-82401486D01*
X85145087Y-82496724D01*
%TO.C,J2*%
D10*
X54651441Y-58486010D02*
X54651441Y-59200779D01*
X54603789Y-59343733D01*
X54508487Y-59439035D01*
X54365533Y-59486687D01*
X54270230Y-59486687D01*
X55080302Y-58581312D02*
X55127953Y-58533661D01*
X55223256Y-58486010D01*
X55461512Y-58486010D01*
X55556815Y-58533661D01*
X55604466Y-58581312D01*
X55652118Y-58676615D01*
X55652118Y-58771917D01*
X55604466Y-58914871D01*
X55032651Y-59486687D01*
X55652118Y-59486687D01*
%TO.C,SW1*%
D20*
X65726460Y-59562579D02*
X65763230Y-59452271D01*
X65763230Y-59268423D01*
X65726460Y-59194884D01*
X65689691Y-59158114D01*
X65616152Y-59121345D01*
X65542613Y-59121345D01*
X65469074Y-59158114D01*
X65432304Y-59194884D01*
X65395535Y-59268423D01*
X65358765Y-59415501D01*
X65321996Y-59489040D01*
X65285226Y-59525810D01*
X65211687Y-59562579D01*
X65138148Y-59562579D01*
X65064609Y-59525810D01*
X65027840Y-59489040D01*
X64991070Y-59415501D01*
X64991070Y-59231653D01*
X65027840Y-59121345D01*
X64991070Y-58863958D02*
X65763230Y-58680111D01*
X65211687Y-58533033D01*
X65763230Y-58385954D01*
X64991070Y-58202107D01*
X65763230Y-57503486D02*
X65763230Y-57944720D01*
X65763230Y-57724103D02*
X64991070Y-57724103D01*
X65101379Y-57797642D01*
X65174918Y-57871181D01*
X65211687Y-57944720D01*
%TO.C,R20*%
D10*
X78482142Y-40652380D02*
X78148809Y-40176190D01*
X77910714Y-40652380D02*
X77910714Y-39652380D01*
X78291666Y-39652380D01*
X78386904Y-39700000D01*
X78434523Y-39747619D01*
X78482142Y-39842857D01*
X78482142Y-39985714D01*
X78434523Y-40080952D01*
X78386904Y-40128571D01*
X78291666Y-40176190D01*
X77910714Y-40176190D01*
X78863095Y-39747619D02*
X78910714Y-39700000D01*
X79005952Y-39652380D01*
X79244047Y-39652380D01*
X79339285Y-39700000D01*
X79386904Y-39747619D01*
X79434523Y-39842857D01*
X79434523Y-39938095D01*
X79386904Y-40080952D01*
X78815476Y-40652380D01*
X79434523Y-40652380D01*
X80053571Y-39652380D02*
X80148809Y-39652380D01*
X80244047Y-39700000D01*
X80291666Y-39747619D01*
X80339285Y-39842857D01*
X80386904Y-40033333D01*
X80386904Y-40271428D01*
X80339285Y-40461904D01*
X80291666Y-40557142D01*
X80244047Y-40604761D01*
X80148809Y-40652380D01*
X80053571Y-40652380D01*
X79958333Y-40604761D01*
X79910714Y-40557142D01*
X79863095Y-40461904D01*
X79815476Y-40271428D01*
X79815476Y-40033333D01*
X79863095Y-39842857D01*
X79910714Y-39747619D01*
X79958333Y-39700000D01*
X80053571Y-39652380D01*
%TO.C,R19*%
X45698542Y-40450780D02*
X45365209Y-39974590D01*
X45127114Y-40450780D02*
X45127114Y-39450780D01*
X45508066Y-39450780D01*
X45603304Y-39498400D01*
X45650923Y-39546019D01*
X45698542Y-39641257D01*
X45698542Y-39784114D01*
X45650923Y-39879352D01*
X45603304Y-39926971D01*
X45508066Y-39974590D01*
X45127114Y-39974590D01*
X46650923Y-40450780D02*
X46079495Y-40450780D01*
X46365209Y-40450780D02*
X46365209Y-39450780D01*
X46269971Y-39593638D01*
X46174733Y-39688876D01*
X46079495Y-39736495D01*
X47127114Y-40450780D02*
X47317590Y-40450780D01*
X47412828Y-40403161D01*
X47460447Y-40355542D01*
X47555685Y-40212685D01*
X47603304Y-40022209D01*
X47603304Y-39641257D01*
X47555685Y-39546019D01*
X47508066Y-39498400D01*
X47412828Y-39450780D01*
X47222352Y-39450780D01*
X47127114Y-39498400D01*
X47079495Y-39546019D01*
X47031876Y-39641257D01*
X47031876Y-39879352D01*
X47079495Y-39974590D01*
X47127114Y-40022209D01*
X47222352Y-40069828D01*
X47412828Y-40069828D01*
X47508066Y-40022209D01*
X47555685Y-39974590D01*
X47603304Y-39879352D01*
%TO.C,R18*%
X61953542Y-40452380D02*
X61620209Y-39976190D01*
X61382114Y-40452380D02*
X61382114Y-39452380D01*
X61763066Y-39452380D01*
X61858304Y-39500000D01*
X61905923Y-39547619D01*
X61953542Y-39642857D01*
X61953542Y-39785714D01*
X61905923Y-39880952D01*
X61858304Y-39928571D01*
X61763066Y-39976190D01*
X61382114Y-39976190D01*
X62905923Y-40452380D02*
X62334495Y-40452380D01*
X62620209Y-40452380D02*
X62620209Y-39452380D01*
X62524971Y-39595238D01*
X62429733Y-39690476D01*
X62334495Y-39738095D01*
X63477352Y-39880952D02*
X63382114Y-39833333D01*
X63334495Y-39785714D01*
X63286876Y-39690476D01*
X63286876Y-39642857D01*
X63334495Y-39547619D01*
X63382114Y-39500000D01*
X63477352Y-39452380D01*
X63667828Y-39452380D01*
X63763066Y-39500000D01*
X63810685Y-39547619D01*
X63858304Y-39642857D01*
X63858304Y-39690476D01*
X63810685Y-39785714D01*
X63763066Y-39833333D01*
X63667828Y-39880952D01*
X63477352Y-39880952D01*
X63382114Y-39928571D01*
X63334495Y-39976190D01*
X63286876Y-40071428D01*
X63286876Y-40261904D01*
X63334495Y-40357142D01*
X63382114Y-40404761D01*
X63477352Y-40452380D01*
X63667828Y-40452380D01*
X63763066Y-40404761D01*
X63810685Y-40357142D01*
X63858304Y-40261904D01*
X63858304Y-40071428D01*
X63810685Y-39976190D01*
X63763066Y-39928571D01*
X63667828Y-39880952D01*
%TO.C,R17*%
X91452380Y-106667857D02*
X90976190Y-107001190D01*
X91452380Y-107239285D02*
X90452380Y-107239285D01*
X90452380Y-106858333D01*
X90500000Y-106763095D01*
X90547619Y-106715476D01*
X90642857Y-106667857D01*
X90785714Y-106667857D01*
X90880952Y-106715476D01*
X90928571Y-106763095D01*
X90976190Y-106858333D01*
X90976190Y-107239285D01*
X91452380Y-105715476D02*
X91452380Y-106286904D01*
X91452380Y-106001190D02*
X90452380Y-106001190D01*
X90595238Y-106096428D01*
X90690476Y-106191666D01*
X90738095Y-106286904D01*
X90452380Y-105382142D02*
X90452380Y-104715476D01*
X91452380Y-105144047D01*
%TO.C,R16*%
X91452380Y-126184857D02*
X90976190Y-126518190D01*
X91452380Y-126756285D02*
X90452380Y-126756285D01*
X90452380Y-126375333D01*
X90500000Y-126280095D01*
X90547619Y-126232476D01*
X90642857Y-126184857D01*
X90785714Y-126184857D01*
X90880952Y-126232476D01*
X90928571Y-126280095D01*
X90976190Y-126375333D01*
X90976190Y-126756285D01*
X91452380Y-125232476D02*
X91452380Y-125803904D01*
X91452380Y-125518190D02*
X90452380Y-125518190D01*
X90595238Y-125613428D01*
X90690476Y-125708666D01*
X90738095Y-125803904D01*
X90452380Y-124375333D02*
X90452380Y-124565809D01*
X90500000Y-124661047D01*
X90547619Y-124708666D01*
X90690476Y-124803904D01*
X90880952Y-124851523D01*
X91261904Y-124851523D01*
X91357142Y-124803904D01*
X91404761Y-124756285D01*
X91452380Y-124661047D01*
X91452380Y-124470571D01*
X91404761Y-124375333D01*
X91357142Y-124327714D01*
X91261904Y-124280095D01*
X91023809Y-124280095D01*
X90928571Y-124327714D01*
X90880952Y-124375333D01*
X90833333Y-124470571D01*
X90833333Y-124661047D01*
X90880952Y-124756285D01*
X90928571Y-124803904D01*
X91023809Y-124851523D01*
%TO.C,R15*%
X91652380Y-88042857D02*
X91176190Y-88376190D01*
X91652380Y-88614285D02*
X90652380Y-88614285D01*
X90652380Y-88233333D01*
X90700000Y-88138095D01*
X90747619Y-88090476D01*
X90842857Y-88042857D01*
X90985714Y-88042857D01*
X91080952Y-88090476D01*
X91128571Y-88138095D01*
X91176190Y-88233333D01*
X91176190Y-88614285D01*
X91652380Y-87090476D02*
X91652380Y-87661904D01*
X91652380Y-87376190D02*
X90652380Y-87376190D01*
X90795238Y-87471428D01*
X90890476Y-87566666D01*
X90938095Y-87661904D01*
X90652380Y-86185714D02*
X90652380Y-86661904D01*
X91128571Y-86709523D01*
X91080952Y-86661904D01*
X91033333Y-86566666D01*
X91033333Y-86328571D01*
X91080952Y-86233333D01*
X91128571Y-86185714D01*
X91223809Y-86138095D01*
X91461904Y-86138095D01*
X91557142Y-86185714D01*
X91604761Y-86233333D01*
X91652380Y-86328571D01*
X91652380Y-86566666D01*
X91604761Y-86661904D01*
X91557142Y-86709523D01*
%TO.C,U6*%
X61341095Y-63557180D02*
X61341095Y-64366704D01*
X61388714Y-64461942D01*
X61436333Y-64509561D01*
X61531571Y-64557180D01*
X61722047Y-64557180D01*
X61817285Y-64509561D01*
X61864904Y-64461942D01*
X61912523Y-64366704D01*
X61912523Y-63557180D01*
X62817285Y-63557180D02*
X62626809Y-63557180D01*
X62531571Y-63604800D01*
X62483952Y-63652419D01*
X62388714Y-63795276D01*
X62341095Y-63985752D01*
X62341095Y-64366704D01*
X62388714Y-64461942D01*
X62436333Y-64509561D01*
X62531571Y-64557180D01*
X62722047Y-64557180D01*
X62817285Y-64509561D01*
X62864904Y-64461942D01*
X62912523Y-64366704D01*
X62912523Y-64128609D01*
X62864904Y-64033371D01*
X62817285Y-63985752D01*
X62722047Y-63938133D01*
X62531571Y-63938133D01*
X62436333Y-63985752D01*
X62388714Y-64033371D01*
X62341095Y-64128609D01*
%TO.C,C7*%
X89337133Y-37457142D02*
X89289514Y-37504761D01*
X89146657Y-37552380D01*
X89051419Y-37552380D01*
X88908561Y-37504761D01*
X88813323Y-37409523D01*
X88765704Y-37314285D01*
X88718085Y-37123809D01*
X88718085Y-36980952D01*
X88765704Y-36790476D01*
X88813323Y-36695238D01*
X88908561Y-36600000D01*
X89051419Y-36552380D01*
X89146657Y-36552380D01*
X89289514Y-36600000D01*
X89337133Y-36647619D01*
X89670466Y-36552380D02*
X90337133Y-36552380D01*
X89908561Y-37552380D01*
%TO.C,C6*%
X54157142Y-35926666D02*
X54204761Y-35974285D01*
X54252380Y-36117142D01*
X54252380Y-36212380D01*
X54204761Y-36355238D01*
X54109523Y-36450476D01*
X54014285Y-36498095D01*
X53823809Y-36545714D01*
X53680952Y-36545714D01*
X53490476Y-36498095D01*
X53395238Y-36450476D01*
X53300000Y-36355238D01*
X53252380Y-36212380D01*
X53252380Y-36117142D01*
X53300000Y-35974285D01*
X53347619Y-35926666D01*
X53252380Y-35069523D02*
X53252380Y-35260000D01*
X53300000Y-35355238D01*
X53347619Y-35402857D01*
X53490476Y-35498095D01*
X53680952Y-35545714D01*
X54061904Y-35545714D01*
X54157142Y-35498095D01*
X54204761Y-35450476D01*
X54252380Y-35355238D01*
X54252380Y-35164761D01*
X54204761Y-35069523D01*
X54157142Y-35021904D01*
X54061904Y-34974285D01*
X53823809Y-34974285D01*
X53728571Y-35021904D01*
X53680952Y-35069523D01*
X53633333Y-35164761D01*
X53633333Y-35355238D01*
X53680952Y-35450476D01*
X53728571Y-35498095D01*
X53823809Y-35545714D01*
%TO.C,C5*%
X63384133Y-62739542D02*
X63336514Y-62787161D01*
X63193657Y-62834780D01*
X63098419Y-62834780D01*
X62955561Y-62787161D01*
X62860323Y-62691923D01*
X62812704Y-62596685D01*
X62765085Y-62406209D01*
X62765085Y-62263352D01*
X62812704Y-62072876D01*
X62860323Y-61977638D01*
X62955561Y-61882400D01*
X63098419Y-61834780D01*
X63193657Y-61834780D01*
X63336514Y-61882400D01*
X63384133Y-61930019D01*
X64288895Y-61834780D02*
X63812704Y-61834780D01*
X63765085Y-62310971D01*
X63812704Y-62263352D01*
X63907942Y-62215733D01*
X64146038Y-62215733D01*
X64241276Y-62263352D01*
X64288895Y-62310971D01*
X64336514Y-62406209D01*
X64336514Y-62644304D01*
X64288895Y-62739542D01*
X64241276Y-62787161D01*
X64146038Y-62834780D01*
X63907942Y-62834780D01*
X63812704Y-62787161D01*
X63765085Y-62739542D01*
%TO.C,C4*%
X92686333Y-94157142D02*
X92638714Y-94204761D01*
X92495857Y-94252380D01*
X92400619Y-94252380D01*
X92257761Y-94204761D01*
X92162523Y-94109523D01*
X92114904Y-94014285D01*
X92067285Y-93823809D01*
X92067285Y-93680952D01*
X92114904Y-93490476D01*
X92162523Y-93395238D01*
X92257761Y-93300000D01*
X92400619Y-93252380D01*
X92495857Y-93252380D01*
X92638714Y-93300000D01*
X92686333Y-93347619D01*
X93543476Y-93585714D02*
X93543476Y-94252380D01*
X93305380Y-93204761D02*
X93067285Y-93919047D01*
X93686333Y-93919047D01*
%TO.C,C3*%
X93060333Y-113157142D02*
X93012714Y-113204761D01*
X92869857Y-113252380D01*
X92774619Y-113252380D01*
X92631761Y-113204761D01*
X92536523Y-113109523D01*
X92488904Y-113014285D01*
X92441285Y-112823809D01*
X92441285Y-112680952D01*
X92488904Y-112490476D01*
X92536523Y-112395238D01*
X92631761Y-112300000D01*
X92774619Y-112252380D01*
X92869857Y-112252380D01*
X93012714Y-112300000D01*
X93060333Y-112347619D01*
X93393666Y-112252380D02*
X94012714Y-112252380D01*
X93679380Y-112633333D01*
X93822238Y-112633333D01*
X93917476Y-112680952D01*
X93965095Y-112728571D01*
X94012714Y-112823809D01*
X94012714Y-113061904D01*
X93965095Y-113157142D01*
X93917476Y-113204761D01*
X93822238Y-113252380D01*
X93536523Y-113252380D01*
X93441285Y-113204761D01*
X93393666Y-113157142D01*
%TO.C,U8*%
X80232295Y-42974180D02*
X80232295Y-43783704D01*
X80279914Y-43878942D01*
X80327533Y-43926561D01*
X80422771Y-43974180D01*
X80613247Y-43974180D01*
X80708485Y-43926561D01*
X80756104Y-43878942D01*
X80803723Y-43783704D01*
X80803723Y-42974180D01*
X81422771Y-43402752D02*
X81327533Y-43355133D01*
X81279914Y-43307514D01*
X81232295Y-43212276D01*
X81232295Y-43164657D01*
X81279914Y-43069419D01*
X81327533Y-43021800D01*
X81422771Y-42974180D01*
X81613247Y-42974180D01*
X81708485Y-43021800D01*
X81756104Y-43069419D01*
X81803723Y-43164657D01*
X81803723Y-43212276D01*
X81756104Y-43307514D01*
X81708485Y-43355133D01*
X81613247Y-43402752D01*
X81422771Y-43402752D01*
X81327533Y-43450371D01*
X81279914Y-43497990D01*
X81232295Y-43593228D01*
X81232295Y-43783704D01*
X81279914Y-43878942D01*
X81327533Y-43926561D01*
X81422771Y-43974180D01*
X81613247Y-43974180D01*
X81708485Y-43926561D01*
X81756104Y-43878942D01*
X81803723Y-43783704D01*
X81803723Y-43593228D01*
X81756104Y-43497990D01*
X81708485Y-43450371D01*
X81613247Y-43402752D01*
%TO.C,U1*%
X69832495Y-76937580D02*
X69832495Y-77747104D01*
X69880114Y-77842342D01*
X69927733Y-77889961D01*
X70022971Y-77937580D01*
X70213447Y-77937580D01*
X70308685Y-77889961D01*
X70356304Y-77842342D01*
X70403923Y-77747104D01*
X70403923Y-76937580D01*
X71403923Y-77937580D02*
X70832495Y-77937580D01*
X71118209Y-77937580D02*
X71118209Y-76937580D01*
X71022971Y-77080438D01*
X70927733Y-77175676D01*
X70832495Y-77223295D01*
%TO.C,R5*%
X68785980Y-78043066D02*
X68309790Y-78376400D01*
X68785980Y-78614495D02*
X67785980Y-78614495D01*
X67785980Y-78233542D01*
X67833600Y-78138304D01*
X67881219Y-78090685D01*
X67976457Y-78043066D01*
X68119314Y-78043066D01*
X68214552Y-78090685D01*
X68262171Y-78138304D01*
X68309790Y-78233542D01*
X68309790Y-78614495D01*
X67785980Y-77138304D02*
X67785980Y-77614495D01*
X68262171Y-77662114D01*
X68214552Y-77614495D01*
X68166933Y-77519257D01*
X68166933Y-77281161D01*
X68214552Y-77185923D01*
X68262171Y-77138304D01*
X68357409Y-77090685D01*
X68595504Y-77090685D01*
X68690742Y-77138304D01*
X68738361Y-77185923D01*
X68785980Y-77281161D01*
X68785980Y-77519257D01*
X68738361Y-77614495D01*
X68690742Y-77662114D01*
%TO.C,R4*%
X70711533Y-80868780D02*
X70378200Y-80392590D01*
X70140104Y-80868780D02*
X70140104Y-79868780D01*
X70521057Y-79868780D01*
X70616295Y-79916400D01*
X70663914Y-79964019D01*
X70711533Y-80059257D01*
X70711533Y-80202114D01*
X70663914Y-80297352D01*
X70616295Y-80344971D01*
X70521057Y-80392590D01*
X70140104Y-80392590D01*
X71568676Y-80202114D02*
X71568676Y-80868780D01*
X71330580Y-79821161D02*
X71092485Y-80535447D01*
X71711533Y-80535447D01*
%TO.C,D2*%
X63269904Y-78558380D02*
X63269904Y-77558380D01*
X63508000Y-77558380D01*
X63650857Y-77606000D01*
X63746095Y-77701238D01*
X63793714Y-77796476D01*
X63841333Y-77986952D01*
X63841333Y-78129809D01*
X63793714Y-78320285D01*
X63746095Y-78415523D01*
X63650857Y-78510761D01*
X63508000Y-78558380D01*
X63269904Y-78558380D01*
X64222285Y-77653619D02*
X64269904Y-77606000D01*
X64365142Y-77558380D01*
X64603238Y-77558380D01*
X64698476Y-77606000D01*
X64746095Y-77653619D01*
X64793714Y-77748857D01*
X64793714Y-77844095D01*
X64746095Y-77986952D01*
X64174666Y-78558380D01*
X64793714Y-78558380D01*
%TO.C,D1*%
X74723004Y-84424780D02*
X74723004Y-83424780D01*
X74961100Y-83424780D01*
X75103957Y-83472400D01*
X75199195Y-83567638D01*
X75246814Y-83662876D01*
X75294433Y-83853352D01*
X75294433Y-83996209D01*
X75246814Y-84186685D01*
X75199195Y-84281923D01*
X75103957Y-84377161D01*
X74961100Y-84424780D01*
X74723004Y-84424780D01*
X76246814Y-84424780D02*
X75675385Y-84424780D01*
X75961100Y-84424780D02*
X75961100Y-83424780D01*
X75865861Y-83567638D01*
X75770623Y-83662876D01*
X75675385Y-83710495D01*
%TO.C,C2*%
X74058333Y-37930142D02*
X74010714Y-37977761D01*
X73867857Y-38025380D01*
X73772619Y-38025380D01*
X73629761Y-37977761D01*
X73534523Y-37882523D01*
X73486904Y-37787285D01*
X73439285Y-37596809D01*
X73439285Y-37453952D01*
X73486904Y-37263476D01*
X73534523Y-37168238D01*
X73629761Y-37073000D01*
X73772619Y-37025380D01*
X73867857Y-37025380D01*
X74010714Y-37073000D01*
X74058333Y-37120619D01*
X74439285Y-37120619D02*
X74486904Y-37073000D01*
X74582142Y-37025380D01*
X74820238Y-37025380D01*
X74915476Y-37073000D01*
X74963095Y-37120619D01*
X75010714Y-37215857D01*
X75010714Y-37311095D01*
X74963095Y-37453952D01*
X74391666Y-38025380D01*
X75010714Y-38025380D01*
%TO.C,C1*%
X92933333Y-132757142D02*
X92885714Y-132804761D01*
X92742857Y-132852380D01*
X92647619Y-132852380D01*
X92504761Y-132804761D01*
X92409523Y-132709523D01*
X92361904Y-132614285D01*
X92314285Y-132423809D01*
X92314285Y-132280952D01*
X92361904Y-132090476D01*
X92409523Y-131995238D01*
X92504761Y-131900000D01*
X92647619Y-131852380D01*
X92742857Y-131852380D01*
X92885714Y-131900000D01*
X92933333Y-131947619D01*
X93885714Y-132852380D02*
X93314285Y-132852380D01*
X93600000Y-132852380D02*
X93600000Y-131852380D01*
X93504761Y-131995238D01*
X93409523Y-132090476D01*
X93314285Y-132138095D01*
%TO.C,U7*%
X46822095Y-43100080D02*
X46822095Y-43909604D01*
X46869714Y-44004842D01*
X46917333Y-44052461D01*
X47012571Y-44100080D01*
X47203047Y-44100080D01*
X47298285Y-44052461D01*
X47345904Y-44004842D01*
X47393523Y-43909604D01*
X47393523Y-43100080D01*
X47774476Y-43100080D02*
X48441142Y-43100080D01*
X48012571Y-44100080D01*
%TO.C,U5*%
X63695095Y-43105380D02*
X63695095Y-43914904D01*
X63742714Y-44010142D01*
X63790333Y-44057761D01*
X63885571Y-44105380D01*
X64076047Y-44105380D01*
X64171285Y-44057761D01*
X64218904Y-44010142D01*
X64266523Y-43914904D01*
X64266523Y-43105380D01*
X65218904Y-43105380D02*
X64742714Y-43105380D01*
X64695095Y-43581571D01*
X64742714Y-43533952D01*
X64837952Y-43486333D01*
X65076047Y-43486333D01*
X65171285Y-43533952D01*
X65218904Y-43581571D01*
X65266523Y-43676809D01*
X65266523Y-43914904D01*
X65218904Y-44010142D01*
X65171285Y-44057761D01*
X65076047Y-44105380D01*
X64837952Y-44105380D01*
X64742714Y-44057761D01*
X64695095Y-44010142D01*
%TO.C,U4*%
X87463380Y-108076504D02*
X88272904Y-108076504D01*
X88368142Y-108028885D01*
X88415761Y-107981266D01*
X88463380Y-107886028D01*
X88463380Y-107695552D01*
X88415761Y-107600314D01*
X88368142Y-107552695D01*
X88272904Y-107505076D01*
X87463380Y-107505076D01*
X87796714Y-106600314D02*
X88463380Y-106600314D01*
X87415761Y-106838409D02*
X88130047Y-107076504D01*
X88130047Y-106457457D01*
%TO.C,U3*%
X87564980Y-127588904D02*
X88374504Y-127588904D01*
X88469742Y-127541285D01*
X88517361Y-127493666D01*
X88564980Y-127398428D01*
X88564980Y-127207952D01*
X88517361Y-127112714D01*
X88469742Y-127065095D01*
X88374504Y-127017476D01*
X87564980Y-127017476D01*
X87564980Y-126636523D02*
X87564980Y-126017476D01*
X87945933Y-126350809D01*
X87945933Y-126207952D01*
X87993552Y-126112714D01*
X88041171Y-126065095D01*
X88136409Y-126017476D01*
X88374504Y-126017476D01*
X88469742Y-126065095D01*
X88517361Y-126112714D01*
X88564980Y-126207952D01*
X88564980Y-126493666D01*
X88517361Y-126588904D01*
X88469742Y-126636523D01*
%TO.C,U2*%
X87590380Y-89103104D02*
X88399904Y-89103104D01*
X88495142Y-89055485D01*
X88542761Y-89007866D01*
X88590380Y-88912628D01*
X88590380Y-88722152D01*
X88542761Y-88626914D01*
X88495142Y-88579295D01*
X88399904Y-88531676D01*
X87590380Y-88531676D01*
X87685619Y-88103104D02*
X87638000Y-88055485D01*
X87590380Y-87960247D01*
X87590380Y-87722152D01*
X87638000Y-87626914D01*
X87685619Y-87579295D01*
X87780857Y-87531676D01*
X87876095Y-87531676D01*
X88018952Y-87579295D01*
X88590380Y-88150723D01*
X88590380Y-87531676D01*
%TD*%
M02*
